<?xml version="1.0" encoding="UTF-8" standalone="no"?>
<!-- Generator: Adobe Illustrator 23.1.1, SVG Export Plug-In . SVG Version: 6.00 Build 0)  -->

<svg
   version="1.1"
   id="Ebene_1"
   x="0px"
   y="0px"
   viewBox="0 0 374.82 66.03"
   style="enable-background:new 0 0 374.82 66.03;"
   xml:space="preserve"
   sodipodi:docname="landstadtmobil-logo-path.svg"
   inkscape:version="1.1 (c4e8f9e, 2021-05-24)"
   xmlns:inkscape="http://www.inkscape.org/namespaces/inkscape"
   xmlns:sodipodi="http://sodipodi.sourceforge.net/DTD/sodipodi-0.dtd"
   xmlns="http://www.w3.org/2000/svg"
   xmlns:svg="http://www.w3.org/2000/svg"><defs
   id="defs41" /><sodipodi:namedview
   id="namedview39"
   pagecolor="#ffffff"
   bordercolor="#666666"
   borderopacity="1.0"
   inkscape:pageshadow="2"
   inkscape:pageopacity="0.0"
   inkscape:pagecheckerboard="0"
   showgrid="false"
   inkscape:zoom="3.2228803"
   inkscape:cx="173.60248"
   inkscape:cy="56.626366"
   inkscape:window-width="1661"
   inkscape:window-height="997"
   inkscape:window-x="0"
   inkscape:window-y="25"
   inkscape:window-maximized="0"
   inkscape:current-layer="g36" />
<style
   type="text/css"
   id="style2">
	.st0{fill:#FFFFFF;fill-opacity:0.7;}
	.st1{fill:#FFFFFF;}
	.st2{fill:none;stroke:#FFFFFF;stroke-width:0.6709;}
</style>
<g
   id="g36">
	<path
   class="st0"
   d="M16.86,37.4c0.81-5.17,5.02-9.22,10.28-9.75l0.32-4.62c-7.84,0.41-14.19,6.39-15.2,14.05L16.86,37.4   L16.86,37.4z"
   id="path4" />
	
	<path
   class="st1"
   d="M44.51,53.12V39.18v-0.01c0-7.79-5.53-14.31-12.88-15.86l-0.34,4.61c4.98,1.33,8.66,5.86,8.66,11.25l0,0v11.65   H28.29c-5.6,0-10.29-3.97-11.4-9.25l-4.66-0.31c1.04,7.95,7.84,14.11,16.06,14.11h13.94C43.49,55.39,44.51,54.37,44.51,53.12"
   id="path8" />
	<path
   class="st0"
   d="M7.46,36.75c1.2-10.26,9.82-18.27,20.33-18.53l0.32-4.59c-13.1,0.1-23.85,10.05-25.23,22.81L7.46,36.75   L7.46,36.75z"
   id="path10" />
	
	<g
   id="g34"
   transform="translate(76)">
		<line
   class="st2"
   x1="222.03999"
   y1="2.29"
   x2="222.03999"
   y2="64.650002"
   id="line32" />
	</g>
<g
   aria-label="landstadtmobil"
   id="text3904"
   style="font-size:35.3877px;line-height:1.25;fill:#ffffff;stroke-width:0.884693"><path
     d="M 55.270223,55.901398 V 30.103765 l -4.883503,2.441751 v 23.355882 z"
     style="font-weight:bold;font-family:Interstate;-inkscape-font-specification:'Interstate, Bold'"
     id="path968" /><path
     d="m 75.27312,55.901398 v -12.45647 c 0,-4.175749 -3.043342,-6.511337 -7.53758,-6.511337 -3.007955,0 -4.812727,0.636979 -6.971377,1.875548 l 1.875548,3.397219 c 1.69861,-0.92008 2.866404,-1.238569 5.095829,-1.238569 1.769385,0 2.654077,1.061631 2.654077,2.370976 v 0.92008 c -0.778529,-0.389265 -1.875548,-0.743142 -3.574157,-0.743142 -4.211137,0 -7.53758,2.052487 -7.53758,6.15746 0,4.494237 3.467994,6.617499 6.935989,6.617499 1.733997,0 3.291056,-0.707754 4.175748,-1.627834 v 1.23857 z m -4.883503,-5.449706 c -0.530815,0.884693 -1.804772,1.69861 -3.397219,1.69861 -2.087874,0 -2.831016,-1.167794 -2.831016,-2.477139 0,-1.486284 0.990856,-2.335588 2.831016,-2.335588 1.733997,0 2.547915,0.247713 3.397219,0.778529 z"
     style="font-weight:bold;font-family:Interstate;-inkscape-font-specification:'Interstate, Bold'"
     id="path970" /><path
     d="M 95.962205,55.901398 V 45.426639 c 0,-5.23738 -2.123262,-8.493048 -6.865213,-8.493048 -1.946324,0 -3.503383,0.743142 -4.352687,1.627834 v -1.238569 h -4.883503 v 18.578542 h 4.883503 v -10.15627 c 0,-3.220281 1.167794,-4.211136 3.184892,-4.211136 2.017099,0 3.149506,0.990855 3.149506,4.317299 v 10.050107 z"
     style="font-weight:bold;font-family:Interstate;-inkscape-font-specification:'Interstate, Bold'"
     id="path972" /><path
     d="M 115.60182,55.901398 V 30.103765 l -4.8835,2.441751 v 5.838971 c -0.88469,-0.813917 -2.3002,-1.450896 -3.92803,-1.450896 -4.6004,0 -7.219093,3.892647 -7.219093,9.448516 0,6.935989 3.255673,9.908555 7.219093,9.908555 1.76938,0 3.00795,-0.743141 3.92803,-1.557058 v 1.167794 z m -4.8835,-5.768195 c -0.70775,0.92008 -1.48628,1.557059 -3.00795,1.557059 -1.91094,0 -3.18489,-1.592447 -3.18489,-5.414318 0,-3.114118 1.02624,-4.741952 2.90179,-4.741952 1.4155,0 2.54791,0.566203 3.29105,1.592446 z"
     style="font-weight:bold;font-family:Interstate;-inkscape-font-specification:'Interstate, Bold'"
     id="path974" /><path
     d="m 135.11814,50.48708 c 0,-3.715709 -2.8664,-4.91889 -6.19284,-6.015909 -3.29106,-1.061631 -3.85726,-1.38012 -3.85726,-2.15865 0,-0.813917 0.53081,-1.203182 2.51252,-1.203182 1.55706,0 3.57416,0.495428 5.41432,1.486284 l 1.55706,-3.857259 c -1.98171,-1.097019 -4.52963,-1.804773 -6.86521,-1.804773 -4.35269,0 -7.43142,1.663222 -7.43142,5.520481 0,3.928035 2.8664,5.025053 7.32525,6.369786 2.05249,0.601591 2.72486,1.026243 2.72486,1.875548 0,0.955468 -0.56621,1.415508 -2.47714,1.415508 -2.37098,0 -4.45885,-0.601591 -6.44056,-1.69861 l -1.62784,3.715709 c 1.98171,1.309345 4.84812,2.158649 7.7853,2.158649 4.17574,0 7.57296,-1.521671 7.57296,-5.803582 z"
     style="font-weight:bold;font-family:Interstate;-inkscape-font-specification:'Interstate, Bold'"
     id="path976" /><path
     d="m 150.17008,50.203978 c -1.20318,1.026243 -1.87555,1.415508 -2.76024,1.415508 -1.16779,0 -1.80477,-0.46004 -1.80477,-2.229425 v -7.466804 h 4.45885 v -4.600401 h -4.45885 v -7.219091 l -4.8835,2.441751 v 4.77734 h -3.11412 v 4.600401 h 3.11412 v 8.776149 c 0,3.255668 1.94632,5.591256 4.95427,5.591256 1.52167,0 2.97257,-0.495427 3.78649,-1.132406 z"
     style="font-weight:bold;font-family:Interstate;-inkscape-font-specification:'Interstate, Bold'"
     id="path978" /><path
     d="m 169.27169,55.901398 v -12.45647 c 0,-4.175749 -3.04334,-6.511337 -7.53758,-6.511337 -3.00795,0 -4.81272,0.636979 -6.97137,1.875548 l 1.87554,3.397219 c 1.69861,-0.92008 2.86641,-1.238569 5.09583,-1.238569 1.76939,0 2.65408,1.061631 2.65408,2.370976 v 0.92008 c -0.77853,-0.389265 -1.87555,-0.743142 -3.57416,-0.743142 -4.21113,0 -7.53758,2.052487 -7.53758,6.15746 0,4.494237 3.468,6.617499 6.93599,6.617499 1.734,0 3.29106,-0.707754 4.17575,-1.627834 v 1.23857 z m -4.8835,-5.449706 c -0.53082,0.884693 -1.80477,1.69861 -3.39722,1.69861 -2.08787,0 -2.83102,-1.167794 -2.83102,-2.477139 0,-1.486284 0.99086,-2.335588 2.83102,-2.335588 1.734,0 2.54791,0.247713 3.39722,0.778529 z"
     style="font-weight:bold;font-family:Interstate;-inkscape-font-specification:'Interstate, Bold'"
     id="path980" /><path
     d="M 188.93454,55.901398 V 30.103765 l -4.8835,2.441751 v 5.838971 c -0.8847,-0.813917 -2.3002,-1.450896 -3.92804,-1.450896 -4.6004,0 -7.21909,3.892647 -7.21909,9.448516 0,6.935989 3.25567,9.908555 7.21909,9.908555 1.76939,0 3.00796,-0.743141 3.92804,-1.557058 v 1.167794 z m -4.8835,-5.768195 c -0.70776,0.92008 -1.48629,1.557059 -3.00796,1.557059 -1.91093,0 -3.18489,-1.592447 -3.18489,-5.414318 0,-3.114118 1.02624,-4.741952 2.90179,-4.741952 1.41551,0 2.54791,0.566203 3.29106,1.592446 z"
     style="font-weight:bold;font-family:Interstate;-inkscape-font-specification:'Interstate, Bold'"
     id="path982" /><path
     d="m 204.84131,50.203978 c -1.20318,1.026243 -1.87555,1.415508 -2.76024,1.415508 -1.1678,0 -1.80478,-0.46004 -1.80478,-2.229425 v -7.466804 h 4.45885 v -4.600401 h -4.45885 v -7.219091 l -4.8835,2.441751 v 4.77734 h -3.11412 v 4.600401 h 3.11412 v 8.776149 c 0,3.255668 1.94633,5.591256 4.95428,5.591256 1.52167,0 2.97257,-0.495427 3.78648,-1.132406 z"
     style="font-weight:bold;font-family:Interstate;-inkscape-font-specification:'Interstate, Bold'"
     id="path984" /><path
     d="M 234.19208,55.901398 V 44.577334 c 0,-5.414318 -2.37097,-7.643743 -6.15746,-7.643743 -3.00795,0 -4.52962,1.415508 -5.62664,3.184893 -0.8847,-1.769385 -2.47714,-3.184893 -5.09583,-3.184893 -2.19404,0 -3.7511,1.061631 -4.70657,2.654077 v -2.264812 h -2.65407 v 18.578542 h 2.65407 V 45.037374 c 0,-4.104973 1.59245,-5.803583 4.14037,-5.803583 2.5833,0 3.99881,1.557059 3.99881,5.803583 v 10.864024 h 2.65407 V 45.037374 c 0,-4.104973 1.62784,-5.803583 4.14036,-5.803583 2.68947,0 3.99881,1.557059 3.99881,5.803583 v 10.864024 z"
     style="font-weight:normal;font-family:'Interstate Light';-inkscape-font-specification:'Interstate Light, Normal'"
     id="path986" /><path
     d="m 255.09405,46.48827 c 0,-6.299011 -3.46799,-9.554679 -7.99762,-9.554679 -4.52962,0 -8.13917,3.397219 -8.13917,9.69623 0,6.29901 3.468,9.660841 7.99762,9.660841 4.52963,0 8.13917,-3.503382 8.13917,-9.802392 z m -2.65407,0.07077 c 0,4.883503 -2.19404,7.431417 -5.41432,7.431417 -3.22028,0 -5.37893,-2.547914 -5.37893,-7.431417 0,-4.883502 2.15865,-7.325254 5.37893,-7.325254 3.22028,0 5.41432,2.441752 5.41432,7.325254 z"
     style="font-weight:normal;font-family:'Interstate Light';-inkscape-font-specification:'Interstate Light, Normal'"
     id="path988" /><path
     d="m 274.89015,46.311331 c 0,-6.546724 -2.93718,-9.37774 -6.65289,-9.37774 -2.51253,0 -4.28191,1.238569 -5.59126,2.654077 v -9.483903 l -2.65407,1.486283 v 24.31135 h 2.65407 v -2.087875 c 1.30935,1.486284 2.9018,2.477139 5.23738,2.477139 3.89265,0 7.00677,-3.397219 7.00677,-9.979331 z m -2.61869,0.03539 c 0,4.989666 -1.52167,7.643743 -4.6004,7.643743 -2.19404,0 -3.99881,-1.23857 -5.02506,-2.795628 v -9.271577 c 1.30935,-1.627835 2.93718,-2.689466 4.9189,-2.689466 2.93717,0 4.70656,2.441752 4.70656,7.112928 z"
     style="font-weight:normal;font-family:'Interstate Light';-inkscape-font-specification:'Interstate Light, Normal'"
     id="path990" /><path
     d="m 283.1565,32.120864 c 0,-1.061631 -0.84931,-1.910936 -1.84016,-1.910936 -1.09702,0 -1.94633,0.849305 -1.94633,1.910936 0,1.026243 0.84931,1.875548 1.94633,1.875548 0.99085,0 1.84016,-0.849305 1.84016,-1.875548 z m -0.56621,23.780534 V 37.322856 h -2.65407 v 18.578542 z"
     style="font-weight:normal;font-family:'Interstate Light';-inkscape-font-specification:'Interstate Light, Normal'"
     id="path992" /><path
     d="M 291.50634,55.901398 V 30.103765 l -2.65408,1.486283 v 24.31135 z"
     style="font-weight:normal;font-family:'Interstate Light';-inkscape-font-specification:'Interstate Light, Normal'"
     id="path994" /></g></g>
</svg>
