<svg width="110" height="30" viewBox="0 0 110 30" fill="none" xmlns="http://www.w3.org/2000/svg">
<path fill-rule="evenodd" clip-rule="evenodd" d="M104.208 0.985492C103.566 1.64673 103.248 2.45419 103.248 3.41425C103.248 4.37431 103.566 5.18178 104.208 5.82394C104.85 6.4661 105.651 6.79036 106.605 6.79036C107.565 6.79036 108.366 6.4661 109.021 5.82394C109.676 5.18178 110 4.37431 110 3.41425C110 2.45419 109.676 1.64673 109.021 0.985492C108.366 0.330617 107.559 0 106.605 0C105.645 0 104.85 0.330617 104.208 0.985492ZM45.6505 1.36697V8.50703V13.0975V19.2521C45.6505 25.1332 51.0167 25.8835 53.7888 25.8835C54.7361 25.8835 55.3783 25.7818 55.3783 25.7818V20.6826C55.3783 20.6826 55.0731 20.7144 54.6026 20.7144C53.49 20.7144 51.4936 20.441 51.4936 18.47V12.7733H55.3847V8.18277H51.4936V1.36697H45.6505ZM5.61413 8.18276H0V25.6864H5.84937V18.4446C5.84937 17.7007 5.88752 16.9187 6.02104 16.2702C6.42795 14.4009 7.3753 13.1102 9.20005 13.1102C10.3191 13.1102 10.5543 14.0321 10.5543 15.3228V25.6927H16.4037V18.451C16.4037 17.7389 16.4037 17.0204 16.5372 16.41C16.906 14.4708 17.8914 13.1102 19.748 13.1102C20.867 13.1102 21.1022 14.0321 21.1022 15.3228V25.6991H26.9516V14.3373C26.9516 9.51159 24.4847 7.77585 21.3057 7.77585C18.7053 7.77585 16.6453 9.26998 15.7297 10.7323H15.6598C14.7442 8.76134 12.9894 7.77585 10.7895 7.77585C8.04924 7.77585 6.42795 9.57517 5.61413 10.8023H5.54419C5.54419 10.8023 5.61413 10.2936 5.61413 9.71504V8.18276ZM84.9757 23.1261C84.9477 23.1788 84.9221 23.2271 84.8986 23.2703L84.8671 23.3272L84.867 23.3274L84.8666 23.328C84.8165 23.4187 84.7699 23.5031 84.7015 23.6137L84.6919 23.6298C84.515 23.928 83.2191 26.1124 79.8122 26.1124C76.5632 26.1124 73.8929 23.9379 73.8929 20.4664C73.8929 15.3673 81.2999 14.7887 84.0021 14.7887H84.2373V14.4835C84.2373 13.0212 83.1247 12.5443 81.6687 12.5443C79.4752 12.5443 76.9701 14.2102 76.9701 14.2102L74.9419 10.0584C74.9419 10.0584 77.9556 7.7822 82.2473 7.7822C87.1493 7.7822 90.093 10.4653 90.093 14.9222V19.9705C90.0731 19.9705 90.0549 19.9688 90.0375 19.9671C90.0298 19.9664 90.0222 19.9657 90.0147 19.9651C90.0068 19.9645 89.9991 19.9642 89.9913 19.9642C88.4018 19.9642 87.0794 20.5109 86.0112 21.6045C85.5128 22.1141 85.1821 22.7372 84.9757 23.1261ZM81.4334 21.6172C82.953 21.6172 84.3073 19.9514 84.3073 18.5209H84.3009V18.1458H83.7605C81.9039 18.1458 79.774 18.6926 79.774 20.1549C79.774 20.9687 80.2826 21.6172 81.4334 21.6172ZM38.1226 14.7824H38.3579V14.4772C38.3579 13.0149 37.2452 12.538 35.7893 12.538C33.5894 12.538 31.0907 14.2038 31.0907 14.2038L29.0625 10.052C29.0625 10.052 32.0698 7.77585 36.3678 7.77585C41.2699 7.77585 44.2136 10.4653 44.2136 14.9159V25.6991H38.8729V24.6437C38.8729 24.0651 38.9428 23.5564 38.9428 23.5564H38.8729C38.8729 23.5564 37.5886 26.106 33.9391 26.106C30.6901 26.106 28.0198 23.9316 28.0198 20.4601C28.0134 15.361 35.4205 14.7824 38.1226 14.7824ZM35.554 21.6173C37.0736 21.6173 38.4278 19.9514 38.4278 18.5209V18.1458H37.8874C36.0245 18.1458 33.8946 18.6926 33.8946 20.1549C33.8946 20.9687 34.4032 21.6173 35.554 21.6173ZM56.8343 1.36697H62.6837V13.9622H64.3431L67.7891 8.18277H74.1472L69.0417 16.143V16.2129L74.8593 25.6991H68.1961L64.5084 18.896H62.6837V25.6991H56.8343V1.36697ZM97.9834 8.1764V7.94116C97.9834 6.44702 99.7763 6.24357 100.927 6.24357C101.468 6.24357 101.874 6.3135 101.874 6.3135V1.34154C101.874 1.34154 101.162 1.23981 100.113 1.23981C97.3094 1.23981 92.134 2.02184 92.134 7.76949V8.1764V12.7669V20.3838C94.1749 21.2167 95.6118 23.2322 95.6118 25.5847V25.6927H97.9834V12.7669H103.686V25.6927H109.536V8.1764H97.9834ZM87.0094 22.7808C86.2274 23.5882 85.8332 24.5801 85.8332 25.7563C85.8332 26.9326 86.2274 27.9181 87.0094 28.7064C87.7915 29.4948 88.7706 29.889 89.9405 29.889C91.1104 29.889 92.0958 29.4948 92.8969 28.7064C93.6981 27.9181 94.0986 26.9326 94.0986 25.7563C94.0986 24.5801 93.6981 23.5882 92.8969 22.7808C92.0958 21.9733 91.1104 21.5728 89.9405 21.5728C88.7706 21.5728 87.7978 21.9733 87.0094 22.7808Z" fill="url(#paint0_linear)"/>
<defs>
<linearGradient id="paint0_linear" x1="110" y1="15" x2="-6.93689e-07" y2="15" gradientUnits="userSpaceOnUse">
<stop stop-color="#0058B1"/>
<stop offset="0.486364" stop-color="#0496A9"/>
<stop offset="1" stop-color="#159638"/>
</linearGradient>
</defs>
</svg>
