<svg width="128" height="128" viewBox="0 0 128 128" fill="none" xmlns="http://www.w3.org/2000/svg">
<rect width="128" height="128" fill="white"/>
<path d="M24 39.2078H40.6643V43.7561C40.6643 45.4735 40.4567 46.9833 40.4567 46.9833H40.6643C43.08 43.3409 47.8924 38 56.0264 38C62.5563 38 67.765 40.9252 70.4827 46.7757H70.6903C73.4079 42.435 79.5225 38 87.2413 38C96.6775 38 104 43.1522 104 57.4763V91.2012H86.6374V60.4015C86.6374 56.5704 85.9391 53.8339 82.6176 53.8339C77.1069 53.8339 74.1816 57.8726 73.087 63.6287C72.6907 65.4404 72.6907 67.573 72.6907 69.6867V91.1824H55.3281V60.4015C55.3281 56.5704 54.6299 53.8339 51.3083 53.8339C45.892 53.8339 43.08 57.665 41.8721 63.2135C41.4758 65.1385 41.3626 67.4598 41.3626 69.6679V91.1635H24V39.2078Z" fill="url(#paint0_linear)"/>
<defs>
<linearGradient id="paint0_linear" x1="104" y1="64.6994" x2="24" y2="64.6994" gradientUnits="userSpaceOnUse">
<stop stop-color="#0058B1"/>
<stop offset="1" stop-color="#0496A9"/>
</linearGradient>
</defs>
</svg>
