<svg id="Layer_1" data-name="Layer 1" xmlns="http://www.w3.org/2000/svg" viewBox="0 0 432.58 217.78">
    <defs>
        <style>.cls-1{fill:#ffffff;}.cls-2{fill:#ffffff;}.cls-3{fill:#ffffff;}</style>
    </defs>
    <title>PAIKKU-logo-official</title>
    <path class="cls-1" d="M0,145.1H36.71q12,0,18,5.7t6,16.24q0,10.82-6.51,16.91t-19.87,6.1H22.18v26.52H0Zm22.18,30.47h5.41q6.39,0,9-2.22a7.16,7.16,0,0,0,2.59-5.68A7.92,7.92,0,0,0,36.9,162c-1.49-1.57-4.3-2.34-8.43-2.34H22.18Z"/>
    <path class="cls-1" d="M111.15,204.77H86.08l-3.49,11.8H60L86.9,145.1H111l26.86,71.47H114.72Zm-4.58-15.46-7.89-25.69-7.81,25.69Z"/>
    <path class="cls-1" d="M149.24,145.1h22.13v71.47H149.24Z"/>
    <path class="cls-1" d="M190.81,145.1h22.08v27l23.14-27H265.4l-26.08,27,27.25,44.5h-27.2l-15.07-29.4-11.41,12v17.44H190.81Z"/>
    <path class="cls-1" d="M277.47,145.1h22.09v27l23.13-27h29.37l-26.08,27,27.25,44.5H326L311,187.17l-11.4,12v17.44H277.47Z"/>
    <path class="cls-1" d="M410.54,145.1h22v42.58a35.77,35.77,0,0,1-2,12,25.78,25.78,0,0,1-6.19,9.84,24.71,24.71,0,0,1-8.85,5.92,44.56,44.56,0,0,1-15.45,2.38,96.51,96.51,0,0,1-11.38-.73,29.52,29.52,0,0,1-10.31-2.9,25.79,25.79,0,0,1-7.58-6.16,22.61,22.61,0,0,1-4.71-8.23,42.91,42.91,0,0,1-2.05-12.08V145.1h22v43.59q0,5.85,3.24,9.13t9,3.29q5.7,0,8.94-3.24t3.24-9.18Z"/>
    <polygon class="cls-1" points="145.38 70.91 145.38 30.31 180.54 10.01 215.7 30.31 215.7 70.91 180.54 91.21 145.38 70.91"/>
    <polygon class="cls-1" points="137.26 66.32 128.26 61.13 128.26 20.14 163.14 0 172.14 5.2 137.26 25.33 137.26 66.32"/>
    <polygon class="cls-2" points="286.02 70.91 286.02 30.31 250.86 10.01 215.7 30.31 215.7 70.91 250.86 91.21 286.02 70.91"/>
    <polygon class="cls-3" points="250.86 91.32 250.86 50.72 215.7 30.42 180.54 50.72 180.54 91.32 215.7 111.62 250.86 91.32"/>
    <polygon class="cls-2" points="294.13 66.32 303.13 61.13 303.13 20.14 268.25 0 259.25 5.2 294.13 25.33 294.13 66.32"/>
</svg>