<svg xmlns="http://www.w3.org/2000/svg" viewBox="0 0 32 32">
  <path d="M10.533 13.818A5.817 5.817 0 0 1 4.72 8a5.815 5.815 0 1 1 11.628 0 5.817 5.817 0 0 1-5.814 5.82m0-13.818A7.996 7.996 0 0 0 2.54 8c0 4.417 3.579 8.001 7.993 8.001a8 8 0 0 0 7.996-8.001A7.997 7.997 0 0 0 10.533 0m1.916 5.781-.601.594-.6.595V4.224c0-.92-1.423-.92-1.423 0v4.412a.5.5 0 0 0 .005.104.64.64 0 0 0 .454.58.65.65 0 0 0 .747-.14h.003l.002-.003.03-.03 2.388-2.36c.656-.645-.353-1.651-1.005-1.006m12.72 3.917a3.694 3.694 0 1 0 0-7.39 3.694 3.694 0 0 0 0 7.39m2.771 3.695a2.771 2.771 0 0 0-5.542 0v5.172h5.542zm-5.542 5.911v1.478c0 1.524.559 1.93 1.063 2.295.411.299.783.57.783 1.4v7.389h3.696V19.304z"/>
</svg>
