<svg xmlns="http://www.w3.org/2000/svg" viewBox="0 0 24 24">
  <path d="M21.024 0H3.0072C1.344 0 0 1.344 0 2.976V20.9928C0 22.656 1.344 24 3.0072 24H21.024C22.656 24 24 22.656 24 20.9928V2.976C24 1.344 22.656 0 21.024 0Z" fill="#666"/>
  <path fill-rule="evenodd" clip-rule="evenodd" d="M16.6214 4.86915C16.5044 4.75255 16.3006 4.75247 16.1837 4.86923L14.9327 6.1209V3.30944C14.9327 3.13881 14.794 3 14.6235 3C14.4529 3 14.314 3.13881 14.314 3.30944V6.1209L13.0633 4.86915C12.9462 4.75247 12.7427 4.75232 12.6251 4.86938C12.505 4.99044 12.5051 5.18688 12.6253 5.30731L14.4048 7.08645C14.432 7.11366 14.5077 7.17685 14.6235 7.17685C14.7034 7.17685 14.7762 7.14713 14.8421 7.08645C14.8571 7.07174 16.5495 5.37933 16.6215 5.30723C16.7417 5.18688 16.7418 4.99044 16.6214 4.86915ZM5.39656 20H18.5941C18.769 20 18.9106 19.8599 18.9106 19.6872V8.34085C18.9106 8.16811 18.769 8.02805 18.5941 8.02805H5.39656C5.22178 8.02805 5.08008 8.16811 5.08008 8.34085V19.6872C5.08008 19.8599 5.22178 20 5.39656 20ZM18.2777 19.3744H5.71303V8.65365H18.2777V19.3744ZM9.16822 11.7965L9.15751 11.7964C8.59697 11.7932 8.14395 11.3377 8.14395 10.7664C8.14395 10.1949 8.59697 9.7445 9.16822 9.74787C9.729 9.75099 10.1817 10.2065 10.1817 10.7779C10.1817 11.3495 9.729 11.7997 9.16822 11.7965ZM10.5272 12.6604L11.3468 14.6383C11.3576 14.6706 11.3682 14.7677 11.3682 14.7784C11.3682 15.0264 11.1958 15.1548 10.9911 15.1537C10.8076 15.1526 10.6567 15.0009 10.5919 14.8387L10.1716 13.6828L10.0419 13.682L10.7202 16.6896L10.0634 16.6859L9.84729 18.0474L9.27674 18.0442V16.6814L9.05035 16.6802V18.0429L8.4798 18.0396L8.2635 16.6756L7.50566 16.6712L8.28508 13.672L8.15543 13.6713L7.73486 14.8223C7.68098 14.9837 7.51926 15.1337 7.33612 15.1327C7.13116 15.1315 6.95872 15.0013 6.95872 14.7532C6.95872 14.7425 6.96936 14.6455 6.98023 14.6132L7.8 12.6449C7.92935 12.2682 8.13423 12.1293 8.47918 12.1313L9.16883 12.1351L9.84792 12.139C10.1928 12.1411 10.3977 12.2824 10.5272 12.6604ZM15.0114 11.8302C15.5721 11.8334 16.0251 11.3832 16.0251 10.8116C16.0251 10.2402 15.5721 9.78475 15.0114 9.78147C14.4401 9.77818 13.9873 10.2285 13.9873 10.8C13.9873 11.3714 14.4401 11.8268 15.0007 11.8302H15.0114ZM15.0114 15.3001C15.0762 15.3005 15.1193 15.3546 15.1193 15.4087V18.0771L16.0141 18.0823V14.8102L15.0114 14.8046L13.998 14.7987V18.0707L14.8928 18.0758V15.4074C14.8928 15.3533 14.936 15.2996 15.0007 15.3001H15.0114ZM16.3265 15.0872C16.358 15.2584 16.5205 15.3902 16.7037 15.3913C16.9375 15.3927 17.1027 15.1958 17.1027 15.0053C17.1027 14.9605 17.1015 14.9044 17.0811 14.8435C17.0811 14.8435 17.092 14.876 17.0813 14.8435L16.5858 12.6947C16.4565 12.3166 16.2516 12.1753 15.9066 12.1733L15.0114 12.1681L14.0839 12.1628C13.7389 12.161 13.5342 12.2998 13.4048 12.6765L12.931 14.8091C12.9105 14.8697 12.9093 14.9257 12.9093 14.9706C12.9093 15.161 13.0746 15.3597 13.3082 15.361C13.4914 15.362 13.6539 15.2322 13.6856 15.0613L13.89 13.7036L13.998 13.7043V14.6046L15.0007 14.6103H15.0114L16.0141 14.6161V13.7157L16.1222 13.7164L16.3265 15.0872ZM7.78911 5.30754C7.67228 5.42429 7.46833 5.42422 7.35134 5.30762C7.23099 5.18633 7.23115 4.98997 7.35134 4.86962C7.42329 4.79752 9.11562 3.1051 9.13072 3.0904C9.19656 3.02972 9.26937 3 9.34929 3C9.46502 3 9.5408 3.06319 9.56802 3.0904L11.3475 4.86954C11.4677 4.98997 11.4677 5.18641 11.3477 5.30746C11.2301 5.42453 11.0266 5.42437 10.9095 5.3077L9.65873 4.05594V6.86733C9.65873 7.03796 9.51984 7.17677 9.34929 7.17677C9.17881 7.17677 9.04001 7.03796 9.04001 6.86733V4.05586L7.78911 5.30754Z" fill="white"/>
</svg>
