<svg width="24" height="24" viewBox="0 0 24 24" fill="none" xmlns="http://www.w3.org/2000/svg">
<path d="M18.5135 19.9529C17.9733 20.2501 17.5068 20.5058 16.5179 20.5058C15.529 20.5058 15.0624 20.2492 14.5223 19.9529C13.9347 19.6303 13.2692 19.2637 11.9992 19.2637C10.7291 19.2637 10.0636 19.6295 9.47604 19.9529C8.93586 20.2501 8.47019 20.5058 7.48127 20.5058C6.49234 20.5058 6.02582 20.2492 5.48649 19.9529C4.89889 19.6303 4.2334 19.2637 2.96338 19.2637V20.3593C3.9523 20.3593 4.41882 20.6158 4.959 20.9122C5.5466 21.2348 6.21209 21.6014 7.48211 21.6014C8.75213 21.6014 9.41762 21.2356 10.0052 20.9122C10.5454 20.615 11.0111 20.3593 12 20.3593C12.9889 20.3593 13.4554 20.6158 13.9956 20.9122C14.5832 21.2348 15.2487 21.6014 16.5187 21.6014C17.7888 21.6014 18.4542 21.2356 19.0418 20.9122C19.582 20.615 20.0485 20.3593 21.0375 20.3593V19.2637C19.7666 19.2637 19.1011 19.6295 18.5135 19.9529Z" fill="white"/>
<path d="M2.96338 12.7104L4.1318 18.185C4.70585 18.3196 5.11225 18.5423 5.48649 18.7481C6.02667 19.0452 6.49234 19.3009 7.48127 19.3009C8.47019 19.3009 8.93671 19.0444 9.47604 18.7481C10.0636 18.4255 10.7291 18.0589 11.9992 18.0589C13.2692 18.0589 13.9347 18.4246 14.5223 18.7481C15.0624 19.0452 15.529 19.3009 16.5179 19.3009C17.5068 19.3009 17.9733 19.0444 18.5135 18.7481C18.8877 18.5423 19.2941 18.3196 19.8682 18.185L21.0366 12.7104L18.859 12.3141L18.4703 8.43549H19.5448V6.34673C19.5448 5.83195 19.1274 5.41538 18.6134 5.41538H18.1909V4.79307C18.1909 4.6212 18.0521 4.48234 17.8802 4.48234H13.4521V2.71193C13.4521 2.54005 13.3132 2.4012 13.1413 2.4012H10.8731C10.7012 2.4012 10.5623 2.54005 10.5623 2.71193V4.48319H6.1342C5.96232 4.48319 5.82346 4.62204 5.82346 4.79392V5.41623H5.40182C4.88704 5.41623 4.47047 5.83364 4.47047 6.34758V8.43634H5.62958L5.19353 12.3057L2.96338 12.7104ZM14.3292 11.4903L12 11.067L9.67078 11.4903V8.80549C9.67078 8.63361 9.80964 8.49476 9.98151 8.49476H14.0185C14.1904 8.49476 14.3292 8.63361 14.3292 8.80549V11.4903ZM15.5713 11.7164V8.80549C15.5713 8.63361 15.7102 8.49476 15.882 8.49476H16.9158C17.0758 8.49476 17.2096 8.61583 17.2249 8.77501L17.5441 12.0745L15.5713 11.7164ZM6.77598 8.77586C6.79122 8.61668 6.925 8.4956 7.08502 8.4956H8.11882C8.29069 8.4956 8.42955 8.63446 8.42955 8.80634V11.7172L6.45678 12.0762L6.77598 8.77586Z" fill="white"/>
</svg>
