<svg width="24" height="24" viewBox="0 0 24 24" xmlns="http://www.w3.org/2000/svg">
  <rect x="3.25882" y="16" width="18.0056" height="1" rx="0.5" transform="rotate(15 3.25882 16)"/>
  <path d="M6 4.5C6 4.22386 6.22386 4 6.5 4H19.5913C19.8675 4 20.0913 4.22386 20.0913 4.5V5.7C20.0913 5.86569 19.957 6 19.7913 6H6.2C6.08954 6 6 5.91046 6 5.8V4.5Z"/>
  <rect x="12.2628" y="13.6105" width="9.39423" height="0.8" transform="rotate(-70 12.2628 13.6105)"/>
  <path d="M8.08574 13H17.7628C18.039 13 18.2628 13.2239 18.2628 13.5V14.8882C18.2628 14.9618 18.2466 15.0345 18.2152 15.1012L17.0857 17.5L7.08574 15L8.08574 13Z"/>
  <rect x="6.60338" y="14" width="12" height="1.8" rx="0.9" transform="rotate(15 6.60338 14)"/>
  <path fill-rule="evenodd" clip-rule="evenodd" d="M17.0857 14.1771L20.0857 5.5657H6.23964C6.11486 5.5657 6.02055 5.67871 6.04287 5.80148L7.56571 14.1771H17.0857ZM9.58574 6C9.3096 6 9.08574 6.22386 9.08574 6.5V12.5C9.08574 12.7761 9.3096 13 9.58574 13H16.2334C16.4447 13 16.6332 12.8672 16.7043 12.6682L19.0857 6H9.58574Z"/>
</svg>