<?xml version="1.0" encoding="UTF-8"?>
<svg viewBox="0 0 32 32" version="1.1" xmlns="http://www.w3.org/2000/svg" xmlns:xlink="http://www.w3.org/1999/xlink">
    <title>icon-route</title>
    <g stroke="none" stroke-width="1" fill="none" fill-rule="evenodd">
        <path d="M26.28,14.96 C26.28,14.96 29.6,10.16 29.6,8.32 C29.6,6.48 28.12,5 26.28,5 C24.44,5 22.96,6.48 22.96,8.32 C22.96,10.16 26.28,14.96 26.28,14.96 Z M26.28,9.76 C25.48,9.76 24.8,9.12 24.8,8.28 C24.8,7.48 25.48,6.84 26.28,6.84 C27.08,6.84 27.76,7.48 27.76,8.28 C27.76,9.12 27.08,9.76 26.28,9.76 Z M8.64,25.24 C8.64,25.24 14.32,17.04 14.32,13.92 C14.32,10.8 11.8,8.28 8.64,8.28 C5.52,8.28 3,10.8 3,13.92 C3,16.5385714 6.97281888,22.7354974 8.24979637,24.6597312 L8.39765625,24.8815625 C8.551875,25.111875 8.64,25.24 8.64,25.24 Z M8.64,16.4 C7.28,16.4 6.12,15.28 6.12,13.92 C6.12,12.52 7.28,11.4 8.64,11.4 C10.04,11.4 11.16,12.52 11.16,13.92 C11.16,15.28 10.04,16.4 8.64,16.4 Z M23.88,16.48 L24.68,15.44 C23.88,14.76 22.8,14.48 21.72,14.6 C21.52,14.6 21.32,14.64 21.16,14.68 L21.44,16 C21.56,15.96 21.72,15.92 21.84,15.92 C22.6,15.84 23.24,15.96 23.88,16.48 Z M17.8,19.28 L19.12,19.16 C19.04,18.32 19.24,17.48 19.88,16.88 L18.92,16 C17.96,16.88 17.64,18.12 17.8,19.28 Z M18.84,24.16 C19.2,23.28 19.36,22.32 19.28,21.36 L17.96,21.48 C18,22.24 17.92,22.96 17.64,23.64 L18.84,24.16 Z M14.76,27.68 C15.88,27.4 16.92,26.8 17.68,25.96 L16.72,25.08 C16.12,25.72 15.32,26.2 14.44,26.4 L14.76,27.68 Z M12.6,27.84 L12.76,26.52 C12,26.4 11.24,26.12 10.6,25.64 L9.8,26.68 C10.64,27.32 11.6,27.72 12.6,27.84 Z" id="h" fill="#888888" fill-rule="nonzero"></path>
    </g>
</svg>