<svg version="1.1" viewBox="0 0 24 25" xmlns="http://www.w3.org/2000/svg">
<g fill-rule="evenodd">
<g transform="translate(-74 -330)">
<g transform="translate(60 285)">
<g transform="translate(14 47)">
<path d="m11.426 21.324-4.508-1.387 1.568-9.543 2.94 1.315v9.615zm-5.635-1.437-4.361 1.339 3.136-9.468 2.768-1.242-1.543 9.371zm18.179 2.02-3.552-10.734c-0.05-0.146-0.148-0.267-0.294-0.341l-1.103-0.486c-0.172 0.341-0.367 0.681-0.515 0.998l0.907 0.414 3.136 9.468-4.337-1.339-1.102-6.621c-0.196 0.074-0.417 0.122-0.637 0.122-0.172 0-0.343-0.023-0.49-0.073l1.103 6.597-4.534 1.388v-9.615l1.691-0.755-0.514-0.998-1.74 0.779-3.699-1.655c-0.147-0.074-0.319-0.074-0.466 0l-3.944 1.776c-0.147 0.074-0.246 0.195-0.294 0.341l-3.553 10.734c-0.073 0.196-0.024 0.415 0.123 0.561 0.146 0.146 0.367 0.195 0.563 0.146l5.562-1.704 5.561 1.704c0.098 0.024 0.221 0.024 0.343 0l5.562-1.704 5.561 1.704c0.05 0.024 0.123 0.024 0.172 0.024 0.147 0 0.294-0.048 0.391-0.17 0.099-0.146 0.172-0.365 0.099-0.561z"/>
<path d="m18 4.4866c0-1.3636-1.1171-2.4866-2.5-2.4866-1.383 0-2.5 1.123-2.5 2.4866 0 1.3904 1.117 2.5134 2.5 2.5134 1.3829 0 2.5-1.123 2.5-2.5134m2 0.17266c0 2.5836-4.5 9.3407-4.5 9.3407s-4.5-6.7571-4.5-9.3407c0-2.5615 2.0047-4.6593 4.5-4.6593s4.5 2.0978 4.5 4.6593" stroke="#fff" stroke-width="3"/>
<path d="m17.5 4.4893c0-1.0909-0.89364-1.9893-2-1.9893-1.1064 0-2 0.89842-2 1.9893 0 1.1123 0.89359 2.0107 2 2.0107 1.1064 0 2-0.89837 2-2.0107m2.5 0.16998c0 2.5836-4.5 9.3407-4.5 9.3407s-4.5-6.7571-4.5-9.3407c0-2.5615 2.0047-4.6593 4.5-4.6593s4.5 2.0978 4.5 4.6593"/>
</g>
</g>
</g>
</g>
</svg>
