<?xml version="1.0" encoding="UTF-8"?><svg id="a" xmlns="http://www.w3.org/2000/svg" viewBox="0 0 48 48"><path id="b" d="m24,22.92c2.09,0,3.79-1.68,3.79-3.77,0-1.01-.4-1.98-1.12-2.7-1.48-1.48-3.88-1.48-5.36,0-1.48,1.48-1.48,3.88,0,5.36.7.73,1.67,1.13,2.68,1.11Zm0,20.98c4.55-3.9,8.56-8.4,11.9-13.37,2.32-3.2,3.72-6.97,4.03-10.91.16-4.4-1.5-8.68-4.6-11.81-2.98-3.03-7.08-4.69-11.33-4.6-4.25-.1-8.35,1.57-11.33,4.6-3.09,3.14-4.76,7.41-4.6,11.81.32,3.95,1.74,7.73,4.09,10.91,3.35,4.95,7.33,9.44,11.84,13.38Zm0,3.61c-5.31-4.42-10.02-9.51-14.01-15.15-2.76-3.7-4.37-8.13-4.63-12.74-.23-5.23,1.82-10.31,5.62-13.91,7.29-6.93,18.74-6.93,26.03,0,3.8,3.6,5.85,8.68,5.62,13.91-.26,4.61-1.87,9.04-4.63,12.74-3.99,5.64-8.7,10.73-14.01,15.15Z" style="fill:#686869;"/></svg>