<svg width="24" height="24" viewBox="0 0 28 28"  xmlns="http://www.w3.org/2000/svg">
    <path d="M25.1997 28H2.8003C1.25347 28 0 26.7465 0 25.2006V2.8004C0 1.25351 1.25347 0 2.8003 0H25.1997C26.7465 0 28 1.25351 28 2.8004V25.2006C27.999 26.7465 26.7455 28 25.1997 28Z" />
    <path d="M21.5983 23.2784C20.9681 23.6251 20.4239 23.9234 19.2702 23.9234C18.1165 23.9234 17.5722 23.6241 16.942 23.2784C16.2565 22.902 15.4802 22.4743 13.9985 22.4743C12.5169 22.4743 11.7405 22.901 11.055 23.2784C10.4248 23.6251 9.88154 23.9234 8.72783 23.9234C7.57413 23.9234 7.02988 23.6241 6.40067 23.2784C5.71517 22.902 4.93879 22.4743 3.45715 22.4743V23.7525C4.61086 23.7525 5.15511 24.0518 5.7853 24.3975C6.47081 24.7739 7.24718 25.2016 8.72882 25.2016C10.2105 25.2016 10.9868 24.7749 11.6723 24.3975C12.3025 24.0508 12.8458 23.7525 13.9995 23.7525C15.1532 23.7525 15.6975 24.0518 16.3277 24.3975C17.0132 24.7739 17.7895 25.2016 19.2712 25.2016C20.7528 25.2016 21.5292 24.7749 22.2147 24.3975C22.8449 24.0508 23.3891 23.7525 24.5428 23.7525V22.4743C23.0602 22.4743 22.2838 22.901 21.5983 23.2784Z" fill="white"/>
    <path d="M3.45715 14.8288L4.82026 21.2158C5.48996 21.3729 5.96409 21.6327 6.40067 21.8727C7.03086 22.2194 7.57413 22.5178 8.72783 22.5178C9.88154 22.5178 10.4258 22.2185 11.055 21.8727C11.7405 21.4964 12.5169 21.0687 13.9985 21.0687C15.4802 21.0687 16.2565 21.4954 16.942 21.8727C17.5722 22.2194 18.1165 22.5178 19.2702 22.5178C20.4239 22.5178 20.9681 22.2185 21.5983 21.8727C22.0349 21.6327 22.509 21.3729 23.1787 21.2158L24.5419 14.8288L22.0013 14.3665L21.548 9.8414H22.8014V7.40452C22.8014 6.80394 22.3145 6.31794 21.7149 6.31794H21.222V5.59192C21.222 5.39139 21.06 5.2294 20.8595 5.2294H15.6935V3.16392C15.6935 2.9634 15.5315 2.8014 15.331 2.8014H12.6848C12.4843 2.8014 12.3223 2.9634 12.3223 3.16392V5.23038H7.15631C6.95579 5.23038 6.7938 5.39238 6.7938 5.5929V6.31893H6.3019C5.70134 6.31893 5.21536 6.80591 5.21536 7.40551V9.84239H6.56761L6.05891 14.3566L3.45715 14.8288ZM16.7168 13.4054L13.9995 12.9115L11.2822 13.4054V10.2731C11.2822 10.0725 11.4442 9.91055 11.6447 9.91055H16.3543C16.5548 9.91055 16.7168 10.0725 16.7168 10.2731V13.4054ZM18.1659 13.6691V10.2731C18.1659 10.0725 18.3279 9.91055 18.5284 9.91055H19.7344C19.9211 9.91055 20.0772 10.0518 20.095 10.2375L20.4673 14.0869L18.1659 13.6691ZM7.90503 10.2385C7.92281 10.0528 8.07888 9.91154 8.26556 9.91154H9.47162C9.67213 9.91154 9.83412 10.0735 9.83412 10.2741V13.6701L7.53265 14.0889L7.90503 10.2385Z" fill="white"/>
</svg>
