<svg width="12px" height="12px" viewBox="0 0 12 12" version="1.1" xmlns="http://www.w3.org/2000/svg" xmlns:xlink="http://www.w3.org/1999/xlink">
    <title>icon-arrow-search-streetname@1,5x</title>
    <g stroke="none" stroke-width="1"  fill-rule="evenodd">
        <g transform="translate(-341.000000, -259.000000)">
            <g transform="translate(10.000000, 104.000000)">
                <path d="M336.313373,168.712575 C336.696607,169.095808 337.303393,169.095808 337.718563,168.712575 C338.101796,168.297405 338.101796,167.690619 337.718563,167.307385 L332.38523,161.974052 L344.00998,161.974052 C344.552894,161.974052 345,161.526946 345,160.984032 C345,160.441118 344.552894,159.994012 344.00998,159.994012 L332.38523,159.994012 L337.718563,154.692615 C338.101796,154.309381 338.101796,153.670659 337.718563,153.287425 C337.303393,152.904192 336.696607,152.904192 336.313373,153.287425 L329.287425,160.281437 C329.255489,160.345309 329,160.600798 329,160.984032 C329,161.367265 329.255489,161.622754 329.287425,161.686627 L336.313373,168.712575 Z" id="icon-arrow-search-streetname" transform="translate(337.000000, 161.000000) rotate(45.000000) translate(-337.000000, -161.000000) "></path>
            </g>
        </g>
    </g>
</svg>