<svg viewBox="0 0 16 22" fill="none" xmlns="http://www.w3.org/2000/svg">
  <g fill="none" fill-rule="evenodd" xmlns="http://www.w3.org/2000/svg">
    <g transform="translate(-52 -298)">
      <g transform="translate(36 282)">
	<g transform="translate(16.8 16.8)">
	  <circle class="modeColor" cx="7.2" cy="7.2" r="7.6" stroke="#fff" stroke-width=".8"/>
	  <g transform="translate(2 2)">
	    <g>
	      <g>
		<mask fill="white">
		  <polygon points="0 0.019775 10.38 0.019775 10.38 10.4 0 10.4"/>
		</mask>
		<path d="m0 9.0999c0 0.71499 0.585 1.3 1.3 1.3h7.7999c0.71503 0 1.3-0.58504 1.3-1.3v-7.8c0-0.71499-0.585-1.3-1.3-1.3h-7.7999c-0.71503 0-1.3 0.58497-1.3 1.3v7.8z" fill="#666" mask="url(#a)"/>
	      </g>
	      <path d="m7.4456 5.2539h-1.4152c-0.057407 0-0.1118-0.04688-0.12096-0.10419l-0.13914-0.87106c-0.0091631-0.057306 0.030286-0.10419 0.087656-0.10419h1.1616c0.05737 0 0.1217 0.04405 0.14304 0.098005l0.34864 0.88342c0.021307 0.05388-0.0082063 0.098005-0.065614 0.098005zm-1.7947 0h-1.0975c-0.05737 0-0.10433-0.047476-0.10433-0.10556v-0.86834c0-0.058051 0.046956-0.10553 0.10433-0.10553h0.9251c0.05737 0 0.1118 0.04688 0.12096 0.10419l0.13914 0.87106c0.0091631 0.057306-0.030286 0.10419-0.087693 0.10419zm-1.3686-0.10556c0 0.058088-0.046919 0.10556-0.10433 0.10556h-1.2739c-0.057407 0-0.10433-0.047476-0.10433-0.10556v-0.86834c0-0.058051 0.046919-0.10553 0.10433-0.10553h1.2739c0.057407 0 0.10433 0.047476 0.10433 0.10553v0.86834zm-1.6494 0c0 0.058088-0.046956 0.10556-0.10429 0.10556h-0.71755c-0.057407 0-0.10433-0.047476-0.10433-0.10556v-0.86834c0-0.058051 0.046919-0.10553 0.10433-0.10553h0.71755c0.057334 0 0.10429 0.047476 0.10429 0.10553v0.86834zm7.1178 0.57757h-1.6055c-0.025649 0-0.045926-0.012139-0.058143-0.034257-0.020203-0.03638-0.67785-1.5172-0.67785-1.5172h0.11364c0.043534 0 0.10256-0.059801 0.10256-0.13353 0-0.073615-0.059026-0.13338-0.13189-0.13338h-1.6592l-0.39475-0.76285c-0.0068815-0.013368-0.02484-0.024427-0.039817-0.024427l-0.079119-2.9789e-4c-0.014941 0-0.023846 0.011878-0.019688 0.0264l0.060425 0.21135h-0.16689c-0.022705 0-0.041105 0.018692-0.041105 0.041667s0.0184 0.041593 0.041105 0.041593h0.19069l0.13332 0.46657h-4.1183c-0.0729 0-0.13196 0.059764-0.13196 0.13338 0 0.073727 0.059063 0.13353 0.16129 0.13353h0.013432l-0.15886 1.5514h-0.45201l0.16792 1.5541c0.39747 0 0.75553-0.16939 1.0083-0.44058 0.25285 0.27119 0.61095 0.44058 1.0084 0.44058 0.39736 0 0.75546-0.16939 1.0083-0.44058 0.25278 0.27119 0.61087 0.44058 1.0083 0.44058 0.3974 0 0.75557-0.16939 1.0083-0.44058 0.25285 0.27119 0.61091 0.44058 1.0084 0.44058 0.3974 0 0.75546-0.16939 1.0083-0.44058 0.15213 0.16321 0.34268 0.28917 0.5567 0.36394 0.24302-0.30269 1.1243-1.4002 1.1493-1.4313 0.019688-0.024576 0.014352-0.046098-0.013579-0.046098z" fill="#fff"/>
	    </g>
	  </g>
	</g>
	<path d="m23.2 31.2h1.6v5.6c0 0.44183-0.35817 0.8-0.8 0.8s-0.8-0.35817-0.8-0.8v-5.6z" fill="#333"/>
      </g>
    </g>
  </g>
</svg>
