<svg viewBox="0 0 16 22" version="1.1" xmlns="http://www.w3.org/2000/svg" xmlns:xlink="http://www.w3.org/1999/xlink">
  <defs>
        <polygon id="path-1" points="0 0 10.3802254 0 10.3802254 10.3802254 0 10.3802254"></polygon>
    </defs>
    <g id="Page-1" stroke="none" stroke-width="1" fill-rule="evenodd">
        <g id="icons-generic" transform="translate(-52.000000, -1032.000000)">
            <g id="icon-stop-hsl_ferry-small-copy" transform="translate(36.000000, 1016.000000)">
                <g id="stop-ball/tram-alt3" transform="translate(16.800000, 16.800000)">
                    <circle id="Oval" class="modeColor" stroke="#FFFFFF" stroke-width="0.8" cx="7.2" cy="7.2" r="7.6"></circle>
                    <g id="Group" transform="translate(2.000000, 2.000000)">
                        <g id="Lauttasatama" transform="translate(0.000000, 0.019775)">
                            <g id="Group" transform="translate(1.040000, 1.228225)" fill="#FFFFFF">
                                <path d="M3.003,0.109777781 C3.003,0.0491492692 3.05538324,0 3.12,0 L4.992,0 C5.0566308,0 5.109,0.0491492692 5.109,0.109777781 L5.109,0.878222252 L6.396,0.878222252 C6.6544764,0.878222252 6.864,1.07482109 6.864,1.31733338 L6.864,1.7564445 L6.864,3.85426278 C6.864,3.92271142 6.8112564,3.96340385 6.7468596,3.94464502 L4.1613936,3.18797751 C4.0969968,3.16922308 3.99165,3.1694602 3.92735148,3.18845614 L1.36501872,3.94730164 C1.30072488,3.9663415 1.248,3.92576763 1.248,3.85716091 L1.248,1.7564445 L1.248,1.31733338 C1.248,1.07482109 1.45753296,0.878222252 1.716,0.878222252 L3.003,0.878222252 L3.003,0.109777781 Z M1.833,1.7564445 C1.76838324,1.7564445 1.716,1.80559421 1.716,1.86622229 L1.716,2.30533341 C1.716,2.36596148 1.76838324,2.41511119 1.833,2.41511119 L2.769,2.41511119 C2.83361676,2.41511119 2.886,2.36596148 2.886,2.30533341 L2.886,1.86622229 C2.886,1.80559421 2.83361676,1.7564445 2.769,1.7564445 L1.833,1.7564445 Z M3.588,1.7564445 C3.52338324,1.7564445 3.471,1.80559421 3.471,1.86622229 L3.471,2.30533341 C3.471,2.36596148 3.52338324,2.41511119 3.588,2.41511119 L4.524,2.41511119 C4.5886308,2.41511119 4.641,2.36596148 4.641,2.30533341 L4.641,1.86622229 C4.641,1.80559421 4.5886308,1.7564445 4.524,1.7564445 L3.588,1.7564445 Z M5.226,1.86622229 C5.226,1.80559421 5.2783692,1.7564445 5.343,1.7564445 L6.279,1.7564445 C6.3436308,1.7564445 6.396,1.80559421 6.396,1.86622229 L6.396,2.30533341 C6.396,2.36596148 6.3436308,2.41511119 6.279,2.41511119 L5.343,2.41511119 C5.2783692,2.41511119 5.226,2.36596148 5.226,2.30533341 L5.226,1.86622229 Z" id="Shape"></path>
                                <path d="M4.15521435,3.75666355 L8.01798856,4.72603613 C8.08599451,4.74306179 8.12619419,4.81337321 8.10735622,4.8821201 L7.71257017,6.32686315 C7.39354158,6.38373809 7.18330449,6.50176739 6.99145469,6.60958129 C6.74800329,6.74633882 6.5377662,6.864 6.09209962,6.864 C5.64692877,6.864 5.43664661,6.74620078 5.19355575,6.61004144 L5.19274455,6.60958129 L5.1913024,6.60875301 C4.92684983,6.46053766 4.62697467,6.29244369 4.05563904,6.29244369 C3.48328038,6.29244369 3.18336467,6.46076774 2.91855156,6.60958129 C2.67510917,6.74633882 2.46524613,6.864 2.01957054,6.864 C1.5740662,6.864 1.36381108,6.74601672 1.12086894,6.60971933 L1.12058501,6.60958129 L1.11914738,6.60875301 C0.927671639,6.50144528 0.717632841,6.38369207 0.399442495,6.32690917 L0.00462940361,4.8821201 C-0.0141810701,4.81337321 0.0260587149,4.74287773 0.0940241081,4.72557597 L3.90809902,3.75704548 C3.97597878,3.73978053 4.08725347,3.73965169 4.15521435,3.75666355 Z" id="Path"></path>
                                <path d="M6.97918209,7.02393498 C6.73673033,7.1825976 6.5273565,7.3191051 6.08351988,7.3191051 C5.63968325,7.3191051 5.43026454,7.18211712 5.18785766,7.02393498 C4.92413191,6.85171237 4.62544319,6.656 4.05542125,6.656 C3.48541277,6.656 3.18672854,6.85128528 2.92300279,7.02393498 C2.68056,7.1825976 2.47155869,7.3191051 2.02771309,7.3191051 C1.58386301,7.3191051 1.3744802,7.18211712 1.13241891,7.02393498 C0.868693157,6.85171237 0.570008929,6.656 0,6.656 L0,7.2408949 C0.443846047,7.2408949 0.653228856,7.37782949 0.895671637,7.53606502 C1.15939739,7.70828763 1.45808162,7.904 2.0280901,7.904 C2.59809858,7.904 2.89678281,7.70871472 3.16050856,7.53606502 C3.40295134,7.3774024 3.61195715,7.2408949 4.05580274,7.2408949 C4.49963937,7.2408949 4.7090132,7.37782949 4.95146496,7.53606502 C5.21519071,7.70828763 5.51387943,7.904 6.08387893,7.904 C6.65392332,7.904 6.95256715,7.70871472 7.21629291,7.53606502 C7.45874466,7.3774024 7.6681185,7.2408949 8.112,7.2408949 L8.112,6.656 C7.54159656,6.656 7.24290784,6.85128528 6.97918209,7.02393498 Z" id="Path" fill-rule="nonzero"></path>
                            </g>
                        </g>
                    </g>
                </g>
                <path d="M23.2,31.2 L24.8,31.2 L24.8,36.8 C24.8,37.2418278 24.4418278,37.6 24,37.6 C23.5581722,37.6 23.2,37.2418278 23.2,36.8 L23.2,31.2 L23.2,31.2 Z" id="Rectangle" fill="#333333"></path>
            </g>
        </g>
    </g>
</svg>
