<?xml version="1.0" encoding="UTF-8"?><svg id="a" xmlns="http://www.w3.org/2000/svg" viewBox="0 0 37 48"><g id="b" transform="translate(-5 0)"><rect x="22.27" y="15.28" width="3.45" height="32.22" style="fill:#d51067;"/><g id="c"><circle cx="24" cy="14.88" r="14.38" style="fill:#fff;"/><path d="m24,29.26c-7.93,0-14.38-6.45-14.38-14.38S16.07.5,24,.5s14.38,6.45,14.38,14.38-6.45,14.38-14.38,14.38Zm0-27.61c-7.3,0-13.23,5.94-13.23,13.23s5.94,13.23,13.23,13.23,13.23-5.94,13.23-13.23S31.3,1.65,24,1.65Z" style="fill:#d51067;"/></g><g id="d"><path id="e" d="m20.3,21.86l-.96,1.53c-.16.26-.08.6.18.77.02,0,.03.02.05.03.1.05.21.08.32.08.22,0,.43-.11.55-.29l1.31-2.09h-1.12c-.11,0-.21,0-.32-.01" style="fill:#d51067;"/><path id="f" d="m26.24,21.87l1.31,2.09c.12.18.33.29.55.29.11,0,.22-.03.31-.08.28-.13.39-.47.26-.74,0-.02-.02-.04-.03-.05l-.95-1.53c-.1,0-.21.01-.32.01h-1.13Z" style="fill:#d51067;"/><rect id="g" x="23.62" y="6.06" width=".76" height="1.92" style="fill:#d51067;"/><path id="h" d="m28.56,9.31c-.03-.48-.28-.91-.69-1.16-.45-.27-.98-.38-1.5-.32h-5.24c-.11.01-.23.03-.34.05-.36.09-.69.25-.98.49h0c-.3.26-.47.63-.49,1.02-.17,3.05-.33,6.1-.5,9.15,0,.28.04.56.12.84.14.58.47,1.09.93,1.46.4.3.87.47,1.36.5l5.74-.04c.16,0,.31-.03.46-.08.22-.08.42-.18.61-.31.6-.45,1-1.12,1.11-1.86.02-.12.03-.24.02-.35l-.61-9.37Zm-8.2,9.02c-.37-.01-.65-.32-.64-.69.01-.37.32-.65.69-.64.36.01.64.31.64.67,0,.37-.32.67-.69.66Zm-.25-3.88v-3.65c0-.75.6-1.35,1.35-1.35h5.1c.75,0,1.35.6,1.35,1.35h0v3.64c0,.75-.6,1.35-1.35,1.35h-5.1c-.75,0-1.35-.6-1.35-1.35h0Zm1.6,3.78c-.19-.01-.33-.17-.32-.36.01-.19.17-.33.36-.32.18.01.32.16.32.34,0,.19-.16.34-.35.34,0,0,0,0,0,0h0Zm4.57.06c-.19-.01-.33-.17-.32-.36.01-.19.17-.33.36-.32.18.01.32.16.32.34,0,.19-.16.34-.35.34,0,0,0,0,0,0h0Zm1.37.01c-.36-.03-.62-.34-.59-.7.03-.36.34-.62.7-.59.34.03.6.31.6.65-.02.37-.33.66-.7.65h0Z" style="fill:#d51067;"/><path id="i" d="m21.72,5.1h4.56c.28,0,.52.23.52.52h0c0,.28-.23.52-.52.52h-4.56c-.28,0-.52-.23-.52-.52h0c0-.28.23-.52.52-.52Z" style="fill:#d51067;"/></g></g></svg>