<?xml version="1.0" encoding="UTF-8"?>
<svg viewBox="0 0 24 24" version="1.1" xmlns="http://www.w3.org/2000/svg" xmlns:xlink="http://www.w3.org/1999/xlink">
    <title>icon-train</title>
    <g stroke="none" stroke-width="1" fill="none" fill-rule="evenodd">
        <g>
            <g>
                <g fill="#CA4000">
                    <path d="M-8.45070423e-06,3.0096507 C-8.45070423e-06,1.39269296 1.34745634,0.045228169 2.96441408,0.045228169 L20.9304423,0.045228169 C22.6074,0.045228169 23.9547803,1.39269296 23.9547803,3.0096507 L23.9547803,20.9757634 C23.9547803,22.6525521 22.6074,24.0000169 20.9304423,24.0000169 L2.96441408,24.0000169 C1.34745634,24.0000169 -8.45070423e-06,22.6525521 -8.45070423e-06,20.9757634 L-8.45070423e-06,3.0096507 Z" id="Fill-1"></path>
                </g>
                <path d="M17.2609854,9.10639685 L17.2609854,8.60241099 C17.2609854,8.57270569 17.3213118,8.54308408 17.381553,8.54308408 L17.381553,20.64 L21.12,20.64 L21.12,2.88 L15.6028191,2.88 L12.1356279,15.0066212 L12.0753867,15.8367796 L11.9849397,15.8367796 L11.8944927,15.0066212 L8.42738667,2.88 L2.88,2.88 L2.88,20.64 L6.67877334,20.64 L6.67877334,8.54308408 C6.70889397,8.54308408 6.76913523,8.57270569 6.76913523,8.60241099 L6.76913523,9.10639685 L10.1458794,20.64 L13.8542057,20.64 L17.2609854,9.10639685 Z" id="Fill-4" fill="#FFFFFF"></path>
            </g>
        </g>
    </g>
</svg>