<?xml version="1.0" encoding="UTF-8"?><svg id="a" xmlns="http://www.w3.org/2000/svg" viewBox="0 0 48 48"><path id="b" d="m33.28,35.44l2.1-2.1-9.83-9.89v-12.43h-2.78v13.54l10.51,10.89Zm-9.28,12.06c-3.14.02-6.24-.62-9.12-1.86-5.64-2.39-10.14-6.88-12.52-12.52C-.12,27.29-.12,20.71,2.36,14.88c2.39-5.64,6.88-10.14,12.52-12.52C20.71-.12,27.29-.12,33.12,2.36c5.64,2.39,10.14,6.88,12.52,12.52,2.47,5.83,2.47,12.41,0,18.24-2.39,5.64-6.88,10.14-12.52,12.52-2.88,1.24-5.99,1.87-9.12,1.86Zm0-2.78c5.51.08,10.8-2.13,14.63-6.09,3.96-3.82,6.17-9.12,6.09-14.63.08-5.51-2.13-10.8-6.09-14.63-3.83-3.96-9.12-6.17-14.63-6.09-5.51-.08-10.8,2.13-14.63,6.09-3.96,3.82-6.17,9.12-6.09,14.63-.08,5.51,2.13,10.8,6.09,14.63,3.83,3.96,9.12,6.17,14.63,6.09Z" style="fill:#686869;"/></svg>