<svg viewBox="0 0 18 19" xmlns="http://www.w3.org/2000/svg" xmlns:xlink="http://www.w3.org/1999/xlink">
<g fill-rule="evenodd">
<g transform="translate(0 .03)">
<mask id="time-a" fill="#fff">
<path d="m17.966 18h-17.966v-17.966h17.966z"/>
</mask>
<path d="M8.982 15.55c-3.607 0-6.532-2.924-6.532-6.532s2.925-6.532 6.532-6.532c3.608 0 6.532 2.924 6.532 6.532S12.59 15.55 8.982 15.55M9 1.048c-4.375 0-7.923 3.547-7.923 7.922S4.625 16.893 9 16.893c4.376 0 7.923-3.548 7.923-7.923S13.376 1.048 9 1.048" mask="url(time-a)"/>
</g>
<path d="M11.133 6.554l-1.35 1.335V4.806c0-1.031-1.599-1.031-1.599 0V9.76c0 .04.002.079.007.117.028.347.243.567.511.654.252.113.553.098.812-.135.01-.007.017-.014.026-.022.003-.002.006-.003.007-.005l2.716-2.685c.736-.724-.395-1.854-1.13-1.13"/>
</g>
</svg>
