<svg viewBox="0 0 18 20" xmlns="http://www.w3.org/2000/svg" xmlns:xlink="http://www.w3.org/1999/xlink">
<g fill-rule="evenodd">
<path d="M12.6 2.7h4.5c.497 0 .9.403.9.9s-.403.9-.9.9h-.9v12.3c0 1.657-1.343 3-3 3H4.8c-1.657 0-3-1.343-3-3V4.5H.9c-.497 0-.9-.403-.9-.9s.403-.9.9-.9h4.5V.9c.056-.506.482-.9 1-.9h5.2c.552 0 1 .448 1 1l-.006-.101L12.6.9v1.8zm-1.8 0v-.9H7.2v.9h3.6z" fill="#888"/>
<rect x="6.3" y="7.2" width="1.8" height="9" rx=".9" fill="#FFF"/>
<rect x="9.9" y="7.2" width="1.8" height="9" rx=".9" fill="#FFF"/>
</g>
</svg>
