<svg version="1.1" viewBox="0 0 21 22" xmlns="http://www.w3.org/2000/svg">
<g fill-rule="evenodd">
<g transform="translate(-432 -313)">
<g transform="translate(30 50)">
<path d="m417.08 275c0.55228 0 1 0.44772 1 1v2.999l3 1e-3c0.55228 0 1 0.44772 1 1s-0.44772 1-1 1l-3-1e-3v3.001c0 0.55228-0.44772 1-1 1s-1-0.44772-1-1v-3.001l-3 1e-3c-0.55228 0-1-0.44772-1-1s0.44772-1 1-1l3-1e-3v-2.999c0-0.55228 0.44772-1 1-1zm-9-12c3.3135 0 6 2.6865 6 6 0 0.258-0.02175 0.51075-0.05325 0.75975-0.00975 0.075-0.0225 0.14925-0.0345 0.22425-0.0225 0.141-0.051 0.2805-0.084 0.4185-0.88575 3.9862-5.1562 8.5975-5.8282 8.5975s-4.9425-4.6112-5.8282-8.5975c-0.033-0.138-0.06075-0.2775-0.084-0.4185-0.012-0.075-0.0255-0.14925-0.0345-0.22425-0.0315-0.249-0.05325-0.50175-0.05325-0.75975 0-3.3135 2.6865-6 6-6zm0 3.375c-1.4475 0-2.625 1.1775-2.625 2.625s1.1775 2.625 2.625 2.625 2.625-1.1775 2.625-2.625-1.1775-2.625-2.625-2.625z"/>
</g>
</g>
</g>
</svg>
