<svg viewBox="0 0 283.46 283.46" enable-background="new 0 0 283.46 283.46" xmlns="http://www.w3.org/2000/svg">
	<g display="none">
	</g>
	<g>
		<g>
			<path d="M0.005,89.228c0,0-0.939-18.83,18.363-18.83h75.807V51.561c-0.471-12.239,7.062-18.83,18.834-18.83h56.973
				c13.186,0,18.363,7.534,18.363,18.363v19.305h75.335c0,0,19.776-0.943,19.776,18.83v36.258
				c-44.259,21.658-98.879,32.019-142.666,32.019c-49.439,0-98.879-8.951-140.784-31.552V89.228z M283.455,231.898
				c0,0,0.943,18.83-19.305,18.83H17.896c0,0-17.891,0.475-17.891-18.83v-89.935c35.786,18.363,86.164,30.134,140.784,30.134
				c50.849,0,106.412-13.649,142.666-31.544V231.898z M111.127,70.398h58.854V58.627c0-6.123-1.881-10.361-9.886-10.361h-38.139
				c-7.062-0.467-10.829,4.238-10.829,8.951V70.398z M156.328,133.962c0-7.534-6.123-14.124-14.124-14.124
				c-7.534,0-14.128,6.591-14.128,14.124c0,8.001,6.595,14.124,14.128,14.124C150.205,148.087,156.328,141.963,156.328,133.962z
				 M156.328,197.526c0-8.009-6.123-14.124-14.124-14.124c-7.534,0-14.128,6.116-14.128,14.124c0,7.534,6.595,14.124,14.128,14.124
				C150.205,211.65,156.328,205.059,156.328,197.526z"/>
		</g>
	</g>
</svg>