<?xml version="1.0" encoding="utf-8"?>
<!-- Generator: Adobe Illustrator 16.0.4, SVG Export Plug-In . SVG Version: 6.00 Build 0)  -->
<!DOCTYPE svg PUBLIC "-//W3C//DTD SVG 1.1//EN" "http://www.w3.org/Graphics/SVG/1.1/DTD/svg11.dtd">
<svg version="1.1" id="Layer_1" xmlns="http://www.w3.org/2000/svg" xmlns:xlink="http://www.w3.org/1999/xlink" x="0px" y="0px"
	 width="504px" height="426px" viewBox="0 0 504 426" enable-background="new 0 0 504 426" xml:space="preserve">
<g>
	<ellipse fill="#FFFFFF" cx="185.5" cy="355.5" rx="23.5" ry="40.5"/>
	<ellipse fill="#FFFFFF" cx="54.759" cy="322.287" rx="13.759" ry="23.713"/>
	<g>
		<path fill="#FFFFFF" d="M470.9,188.772c-0.143-35.564-0.41-65.494-0.77-86.55c-0.211-12.162-0.455-21.685-0.728-28.307
			c-0.52-12.548-1.057-25.523-14.001-34.539c-5.553-3.869-10.799-7.521-86.812-18.627c-22.089-3.227-76.209-10.733-101.623-10.733
			c-6.782,0-11.744,0.516-16.095,1.672C231.11,16.947,89.265,76.804,46.474,94.934c-19.37,8.033-22.619,30.295-21.206,42.348
			c0.373,7.641,1.198,50.816,1.805,82.616c0.353,18.514,0.696,36.525,0.985,49.908c0.145,6.771,0.274,12.368,0.389,16.276
			c0.06,2.118,0.115,3.777,0.163,4.907c0.021,0.484,0.049,0.96,0.087,1.431c-0.006,4.407-0.006,8.092,0.002,9.74
			c0.134,21.054,18.162,27.875,24.949,30.443c3.433,1.299,8.369,3.128,14.396,5.335c11.836,4.337,27.941,10.169,45.018,16.325
			c34.066,12.282,72.008,25.859,87.512,31.408c4.095,1.465,6.601,2.361,7.014,2.511c2.811,1.021,9.293,3.012,24.771,7.606
			l1.218,0.362l15.774,5.581c1.601,0.565,3.241,0.996,4.912,1.289c18.259,3.199,42.686,4.961,68.774,4.962c0.006,0,0.006,0,0.011,0
			c29.438,0,101.342-2.27,133.505-23.286c13.698-8.978,13.874-21.432,14.061-34.617C470.963,325.102,471.166,254.322,470.9,188.772z
			"/>
	</g>
	<g>
		<linearGradient id="SVGID_1_" gradientUnits="userSpaceOnUse" x1="121.2993" y1="393.1094" x2="427.0407" y2="28.741">
			<stop  offset="0" style="stop-color:#34B233"/>
			<stop  offset="1" style="stop-color:#005BBB"/>
		</linearGradient>
		<path fill="url(#SVGID_1_)" d="M326.594,256.642l15.513-0.59l4.042-41.388l20.701-0.15l4.16,40.44l15.485-0.589L366.428,73.347
			l-19.837-1.979L326.594,256.642z M355.694,107.262l0.199,0.015l7.645,79.136l-14.452-0.203L355.694,107.262z M277.529,158.88
			l-0.274-0.007l0.111,99.262l-21.062,0.646V63.725l20.847,1.682l0.091,81.999l0.274,0.009l23.713-80.065l21.736,1.754
			l-26.342,82.901l27.014,104.707l-22.487,0.691L277.529,158.88z M418.798,218.983c0.091,11.432-0.181,23.376,1.73,34.037
			l13.34-0.506c-1.313-7.19-1.865-39.931-1.959-50.981c-0.271-31.161-9.077-33.33-12.072-34.383l-0.004-0.483
			c8.796-3.568,11.867-19.94,11.677-41.872c-0.255-29.238-6.271-45.476-15.555-46.401l-25.854-2.578l1.161,178.315l14.24-0.54
			l-0.533-73.441l3.614,0.07C419.22,180.427,418.631,198.101,418.798,218.983z M404.772,152.554l-0.352-48.646l6.173,0.483
			c4.39,0.344,7.072,6.765,7.206,23.274c0.088,11.023-1.344,25.36-6.838,25.138L404.772,152.554z M215.025,50.129
			c-0.528,0-1.178,0.218-1.82,0.964c0.17-1.212,0.383-2.456,0.66-3.698c0.688-2.611,0.82-5.01,0.606-7.043
			c20.894-8.388,36.677-14.46,41.832-15.833c19.924-5.301,189.03,20.603,196.132,25.547c3.581,2.496,2.187,12.351-1.594,11.858
			c-14.385-1.875-172.301-26.856-194.538-20.169c-7.372,2.217-20.966,7.042-37.917,13.312c-0.121-0.58-0.198-1.161-0.391-1.736
			C217.328,51.342,216.207,50.129,215.025,50.129z M209.17,82.17c-1.113-8.005-1.373-15.834-0.968-23.316
			c0.298-5.53,0.951-10.876,1.944-15.935l0.188-0.87c0.001-0.003,0.003-0.029,0.003-0.035v0c0,0,0,0,0,0
			c0.015-0.13,0.074-0.958,0.472-0.993c0.041-0.003,0.066-0.045,0.115-0.028c0.121,0.163,0.174,0.419,0.19,0.709
			c0.058,0.976-0.337,2.396-0.359,2.492c-0.114,0.513-1.831,8.069-1.306,14.194c0.02,0.205,0.029,0.415,0.051,0.616
			c0.082,0.718,0.197,1.412,0.354,2.066c0.154,0.654,0.352,1.27,0.595,1.832c0.128,0.28,0.285,0.404,0.487,0.404
			c0.599,0,1.432-1.127,2.13-2.284c0.349-0.579,0.663-1.166,0.897-1.623s0.387-0.786,0.412-0.848
			c0.031-0.062,0.444-1.523,0.754-1.523c0.354,1.072,0.181,1.899,0.066,2.272c-0.039,0.125-0.071,0.198-0.074,0.213
			c-0.42,0.999-0.791,2.033-1.117,3.098c-0.324,1.065-0.604,2.162-0.841,3.286c-0.708,3.372-1.026,6.989-1.035,10.743
			c-0.003,1.876,0.069,3.788,0.21,5.718c0.145,1.931,0.354,3.882,0.621,5.84c0.13,0.941,0.281,1.845,0.45,2.722
			s0.353,1.726,0.546,2.557c0.542,2.31,1.18,4.437,1.922,6.256c0.426,1.043,0.88,1.999,1.357,2.861
			c0.506,0.916,1.038,1.708,1.588,2.403c0.379,0.481,0.77,0.91,1.164,1.281c0.297,0.279,0.595,0.525,0.898,0.738
			c0.453,0.32,0.914,0.564,1.376,0.729c0.464,0.165,0.929,0.25,1.395,0.25c0.543,0,1.089-0.109,1.631-0.342
			c0.54-0.233,1.074-0.591,1.595-1.088c0.687-0.645,1.297-1.272,1.867-1.956c1.14-1.368,2.116-2.96,3.193-5.369
			c0.54-1.205,1.104-2.613,1.727-4.299c0.018,0.031,0.131,0.35,0.203,0.835c0.074,0.485,0.105,1.138-0.039,1.837
			c-0.028,0.128-0.057,0.214-0.088,0.274c-0.092,0.181-0.195,0.138-0.342,0.351c-0.098,0.142-0.216,0.397-0.361,0.908
			c-0.145,0.512-0.318,1.279-0.531,2.444c-0.258,1.383-0.217,2.781-0.105,3.854c0.055,0.536,0.128,0.991,0.189,1.321
			c0.062,0.33,0.115,0.536,0.127,0.575c-0.364,0.544-0.791,1.088-1.23,1.593c-0.438,0.505-0.891,0.971-1.304,1.36
			c-0.997,0.932-2.027,1.585-3.048,1.958l5.528,0.746c0,0.035,0.005,0.155,0.007,0.343c0.005,0.376,0.004,1.027-0.047,1.82
			c-0.053,0.792-0.156,1.727-0.35,2.671c-0.293,1.416-0.796,2.854-1.654,3.868c-0.344,0.404-0.693,0.74-1.049,1.068
			c-0.889,0.82-1.824,1.593-2.847,3.257c-0.204,0.333-0.411,0.702-0.622,1.113c-1.691,3.263-0.499,8.173-0.448,8.422
			c-0.124,0.031-2.462,0.622-3.737,8.764c-0.715,4.584-0.325,6.985,0.426,8.329c0.187,0.336,0.397,0.606,0.618,0.827
			c0.221,0.222,0.454,0.395,0.685,0.537c0.462,0.285,0.923,0.445,1.287,0.625c0.179,0.084,0.404,0.173,0.668,0.264
			c1.828,0.63,5.463,1.348,7.785,1.498c0.032,0.002,0.072,0.008,0.104,0.009c2.612,0,8.875-2.051,9.2-2.144
			c0,0.07-0.079,1.153-0.448,2.871c-0.123,0.573-0.278,1.216-0.474,1.915c-0.098,0.346-0.215,0.654-0.344,0.928
			c-0.906,1.918-2.438,2.18-2.531,2.18c-1.095-0.389-2.191-0.684-3.29-0.882c-1.102-0.198-2.206-0.299-3.317-0.299
			c-5.346,0-10.75,2.331-16.023,7.241c-0.273,0.254-0.539,0.56-0.811,0.828c-5.638,5.568-10.951,14.071-15.575,25.056
			c-0.383,0.906-0.747,1.868-1.12,2.807c-0.978,2.47-1.934,5.014-2.842,7.704c-1.254,3.712-2.436,7.629-3.537,11.736
			c-0.597,2.223-1.163,4.511-1.711,6.843c-0.464,1.977-0.916,3.98-1.343,6.032c-1.274,6.115-2.364,12.581-3.276,19.315
			c-0.09,0.651-0.19,1.283-0.275,1.94c-0.012,0.102-0.264,1.739-0.903,3.234c-0.142,0.333-0.295,0.661-0.479,0.961
			c-0.5,0.793-1.334,1.616-2.059,2.254c-0.362,0.318-0.697,0.59-0.949,0.788c-0.216,0.169-0.351,0.27-0.41,0.314
			c-0.01,0.008-0.037,0.028-0.042,0.031c0-0.005,0.005-0.025,0.007-0.032c0.088-0.385,0.727-3.068,1.566-7.061
			c0.244-1.16,0.506-2.429,0.774-3.781c0.27-1.354,0.546-2.79,0.823-4.286c0.412-2.244,0.826-4.622,1.209-7.048
			c0.252-1.617,0.494-3.256,0.711-4.892c0.074-0.553,0.148-1.126,0.223-1.713c0.146-1.175,0.292-2.408,0.432-3.666
			c0.211-1.886,0.414-3.825,0.6-5.701c0.187-1.876,0.357-3.688,0.506-5.316c0.147-1.63,0.274-3.078,0.37-4.227
			c0.032-0.382,0.062-0.732,0.088-1.044c0.038-0.468,0.069-0.851,0.093-1.134c0.023-0.284,0.037-0.468,0.042-0.538
			c0.012-0.023,0.04-0.073,0.083-0.151c0.203-0.391,0.73-1.477,1.327-3.367c0.12-0.378,0.241-0.788,0.364-1.231
			c0.131-0.473,0.263-0.988,0.395-1.537c0.114-0.481,0.228-0.986,0.339-1.527c0.118-0.579,0.234-1.193,0.344-1.843
			c0.223-1.299,0.422-2.741,0.587-4.332c0.081-0.796,0.155-1.629,0.216-2.5c0.125-1.743,0.204-3.639,0.223-5.695
			c0.011-1.028,0.003-2.096-0.019-3.206c-0.029-1.395-0.111-2.75-0.232-4.054c-0.123-1.305-0.285-2.559-0.476-3.752
			c-0.171-1.075-0.368-2.083-0.571-3.05v-0.001c-0.475-2.251-1.009-4.205-1.486-5.723c-0.685-2.171-1.244-3.488-1.316-3.651
			l1.402-4.879c0.26,0.243,0.512,0.433,0.764,0.632c1.232,0.97,2.392,1.451,3.526,1.451c1.71,0,3.372-1.025,5.212-2.735
			c7.447-6.961,13.816-18.522,18.784-33.222c0.03-0.062,0.349-0.746,0.597-1.717c0.186-0.729,0.331-1.619,0.283-2.529
			c-0.017-0.304-0.054-0.61-0.119-0.913c-0.056-0.271-0.141-0.454-0.232-0.606c-0.108-0.174-0.231-0.301-0.368-0.38
			c-0.172-0.099-0.358-0.15-0.541-0.22c-0.271-0.104-0.53-0.25-0.705-0.658c-0.056-0.14-0.1-0.308-0.134-0.495
			c-0.068-0.375-0.094-0.826-0.098-1.283c-0.001-0.229,0.004-0.458,0.012-0.681c0.018-0.445,0.048-0.859,0.078-1.173
			c0.029-0.313,0.056-0.525,0.062-0.563l5.367,0.342C216.411,108.928,211.352,98.051,209.17,82.17z M450.896,82.185l1.779,169.509
			l-13.905,0.499l-1.669-171.309L450.896,82.185z M109.206,152.936l-0.202,0.05l0.959,104.245l-13.719-0.155L94.847,119.1
			l20.292-7.036l21.93,98.824l0.231-0.023l-0.779-106.215l17.013-5.899l0.986,158.985l-23.453-0.267L109.206,152.936z
			 M59.556,317.541c0.037,0.588,0.022,4.052-0.001,8.246c-0.039,7.174-2.934,12.358-5.884,10.532
			c-3.093-1.913-5.682-11.565-5.051-28.702c0.071-7.779,1.397-16.323,4.032-16.32C60.209,291.304,59.268,313.075,59.556,317.541z
			 M195.941,355.868c1.006,24.015-7.064,29.662-11.346,27.892c-9.921-4.099-13.859-17.574-12.643-43.028
			c0.133-11.554,3.703-25.021,10.678-23.842C198.061,319.496,195.662,349.215,195.941,355.868z M340.847,394.037
			c1.673-0.037,6.55-0.182,7.317-0.207c1.617-0.056,6.485-0.257,7.305-0.295c1.56-0.072,6.404-0.33,7.27-0.381
			c1.499-0.089,6.312-0.405,7.225-0.471c1.432-0.103,6.197-0.479,7.153-0.561c1.355-0.115,6.035-0.549,7.023-0.647
			c1.297-0.129,5.885-0.621,6.887-0.736c1.226-0.14,5.715-0.692,6.736-0.826c1.164-0.152,5.508-0.762,6.521-0.913
			c1.103-0.164,5.33-0.836,6.344-1.007c1.033-0.174,5.103-0.905,6.104-1.097c0.965-0.185,4.845-0.972,5.817-1.182
			c0.907-0.196,4.614-1.047,5.557-1.277c0.84-0.205,4.346-1.117,5.255-1.37c0.771-0.214,4.075-1.193,4.95-1.472
			c0.687-0.218,3.781-1.269,4.628-1.579c0.593-0.218,3.455-1.341,4.271-1.69c0.488-0.21,3.168-1.442,3.979-1.856
			c0.347-0.178,3.229-1.746,4.197-2.379c0.873-0.571,2.091-7.381,3.13-17.206c2.352-22.246,3.785-60.016-1.776-76.302
			c-0.789-2.312-2.787-3.831-5.229-3.753c0,0-185.563,6.014-185.847,6.023c-3.819-0.45-218.297-11.564-225.766-11.905l0,0h-0.002
			c-1.188-0.054-2.065,0.168-2.537,0.93c-0.236,0.381-0.402,0.856-0.392,1.582c0.046,3.352,0.032,15.16,0.023,24.854
			c-0.007,5.813-0.011,10.865-0.002,12.876c0.005,0.904,3.222,2.327,5.646,2.803l0,0c0.002,0,0.002,0,0.002,0
			c-0.08-6.935,0.604-23.547,3.867-28.033c1.414-1.945,3.254-2.92,5.236-3.092c5.943-0.515,13.154,6.2,13.934,15.636
			c0.318,3.858,1.186,12.391,1.057,24.306c-0.008,0.852,3.551,2.114,4.486,2.49c4.986,2.003,69.703,23.023,90.445,30.545v-0.001
			c0.001,0,0.001,0,0.001,0.001c0,0,0.229-21.273,2.158-32.084c1.37-7.678,5.144-14.917,11.417-18.356
			c0.086-0.046,0.178-0.081,0.264-0.126c0.442-0.233,0.889-0.458,1.357-0.652c0.133-0.055,0.273-0.092,0.407-0.144
			c0.555-0.214,1.126-0.4,1.715-0.558c1.069-0.285,2.187-0.488,3.368-0.567c23.233-1.555,23.064,30.176,23.972,36.144
			c0.26,1.694,0.941,22.611,1.11,31.291c0.041,2.173,1.115,2.57,4.109,3.658c0.029,0.011,45.646,14.802,45.646,14.802l0,0v0.001
			c1.371,0.239,4.265,0.694,4.274,0.698c0,0,0-0.004,0-0.005c1.766,0.273,5.471,0.786,5.487,0.788
			c1.821,0.242,5.717,0.704,5.782,0.711c1.858,0.211,5.917,0.62,6.035,0.631c1.872,0.18,6.097,0.537,6.292,0.553
			c1.879,0.149,6.226,0.451,6.483,0.468c1.889,0.123,6.348,0.37,6.659,0.386c1.891,0.097,6.457,0.29,6.828,0.304
			c1.879,0.071,6.54,0.209,6.975,0.22c1.843,0.047,6.594,0.13,7.111,0.137c1.811,0.023,6.595,0.05,7.165,0.051
			c1.779,0.002,6.625-0.028,7.265-0.035C335.271,394.139,340.139,394.053,340.847,394.037z M329.688,373.223
			c-0.3-0.03-0.614-0.047-0.91-0.078c-0.301-0.032-0.563-0.157-0.84-0.253c-0.183-0.063-0.387-0.079-0.557-0.167
			c-0.236-0.124-0.419-0.319-0.624-0.486c-0.16-0.132-0.351-0.228-0.489-0.383c-0.629-0.705-1.003-1.635-0.998-2.645l0.042-7.205
			c0.002-0.309,0.123-0.573,0.19-0.859c0.189-0.795,0.536-1.523,1.123-2.045c0.796-0.709,1.882-1.098,3.041-0.979
			c13.003,1.344,27.446,1.402,40.969,0.578c0.495-0.03,0.986-0.063,1.479-0.096c3.249-0.215,6.435-0.481,9.533-0.793
			c0.778-0.078,1.546-0.16,2.313-0.244c12.393-1.358,23.136-3.438,29.941-5.89c2.245-0.808,4.587,0.564,5.127,2.745
			c0.077,0.312,0.116,0.641,0.114,0.98l-0.009,1.372l-0.026,4.115c-0.005,0.923-0.359,1.773-0.928,2.46
			c-0.325,0.393-0.7,0.746-1.167,0.993c-9.303,4.923-35.96,9.303-62.348,9.776c-2.271,0.041-4.539,0.056-6.796,0.036
			C341.624,374.104,335.493,373.799,329.688,373.223z M419.992,320.502c0.379-2.73,1.428-5.712,3.499-8.774
			c1.604-2.371,3.787-4.814,7.005-6.643c1.929-1.097,4.232-1.972,7.003-2.477c6.344-1.157,12.155,3.853,12.114,10.303
			c-0.033,5.528-1.01,11.684-5.186,15.678c-1.393,1.331-3.14,2.423-5.326,3.171c-6.171,2.11-12.332,2.859-14.808,1.421
			c-2.147-1.248-4.587-5.323-4.473-10.668c0-0.022-0.002-0.043-0.002-0.065C419.835,321.816,419.9,321.165,419.992,320.502z
			 M321.489,338.087c-2.086,3.385-6.063,5.237-10.725,6.076c-0.647,0.117-1.312,0.207-1.983,0.285
			c-1.938,0.227-3.952,0.318-5.982,0.269c-0.865-0.021-6.027-0.46-7.666-0.725c-3.28-0.528-6.293-1.293-8.657-2.135
			c-0.807-0.288-2.605-1.072-2.752-1.144c-0.225-0.109-0.413-0.247-0.631-0.362c-4.807-2.543-7.796-6.526-8.508-13.818
			c-0.121-1.24-0.181-2.568-0.17-4.007c0.012-1.438,0.209-2.839,0.59-4.147c1.081-3.727,3.659-6.676,7.533-7.69
			c0.207-0.054,0.393-0.141,0.606-0.184c13.781-2.743,23.513,0.493,29.725,4.231c1.081,0.65,3.346,2.282,3.548,2.441
			c2.425,1.91,3.956,3.645,4.615,4.437c2.649,3.184,2.96,7.535,2.324,11.155C322.974,334.942,322.252,336.852,321.489,338.087z
			 M38.541,256.421l-1.643-117.226l10.631-3.687l1.346,101.053l14.258-0.819l0.256,20.994L38.541,256.421z M204.671,60.177
			c-64.974,24.369-159.962,61.385-167.146,64.121c-0.592,0.226-1.223,0.354-1.973,0.567c-0.58-2.747,0.539-10.867,2.844-11.821
			c0,0,102.272-42.861,167.943-69.415C205.437,49.027,204.879,54.569,204.671,60.177z M185.145,158.403
			c-0.723,2.517-0.566,5.687,0.4,7.956c0.115,0.311,3.049,7.334,3.241,15.974c0.278,14.326-2.742,20.076-2.772,20.138
			c-0.545,0.995-0.928,2.393-1.045,3.885c-0.119,1.429-1.182,14.388-2.283,22.656c-1.635,12.15-4.557,24.551-4.877,25.949
			c-0.23,0.963-0.299,2.001-0.291,3.036l-7.826-0.088l-0.854-164.465l21.211-7.355l0.243,64.337
			c-0.282-0.141-0.565-0.227-0.842-0.227c-1.165,0-2.281,1.212-2.901,3.325L185.145,158.403z M217.473,174.843l29.255,83.938
			l-29.151-0.33l-16.871-55.178C205.462,190.684,211.172,180.87,217.473,174.843z M70.178,127.655l12.945-4.489l1.461,133.777
			l-12.885-0.146L70.178,127.655z"/>
	</g>
</g>
</svg>
