<svg version="1.1" id="Layer_1" xmlns="http://www.w3.org/2000/svg" xmlns:xlink="http://www.w3.org/1999/xlink" x="0px" y="0px"
	 viewBox="0 0 283.46 283.46" enable-background="new 0 0 283.46 283.46" xml:space="preserve">
<linearGradient id="XMLID_14_" gradientUnits="userSpaceOnUse" x1="141.73" y1="92.7482" x2="141.73" y2="283.46">
	<stop  offset="0.25" style="stop-color:#007AC9"/>
	<stop  offset="1" style="stop-color:#007AC9;stop-opacity:0"/>
</linearGradient>
<path id="XMLID_13_" fill="url(#XMLID_14_)" d="M190.712,141.73c0-27.052-21.93-48.982-48.982-48.982
	c-27.052,0-48.982,21.93-48.982,48.982c0,0.141,0.01,0.28,0.011,0.421c-0.001,0.13-0.011,0.259-0.011,0.389
	c0,24.971,21.93,140.92,48.982,140.92c27.052,0,48.982-115.948,48.982-140.92c0-0.13-0.01-0.259-0.01-0.389
	C190.702,142.01,190.712,141.871,190.712,141.73z"/>
<g id="XMLID_2_">
	<circle id="XMLID_12_" fill="#007AC9" cx="141.73" cy="141.73" r="48.982"/>
	<path id="XMLID_9_" fill="#005C97" d="M141.73,96.204c12.16,0,23.593,4.735,32.192,13.334c8.599,8.599,13.334,20.031,13.334,32.192
		s-4.736,23.593-13.334,32.192c-8.599,8.599-20.031,13.334-32.192,13.334c-12.16,0-23.593-4.735-32.192-13.334
		c-8.599-8.599-13.334-20.031-13.334-32.192s4.735-23.593,13.334-32.192C118.137,100.94,129.57,96.204,141.73,96.204 M141.73,92.748
		c-27.052,0-48.982,21.93-48.982,48.982c0,27.052,21.93,48.982,48.982,48.982s48.982-21.93,48.982-48.982
		C190.712,114.678,168.782,92.748,141.73,92.748L141.73,92.748z"/>
	<g id="XMLID_3_">
		<path id="XMLID_4_" fill="#FFFFFF" d="M167.101,117.294v43.734c0,1.495-0.934,2.336-1.962,2.617l-2.803,0.467v5.887
			c0,0.654-0.56,1.121-1.308,1.121h-4.485c-0.561,0-1.215-0.467-1.215-1.121v-5.233c-3.551,0.467-8.691,0.654-13.737,0.654
			c-4.953,0-9.905-0.187-13.55-0.654v5.233c0,0.654-0.561,1.121-1.121,1.121h-4.485c-0.747,0-1.308-0.467-1.308-1.121v-5.887
			l-2.803-0.467c-0.934-0.28-1.962-1.215-1.962-2.617v-43.734c0-1.962,1.308-3.271,3.551-3.551
			c7.382-1.028,14.111-1.402,21.867-1.402c7.476,0,14.298,0.467,21.774,1.402C165.793,114.023,167.101,115.332,167.101,117.294z
			 M163.083,120.284c0-1.215-0.467-2.056-1.962-2.056l-38.594-0.187c-1.495,0-2.056,0.841-2.056,2.056v27.287
			c0,1.215,0.561,1.775,2.056,2.056c5.42,1.215,12.242,2.056,19.437,2.056c6.822,0,13.83-0.934,19.157-1.869
			c1.495-0.187,1.962-0.841,1.962-2.056V120.284z M126.918,157.103c0-1.215-1.121-2.336-2.429-2.336
			c-1.308,0-2.43,1.121-2.523,2.336c0,1.308,1.121,2.43,2.523,2.523C125.797,159.626,126.918,158.505,126.918,157.103z
			 M161.027,157.103c0-1.215-1.121-2.336-2.43-2.336c-1.215,0-2.336,1.121-2.429,2.336c0,1.308,1.121,2.43,2.429,2.523
			C159.906,159.626,161.027,158.505,161.027,157.103z"/>
	</g>
</g>
</svg>
