<svg version="1.1" id="Layer_1" xmlns="http://www.w3.org/2000/svg" xmlns:xlink="http://www.w3.org/1999/xlink" x="0px" y="0px"
	 viewBox="0 0 283.46 283.46" enable-background="new 0 0 283.46 283.46" xml:space="preserve">
<linearGradient id="XMLID_27_" gradientUnits="userSpaceOnUse" x1="141.73" y1="92.7482" x2="141.73" y2="283.46">
	<stop  offset="0.25" style="stop-color:#8C4799"/>
	<stop  offset="1" style="stop-color:#8C4799;stop-opacity:0"/>
</linearGradient>
<path id="XMLID_41_" fill="url(#XMLID_27_)" d="M190.712,141.73c0-27.052-21.93-48.982-48.982-48.982
	c-27.052,0-48.982,21.93-48.982,48.982c0,0.141,0.01,0.28,0.011,0.421c-0.001,0.13-0.011,0.259-0.011,0.389
	c0,24.971,21.93,140.92,48.982,140.92c27.052,0,48.982-115.948,48.982-140.92c0-0.13-0.01-0.259-0.01-0.389
	C190.702,142.01,190.712,141.871,190.712,141.73z"/>
<g id="XMLID_3_">
	<circle id="XMLID_40_" fill="#8C4799" cx="141.73" cy="141.73" r="48.981"/>
	<path id="XMLID_12_" fill="#693573" d="M141.73,96.205c12.16,0,23.593,4.735,32.191,13.334
		c8.599,8.599,13.334,20.031,13.334,32.191s-4.735,23.593-13.334,32.191c-8.599,8.599-20.031,13.334-32.191,13.334
		s-23.593-4.735-32.191-13.334c-8.599-8.599-13.334-20.031-13.334-32.191s4.735-23.593,13.334-32.191
		C118.137,100.94,129.57,96.205,141.73,96.205 M141.73,92.749c-27.052,0-48.981,21.93-48.981,48.981
		c0,27.052,21.93,48.981,48.981,48.981s48.981-21.93,48.981-48.981C190.711,114.678,168.782,92.749,141.73,92.749L141.73,92.749z"/>
	<g id="XMLID_4_">
		<path id="XMLID_5_" fill="#FFFFFF" d="M166.181,129.89v24.619c0,1.959-0.596,2.726-3.237,4.856
			c-1.874,1.533-2.726,2.215-5.707,2.215h-5.537v3.663h-19.678v-3.663h-5.622c-2.982,0-3.833-0.682-5.793-2.215
			c-2.641-2.044-3.322-2.896-3.322-4.856V129.89c0-1.533,1.022-4.174,2.3-6.985c1.534-3.237,2.811-5.793,4.089-6.9
			c1.789-1.704,10.052-3.663,18.059-3.663c8.263,0,16.356,1.959,18.23,3.663c1.278,1.107,2.47,3.663,4.004,6.9
			C165.159,125.716,166.181,128.357,166.181,129.89z M161.666,167.798c0.937,0,1.618,0.767,1.618,1.618
			c0,0.937-0.681,1.704-1.618,1.704h-39.697c-0.937,0-1.704-0.767-1.704-1.704c0-0.852,0.767-1.618,1.704-1.618h3.918v-3.578h3.237
			v3.578h25.385v-3.578h3.152v3.578H161.666z M159.792,129.123c0.341-1.448-0.682-2.556-2.13-2.556h-31.775
			c-1.448,0-2.385,1.107-2.129,2.556l4.004,16.952c0.255,1.448,1.704,2.556,3.152,2.556h21.808c1.448,0,2.897-1.107,3.152-2.556
			L159.792,129.123z M128.869,118.986v1.448c0,1.107,0.937,2.045,2.044,2.045h21.808c1.108,0,1.959-0.937,1.959-2.045v-1.448
			H128.869z M133.129,154.935c0-1.193-1.022-2.13-2.215-2.13c-1.193,0-2.044,0.937-2.044,2.13s0.852,2.044,2.044,2.044
			C132.106,156.979,133.129,156.127,133.129,154.935z M154.851,154.679c0-1.193-0.937-2.13-2.13-2.13
			c-1.193,0-2.129,0.937-2.129,2.13s0.937,2.044,2.129,2.044C153.914,156.723,154.851,155.872,154.851,154.679z"/>
	</g>
</g>
</svg>
