<svg version="1.1" id="Layer_1" xmlns="http://www.w3.org/2000/svg" xmlns:xlink="http://www.w3.org/1999/xlink" x="0px" y="0px"
	 viewBox="0 0 283.46 283.46" enable-background="new 0 0 283.46 283.46" xml:space="preserve">
<linearGradient id="XMLID_3_" gradientUnits="userSpaceOnUse" x1="141.73" y1="92.7482" x2="141.73" y2="283.46">
	<stop  offset="0.25" style="stop-color:#FF6319"/>
	<stop  offset="1" style="stop-color:#FF6319;stop-opacity:0"/>
</linearGradient>
<path id="XMLID_39_" fill="url(#XMLID_3_)" d="M190.712,141.73c0-27.052-21.93-48.982-48.982-48.982
	c-27.052,0-48.982,21.93-48.982,48.982c0,0.141,0.01,0.28,0.011,0.421c-0.001,0.13-0.011,0.259-0.011,0.389
	c0,24.971,21.93,140.92,48.982,140.92c27.052,0,48.982-115.948,48.982-140.92c0-0.13-0.01-0.259-0.01-0.389
	C190.702,142.01,190.712,141.871,190.712,141.73z"/>
<g id="XMLID_27_">
	<circle id="XMLID_38_" fill="#FF6319" cx="141.73" cy="141.73" r="48.981"/>
	<path id="XMLID_35_" fill="#BF4A13" d="M141.73,96.205c12.16,0,23.593,4.735,32.191,13.334
		c8.599,8.599,13.334,20.031,13.334,32.191s-4.735,23.593-13.334,32.191c-8.599,8.599-20.031,13.334-32.191,13.334
		s-23.593-4.735-32.191-13.334c-8.599-8.599-13.334-20.031-13.334-32.191s4.735-23.593,13.334-32.191
		C118.137,100.94,129.57,96.205,141.73,96.205 M141.73,92.749c-27.052,0-48.981,21.93-48.981,48.981s21.93,48.981,48.981,48.981
		s48.981-21.93,48.981-48.981S168.782,92.749,141.73,92.749L141.73,92.749z"/>
	<g id="XMLID_28_">
		<path id="XMLID_29_" fill="#FFFFFF" d="M168.611,121.168v37.103c0,2.65-1.704,4.543-4.165,4.922
			c-6.152,1.136-13.63,1.988-22.716,1.988c-8.992,0-16.469-0.946-22.622-1.988c-2.65-0.379-4.259-2.461-4.259-5.111v-37.103
			c0-2.745,1.704-4.638,4.259-4.922c6.152-1.136,13.63-1.988,22.622-1.988c9.086,0,16.564,0.947,22.716,1.988
			C167.002,116.34,168.611,118.423,168.611,121.168z M123.368,155.242c0-1.23-1.136-2.366-2.366-2.366
			c-1.325,0-2.461,1.136-2.555,2.366c0,1.325,1.136,2.461,2.555,2.556C122.232,157.798,123.368,156.662,123.368,155.242z
			 M162.837,148.806c1.231,0,1.893-0.852,1.893-2.177v-23.947c0-1.23-0.852-2.272-2.082-2.272h-41.93
			c-1.136,0-1.893,0.947-1.893,2.272v23.947c0,1.231,0.947,2.177,2.177,2.177H162.837z M152.142,168.872
			c0.947,0,1.893,1.041,1.893,2.082c0,0.947-0.947,1.893-1.893,1.893h-20.445c-0.947,0-1.893-0.947-1.893-1.893
			c0-1.041,0.947-2.082,1.893-2.082H152.142z M165.014,155.242c0-1.23-1.041-2.366-2.366-2.366c-1.231,0-2.366,1.136-2.461,2.366
			c0,1.325,1.041,2.461,2.461,2.556C163.973,157.798,165.014,156.662,165.014,155.242z"/>
	</g>
</g>
</svg>
