<svg version="1.1" id="Layer_1" xmlns="http://www.w3.org/2000/svg" xmlns:xlink="http://www.w3.org/1999/xlink" x="0px" y="0px"
	 viewBox="0 0 283.46 283.46" enable-background="new 0 0 283.46 283.46" xml:space="preserve">
<linearGradient id="XMLID_3_" gradientUnits="userSpaceOnUse" x1="141.9008" y1="92.7482" x2="141.9008" y2="283.46">
	<stop  offset="0.25" style="stop-color:#00985F"/>
	<stop  offset="1" style="stop-color:#00985F;stop-opacity:0"/>
</linearGradient>
<path id="XMLID_39_" fill="url(#XMLID_3_)" d="M190.883,141.73c0-27.052-21.93-48.982-48.982-48.982
	c-27.052,0-48.982,21.93-48.982,48.982c0,0.141,0.01,0.28,0.011,0.421c-0.001,0.13-0.011,0.259-0.011,0.389
	c0,24.971,21.93,140.92,48.982,140.92c27.052,0,48.982-115.948,48.982-140.92c0-0.13-0.01-0.259-0.01-0.389
	C190.873,142.01,190.883,141.871,190.883,141.73z"/>
<g id="XMLID_27_">
	<circle id="XMLID_38_" fill="#00985F" cx="141.73" cy="141.73" r="48.981"/>
	<path id="XMLID_35_" fill="#007247" d="M141.73,96.205c12.16,0,23.593,4.735,32.191,13.334
		c8.599,8.599,13.334,20.031,13.334,32.191s-4.735,23.593-13.334,32.191c-8.599,8.599-20.031,13.334-32.191,13.334
		s-23.593-4.735-32.191-13.334c-8.599-8.599-13.334-20.031-13.334-32.191s4.735-23.593,13.334-32.191
		C118.137,100.94,129.57,96.205,141.73,96.205 M141.73,92.749c-27.052,0-48.981,21.93-48.981,48.981
		c0,27.052,21.93,48.981,48.981,48.981s48.981-21.93,48.981-48.981C190.711,114.678,168.782,92.749,141.73,92.749L141.73,92.749z"/>
	<g id="XMLID_28_">
		<path id="XMLID_29_" fill="#FFFFFF" d="M159.172,122.649c0.497,1.193,0.795,2.882,0.795,4.174v35.778
			c0,1.789-1.292,2.882-2.982,3.18c-5.565,1.093-10.336,1.491-15.305,1.491c-5.168,0-9.839-0.397-15.206-1.491
			c-1.789-0.298-2.982-1.391-2.982-3.18v-35.778c0-1.292,0-2.982,0.497-4.174l1.689-4.075c0.596-1.193,1.292-1.69,2.683-2.087
			c3.975-1.093,7.255-1.491,11.33-1.59v-3.478h-7.255c-1.193,0-2.087-0.895-2.087-1.888c0-1.193,0.894-2.087,2.087-2.087h18.684
			c0.994,0,1.789,0.894,1.789,2.087c0,0.994-0.795,1.888-1.789,1.888h-7.354v3.478c3.975,0.099,7.056,0.497,11.33,1.59
			c1.193,0.298,1.888,0.894,2.385,2.087L159.172,122.649z M155.495,172.142c0.895,0,1.889,0.894,1.889,1.789
			c0,1.292-0.994,2.087-1.889,2.087h-27.529c-1.093,0-1.789-0.795-1.789-2.087c0-0.894,0.696-1.789,1.789-1.789h2.982v-2.982
			l3.677,0.497v2.485h14.212v-2.485l3.677-0.497v2.982H155.495z M131.742,156.837c0-1.391-0.994-2.485-2.385-2.485
			c-1.292,0-2.286,1.093-2.286,2.485c0,1.292,0.994,2.186,2.286,2.186C130.748,159.024,131.742,158.129,131.742,156.837z
			 M127.17,150.178c3.975,0.994,9.342,1.789,14.51,1.789c5.267,0,10.634-0.696,14.411-1.789v-24.15H127.17V150.178z
			 M156.787,156.837c0-1.391-1.093-2.485-2.485-2.485c-1.292,0-2.187,1.093-2.187,2.485c0,1.292,0.895,2.186,2.187,2.186
			C155.693,159.024,156.787,158.129,156.787,156.837z"/>
	</g>
</g>
</svg>
