<?xml version="1.0" encoding="UTF-8"?><svg id="a" xmlns="http://www.w3.org/2000/svg" viewBox="0 0 48 48"><path id="b" d="m45.24,47.46l-17.76-17.69c-1.4,1.2-3.01,2.14-4.75,2.77-1.8.66-3.71,1-5.63.99-4.42.09-8.69-1.65-11.78-4.82C2.17,25.64.42,21.4.5,17c-.07-4.38,1.67-8.59,4.82-11.64C8.39,2.2,12.63.46,17.03.54c4.4-.08,8.64,1.66,11.71,4.82,3.14,3.05,4.89,7.27,4.82,11.65,0,1.91-.33,3.81-.99,5.61-.65,1.79-1.61,3.45-2.83,4.91l17.76,17.69-2.26,2.26Zm-28.15-17.01c3.55.06,6.97-1.37,9.43-3.93,2.55-2.51,3.96-5.95,3.89-9.53.05-7.34-5.86-13.34-13.2-13.39-.04,0-.08,0-.12,0-7.34-.09-13.37,5.79-13.46,13.13,0,.09,0,.17,0,.26-.06,7.37,5.87,13.4,13.25,13.46.07,0,.14,0,.21,0Z" style="fill:#686869;"/></svg>