<?xml version="1.0" encoding="UTF-8"?><svg id="Layer_1" xmlns="http://www.w3.org/2000/svg" viewBox="0 0 48 48"><defs><style>.cls-1{fill:#fff;}.cls-2{fill:#264165;}</style></defs><g id="Component_51_2"><rect class="cls-2" x="22.27" y="15.29" width="3.45" height="32.21"/><g id="Ellipse_106-3"><circle class="cls-1" cx="24" cy="14.88" r="14.38"/><path class="cls-2" d="m24,29.26c-7.93,0-14.38-6.45-14.38-14.38S16.07.5,24,.5s14.38,6.45,14.38,14.38-6.45,14.38-14.38,14.38Zm0-27.61c-7.29,0-13.23,5.94-13.23,13.23s5.94,13.23,13.23,13.23,13.23-5.94,13.23-13.23S31.29,1.65,24,1.65Z"/></g><path id="Exclusion_2" class="cls-2" d="m28.03,23.51h-8.05c-2.54,0-4.6-2.06-4.6-4.6v-8.05c0-2.54,2.06-4.6,4.6-4.6h8.05c2.54,0,4.6,2.06,4.6,4.6v8.05c0,2.54-2.06,4.6-4.6,4.6Zm-8.1-14.38v11.5h2.56v-3.83h1.92c2.12.04,3.86-1.65,3.9-3.77s-1.65-3.86-3.77-3.9c-.04,0-.09,0-.13,0h-4.47Zm4.6,5.11h-2.05v-2.56h2.05c.71,0,1.28.57,1.28,1.28,0,.71-.57,1.28-1.28,1.28h0Z"/></g></svg>