<?xml version="1.0" encoding="UTF-8"?><svg id="a" xmlns="http://www.w3.org/2000/svg" viewBox="0 0 48 48"><path id="b" d="m22.67,47.5v-3.8c-9.9-.59-17.79-8.49-18.38-18.38H.5v-2.64h3.8C4.89,12.78,12.79,4.88,22.68,4.29V.5h2.65v3.74c4.77.37,9.26,2.41,12.67,5.76,3.35,3.41,5.36,7.9,5.69,12.67h3.8v2.65h-3.74c-.37,4.77-2.41,9.26-5.76,12.67-3.41,3.35-7.9,5.37-12.67,5.7v3.8h-2.65Zm1.33-6.39c4.55.07,8.93-1.74,12.09-5.01,3.27-3.17,5.08-7.54,5.01-12.09.07-4.55-1.74-8.93-5.01-12.09-3.17-3.27-7.54-5.08-12.09-5.01-4.55-.07-8.93,1.74-12.09,5.01-3.27,3.17-5.08,7.54-5.01,12.09-.07,4.55,1.74,8.93,5.01,12.09,3.17,3.27,7.54,5.08,12.09,5.01Zm0-9.45c-4.19.04-7.62-3.31-7.66-7.5,0-.05,0-.11,0-.16-.04-4.19,3.31-7.62,7.5-7.66.05,0,.11,0,.16,0,4.19-.04,7.62,3.31,7.66,7.5,0,.05,0,.11,0,.16.04,4.19-3.31,7.62-7.5,7.66-.05,0-.11,0-.16,0Zm0-2.65c2.79-.02,5.03-2.3,5.01-5.09-.01-1.31-.53-2.56-1.44-3.49-1.97-1.97-5.17-1.97-7.14,0-1.97,1.97-1.97,5.17,0,7.14h0c.94.95,2.23,1.48,3.57,1.44h0Z" style="fill:#686869;"/></svg>