<?xml version="1.0" encoding="UTF-8"?><svg id="Layer_1" xmlns="http://www.w3.org/2000/svg" viewBox="0 0 48 48"><g id="Group_1097" transform="scale(0.8 0.8) translate(3 3)"><path id="Path_232" d="m14.91,41.61l-2.35,3.75c-.4.64-.2,1.49.45,1.88.04.02.08.04.11.06.24.13.5.19.77.19.54,0,1.05-.26,1.34-.71l3.21-5.13h-2.76c-.26,0-.52-.02-.78-.04"/><path id="Path_233" d="m29.5,41.65l3.21,5.13c.29.45.8.72,1.34.71.27,0,.53-.06.77-.19.68-.33.96-1.15.63-1.83-.02-.04-.04-.08-.06-.12l-2.34-3.74c-.25.02-.51.04-.78.04h-2.77Z"/><rect id="Rectangle_412" x="23.07" y="2.84" width="1.86" height="4.71"/><path id="Path_234" d="m35.18,10.83c-.06-1.17-.7-2.23-1.69-2.84-1.1-.66-2.39-.94-3.66-.79l-12.86.04c-.28,0-.55.03-.83.1-.88.21-1.7.62-2.41,1.2h-.02c-.73.64-1.16,1.55-1.2,2.51-.41,7.48-.82,14.96-1.23,22.44,0,.69.09,1.38.28,2.05.34,1.41,1.15,2.67,2.29,3.57.97.73,2.14,1.15,3.35,1.22l14.08-.1c.39,0,.78-.06,1.14-.19.53-.18,1.03-.44,1.49-.76,1.47-1.11,2.45-2.75,2.73-4.57.05-.29.07-.58.05-.87l-1.52-23.01Zm-20.13,22.13c-.9-.04-1.6-.8-1.56-1.7.04-.9.8-1.6,1.7-1.56.87.04,1.56.76,1.56,1.63-.02.92-.78,1.65-1.7,1.63Zm-.62-9.52v-8.96c0-1.83,1.48-3.32,3.32-3.32h12.51c1.83,0,3.32,1.48,3.32,3.32h0v8.96c0,1.83-1.48,3.31-3.32,3.32h-12.5c-1.83,0-3.31-1.49-3.31-3.31h0Zm3.91,9.27c-.46-.03-.8-.42-.77-.88.03-.46.42-.8.88-.77.44.03.78.39.78.83-.01.47-.41.84-.88.83h0Zm11.2.15c-.46-.03-.8-.42-.77-.88.03-.46.42-.8.88-.77.44.03.78.39.78.83-.01.47-.41.84-.88.83h0Zm3.37.02c-.88-.07-1.53-.84-1.46-1.72s.84-1.53,1.72-1.46c.83.07,1.47.76,1.47,1.59-.04.91-.81,1.63-1.72,1.59h0Z"/><rect id="Rectangle_413" x="17.13" y=".5" width="13.73" height="2.53" rx="1.17" ry="1.17"/></g></svg>