<?xml version="1.0" encoding="UTF-8"?><svg id="a" xmlns="http://www.w3.org/2000/svg" viewBox="0 0 48 48"><rect x="-26" y="11" width="100" height="26" style="fill:none;"/><path d="m3.11,39.67h41.78c1.44,0,2.61-1.17,2.61-2.61s-1.17-2.61-2.61-2.61H3.11c-1.44,0-2.61,1.17-2.61,2.61s1.17,2.61,2.61,2.61Zm0-13.06h41.78c1.44,0,2.61-1.17,2.61-2.61s-1.17-2.61-2.61-2.61H3.11c-1.44,0-2.61,1.17-2.61,2.61s1.17,2.61,2.61,2.61ZM.5,10.94c0,1.44,1.17,2.61,2.61,2.61h41.78c1.44,0,2.61-1.17,2.61-2.61s-1.17-2.61-2.61-2.61H3.11c-1.44,0-2.61,1.17-2.61,2.61Z" style="fill:#707070;"/></svg>