<?xml version="1.0" encoding="UTF-8"?><svg id="a" xmlns="http://www.w3.org/2000/svg" viewBox="0 0 48 48"><path id="b" d="m26.19,9.25c2.41,0,4.37-1.96,4.37-4.37s-1.96-4.37-4.37-4.37c-2.41,0-4.37,1.96-4.37,4.37,0,0,0,0,0,0,.01,2.41,1.96,4.36,4.37,4.36Zm-8.09,7.43l-6.12,30.82h4.59l3.93-17.49,4.59,4.37v13.12h4.37v-16.39l-4.59-4.37,1.31-6.56c3.03,3.47,7.41,5.46,12.02,5.46v-4.37c-3.85.06-7.43-1.94-9.4-5.25l-2.19-3.5c-.79-1.31-2.19-2.14-3.72-2.19-.66,0-1.09.22-1.75.22l-11.37,4.81v10.27h4.37v-7.43l3.93-1.53" style="fill:#707070;"/></svg>