<?xml version="1.0" encoding="UTF-8"?><svg id="a" xmlns="http://www.w3.org/2000/svg" viewBox="0 0 48 48"><path id="b" d="m35.43,36.92c-1.52-.07-2.69-1.37-2.62-2.88s1.37-2.69,2.88-2.62c1.47.07,2.62,1.28,2.62,2.74-.04,1.56-1.32,2.78-2.88,2.75m-21.51-12.23c-2.34.04-4.28-1.8-4.34-4.13v-8.62c.06-2.34,2-4.19,4.34-4.13h19.2c2.34-.04,4.28,1.8,4.34,4.13v8.62c-.06,2.34-2,4.18-4.34,4.13H13.92Zm15.97,8.33h-12.73c-.56.01-1.02-.41-1.04-.96-.01-.56.41-1.02.96-1.04h12.8c.56-.01,1.02.41,1.04.96.01.56-.41,1.02-.96,1.04h-.07m0,3.59h-12.73c-.56.03-1.03-.4-1.06-.94s.4-1.03.94-1.06h12.83c.56-.03,1.03.4,1.06.94s-.4,1.03-.94,1.06h-.1m-18.26.31c-1.52-.07-2.69-1.37-2.6-2.88.07-1.52,1.37-2.69,2.88-2.6,1.47.07,2.62,1.28,2.62,2.75-.04,1.56-1.32,2.78-2.88,2.75M17.16,3.28h12.73c.56-.03,1.03.4,1.06.94s-.4,1.03-.94,1.06h-12.83c-.56.03-1.03-.4-1.06-.94s.4-1.03.94-1.06h.1m23.26,15.64V5.93c-.07-3.12-2.66-5.59-5.78-5.52H12.54c-3.12-.07-5.72,2.4-5.8,5.52v12.99h-.09c-1.4-.03-2.56,1.07-2.6,2.47v4.96c.03,1.4,1.19,2.5,2.6,2.47h.09v7.33c.01,1.66.81,3.24,2.13,4.24v4.74c.03,1.29,1.1,2.31,2.38,2.28h.99c1.28.03,2.35-.99,2.38-2.28v-3.47h17.57v3.47c.03,1.29,1.1,2.31,2.4,2.28h.99c1.29.03,2.35-.99,2.38-2.28v-4.5c1.52-1,2.43-2.68,2.44-4.49v-7.33c1.38.01,2.53-1.09,2.56-2.47v-4.96c-.03-1.38-1.18-2.49-2.56-2.47" style="fill:#009ad7;"/></svg>