<?xml version="1.0" encoding="UTF-8"?><svg id="a" xmlns="http://www.w3.org/2000/svg" viewBox="0 0 48 48"><path id="b" d="m5.38,47.51V14.21c-1.5-.54-2.83-1.46-3.86-2.68C.54,10.38,0,8.93,0,7.42-.01,3.63,3.05.53,6.85.51c.02,0,.05,0,.07,0,1.83-.04,3.6.69,4.87,2.02,1.3,1.29,2.01,3.06,1.98,4.9,0,1.49-.54,2.93-1.51,4.06-1.02,1.24-2.35,2.18-3.86,2.72v30.29h13.56V.51h19.67v33.3c1.5.54,2.83,1.46,3.86,2.68.98,1.14,1.52,2.59,1.51,4.1.02,3.8-3.04,6.9-6.84,6.92-.02,0-.05,0-.07,0-1.82.02-3.57-.7-4.84-2.02-1.32-1.28-2.05-3.06-2.02-4.9,0-1.51.53-2.98,1.51-4.13,1.01-1.23,2.35-2.15,3.86-2.65V3.53h-13.56v43.98H5.38Zm1.55-36.26c1.03.02,2.01-.4,2.72-1.15.72-.73,1.12-1.72,1.11-2.74,0-1.01-.39-1.98-1.11-2.68-.71-.75-1.69-1.16-2.72-1.14-1.02,0-2,.39-2.72,1.11-.77.72-1.2,1.73-1.18,2.79,0,1.02.42,2,1.18,2.68.72.73,1.7,1.14,2.72,1.14h0Zm33.23,33.24c1.02,0,2-.42,2.68-1.18.73-.72,1.14-1.7,1.14-2.72.02-1.02-.38-2.01-1.11-2.72-.74-.74-1.74-1.14-2.79-1.11-1.01,0-1.98.39-2.68,1.11-.75.71-1.16,1.69-1.14,2.72,0,1.02.41,2.01,1.14,2.72.71.76,1.71,1.19,2.75,1.18Z" style="fill:#686869;"/></svg>