<?xml version="1.0" encoding="UTF-8"?><svg id="a" xmlns="http://www.w3.org/2000/svg" viewBox="0 0 48 48"><g id="b"><rect x="22.79" y="24.89" width="2.42" height="22.61" style="fill:#ea6529;"/><g id="c"><circle cx="24" cy="24.6" r="10.1" style="fill:#fff;"/><path d="m24,34.7c-5.57,0-10.1-4.53-10.1-10.1s4.53-10.1,10.1-10.1,10.1,4.53,10.1,10.1-4.53,10.1-10.1,10.1Zm0-19.38c-5.12,0-9.29,4.17-9.29,9.29s4.17,9.29,9.29,9.29,9.29-4.17,9.29-9.29-4.17-9.29-9.29-9.29Z" style="fill:#ea6529;"/></g><g id="d"><path id="e" d="m17.94,27.3c0-1.39,1.12-2.51,2.51-2.51h0c1.39,0,2.51,1.12,2.51,2.51h0c0,1.39-1.12,2.51-2.51,2.51h0c-1.39,0-2.51-1.12-2.51-2.51h0Zm.66,0c0,1.02.83,1.85,1.85,1.85h0c1.02,0,1.85-.83,1.85-1.85h0c0-1.02-.83-1.85-1.85-1.85h0c-1.02,0-1.85.83-1.85,1.85Z" style="fill:#ea6529;"/><path id="f" d="m26.87,20.53c0,.65-.53,1.17-1.18,1.17-.65,0-1.17-.53-1.17-1.18,0-.64.53-1.17,1.17-1.17.65,0,1.17.53,1.17,1.18,0,0,0,0,0,0Z" style="fill:#ea6529;"/><path id="g" d="m25.04,27.3c0-1.38,1.11-2.51,2.5-2.51h0c1.39,0,2.51,1.12,2.51,2.51h0c0,1.39-1.12,2.51-2.51,2.51h0c-1.38,0-2.5-1.12-2.5-2.5,0,0,0,0,0,0Zm.66,0c0,1.02.83,1.85,1.84,1.85h0c1.02,0,1.85-.83,1.85-1.85h0c0-1.02-.83-1.85-1.85-1.85h0c-1.02,0-1.84.83-1.84,1.85Z" style="fill:#ea6529;"/><path id="h" d="m22.81,27.81v-2.16l-1.58-1.57c-.12-.12-.19-.28-.19-.45h0c0-.17.07-.33.18-.45h0l1.62-1.62c.12-.12.28-.19.45-.18h0c.17,0,.33.07.45.18h0l1.16,1.16h1.62c.35,0,.63.28.63.63h0c0,.35-.28.63-.63.63h-1.89c-.17,0-.33-.07-.44-.19h0l-.9-.9-.72.72,1.32,1.31c.12.12.19.28.19.45h0v2.42c0,.35-.28.63-.63.63h0c-.35,0-.63-.28-.63-.63h0Z" style="fill:#ea6529;"/></g></g><circle id="i" cx="36.57" cy="12.02" r="10.5" style="fill:#008854; stroke:#fff; stroke-width:1.2px;"/></svg>