<?xml version="1.0" encoding="UTF-8"?><svg id="a" xmlns="http://www.w3.org/2000/svg" viewBox="0 0 37 48"><g id="t" transform="translate(-5 0)"><circle cx="24" cy="14.88" r="14.38" style="fill:#fff;"/><path id="b" d="m28.23,20.28c-.58-.03-1.03-.52-1-1.11s.52-1.03,1.11-1c.56.03,1.01.49,1.01,1.05-.02.6-.51,1.07-1.11,1.06m-8.26-4.7c-.9.02-1.64-.69-1.67-1.59v-3.31c.02-.9.77-1.61,1.67-1.59h7.38c.9-.02,1.65.69,1.67,1.59v3.31c-.03.9-.77,1.61-1.67,1.59h-7.38Zm6.13,3.2h-4.89c-.21,0-.38-.17-.38-.38s.17-.38.38-.38h4.89c.21,0,.38.17.38.38s-.17.38-.38.38m0,1.38h-4.89c-.21.01-.39-.15-.4-.36-.01-.21.15-.39.36-.4.01,0,.03,0,.04,0h4.89c.21-.01.39.15.4.36.01.21-.15.39-.36.4-.01,0-.03,0-.04,0m-7.02.12c-.58-.03-1.03-.53-1-1.11.03-.58.53-1.03,1.11-1,.56.03,1,.49,1,1.05-.02.6-.51,1.07-1.11,1.06m2.13-12.93h4.89c.21-.01.39.15.4.36.01.21-.15.39-.36.4-.01,0-.03,0-.04,0h-4.89c-.21.01-.39-.15-.4-.36-.01-.21.15-.39.36-.4.01,0,.03,0,.04,0m8.94,6.01v-4.99c-.03-1.2-1.03-2.15-2.23-2.12h-8.49c-1.2-.03-2.2.92-2.23,2.12v4.99h-.03c-.54-.01-.99.41-1,.95v1.9c.01.54.46.96,1,.95h.03v2.82c0,.64.31,1.24.82,1.63v1.82c.01.5.42.89.92.88h.38c.5.01.91-.38.92-.88v-1.33h6.75v1.33c.01.5.42.89.92.88h.38c.5.01.91-.38.92-.87,0,0,0,0,0,0v-1.73c.58-.38.93-1.03.94-1.73v-2.81c.53,0,.97-.42.98-.95v-1.9c-.01-.53-.45-.96-.98-.95" style="fill:#0a9ad7;"/><rect x=".5" y=".5" width="47" height="47" style="fill:none;"/><rect x="21.93" y="28.73" width="3.45" height="18.77" style="fill:#0a9ad7;"/><path d="m24,29.26c-7.93,0-14.38-6.45-14.38-14.38S16.07.5,24,.5s14.38,6.45,14.38,14.38-6.45,14.38-14.38,14.38Zm0-27.61c-7.3,0-13.23,5.94-13.23,13.23s5.94,13.23,13.23,13.23,13.23-5.94,13.23-13.23S31.3,1.65,24,1.65Z" style="fill:#0a9ad7;"/></g></svg>