<?xml version="1.0" encoding="UTF-8"?><svg id="a" xmlns="http://www.w3.org/2000/svg" viewBox="0 0 48 48"><path id="b" d="m.5,42.55v-11.38c1.49-.51,2.8-1.46,3.74-2.72.97-1.28,1.48-2.85,1.45-4.45.03-1.61-.48-3.19-1.44-4.48-.93-1.27-2.25-2.22-3.75-2.69V5.45h47v11.38c-1.5.48-2.81,1.42-3.74,2.69-.97,1.29-1.48,2.87-1.45,4.48-.03,1.6.48,3.17,1.44,4.45.95,1.26,2.26,2.21,3.75,2.72v11.38H.5Zm2.78-2.78h41.43v-6.62c-1.55-1.01-2.84-2.35-3.8-3.93-1.94-3.21-1.94-7.24,0-10.45.96-1.57,2.26-2.91,3.8-3.92v-6.63H3.28v6.62c1.57.99,2.88,2.33,3.83,3.92,1.9,3.23,1.9,7.23,0,10.45-.95,1.6-2.26,2.94-3.83,3.94v6.62Zm19.29-4.39h2.84v-2.78h-2.84v2.78Zm0-9.96h2.84v-2.84h-2.84v2.84Zm0-10.02h2.84v-2.78h-2.84v2.78Z" style="fill:#686869;"/></svg>