<?xml version="1.0" encoding="UTF-8"?><svg id="a" xmlns="http://www.w3.org/2000/svg" viewBox="0 0 48 48"><g id="b"><path id="c" d="m.5,34.53c0-5.38,4.36-9.74,9.73-9.74h0c5.38,0,9.74,4.36,9.74,9.74h0c0,5.38-4.36,9.74-9.73,9.74h0c-5.38,0-9.74-4.36-9.74-9.73h0Zm2.56,0c0,3.96,3.22,7.17,7.18,7.18h0c3.96,0,7.17-3.22,7.17-7.18h0c0-3.96-3.21-7.17-7.17-7.18h0c-3.96,0-7.17,3.22-7.18,7.18Z" style="fill:#ea6529;"/><path id="d" d="m35.12,8.29c-.01,2.51-2.06,4.54-4.57,4.53-2.51-.01-4.54-2.06-4.53-4.57.01-2.5,2.04-4.53,4.55-4.53,2.52,0,4.55,2.05,4.55,4.57,0,0,0,0,0,0Z" style="fill:#ea6529;"/><path id="e" d="m28.05,34.53c-.01-5.37,4.33-9.73,9.7-9.74h.01c5.38,0,9.74,4.36,9.74,9.74h0c0,5.38-4.36,9.74-9.74,9.75h0c-5.37,0-9.71-4.36-9.71-9.73,0,0,0,0,0-.01Zm2.55,0c0,3.96,3.2,7.17,7.16,7.18h0c3.96,0,7.17-3.22,7.18-7.18h0c-.01-3.96-3.22-7.16-7.18-7.17h0c-3.96,0-7.16,3.22-7.16,7.17h0Z" style="fill:#ea6529;"/><path id="f" d="m19.37,36.52v-8.38l-6.15-6.09c-.47-.46-.73-1.09-.73-1.74h0c0-.65.25-1.28.72-1.74h0l6.26-6.26c.46-.46,1.08-.72,1.73-.72h0c.65,0,1.27.26,1.73.72h0l4.5,4.52h6.29c1.35,0,2.44,1.09,2.44,2.44h0c0,1.35-1.09,2.45-2.44,2.45h-7.3c-.65,0-1.27-.26-1.72-.72h0l-3.5-3.49-2.79,2.78,5.13,5.08c.46.46.73,1.09.73,1.74h0v9.4c0,1.35-1.1,2.45-2.45,2.45h0c-1.36,0-2.45-1.1-2.45-2.45h0Z" style="fill:#ea6529;"/></g></svg>