<?xml version="1.0" encoding="UTF-8"?><svg id="Layer_1" xmlns="http://www.w3.org/2000/svg" viewBox="0 0 48 48"><defs><style>.cls-1{fill:#686869;}</style></defs><path id="warning_FILL0_wght300_GRAD0_opsz48" class="cls-1" d="m.5,44.31L24,3.69l23.5,40.62H.5Zm4.53-2.61h37.95L24,8.98,5.03,41.7Zm19.15-3.48c.39.01.77-.15,1.04-.43.27-.29.42-.68.41-1.07,0-.37-.16-.73-.43-.98-.27-.26-.64-.41-1.02-.41-.77-.03-1.42.56-1.45,1.33,0,.04,0,.08,0,.12,0,.38.14.74.41,1.02.27.29.65.45,1.04.43h0Zm-1.33-5.69h2.67v-12.66h-2.67v12.66Z"/></svg>