<?xml version="1.0" encoding="UTF-8"?><svg id="a" xmlns="http://www.w3.org/2000/svg" viewBox="0 0 48 48"><g id="b"><rect x="22.27" y="15.28" width="3.45" height="32.22" style="fill:#ea6529;"/><g id="c"><circle cx="24" cy="14.88" r="14.38" style="fill:#fff;"/><path d="m24,29.26c-7.93,0-14.38-6.45-14.38-14.38S16.07.5,24,.5s14.38,6.45,14.38,14.38-6.45,14.38-14.38,14.38Zm0-27.61c-7.3,0-13.23,5.94-13.23,13.23s5.94,13.23,13.23,13.23,13.23-5.94,13.23-13.23S31.3,1.65,24,1.65Z" style="fill:#ea6529;"/></g><g id="d"><path id="e" d="m15.37,18.72c0-1.97,1.6-3.58,3.57-3.58h0c1.97,0,3.58,1.6,3.58,3.57h0c0,1.98-1.6,3.58-3.57,3.58h0c-1.97,0-3.58-1.6-3.58-3.57h0Zm.94,0c0,1.45,1.18,2.63,2.64,2.64h0c1.45,0,2.63-1.18,2.63-2.64h0c0-1.45-1.18-2.63-2.63-2.64h0c-1.45,0-2.63,1.18-2.64,2.64Z" style="fill:#ea6529;"/><path id="f" d="m28.08,9.08c0,.92-.76,1.67-1.68,1.66-.92,0-1.67-.76-1.66-1.68,0-.92.75-1.66,1.67-1.66.92,0,1.67.75,1.67,1.68,0,0,0,0,0,0Z" style="fill:#ea6529;"/><path id="g" d="m25.49,18.72c0-1.97,1.59-3.57,3.56-3.58h.01c1.97,0,3.58,1.6,3.58,3.57h0c0,1.98-1.6,3.58-3.57,3.58h0c-1.97,0-3.57-1.6-3.57-3.57,0,0,0,0,0-.01Zm.94,0c0,1.45,1.18,2.63,2.63,2.64h0c1.45,0,2.63-1.18,2.64-2.64h0c0-1.45-1.18-2.63-2.64-2.63h0c-1.45,0-2.63,1.18-2.63,2.63Z" style="fill:#ea6529;"/><path id="h" d="m22.3,19.45v-3.08l-2.26-2.24c-.17-.17-.27-.4-.27-.64h0c0-.24.09-.47.26-.64h0l2.3-2.3c.17-.17.4-.26.64-.26h0c.24,0,.47.09.64.26h0l1.65,1.66h2.31c.5,0,.9.4.9.9h0c0,.5-.4.9-.9.9h-2.69c-.24,0-.47-.1-.63-.26h0l-1.28-1.28-1.02,1.02,1.88,1.86c.17.17.27.4.27.64h0v3.45c0,.5-.4.9-.9.9h0c-.5,0-.9-.4-.9-.9h0Z" style="fill:#ea6529;"/></g></g><circle id="i" cx="34.27" cy="6.82" r="6.21" style="fill:#dc0451; stroke:#fff; stroke-width:.8px;"/><path id="j" d="m31.34,10.15l-.41-.41,2.93-2.93-2.93-2.93.41-.41,2.93,2.93,2.93-2.93.41.41-2.93,2.93,2.93,2.93-.41.41-2.93-2.93-2.93,2.93Z" style="fill:#fff;"/></svg>