<?xml version="1.0" encoding="UTF-8"?><svg id="Layer_2" xmlns="http://www.w3.org/2000/svg" viewBox="0 0 353.24 232.78"><defs><style>.cls-1{fill:#ec1c24;}</style></defs><g id="Layer_1-2"><g><polygon class="cls-1" points="270.43 149.75 270.43 70.72 234.1 70.72 234.1 182.74 353.24 182.74 353.24 149.75 270.43 149.75"/><path class="cls-1" d="m127.64,143.85c5.97-3.52,10.67-8.27,14.08-14.24,3.41-5.97,5.12-12.53,5.12-19.68s-1.71-13.71-5.12-19.68c-3.42-5.97-8.11-10.72-14.08-14.24-5.98-3.52-12.64-5.28-20-5.28H0v112.02h36.33v-33.61h71.31c7.36,0,14.03-1.76,20-5.28Zm-29.29-22.72h-62.03v-22.4h62.03c3.95,0,6.96,1.04,9.04,3.12,2.08,2.08,3.12,4.78,3.12,8.08s-1.04,6-3.12,8.08c-2.08,2.08-5.1,3.12-9.04,3.12Z"/><polygon class="cls-1" points="154.54 0 126.57 27.97 98.3 0 98.3 42.25 210.77 42.25 210.77 0 182.81 27.97 154.54 0"/><path class="cls-1" d="m171.07,165.75c0,11.02-2.45,21.27-7.48,26.2-5.22,5.11-11.83,7.49-20.82,7.49s-15.59-2.38-20.81-7.48c-3.47-3.39-5.71-8.13-6.77-14.35h-36.33c1.63,15.89,7.61,27.37,17.86,37.4,12.06,11.8,27.55,17.78,46.05,17.78s33.99-5.23,46.06-17.03c12.17-11.9,18.33-26.56,18.33-47.51v-97.52s-36.09,0-36.09,0v95.03Z"/></g></g></svg>