<svg id="svg" version="1.1" xmlns="http://www.w3.org/2000/svg" xmlns:xlink="http://www.w3.org/1999/xlink" width="400" height="115.6779661016949" viewBox="0, 0, 400,115.6779661016949"><g id="svgg"><path id="path0" d="M48.833 10.461 L 48.833 21.000 76.833 21.000 L 104.833 21.000 104.833 10.500 C 104.833 4.725,104.784 0.000,104.723 0.000 C 104.663 0.000,101.551 3.075,97.809 6.833 C 94.067 10.592,90.923 13.667,90.823 13.667 C 90.674 13.667,81.016 4.213,77.728 0.849 C 76.938 0.040,76.818 -0.028,76.556 0.182 C 76.396 0.311,73.259 3.431,69.586 7.116 L 62.906 13.815 57.994 8.970 C 55.293 6.306,52.127 3.180,50.958 2.024 L 48.833 -0.079 48.833 10.461 M0.000 62.915 L 0.000 90.833 9.083 90.833 L 18.167 90.833 18.167 82.500 L 18.167 74.167 36.647 74.167 C 58.686 74.167,58.152 74.211,62.457 72.041 C 78.175 64.119,75.688 40.293,58.667 35.726 C 57.742 35.478,57.530 35.442,55.417 35.176 C 54.775 35.095,42.044 35.021,27.125 35.012 L 0.000 34.996 0.000 62.915 M85.000 59.042 C 85.000 80.866,84.941 84.881,84.588 87.250 C 84.385 88.617,83.961 90.375,83.663 91.083 C 83.586 91.267,83.439 91.693,83.336 92.030 C 82.048 96.246,77.233 98.910,70.917 98.902 C 63.377 98.892,58.363 95.195,57.431 88.958 L 57.313 88.167 48.223 88.167 L 39.134 88.167 39.250 89.208 C 39.511 91.546,40.407 95.140,41.171 96.917 C 43.336 101.951,46.621 106.129,51.083 109.526 C 59.305 115.784,72.338 117.513,83.250 113.793 C 89.999 111.492,96.257 106.087,99.412 99.833 C 99.852 98.962,100.283 98.109,100.371 97.936 C 100.695 97.299,101.737 94.120,101.906 93.250 C 101.942 93.067,102.053 92.559,102.154 92.122 C 102.943 88.684,102.970 87.674,102.987 60.625 L 103.004 35.000 94.002 35.000 L 85.000 35.000 85.000 59.042 M116.279 35.110 C 116.217 35.172,116.167 47.735,116.167 63.028 L 116.167 90.833 145.833 90.833 L 175.500 90.833 175.500 82.583 L 175.500 74.333 155.001 74.333 L 134.501 74.333 134.459 54.708 L 134.417 35.083 125.404 35.040 C 120.447 35.017,116.341 35.048,116.279 35.110 M216.712 40.680 C 210.459 41.876,209.381 53.712,215.243 56.807 C 216.859 57.659,220.004 57.353,221.123 56.234 C 221.248 56.110,221.482 55.912,221.643 55.795 C 222.620 55.088,223.718 52.580,223.971 50.475 C 224.692 44.487,221.230 39.816,216.712 40.680 M197.500 48.983 L 197.500 57.167 199.083 57.167 L 200.667 57.167 200.667 54.167 L 200.667 51.167 201.458 51.163 C 205.832 51.145,208.246 49.280,208.249 45.917 C 208.252 42.178,206.499 40.963,200.958 40.862 L 197.500 40.800 197.500 48.983 M227.500 48.983 L 227.500 57.167 229.000 57.167 L 230.500 57.167 230.500 54.167 L 230.500 51.167 231.292 51.167 C 232.231 51.167,232.193 51.107,234.503 56.292 L 234.893 57.167 236.608 57.167 C 238.535 57.167,238.459 57.259,237.699 55.844 C 236.841 54.244,235.167 50.837,235.167 50.691 C 235.167 50.607,235.422 50.417,235.733 50.269 C 238.547 48.934,239.186 44.593,236.896 42.365 C 235.649 41.151,234.827 40.944,230.958 40.868 L 227.500 40.800 227.500 48.983 M242.500 42.250 L 242.500 43.667 244.333 43.667 L 246.167 43.667 246.167 49.000 L 246.167 54.333 244.333 54.333 L 242.500 54.333 242.500 55.750 L 242.500 57.167 247.708 57.167 L 252.917 57.167 252.863 55.750 L 252.809 54.333 250.988 54.333 L 249.167 54.333 249.167 49.000 L 249.167 43.667 251.042 43.667 L 252.917 43.667 252.917 42.250 L 252.917 40.833 247.708 40.833 L 242.500 40.833 242.500 42.250 M257.167 49.000 L 257.167 57.167 258.664 57.167 L 260.162 57.167 260.206 52.208 C 260.247 47.584,260.268 47.284,260.512 47.750 C 260.820 48.338,262.837 52.043,263.824 53.833 C 264.203 54.521,264.751 55.552,265.042 56.125 L 265.572 57.167 266.952 57.167 L 268.333 57.167 268.333 49.000 L 268.333 40.833 266.750 40.833 L 265.167 40.833 265.166 45.792 C 265.165 50.005,265.131 50.687,264.944 50.333 C 264.288 49.095,263.343 47.345,263.053 46.833 C 262.872 46.512,262.394 45.612,261.992 44.833 C 261.590 44.054,261.165 43.318,261.047 43.196 C 260.930 43.075,260.833 42.913,260.833 42.836 C 260.833 42.760,260.593 42.277,260.298 41.765 L 259.763 40.833 258.465 40.833 L 257.167 40.833 257.167 49.000 M219.138 43.998 C 221.771 45.906,221.537 52.788,218.792 54.188 C 216.593 55.310,214.674 53.101,214.535 49.289 C 214.379 44.968,216.736 42.258,219.138 43.998 M204.096 43.983 C 206.715 45.172,205.190 48.154,201.958 48.163 L 200.667 48.167 200.667 45.917 L 200.667 43.667 202.042 43.670 C 203.018 43.673,203.614 43.764,204.096 43.983 M234.004 44.002 C 236.630 45.342,235.190 48.167,231.881 48.167 L 230.500 48.167 230.500 45.917 L 230.500 43.667 231.923 43.667 C 233.021 43.667,233.497 43.743,234.004 44.002 M51.178 49.435 C 54.011 50.276,55.438 53.184,54.616 56.442 C 54.293 57.721,52.980 59.117,51.560 59.690 L 50.583 60.083 34.375 60.130 L 18.167 60.178 18.167 54.672 L 18.167 49.167 34.220 49.167 C 48.498 49.167,50.373 49.196,51.178 49.435 M213.250 74.561 C 211.421 75.147,209.484 77.334,209.095 79.250 C 209.058 79.433,208.947 79.937,208.848 80.370 C 207.956 84.265,209.490 88.811,212.239 90.418 C 214.590 91.792,218.504 90.802,219.738 88.522 C 223.637 81.314,219.559 72.540,213.250 74.561 M273.148 74.567 C 266.568 77.110,267.207 89.899,273.969 90.983 C 279.699 91.902,283.301 84.117,280.116 77.697 C 278.833 75.110,275.554 73.638,273.148 74.567 M201.417 80.375 C 201.417 86.851,201.376 87.160,200.447 87.792 C 199.360 88.531,197.982 88.163,197.502 87.006 C 197.251 86.399,197.408 86.406,195.717 86.922 C 194.145 87.402,194.132 87.428,194.876 88.674 C 196.540 91.461,200.971 91.945,203.103 89.574 C 204.330 88.208,204.392 87.808,204.464 80.792 L 204.528 74.500 202.972 74.500 L 201.417 74.500 201.417 80.375 M224.371 80.625 C 224.432 86.824,224.448 86.995,225.093 88.417 C 226.700 91.957,233.015 91.978,234.742 88.448 C 235.401 87.101,235.397 87.148,235.458 80.625 L 235.515 74.500 234.016 74.500 L 232.516 74.500 232.466 80.375 C 232.405 87.614,232.225 88.167,229.923 88.167 C 227.664 88.167,227.500 87.639,227.500 80.364 L 227.500 74.500 225.906 74.500 L 224.311 74.500 224.371 80.625 M239.333 82.667 L 239.333 90.833 240.833 90.833 L 242.333 90.833 242.338 88.375 C 242.343 85.930,242.345 85.913,242.820 85.286 L 243.298 84.654 245.191 87.738 L 247.083 90.821 248.958 90.827 C 249.990 90.831,250.833 90.792,250.833 90.741 C 250.833 90.690,250.458 90.080,250.000 89.384 C 249.542 88.689,249.167 88.087,249.167 88.045 C 249.167 88.004,248.879 87.545,248.527 87.026 C 246.790 84.465,245.309 81.970,245.395 81.748 C 245.446 81.613,246.003 80.808,246.632 79.959 C 247.261 79.111,248.388 77.592,249.136 76.583 C 249.883 75.575,250.496 74.694,250.497 74.625 C 250.505 74.261,246.846 74.498,246.645 74.875 C 246.535 75.081,245.745 76.203,244.889 77.369 C 244.034 78.534,243.330 79.547,243.327 79.619 C 243.323 79.691,243.098 80.010,242.827 80.327 L 242.333 80.904 242.333 77.702 L 242.333 74.500 240.833 74.500 L 239.333 74.500 239.333 82.667 M254.333 82.667 L 254.333 90.833 255.833 90.833 L 257.333 90.833 257.333 88.413 C 257.333 86.078,257.349 85.970,257.772 85.330 C 258.307 84.521,258.184 84.490,258.854 85.598 C 259.163 86.110,259.773 87.087,260.208 87.770 C 260.644 88.452,261.000 89.046,261.000 89.090 C 261.000 89.134,261.244 89.543,261.542 89.999 L 262.083 90.827 263.958 90.830 C 264.990 90.832,265.833 90.793,265.833 90.743 C 265.833 90.694,265.693 90.450,265.522 90.202 C 265.351 89.953,264.784 89.075,264.262 88.250 C 261.725 84.245,261.264 83.525,260.750 82.766 L 260.196 81.948 261.293 80.432 C 262.852 78.278,263.473 77.426,264.551 75.964 C 265.073 75.256,265.500 74.637,265.500 74.589 C 265.500 74.540,264.694 74.502,263.708 74.504 L 261.917 74.509 260.760 76.129 C 260.124 77.021,259.111 78.456,258.510 79.319 L 257.417 80.888 257.371 77.694 L 257.326 74.500 255.830 74.500 L 254.333 74.500 254.333 82.667 M285.500 82.667 L 285.500 90.833 290.333 90.833 L 295.167 90.833 295.167 89.417 L 295.167 88.000 291.833 88.000 L 288.500 88.000 288.500 81.250 L 288.500 74.500 287.000 74.500 L 285.500 74.500 285.500 82.667 M299.666 75.958 L 299.666 77.417 301.500 77.365 L 303.333 77.313 303.333 82.656 L 303.333 88.000 301.500 88.000 L 299.667 88.000 299.667 89.417 L 299.667 90.833 304.917 90.833 L 310.167 90.833 310.167 89.417 L 310.167 88.000 308.333 88.000 L 306.500 88.000 306.500 82.656 L 306.500 77.313 308.334 77.365 L 310.167 77.417 310.167 75.958 L 310.167 74.500 304.917 74.500 L 299.667 74.500 299.666 75.958 M314.666 75.958 L 314.666 77.417 316.500 77.365 L 318.333 77.313 318.333 82.656 L 318.333 88.000 316.500 88.000 L 314.667 88.000 314.667 89.417 L 314.667 90.833 319.917 90.833 L 325.167 90.833 325.167 89.417 L 325.167 88.000 323.248 88.000 L 321.329 88.000 321.373 82.708 L 321.417 77.417 323.292 77.370 L 325.167 77.322 325.167 75.911 L 325.167 74.500 319.917 74.500 L 314.667 74.500 314.666 75.958 M329.333 82.667 L 329.333 90.833 330.833 90.833 L 332.333 90.833 332.339 88.292 C 332.345 85.697,332.680 84.513,333.298 84.895 C 333.446 84.986,334.971 87.412,335.846 88.947 C 336.013 89.239,336.341 89.783,336.576 90.156 L 337.004 90.833 338.945 90.833 C 340.814 90.833,340.875 90.822,340.609 90.529 C 340.457 90.361,340.333 90.174,340.333 90.114 C 340.333 90.053,339.979 89.459,339.546 88.793 C 339.113 88.128,338.682 87.450,338.588 87.287 C 338.494 87.124,337.971 86.299,337.426 85.454 C 336.882 84.608,336.153 83.474,335.807 82.934 C 335.461 82.393,335.224 81.875,335.281 81.783 C 335.382 81.620,336.527 80.026,337.640 78.500 C 337.941 78.087,338.294 77.600,338.426 77.417 C 338.558 77.233,339.083 76.521,339.593 75.833 L 340.519 74.583 338.718 74.534 C 337.140 74.490,336.890 74.521,336.704 74.784 C 335.639 76.283,333.465 79.292,333.329 79.456 C 333.236 79.569,332.992 79.944,332.788 80.289 L 332.417 80.917 332.371 77.708 L 332.326 74.500 330.830 74.500 L 329.333 74.500 329.333 82.667 M345.000 82.667 L 345.000 90.833 350.083 90.833 L 355.167 90.833 355.167 89.417 L 355.167 88.000 351.583 88.000 L 348.000 88.000 348.000 86.083 L 348.000 84.167 350.840 84.167 L 353.680 84.167 353.631 82.708 L 353.583 81.250 350.792 81.204 L 348.000 81.159 348.000 79.246 L 348.000 77.333 351.583 77.333 L 355.167 77.333 355.167 75.917 L 355.167 74.500 350.083 74.500 L 345.000 74.500 345.000 82.667 M359.167 82.667 L 359.167 90.833 360.747 90.833 L 362.328 90.833 362.372 85.958 L 362.417 81.083 363.235 82.583 C 363.686 83.408,364.315 84.571,364.633 85.167 C 365.695 87.152,366.843 89.247,367.009 89.500 C 367.100 89.638,367.285 89.994,367.422 90.292 L 367.671 90.833 369.086 90.833 L 370.500 90.833 370.500 82.667 L 370.500 74.500 368.919 74.500 L 367.338 74.500 367.294 79.442 C 367.254 83.895,367.226 84.336,367.008 83.900 C 366.874 83.634,366.490 82.929,366.153 82.333 C 365.816 81.737,365.204 80.612,364.793 79.833 C 363.850 78.046,362.919 76.311,362.355 75.292 L 361.917 74.500 360.542 74.500 L 359.167 74.500 359.167 82.667 M374.167 82.667 L 374.167 90.833 375.750 90.833 L 377.333 90.833 377.333 85.961 L 377.333 81.089 377.750 81.702 C 377.979 82.040,378.167 82.365,378.167 82.425 C 378.167 82.484,378.570 83.257,379.064 84.142 C 379.557 85.026,380.198 86.200,380.488 86.750 C 380.778 87.300,381.378 88.425,381.820 89.250 L 382.625 90.750 383.976 90.798 L 385.327 90.847 385.372 82.673 L 385.417 74.500 383.875 74.500 L 382.333 74.500 382.327 79.458 L 382.320 84.417 381.785 83.445 C 381.491 82.910,380.906 81.860,380.485 81.111 C 380.065 80.363,379.341 79.037,378.878 78.167 C 378.415 77.296,377.784 76.115,377.476 75.542 L 376.917 74.501 375.542 74.501 L 374.167 74.500 374.167 82.667 M390.000 82.667 L 390.000 90.833 395.000 90.833 L 400.000 90.833 400.000 89.417 L 400.000 88.000 396.500 88.000 L 393.000 88.000 393.000 86.083 L 393.000 84.167 395.750 84.167 L 398.500 84.167 398.500 82.667 L 398.500 81.167 395.750 81.167 L 393.000 81.167 393.000 79.250 L 393.000 77.333 396.500 77.333 L 400.000 77.333 400.000 75.917 L 400.000 74.500 395.000 74.500 L 390.000 74.500 390.000 82.667 M216.247 77.645 C 217.347 78.279,218.160 80.268,218.199 82.417 C 218.332 89.742,212.040 90.320,211.754 83.008 C 211.590 78.803,213.761 76.211,216.247 77.645 M275.685 77.396 C 277.530 77.802,278.667 81.871,277.857 85.173 C 277.002 88.655,273.730 89.227,272.304 86.144 C 271.485 84.373,271.480 80.908,272.294 79.333 C 273.265 77.456,274.013 77.029,275.685 77.396 " stroke="none" fill="#ec1c24" fill-rule="evenodd"></path><path id="path1" d="M252.890 42.250 C 252.891 42.983,252.920 43.263,252.956 42.871 C 252.991 42.479,252.990 41.879,252.954 41.537 C 252.919 41.196,252.890 41.517,252.890 42.250 M249.241 49.000 C 249.241 51.979,249.264 53.198,249.291 51.708 C 249.319 50.219,249.319 47.781,249.291 46.292 C 249.264 44.802,249.241 46.021,249.241 49.000 M252.892 55.667 C 252.892 56.446,252.920 56.765,252.955 56.375 C 252.990 55.985,252.990 55.348,252.955 54.958 C 252.920 54.569,252.892 54.887,252.892 55.667 M175.577 82.583 C 175.577 87.167,175.599 89.018,175.625 86.697 C 175.651 84.376,175.651 80.626,175.625 78.363 C 175.599 76.101,175.577 78.000,175.577 82.583 M201.408 80.000 C 201.408 82.979,201.430 84.198,201.458 82.708 C 201.486 81.219,201.486 78.781,201.458 77.292 C 201.430 75.802,201.408 77.021,201.408 80.000 M385.411 82.750 C 385.411 87.242,385.432 89.055,385.458 86.780 C 385.484 84.505,385.484 80.830,385.458 78.613 C 385.432 76.397,385.410 78.258,385.411 82.750 M300.714 77.457 C 301.245 77.490,302.070 77.490,302.548 77.456 C 303.026 77.422,302.592 77.395,301.583 77.396 C 300.575 77.396,300.184 77.424,300.714 77.457 M307.381 77.457 C 307.912 77.490,308.737 77.490,309.214 77.456 C 309.692 77.422,309.258 77.395,308.250 77.396 C 307.242 77.396,306.851 77.424,307.381 77.457 M315.714 77.457 C 316.245 77.490,317.070 77.490,317.548 77.456 C 318.026 77.422,317.592 77.395,316.583 77.396 C 315.575 77.396,315.184 77.424,315.714 77.457 M321.409 77.543 C 321.365 77.659,321.349 80.078,321.375 82.918 L 321.422 88.083 321.461 82.797 L 321.500 77.511 323.375 77.458 L 325.250 77.405 323.370 77.369 C 321.985 77.343,321.468 77.389,321.409 77.543 M349.699 77.458 C 350.679 77.487,352.329 77.487,353.366 77.458 C 354.402 77.429,353.600 77.404,351.583 77.404 C 349.567 77.404,348.719 77.428,349.699 77.458 M394.708 77.458 C 395.694 77.487,397.306 77.487,398.292 77.458 C 399.277 77.428,398.471 77.404,396.500 77.404 C 394.529 77.404,393.723 77.428,394.708 77.458 M398.559 82.750 C 398.559 83.575,398.587 83.934,398.622 83.547 C 398.657 83.160,398.657 82.485,398.623 82.047 C 398.588 81.609,398.560 81.925,398.559 82.750 M208.539 82.667 C 208.539 82.987,208.573 83.119,208.615 82.958 C 208.657 82.798,208.657 82.535,208.615 82.375 C 208.573 82.215,208.539 82.346,208.539 82.667 " stroke="none" fill="#f01c24" fill-rule="evenodd"></path><path id="path2" d="M252.890 42.250 C 252.891 42.983,252.920 43.263,252.956 42.871 C 252.991 42.479,252.990 41.879,252.954 41.537 C 252.919 41.196,252.890 41.517,252.890 42.250 M249.241 49.000 C 249.241 51.979,249.264 53.198,249.291 51.708 C 249.319 50.219,249.319 47.781,249.291 46.292 C 249.264 44.802,249.241 46.021,249.241 49.000 M252.892 55.667 C 252.892 56.446,252.920 56.765,252.955 56.375 C 252.990 55.985,252.990 55.348,252.955 54.958 C 252.920 54.569,252.892 54.887,252.892 55.667 M175.577 82.583 C 175.577 87.167,175.599 89.018,175.625 86.697 C 175.651 84.376,175.651 80.626,175.625 78.363 C 175.599 76.101,175.577 78.000,175.577 82.583 M201.408 80.000 C 201.408 82.979,201.430 84.198,201.458 82.708 C 201.486 81.219,201.486 78.781,201.458 77.292 C 201.430 75.802,201.408 77.021,201.408 80.000 M385.411 82.750 C 385.411 87.242,385.432 89.055,385.458 86.780 C 385.484 84.505,385.484 80.830,385.458 78.613 C 385.432 76.397,385.410 78.258,385.411 82.750 M300.714 77.457 C 301.245 77.490,302.070 77.490,302.548 77.456 C 303.026 77.422,302.592 77.395,301.583 77.396 C 300.575 77.396,300.184 77.424,300.714 77.457 M307.381 77.457 C 307.912 77.490,308.737 77.490,309.214 77.456 C 309.692 77.422,309.258 77.395,308.250 77.396 C 307.242 77.396,306.851 77.424,307.381 77.457 M315.714 77.457 C 316.245 77.490,317.070 77.490,317.548 77.456 C 318.026 77.422,317.592 77.395,316.583 77.396 C 315.575 77.396,315.184 77.424,315.714 77.457 M321.409 77.543 C 321.365 77.659,321.349 80.078,321.375 82.918 L 321.422 88.083 321.461 82.797 L 321.500 77.511 323.375 77.458 L 325.250 77.405 323.370 77.369 C 321.985 77.343,321.468 77.389,321.409 77.543 M349.699 77.458 C 350.679 77.487,352.329 77.487,353.366 77.458 C 354.402 77.429,353.600 77.404,351.583 77.404 C 349.567 77.404,348.719 77.428,349.699 77.458 M394.708 77.458 C 395.694 77.487,397.306 77.487,398.292 77.458 C 399.277 77.428,398.471 77.404,396.500 77.404 C 394.529 77.404,393.723 77.428,394.708 77.458 M398.559 82.750 C 398.559 83.575,398.587 83.934,398.622 83.547 C 398.657 83.160,398.657 82.485,398.623 82.047 C 398.588 81.609,398.560 81.925,398.559 82.750 M208.539 82.667 C 208.539 82.987,208.573 83.119,208.615 82.958 C 208.657 82.798,208.657 82.535,208.615 82.375 C 208.573 82.215,208.539 82.346,208.539 82.667 " stroke="none" fill="#f01c24" fill-rule="evenodd"></path><path id="path3" d="M252.890 42.250 C 252.891 42.983,252.920 43.263,252.956 42.871 C 252.991 42.479,252.990 41.879,252.954 41.537 C 252.919 41.196,252.890 41.517,252.890 42.250 M249.241 49.000 C 249.241 51.979,249.264 53.198,249.291 51.708 C 249.319 50.219,249.319 47.781,249.291 46.292 C 249.264 44.802,249.241 46.021,249.241 49.000 M252.892 55.667 C 252.892 56.446,252.920 56.765,252.955 56.375 C 252.990 55.985,252.990 55.348,252.955 54.958 C 252.920 54.569,252.892 54.887,252.892 55.667 M175.577 82.583 C 175.577 87.167,175.599 89.018,175.625 86.697 C 175.651 84.376,175.651 80.626,175.625 78.363 C 175.599 76.101,175.577 78.000,175.577 82.583 M201.408 80.000 C 201.408 82.979,201.430 84.198,201.458 82.708 C 201.486 81.219,201.486 78.781,201.458 77.292 C 201.430 75.802,201.408 77.021,201.408 80.000 M385.411 82.750 C 385.411 87.242,385.432 89.055,385.458 86.780 C 385.484 84.505,385.484 80.830,385.458 78.613 C 385.432 76.397,385.410 78.258,385.411 82.750 M300.714 77.457 C 301.245 77.490,302.070 77.490,302.548 77.456 C 303.026 77.422,302.592 77.395,301.583 77.396 C 300.575 77.396,300.184 77.424,300.714 77.457 M307.381 77.457 C 307.912 77.490,308.737 77.490,309.214 77.456 C 309.692 77.422,309.258 77.395,308.250 77.396 C 307.242 77.396,306.851 77.424,307.381 77.457 M315.714 77.457 C 316.245 77.490,317.070 77.490,317.548 77.456 C 318.026 77.422,317.592 77.395,316.583 77.396 C 315.575 77.396,315.184 77.424,315.714 77.457 M321.409 77.543 C 321.365 77.659,321.349 80.078,321.375 82.918 L 321.422 88.083 321.461 82.797 L 321.500 77.511 323.375 77.458 L 325.250 77.405 323.370 77.369 C 321.985 77.343,321.468 77.389,321.409 77.543 M349.699 77.458 C 350.679 77.487,352.329 77.487,353.366 77.458 C 354.402 77.429,353.600 77.404,351.583 77.404 C 349.567 77.404,348.719 77.428,349.699 77.458 M394.708 77.458 C 395.694 77.487,397.306 77.487,398.292 77.458 C 399.277 77.428,398.471 77.404,396.500 77.404 C 394.529 77.404,393.723 77.428,394.708 77.458 M398.559 82.750 C 398.559 83.575,398.587 83.934,398.622 83.547 C 398.657 83.160,398.657 82.485,398.623 82.047 C 398.588 81.609,398.560 81.925,398.559 82.750 M208.539 82.667 C 208.539 82.987,208.573 83.119,208.615 82.958 C 208.657 82.798,208.657 82.535,208.615 82.375 C 208.573 82.215,208.539 82.346,208.539 82.667 " stroke="none" fill="#f01c24" fill-rule="evenodd"></path><path id="path4" d="M252.890 42.250 C 252.891 42.983,252.920 43.263,252.956 42.871 C 252.991 42.479,252.990 41.879,252.954 41.537 C 252.919 41.196,252.890 41.517,252.890 42.250 M249.241 49.000 C 249.241 51.979,249.264 53.198,249.291 51.708 C 249.319 50.219,249.319 47.781,249.291 46.292 C 249.264 44.802,249.241 46.021,249.241 49.000 M252.892 55.667 C 252.892 56.446,252.920 56.765,252.955 56.375 C 252.990 55.985,252.990 55.348,252.955 54.958 C 252.920 54.569,252.892 54.887,252.892 55.667 M175.577 82.583 C 175.577 87.167,175.599 89.018,175.625 86.697 C 175.651 84.376,175.651 80.626,175.625 78.363 C 175.599 76.101,175.577 78.000,175.577 82.583 M201.408 80.000 C 201.408 82.979,201.430 84.198,201.458 82.708 C 201.486 81.219,201.486 78.781,201.458 77.292 C 201.430 75.802,201.408 77.021,201.408 80.000 M385.411 82.750 C 385.411 87.242,385.432 89.055,385.458 86.780 C 385.484 84.505,385.484 80.830,385.458 78.613 C 385.432 76.397,385.410 78.258,385.411 82.750 M300.714 77.457 C 301.245 77.490,302.070 77.490,302.548 77.456 C 303.026 77.422,302.592 77.395,301.583 77.396 C 300.575 77.396,300.184 77.424,300.714 77.457 M307.381 77.457 C 307.912 77.490,308.737 77.490,309.214 77.456 C 309.692 77.422,309.258 77.395,308.250 77.396 C 307.242 77.396,306.851 77.424,307.381 77.457 M315.714 77.457 C 316.245 77.490,317.070 77.490,317.548 77.456 C 318.026 77.422,317.592 77.395,316.583 77.396 C 315.575 77.396,315.184 77.424,315.714 77.457 M321.409 77.543 C 321.365 77.659,321.349 80.078,321.375 82.918 L 321.422 88.083 321.461 82.797 L 321.500 77.511 323.375 77.458 L 325.250 77.405 323.370 77.369 C 321.985 77.343,321.468 77.389,321.409 77.543 M349.699 77.458 C 350.679 77.487,352.329 77.487,353.366 77.458 C 354.402 77.429,353.600 77.404,351.583 77.404 C 349.567 77.404,348.719 77.428,349.699 77.458 M394.708 77.458 C 395.694 77.487,397.306 77.487,398.292 77.458 C 399.277 77.428,398.471 77.404,396.500 77.404 C 394.529 77.404,393.723 77.428,394.708 77.458 M398.559 82.750 C 398.559 83.575,398.587 83.934,398.622 83.547 C 398.657 83.160,398.657 82.485,398.623 82.047 C 398.588 81.609,398.560 81.925,398.559 82.750 M208.539 82.667 C 208.539 82.987,208.573 83.119,208.615 82.958 C 208.657 82.798,208.657 82.535,208.615 82.375 C 208.573 82.215,208.539 82.346,208.539 82.667 " stroke="none" fill="#f01c24" fill-rule="evenodd"></path></g></svg>