<svg version="1.1" id="Layer_1" xmlns="http://www.w3.org/2000/svg" xmlns:xlink="http://www.w3.org/1999/xlink" x="0px" y="0px"
	 viewBox="0 0 283.46 283.46" enable-background="new 0 0 283.46 283.46" xml:space="preserve">
<linearGradient id="XMLID_27_" gradientUnits="userSpaceOnUse" x1="141.73" y1="92.7482" x2="141.73" y2="283.46">
	<stop  offset="0.25" style="stop-color:#00B9E4"/>
	<stop  offset="1" style="stop-color:#00B9E4;stop-opacity:0"/>
</linearGradient>
<path id="XMLID_41_" fill="url(#XMLID_27_)" d="M190.712,141.73c0-27.052-21.93-48.982-48.982-48.982
	c-27.052,0-48.982,21.93-48.982,48.982c0,0.141,0.01,0.28,0.011,0.421c-0.001,0.13-0.011,0.259-0.011,0.389
	c0,24.971,21.93,140.92,48.982,140.92c27.052,0,48.982-115.948,48.982-140.92c0-0.13-0.01-0.259-0.01-0.389
	C190.702,142.01,190.712,141.871,190.712,141.73z"/>
<g id="XMLID_3_">
	<circle id="XMLID_40_" fill="#00B9E4" cx="141.73" cy="141.73" r="48.981"/>
	<path id="XMLID_12_" fill="#008BAB" d="M141.73,96.205c12.16,0,23.593,4.735,32.191,13.334
		c8.599,8.599,13.334,20.031,13.334,32.191s-4.735,23.593-13.334,32.191c-8.599,8.599-20.031,13.334-32.191,13.334
		c-12.16,0-23.593-4.735-32.191-13.334c-8.599-8.599-13.334-20.031-13.334-32.191s4.735-23.593,13.334-32.191
		C118.137,100.94,129.57,96.205,141.73,96.205 M141.73,92.749c-27.052,0-48.981,21.93-48.981,48.981s21.93,48.981,48.981,48.981
		c27.052,0,48.981-21.93,48.981-48.981S168.782,92.749,141.73,92.749L141.73,92.749z"/>
	<g id="XMLID_4_">
		<path id="XMLID_5_" fill="#FFFFFF" d="M167.391,167.607c1.016,0,1.848,0.739,1.848,1.756c0,1.017-0.832,1.756-1.848,1.756h-51.57
			c-0.924,0-1.756-0.739-1.756-1.756c0-1.017,0.832-1.756,1.756-1.756H167.391z M161.938,164.742h-40.942l-2.033-17.56
			c0,0,7.394-1.941,12.384-3.05c4.436-0.924,9.704-1.571,10.074-1.571c0.37,0,5.73,0.647,10.073,1.571
			c4.991,1.109,12.384,3.05,12.384,3.05L161.938,164.742z M123.492,142.469v-12.846c0-1.663-0.462-3.882,3.881-3.882h8.041v-12.107
			c0.092-0.647,0.555-1.201,1.201-1.294h9.612c0.647,0.092,1.201,0.647,1.201,1.294v12.107h8.041c4.344,0,3.881,2.218,3.881,3.882
			v12.846c-2.495-0.647-4.436-1.109-7.856-1.848c-4.436-0.924-9.796-1.571-10.073-1.664c-0.277,0.092-5.638,0.739-10.074,1.664
			L123.492,142.469z M128.852,132.488c0,1.941,1.479,3.42,3.42,3.42c1.941,0,3.419-1.479,3.419-3.42
			c0-1.941-1.479-3.419-3.419-3.419C130.331,129.069,128.852,130.547,128.852,132.488z M138.001,132.488
			c0,1.941,1.571,3.42,3.42,3.42c1.941,0,3.419-1.479,3.419-3.42c0-1.941-1.479-3.419-3.419-3.419
			C139.573,129.069,138.001,130.547,138.001,132.488z M147.151,132.488c0,1.941,1.571,3.42,3.419,3.42c1.941,0,3.42-1.479,3.42-3.42
			c0-1.941-1.479-3.419-3.42-3.419C148.722,129.069,147.151,130.547,147.151,132.488z"/>
	</g>
</g>
</svg>
