<svg xmlns="http://www.w3.org/2000/svg" viewBox="0 0 336.95 68.92">
  <defs>
    <style>
      .a{fill:#cade9b}.b{fill:#fff}
    </style>
  </defs>
  <path class="a" d="M22.86 38.9A19 19 0 0139.67 23l.52-7.56a26.49 26.49 0 00-24.85 23z"/>
  <path class="b" d="M331.28 35.55H336v32.68h-4.73zm4.7-6.81a3.11 3.11 0 01-2.27 1 3.37 3.37 0 01-2.43-1 3.15 3.15 0 01-1-2.34 3.2 3.2 0 011-2.39 3.34 3.34 0 012.43-1A3.08 3.08 0 01336 24a3.26 3.26 0 011 2.39 3.21 3.21 0 01-1 2.34m-22.68 39.5h-4.1l-11.71-32.68h5l8.34 25.71.5 1.56.5-1.56 8.34-25.71H325zm-25.39-14.62a15.34 15.34 0 00-3.52-1.37 19.39 19.39 0 00-4.89-.5 8.68 8.68 0 00-5.63 1.65 5.77 5.77 0 00-2 4.76q0 3.68 1.83 5.32a7 7 0 004.83 1.65 10.55 10.55 0 005.54-1.43 13.13 13.13 0 003.86-3.49zm0 14.62v-4a18.06 18.06 0 01-4.2 3.27 12 12 0 01-6 1.4 14 14 0 01-3.8-.53 9.3 9.3 0 01-3.36-1.74 8.59 8.59 0 01-2.4-3.21 12.12 12.12 0 01-.9-5 9.89 9.89 0 011.06-4.73 9.6 9.6 0 012.77-3.27 11.52 11.52 0 014-1.87 18.8 18.8 0 014.7-.59 19.13 19.13 0 014.61.53 14.25 14.25 0 013.55 1.34V46q0-7.17-7.1-7.18a16.16 16.16 0 00-4.76.66 18.54 18.54 0 00-4.14 1.83l-1.74-3.82a21.08 21.08 0 015-1.92 23.58 23.58 0 016-.73q5.31 0 8.4 2.46c2.06 1.64 3.09 4.34 3.09 8.12v22.81zm-32 0V49.08c0-3.53-.64-6.12-1.9-7.76s-3.19-2.47-5.79-2.47a7.6 7.6 0 00-5.74 2.44q-2.33 2.43-2.32 7.79v19.15h-4.73V35.55h4.73v4a11.39 11.39 0 013.67-3.36 10.35 10.35 0 015.35-1.31 13.56 13.56 0 014.73.78 8.93 8.93 0 013.61 2.42 11.19 11.19 0 012.31 4.17 20 20 0 01.81 6.07v19.91zm-28.69-1.3a8.54 8.54 0 01-2.87 1.43 12.83 12.83 0 01-3.79.56 8.93 8.93 0 01-3.64-.72 7.54 7.54 0 01-2.76-2 9.54 9.54 0 01-1.76-3.11 12.32 12.32 0 01-.62-4V43.65h-5.48v-8.1h5.48v-8.4l8.65-4.3v12.7h7.84v8.1h-7.84v13.13c0 1.58.27 2.62.81 3.14a3.29 3.29 0 002.37.78 4.62 4.62 0 002.21-.56 17.49 17.49 0 002.64-1.93zm-34.3-21.17a6.81 6.81 0 00-5.82-2.8Q182 43 182 51.3q0 5 1.54 7.28a4.73 4.73 0 004.1 2.25 5.93 5.93 0 003.19-.75 8.14 8.14 0 002.13-2zm0 22.47v-2a14.69 14.69 0 01-2.9 1.9 8.74 8.74 0 01-4 .84 12.19 12.19 0 01-4.92-1 10.71 10.71 0 01-4.05-3.14 15.76 15.76 0 01-2.73-5.42 27 27 0 01-1-7.87 25.23 25.23 0 01.84-6.72 15.89 15.89 0 012.46-5.26 11.28 11.28 0 014-3.43 11.69 11.69 0 015.36-1.26 10 10 0 013.95.75 10.52 10.52 0 013 1.8V27.15l8.65-4.3v45.38zM159 54.54a9 9 0 00-2.38-1 14.36 14.36 0 00-3.56-.34 5.62 5.62 0 00-3.69 1.06 3.75 3.75 0 00-1.26 3.05 4.57 4.57 0 001.11 3c.74.87 2 1.31 3.84 1.31a7.3 7.3 0 003.68-.91 5.9 5.9 0 002.26-2.06zm0 13.69v-2.18a9 9 0 01-3.11 2.06 10.86 10.86 0 01-4.24.81 14.19 14.19 0 01-4.48-.72 11.48 11.48 0 01-3.89-2.15 10.71 10.71 0 01-2.77-3.61 11.62 11.62 0 01-1.06-5.16 10.49 10.49 0 011-4.73 9.45 9.45 0 012.83-3.4 13.21 13.21 0 014.2-2 19.12 19.12 0 015.2-.68 14.6 14.6 0 013.74.4 16.23 16.23 0 012.55.9v-1.63a4.16 4.16 0 00-1.15-3 4.64 4.64 0 00-3.47-1.14 25.65 25.65 0 00-2.65.13 17.51 17.51 0 00-2.17.37 15 15 0 00-2 .66 20 20 0 00-2.11 1l-3.3-6c.95-.54 1.87-1 2.77-1.43a17.3 17.3 0 012.8-1 22.08 22.08 0 013.08-.62 26.4 26.4 0 013.61-.22 18.47 18.47 0 015.43.75 11.74 11.74 0 014.19 2.19 9.91 9.91 0 012.73 3.61 11.68 11.68 0 011 4.88v21.91zm-25.45-1.3a8.48 8.48 0 01-2.86 1.43 12.84 12.84 0 01-3.8.56 8.84 8.84 0 01-3.63-.72 7.54 7.54 0 01-2.76-2 9.37 9.37 0 01-1.76-3.11 12.06 12.06 0 01-.63-4V43.65h-5.47v-8.1h5.47v-8.4l8.66-4.3v12.7h7.84v8.1h-7.84v13.13c0 1.58.27 2.62.81 3.14a3.26 3.26 0 002.36.78 4.56 4.56 0 002.21-.56 17 17 0 002.65-1.93zm-25.46-3.46a8.79 8.79 0 01-2.87 3.18 12 12 0 01-4.22 1.74 24.41 24.41 0 01-5.17.53 26.9 26.9 0 01-7.5-1 22 22 0 01-6.19-2.77L85 58.58a25 25 0 005.39 2.21 21.81 21.81 0 005.94.78A6.59 6.59 0 0099.8 61a2.12 2.12 0 00.9-1.87 2.07 2.07 0 00-1-1.8 15.12 15.12 0 00-3.76-1.5Q93 54.91 90.58 54a17.43 17.43 0 01-4.07-2.12 8.38 8.38 0 01-2.59-3 9.45 9.45 0 01-.9-4.36 9.27 9.27 0 011-4.39 8.24 8.24 0 012.7-3 12.31 12.31 0 014.14-1.74 22.76 22.76 0 015.26-.56 23.72 23.72 0 016.29.87 26.8 26.8 0 015.79 2.3l-2.74 6.79a22 22 0 00-5-2 18.18 18.18 0 00-4.57-.66 7.85 7.85 0 00-3.52.53 1.73 1.73 0 00-.9 1.59 1.65 1.65 0 00.25.9 2.53 2.53 0 001 .81 14.63 14.63 0 002.06.9c.89.34 2.06.73 3.51 1.19s2.84 1 4.17 1.55a14.21 14.21 0 013.49 2 8.61 8.61 0 012.36 2.89 9 9 0 01.88 4.14 10 10 0 01-1.06 4.76M68.09 64.6V41.8A26.56 26.56 0 0047 15.86l-.56 7.54a19.08 19.08 0 0114.2 18.4v19.07H41.57a19.1 19.1 0 01-18.65-15.12l-7.61-.5a26.52 26.52 0 0026.26 23.07h22.8a3.73 3.73 0 003.72-3.72"/>
  <path class="a" d="M7.49 37.82A34.4 34.4 0 0140.74 7.51L41.26 0A41.84 41.84 0 000 37.3z"/>
</svg>
