<svg width="151" height="150" viewBox="0 0 151 150" fill="none" xmlns="http://www.w3.org/2000/svg">
    <g clip-path="url(#clip0_2375_90172)">
        <path
            d="M74.7379 136.008C108.471 136.008 135.818 108.661 135.818 74.9279C135.818 41.1945 108.471 13.8481 74.7379 13.8481C41.0045 13.8481 13.6582 41.1945 13.6582 74.9279C13.6582 108.661 41.0045 136.008 74.7379 136.008Z"
            fill="#BEE4F9" />
        <mask id="mask0_2375_90172" style="mask-type:luminance" maskUnits="userSpaceOnUse" x="8" y="3" width="135"
            height="134">
            <path
                d="M142.608 3.78906L142.776 100.362L127.73 105.329C117.189 123.663 97.4074 136.008 74.7414 136.008C61.8916 136.039 50.4073 131.847 43.0519 127.139C24.3195 127.139 8.23242 136.005 8.23242 136.005V3.94244L142.608 3.78906Z"
                fill="white" />
        </mask>
        <g mask="url(#mask0_2375_90172)">
            <path
                d="M82.0527 61.3236L127.022 71.6271C127.579 71.7547 128.077 72.0628 128.439 72.5039L140.905 87.687C135.853 91.6368 133.001 93.8669 127.882 97.871L82.0541 88.3358V61.3223L82.0527 61.3236Z"
                fill="white" />
            <path d="M81.918 76.3679L98.0281 79.8806V75.8087L81.918 72.2959V76.3679Z" fill="#0074BD" />
            <path
                d="M106.745 81.2141C107.548 80.7156 107.715 79.5341 107.119 78.5752C106.523 77.6164 105.39 77.2432 104.587 77.7418C103.785 78.2404 103.618 79.4218 104.214 80.3807C104.81 81.3396 105.943 81.7127 106.745 81.2141Z"
                fill="#0074BD" />
            <path
                d="M111.3 82.2581C112.102 81.7595 112.269 80.578 111.674 79.6192C111.078 78.6603 109.944 78.2872 109.142 78.7857C108.34 79.2843 108.173 80.4658 108.768 81.4246C109.364 82.3835 110.498 82.7566 111.3 82.2581Z"
                fill="#0074BD" />
            <path
                d="M115.855 83.3025C116.657 82.8039 116.824 81.6225 116.228 80.6636C115.632 79.7047 114.499 79.3316 113.697 79.8302C112.894 80.3287 112.727 81.5102 113.323 82.4691C113.919 83.4279 115.052 83.8011 115.855 83.3025Z"
                fill="#0074BD" />
            <path
                d="M120.465 84.4376C121.31 83.9125 121.486 82.6688 120.859 81.6596C120.232 80.6505 119.039 80.2581 118.194 80.7831C117.349 81.3082 117.172 82.552 117.8 83.5611C118.427 84.5703 119.62 84.9627 120.465 84.4376Z"
                fill="#0074BD" />
            <path
                d="M124.545 87.026C126.264 85.958 126.622 83.4277 125.346 81.3744C124.07 79.321 121.642 78.5222 119.924 79.5902C118.206 80.6582 117.847 83.1885 119.123 85.2418C120.399 87.2951 122.827 88.0939 124.545 87.026Z"
                fill="white" />
            <path
                d="M117.41 82.4857C117.41 79.6421 119.576 77.7012 122.24 78.1586C124.903 78.6146 127.069 81.2994 127.069 84.143C127.069 86.9866 124.903 88.9276 122.24 88.4702C119.576 88.0141 117.41 85.3293 117.41 82.4857ZM119.317 82.8129C119.317 84.5326 120.628 86.1573 122.24 86.4342C123.851 86.7111 125.162 85.5357 125.162 83.8159C125.162 82.0962 123.851 80.4715 122.24 80.1946C120.628 79.9177 119.317 81.0931 119.317 82.8129Z"
                fill="#0074BD" />
            <path
                d="M100.383 81.3468C102.101 80.2788 102.46 77.7485 101.184 75.6952C99.9079 73.6418 97.4803 72.843 95.7619 73.911C94.0435 74.979 93.6849 77.5093 94.961 79.5626C96.2371 81.6159 98.6646 82.4147 100.383 81.3468Z"
                fill="white" />
            <path
                d="M93.2383 76.8051C93.2383 73.9615 95.4046 72.0205 98.0677 72.4779C100.731 72.934 102.897 75.6188 102.897 78.4624C102.897 81.306 100.731 83.247 98.0677 82.7895C95.4046 82.3335 93.2383 79.6487 93.2383 76.8051ZM95.1453 77.1322C95.1453 78.8519 96.4565 80.4767 98.0677 80.7535C99.6788 81.0304 100.99 79.855 100.99 78.1353C100.99 76.4155 99.6788 74.7908 98.0677 74.5139C96.4565 74.237 95.1453 75.4125 95.1453 77.1322Z"
                fill="#0074BD" />
            <path
                d="M71.5466 33.9839L16.8002 46.2623C13.2454 47.1581 11.1035 49.1629 11.1035 52.8467V66.7172C11.1035 70.401 13.9648 72.703 17.5196 71.8547L71.5466 60.521"
                fill="white" />
            <path d="M46.7593 54.4621L23.6875 59.4774V55.4055L46.7593 50.3901V54.4621Z" fill="#0074BD" />
            <path d="M67.3746 49.9777L50.1094 53.7308V49.6588L67.3746 45.9058V49.9777Z" fill="#0074BD" />
            <path
                d="M27.8754 59.0675C29.1515 57.0142 28.7929 54.4839 27.0745 53.4159C25.356 52.348 22.9285 53.1468 21.6524 55.2001C20.3763 57.2534 20.7349 59.7837 22.4533 60.8517C24.1717 61.9197 26.5993 61.1209 27.8754 59.0675Z"
                fill="white" />
            <path
                d="M24.7591 62.2877C22.096 62.7438 19.9297 60.8028 19.9297 57.9605C19.9297 55.1183 22.096 52.4335 24.7591 51.9761C27.4221 51.52 29.5884 53.461 29.5884 56.3033C29.5884 59.1455 27.4221 61.8303 24.7591 62.2877ZM24.7591 54.0121C23.1479 54.289 21.8367 55.9123 21.8367 57.6334C21.8367 59.3545 23.1479 60.5286 24.7591 60.2517C26.3702 59.9748 27.6814 58.3515 27.6814 56.6304C27.6814 54.9093 26.3702 53.7352 24.7591 54.0121Z"
                fill="#0074BD" />
            <path
                d="M49.6879 54.3839C50.964 52.3306 50.6054 49.8003 48.887 48.7323C47.1685 47.6644 44.741 48.4632 43.4649 50.5165C42.1888 52.5698 42.5474 55.1001 44.2658 56.1681C45.9842 57.2361 48.4118 56.4373 49.6879 54.3839Z"
                fill="white" />
            <path
                d="M46.5716 57.6041C43.9085 58.0602 41.7422 56.1192 41.7422 53.277C41.7422 50.4347 43.9085 47.7499 46.5716 47.2925C49.2346 46.8364 51.4009 48.7774 51.4009 51.6197C51.4009 54.4619 49.2346 57.1467 46.5716 57.6041ZM46.5716 49.3285C44.9604 49.6054 43.6492 51.2287 43.6492 52.9498C43.6492 54.6709 44.9604 55.845 46.5716 55.5681C48.1827 55.2912 49.4939 53.6679 49.4939 51.9468C49.4939 50.2257 48.1827 49.0516 46.5716 49.3285Z"
                fill="#0074BD" />
            <path
                d="M16.0596 73.3914C14.61 73.3914 13.2676 72.9435 12.1668 72.0748C10.6072 70.8437 9.74805 68.9408 9.74805 66.7188V52.8483C9.74805 47.7176 13.4033 45.7196 16.4695 44.9473L16.5035 44.9392L72.2937 32.4097L72.8882 35.0578L17.1156 47.5832C13.8974 48.3976 12.4613 50.0223 12.4613 52.8469V66.7175C12.4613 68.0911 12.9541 69.2367 13.8485 69.9425C14.7227 70.632 15.9144 70.8424 17.2052 70.5343L17.2418 70.5261L72.3127 58.9413L72.8719 61.5976L17.8187 73.1783C17.2215 73.3195 16.6324 73.3887 16.061 73.3887L16.0596 73.3914Z"
                fill="#0074BD" />
            <path
                d="M126.042 98.6934C125.453 98.6934 124.862 98.6337 124.275 98.5129L80.5896 89.427L81.1421 86.7693L124.826 95.8539C126.551 96.2109 128.338 95.7928 129.726 94.707L138.926 87.5131C138.926 87.5131 138.947 87.4982 138.949 87.4724C138.952 87.448 138.941 87.4331 138.936 87.4276L128.985 75.3081C127.787 73.8489 126.113 72.8133 124.271 72.3925L80.5625 62.408L81.1665 59.7612L124.875 69.7457C127.299 70.2995 129.504 71.6636 131.082 73.5856L141.033 85.7052C141.511 86.2875 141.729 87.0204 141.646 87.7697C141.563 88.5189 141.192 89.1867 140.597 89.6509L131.397 96.8448C129.851 98.0528 127.967 98.6921 126.041 98.6921L126.042 98.6934Z"
                fill="#0074BD" />
            <path
                d="M80.8992 160.868V24.9634C80.8992 23.0835 78.1411 21.5605 74.7396 21.5605C71.3382 21.5605 68.5801 23.0835 68.5801 24.9634V152.82L80.8992 160.868Z"
                fill="white" />
            <path
                d="M82.1691 160.869V24.9634C82.1718 24.1775 81.8704 23.4473 81.4239 22.8677C80.7479 21.9936 79.7693 21.3842 78.6292 20.9525C77.4849 20.5263 76.1602 20.2929 74.7418 20.2915C72.8497 20.2956 71.1258 20.7028 69.7726 21.4466C69.0966 21.8212 68.5076 22.2827 68.0596 22.8677C67.6131 23.4459 67.3118 24.1775 67.3145 24.9634V152.82C67.3145 153.52 67.8818 154.087 68.5822 154.087C69.2826 154.087 69.85 153.52 69.85 152.82V24.9634C69.8513 24.8087 69.8961 24.6445 70.0726 24.4096C70.3305 24.0608 70.9155 23.6332 71.7407 23.3292C72.5633 23.0211 73.6084 22.827 74.7418 22.8283C76.2525 22.8243 77.6084 23.1785 78.4839 23.6672C78.9237 23.9088 79.2359 24.1789 79.411 24.4096C79.5874 24.6458 79.6322 24.81 79.6336 24.9634V160.869C79.6336 161.569 80.2009 162.136 80.9013 162.136C81.6017 162.136 82.1691 161.569 82.1691 160.869Z"
                fill="#0074BD" />
            <path
                d="M73.3359 134.54C72.9748 134.54 72.6816 134.833 72.6816 135.194C72.6816 135.555 72.9748 135.848 73.3359 135.848C73.6969 135.848 73.9901 135.555 73.9901 135.194C73.9901 134.833 73.6969 134.54 73.3359 134.54Z"
                fill="#0074BD" />
            <path
                d="M73.3359 131.677C72.9748 131.677 72.6816 131.97 72.6816 132.331C72.6816 132.692 72.9748 132.985 73.3359 132.985C73.6969 132.985 73.9901 132.692 73.9901 132.331C73.9901 131.97 73.6969 131.677 73.3359 131.677Z"
                fill="#0074BD" />
            <path
                d="M73.3359 128.813C72.9748 128.813 72.6816 129.106 72.6816 129.467C72.6816 129.828 72.9748 130.121 73.3359 130.121C73.6969 130.121 73.9901 129.828 73.9901 129.467C73.9901 129.106 73.6969 128.813 73.3359 128.813Z"
                fill="#0074BD" />
            <path
                d="M73.3359 125.949C72.9748 125.949 72.6816 126.242 72.6816 126.603C72.6816 126.964 72.9748 127.257 73.3359 127.257C73.6969 127.257 73.9901 126.964 73.9901 126.603C73.9901 126.242 73.6969 125.949 73.3359 125.949Z"
                fill="#0074BD" />
            <path
                d="M73.3359 123.085C72.9748 123.085 72.6816 123.378 72.6816 123.739C72.6816 124.1 72.9748 124.393 73.3359 124.393C73.6969 124.393 73.9901 124.1 73.9901 123.739C73.9901 123.378 73.6969 123.085 73.3359 123.085Z"
                fill="#0074BD" />
            <path
                d="M73.3359 120.222C72.9748 120.222 72.6816 120.515 72.6816 120.876C72.6816 121.237 72.9748 121.53 73.3359 121.53C73.6969 121.53 73.9901 121.237 73.9901 120.876C73.9901 120.515 73.6969 120.222 73.3359 120.222Z"
                fill="#0074BD" />
            <path
                d="M73.3359 117.358C72.9748 117.358 72.6816 117.652 72.6816 118.013C72.6816 118.374 72.9748 118.667 73.3359 118.667C73.6969 118.667 73.9901 118.374 73.9901 118.013C73.9901 117.652 73.6969 117.358 73.3359 117.358Z"
                fill="#0074BD" />
            <path
                d="M73.3359 114.496C72.9748 114.496 72.6816 114.789 72.6816 115.15C72.6816 115.511 72.9748 115.804 73.3359 115.804C73.6969 115.804 73.9901 115.511 73.9901 115.15C73.9901 114.789 73.6969 114.496 73.3359 114.496Z"
                fill="#0074BD" />
            <path
                d="M73.3359 111.632C72.9748 111.632 72.6816 111.925 72.6816 112.286C72.6816 112.647 72.9748 112.94 73.3359 112.94C73.6969 112.94 73.9901 112.647 73.9901 112.286C73.9901 111.925 73.6969 111.632 73.3359 111.632Z"
                fill="#0074BD" />
            <path
                d="M73.3359 108.768C72.9748 108.768 72.6816 109.061 72.6816 109.422C72.6816 109.783 72.9748 110.076 73.3359 110.076C73.6969 110.076 73.9901 109.783 73.9901 109.422C73.9901 109.061 73.6969 108.768 73.3359 108.768Z"
                fill="#0074BD" />
            <path
                d="M73.3359 105.904C72.9748 105.904 72.6816 106.197 72.6816 106.558C72.6816 106.919 72.9748 107.212 73.3359 107.212C73.6969 107.212 73.9901 106.919 73.9901 106.558C73.9901 106.197 73.6969 105.904 73.3359 105.904Z"
                fill="#0074BD" />
            <path
                d="M73.3359 103.041C72.9748 103.041 72.6816 103.334 72.6816 103.695C72.6816 104.056 72.9748 104.349 73.3359 104.349C73.6969 104.349 73.9901 104.056 73.9901 103.695C73.9901 103.334 73.6969 103.041 73.3359 103.041Z"
                fill="#0074BD" />
            <path
                d="M73.3359 100.177C72.9748 100.177 72.6816 100.47 72.6816 100.831C72.6816 101.193 72.9748 101.486 73.3359 101.486C73.6969 101.486 73.9901 101.193 73.9901 100.831C73.9901 100.47 73.6969 100.177 73.3359 100.177Z"
                fill="#0074BD" />
            <path
                d="M73.3359 97.3135C72.9748 97.3135 72.6816 97.6067 72.6816 97.9677C72.6816 98.3287 72.9748 98.6219 73.3359 98.6219C73.6969 98.6219 73.9901 98.3287 73.9901 97.9677C73.9901 97.6067 73.6969 97.3135 73.3359 97.3135Z"
                fill="#0074BD" />
            <path
                d="M73.3359 94.4507C72.9748 94.4507 72.6816 94.7439 72.6816 95.1049C72.6816 95.466 72.9748 95.7591 73.3359 95.7591C73.6969 95.7591 73.9901 95.466 73.9901 95.1049C73.9901 94.7439 73.6969 94.4507 73.3359 94.4507Z"
                fill="#0074BD" />
            <path
                d="M73.3359 91.5864C72.9748 91.5864 72.6816 91.8796 72.6816 92.2406C72.6816 92.6017 72.9748 92.8949 73.3359 92.8949C73.6969 92.8949 73.9901 92.6017 73.9901 92.2406C73.9901 91.8796 73.6969 91.5864 73.3359 91.5864Z"
                fill="#0074BD" />
            <path
                d="M73.3359 88.7227C72.9748 88.7227 72.6816 89.0158 72.6816 89.3769C72.6816 89.7379 72.9748 90.0311 73.3359 90.0311C73.6969 90.0311 73.9901 89.7379 73.9901 89.3769C73.9901 89.0158 73.6969 88.7227 73.3359 88.7227Z"
                fill="#0074BD" />
            <path
                d="M73.3359 85.8589C72.9748 85.8589 72.6816 86.1521 72.6816 86.5131C72.6816 86.8742 72.9748 87.1674 73.3359 87.1674C73.6969 87.1674 73.9901 86.8742 73.9901 86.5131C73.9901 86.1521 73.6969 85.8589 73.3359 85.8589Z"
                fill="#0074BD" />
            <path
                d="M73.3359 82.9961C72.9748 82.9961 72.6816 83.2893 72.6816 83.6503C72.6816 84.0114 72.9748 84.3046 73.3359 84.3046C73.6969 84.3046 73.9901 84.0114 73.9901 83.6503C73.9901 83.2893 73.6969 82.9961 73.3359 82.9961Z"
                fill="#0074BD" />
            <path
                d="M73.3359 80.1323C72.9748 80.1323 72.6816 80.4255 72.6816 80.7866C72.6816 81.1476 72.9748 81.4408 73.3359 81.4408C73.6969 81.4408 73.9901 81.1476 73.9901 80.7866C73.9901 80.4255 73.6969 80.1323 73.3359 80.1323Z"
                fill="#0074BD" />
            <path
                d="M73.3359 77.2681C72.9748 77.2681 72.6816 77.5613 72.6816 77.9223C72.6816 78.2834 72.9748 78.5765 73.3359 78.5765C73.6969 78.5765 73.9901 78.2834 73.9901 77.9223C73.9901 77.5613 73.6969 77.2681 73.3359 77.2681Z"
                fill="#0074BD" />
            <path
                d="M73.3359 74.4043C72.9748 74.4043 72.6816 74.6975 72.6816 75.0585C72.6816 75.4196 72.9748 75.7128 73.3359 75.7128C73.6969 75.7128 73.9901 75.4196 73.9901 75.0585C73.9901 74.6975 73.6969 74.4043 73.3359 74.4043Z"
                fill="#0074BD" />
            <path
                d="M73.3359 71.542C72.9748 71.542 72.6816 71.8352 72.6816 72.1962C72.6816 72.5573 72.9748 72.8505 73.3359 72.8505C73.6969 72.8505 73.9901 72.5573 73.9901 72.1962C73.9901 71.8352 73.6969 71.542 73.3359 71.542Z"
                fill="#0074BD" />
            <path
                d="M73.3359 68.6777C72.9748 68.6777 72.6816 68.9696 72.6816 69.332C72.6816 69.6944 72.9748 69.9862 73.3359 69.9862C73.6969 69.9862 73.9901 69.693 73.9901 69.332C73.9901 68.9709 73.6969 68.6777 73.3359 68.6777Z"
                fill="#0074BD" />
            <path
                d="M73.3359 65.8149C72.9748 65.8149 72.6816 66.1081 72.6816 66.4692C72.6816 66.8302 72.9748 67.1234 73.3359 67.1234C73.6969 67.1234 73.9901 66.8302 73.9901 66.4692C73.9901 66.1081 73.6969 65.8149 73.3359 65.8149Z"
                fill="#0074BD" />
            <path
                d="M73.3359 62.9512C72.9748 62.9512 72.6816 63.2444 72.6816 63.6054C72.6816 63.9665 72.9748 64.2596 73.3359 64.2596C73.6969 64.2596 73.9901 63.9665 73.9901 63.6054C73.9901 63.2444 73.6969 62.9512 73.3359 62.9512Z"
                fill="#0074BD" />
            <path
                d="M73.3359 60.0869C72.9748 60.0869 72.6816 60.3801 72.6816 60.7411C72.6816 61.1022 72.9748 61.3954 73.3359 61.3954C73.6969 61.3954 73.9901 61.1022 73.9901 60.7411C73.9901 60.3801 73.6969 60.0869 73.3359 60.0869Z"
                fill="#0074BD" />
            <path
                d="M73.3359 57.2231C72.9748 57.2231 72.6816 57.5163 72.6816 57.8774C72.6816 58.2384 72.9748 58.5316 73.3359 58.5316C73.6969 58.5316 73.9901 58.2384 73.9901 57.8774C73.9901 57.5163 73.6969 57.2231 73.3359 57.2231Z"
                fill="#0074BD" />
            <path
                d="M73.3359 54.3608C72.9748 54.3608 72.6816 54.654 72.6816 55.0151C72.6816 55.3761 72.9748 55.6693 73.3359 55.6693C73.6969 55.6693 73.9901 55.3761 73.9901 55.0151C73.9901 54.654 73.6969 54.3608 73.3359 54.3608Z"
                fill="#0074BD" />
            <path
                d="M73.3359 51.4966C72.9748 51.4966 72.6816 51.7898 72.6816 52.1508C72.6816 52.5119 72.9748 52.805 73.3359 52.805C73.6969 52.805 73.9901 52.5119 73.9901 52.1508C73.9901 51.7898 73.6969 51.4966 73.3359 51.4966Z"
                fill="#0074BD" />
            <path
                d="M73.3359 48.6328C72.9748 48.6328 72.6816 48.926 72.6816 49.287C72.6816 49.6481 72.9748 49.9413 73.3359 49.9413C73.6969 49.9413 73.9901 49.6481 73.9901 49.287C73.9901 48.926 73.6969 48.6328 73.3359 48.6328Z"
                fill="#0074BD" />
            <path
                d="M73.3359 45.77C72.9748 45.77 72.6816 46.0632 72.6816 46.4242C72.6816 46.7853 72.9748 47.0785 73.3359 47.0785C73.6969 47.0785 73.9901 46.7853 73.9901 46.4242C73.9901 46.0632 73.6969 45.77 73.3359 45.77Z"
                fill="#0074BD" />
            <path
                d="M73.3359 42.9062C72.9748 42.9062 72.6816 43.1994 72.6816 43.5605C72.6816 43.9215 72.9748 44.2147 73.3359 44.2147C73.6969 44.2147 73.9901 43.9215 73.9901 43.5605C73.9901 43.1994 73.6969 42.9062 73.3359 42.9062Z"
                fill="#0074BD" />
            <path
                d="M73.3359 40.042C72.9748 40.042 72.6816 40.3352 72.6816 40.6962C72.6816 41.0573 72.9748 41.3505 73.3359 41.3505C73.6969 41.3505 73.9901 41.0573 73.9901 40.6962C73.9901 40.3352 73.6969 40.042 73.3359 40.042Z"
                fill="#0074BD" />
            <path
                d="M73.3359 37.1782C72.9748 37.1782 72.6816 37.4714 72.6816 37.8325C72.6816 38.1935 72.9748 38.4867 73.3359 38.4867C73.6969 38.4867 73.9901 38.1935 73.9901 37.8325C73.9901 37.4714 73.6969 37.1782 73.3359 37.1782Z"
                fill="#0074BD" />
            <path
                d="M73.3359 34.3154C72.9748 34.3154 72.6816 34.6086 72.6816 34.9697C72.6816 35.3307 72.9748 35.6239 73.3359 35.6239C73.6969 35.6239 73.9901 35.3307 73.9901 34.9697C73.9901 34.6086 73.6969 34.3154 73.3359 34.3154Z"
                fill="#0074BD" />
            <path
                d="M73.3359 31.4517C72.9748 31.4517 72.6816 31.7448 72.6816 32.1059C72.6816 32.4669 72.9748 32.7601 73.3359 32.7601C73.6969 32.7601 73.9901 32.4669 73.9901 32.1059C73.9901 31.7448 73.6969 31.4517 73.3359 31.4517Z"
                fill="#0074BD" />
            <path
                d="M73.3359 28.5879C72.9748 28.5879 72.6816 28.8811 72.6816 29.2421C72.6816 29.6032 72.9748 29.8964 73.3359 29.8964C73.6969 29.8964 73.9901 29.6032 73.9901 29.2421C73.9901 28.8811 73.6969 28.5879 73.3359 28.5879Z"
                fill="#0074BD" />
            <path
                d="M73.3359 25.7251C72.9748 25.7251 72.6816 26.0183 72.6816 26.3793C72.6816 26.7404 72.9748 27.0336 73.3359 27.0336C73.6969 27.0336 73.9901 26.7404 73.9901 26.3793C73.9901 26.0183 73.6969 25.7251 73.3359 25.7251Z"
                fill="#0074BD" />
            <path
                d="M73.3359 22.7539C72.9748 22.7539 72.6816 23.0471 72.6816 23.4081C72.6816 23.7692 72.9748 24.0624 73.3359 24.0624C73.6969 24.0624 73.9901 23.7692 73.9901 23.4081C73.9901 23.0471 73.6969 22.7539 73.3359 22.7539Z"
                fill="#0074BD" />
            <path
                d="M71.8769 135.97C71.5158 135.97 71.2227 136.263 71.2227 136.624C71.2227 136.985 71.5158 137.278 71.8769 137.278C72.2379 137.278 72.5311 136.985 72.5311 136.624C72.5311 136.263 72.2379 135.97 71.8769 135.97Z"
                fill="#0074BD" />
            <path
                d="M71.8769 133.107C71.5158 133.107 71.2227 133.4 71.2227 133.761C71.2227 134.122 71.5158 134.415 71.8769 134.415C72.2379 134.415 72.5311 134.122 72.5311 133.761C72.5311 133.4 72.2379 133.107 71.8769 133.107Z"
                fill="#0074BD" />
            <path
                d="M71.8769 130.243C71.5158 130.243 71.2227 130.536 71.2227 130.897C71.2227 131.258 71.5158 131.552 71.8769 131.552C72.2379 131.552 72.5311 131.258 72.5311 130.897C72.5311 130.536 72.2379 130.243 71.8769 130.243Z"
                fill="#0074BD" />
            <path
                d="M71.8769 127.379C71.5158 127.379 71.2227 127.672 71.2227 128.033C71.2227 128.394 71.5158 128.687 71.8769 128.687C72.2379 128.687 72.5311 128.394 72.5311 128.033C72.5311 127.672 72.2379 127.379 71.8769 127.379Z"
                fill="#0074BD" />
            <path
                d="M71.8769 124.517C71.5158 124.517 71.2227 124.81 71.2227 125.171C71.2227 125.532 71.5158 125.825 71.8769 125.825C72.2379 125.825 72.5311 125.532 72.5311 125.171C72.5311 124.81 72.2379 124.517 71.8769 124.517Z"
                fill="#0074BD" />
            <path
                d="M71.8769 121.652C71.5158 121.652 71.2227 121.946 71.2227 122.307C71.2227 122.668 71.5158 122.961 71.8769 122.961C72.2379 122.961 72.5311 122.668 72.5311 122.307C72.5311 121.946 72.2379 121.652 71.8769 121.652Z"
                fill="#0074BD" />
            <path
                d="M71.8769 118.789C71.5158 118.789 71.2227 119.082 71.2227 119.443C71.2227 119.804 71.5158 120.097 71.8769 120.097C72.2379 120.097 72.5311 119.804 72.5311 119.443C72.5311 119.082 72.2379 118.789 71.8769 118.789Z"
                fill="#0074BD" />
            <path
                d="M71.8769 115.925C71.5158 115.925 71.2227 116.218 71.2227 116.579C71.2227 116.94 71.5158 117.233 71.8769 117.233C72.2379 117.233 72.5311 116.94 72.5311 116.579C72.5311 116.218 72.2379 115.925 71.8769 115.925Z"
                fill="#0074BD" />
            <path
                d="M71.8769 113.062C71.5158 113.062 71.2227 113.355 71.2227 113.716C71.2227 114.077 71.5158 114.37 71.8769 114.37C72.2379 114.37 72.5311 114.077 72.5311 113.716C72.5311 113.355 72.2379 113.062 71.8769 113.062Z"
                fill="#0074BD" />
            <path
                d="M71.8769 110.198C71.5158 110.198 71.2227 110.491 71.2227 110.852C71.2227 111.214 71.5158 111.507 71.8769 111.507C72.2379 111.507 72.5311 111.214 72.5311 110.852C72.5311 110.491 72.2379 110.198 71.8769 110.198Z"
                fill="#0074BD" />
            <path
                d="M71.8769 107.335C71.5158 107.335 71.2227 107.629 71.2227 107.99C71.2227 108.351 71.5158 108.644 71.8769 108.644C72.2379 108.644 72.5311 108.351 72.5311 107.99C72.5311 107.629 72.2379 107.335 71.8769 107.335Z"
                fill="#0074BD" />
            <path
                d="M71.8769 104.472C71.5158 104.472 71.2227 104.765 71.2227 105.126C71.2227 105.487 71.5158 105.78 71.8769 105.78C72.2379 105.78 72.5311 105.487 72.5311 105.126C72.5311 104.765 72.2379 104.472 71.8769 104.472Z"
                fill="#0074BD" />
            <path
                d="M71.8769 101.607C71.5158 101.607 71.2227 101.901 71.2227 102.262C71.2227 102.623 71.5158 102.916 71.8769 102.916C72.2379 102.916 72.5311 102.623 72.5311 102.262C72.5311 101.901 72.2379 101.607 71.8769 101.607Z"
                fill="#0074BD" />
            <path
                d="M71.8769 98.7437C71.5158 98.7437 71.2227 99.0368 71.2227 99.3979C71.2227 99.7589 71.5158 100.052 71.8769 100.052C72.2379 100.052 72.5311 99.7589 72.5311 99.3979C72.5311 99.0368 72.2379 98.7437 71.8769 98.7437Z"
                fill="#0074BD" />
            <path
                d="M71.8769 95.8809C71.5158 95.8809 71.2227 96.174 71.2227 96.5351C71.2227 96.8961 71.5158 97.1893 71.8769 97.1893C72.2379 97.1893 72.5311 96.8961 72.5311 96.5351C72.5311 96.174 72.2379 95.8809 71.8769 95.8809Z"
                fill="#0074BD" />
            <path
                d="M71.8769 93.0171C71.5158 93.0171 71.2227 93.3103 71.2227 93.6713C71.2227 94.0324 71.5158 94.3256 71.8769 94.3256C72.2379 94.3256 72.5311 94.0324 72.5311 93.6713C72.5311 93.3103 72.2379 93.0171 71.8769 93.0171Z"
                fill="#0074BD" />
            <path
                d="M71.8769 90.1528C71.5158 90.1528 71.2227 90.446 71.2227 90.8071C71.2227 91.1681 71.5158 91.4613 71.8769 91.4613C72.2379 91.4613 72.5311 91.1681 72.5311 90.8071C72.5311 90.446 72.2379 90.1528 71.8769 90.1528Z"
                fill="#0074BD" />
            <path
                d="M71.8769 87.2905C71.5158 87.2905 71.2227 87.5837 71.2227 87.9448C71.2227 88.3058 71.5158 88.599 71.8769 88.599C72.2379 88.599 72.5311 88.3058 72.5311 87.9448C72.5311 87.5837 72.2379 87.2905 71.8769 87.2905Z"
                fill="#0074BD" />
            <path
                d="M71.8769 84.4268C71.5158 84.4268 71.2227 84.7199 71.2227 85.081C71.2227 85.442 71.5158 85.7352 71.8769 85.7352C72.2379 85.7352 72.5311 85.442 72.5311 85.081C72.5311 84.7199 72.2379 84.4268 71.8769 84.4268Z"
                fill="#0074BD" />
            <path
                d="M71.8769 81.5625C71.5158 81.5625 71.2227 81.8557 71.2227 82.2167C71.2227 82.5778 71.5158 82.871 71.8769 82.871C72.2379 82.871 72.5311 82.5778 72.5311 82.2167C72.5311 81.8557 72.2379 81.5625 71.8769 81.5625Z"
                fill="#0074BD" />
            <path
                d="M71.8769 78.6987C71.5158 78.6987 71.2227 78.9919 71.2227 79.353C71.2227 79.714 71.5158 80.0072 71.8769 80.0072C72.2379 80.0072 72.5311 79.714 72.5311 79.353C72.5311 78.9919 72.2379 78.6987 71.8769 78.6987Z"
                fill="#0074BD" />
            <path
                d="M71.8769 75.8359C71.5158 75.8359 71.2227 76.1291 71.2227 76.4902C71.2227 76.8512 71.5158 77.1444 71.8769 77.1444C72.2379 77.1444 72.5311 76.8512 72.5311 76.4902C72.5311 76.1291 72.2379 75.8359 71.8769 75.8359Z"
                fill="#0074BD" />
            <path
                d="M71.8769 72.9722C71.5158 72.9722 71.2227 73.2654 71.2227 73.6264C71.2227 73.9874 71.5158 74.2806 71.8769 74.2806C72.2379 74.2806 72.5311 73.9874 72.5311 73.6264C72.5311 73.2654 72.2379 72.9722 71.8769 72.9722Z"
                fill="#0074BD" />
            <path
                d="M71.8769 70.1094C71.5158 70.1094 71.2227 70.4026 71.2227 70.7636C71.2227 71.1247 71.5158 71.4178 71.8769 71.4178C72.2379 71.4178 72.5311 71.1247 72.5311 70.7636C72.5311 70.4026 72.2379 70.1094 71.8769 70.1094Z"
                fill="#0074BD" />
            <path
                d="M71.8769 67.2456C71.5158 67.2456 71.2227 67.5374 71.2227 67.8998C71.2227 68.2622 71.5158 68.5541 71.8769 68.5541C72.2379 68.5541 72.5311 68.2609 72.5311 67.8998C72.5311 67.5388 72.2379 67.2456 71.8769 67.2456Z"
                fill="#0074BD" />
            <path
                d="M71.8769 64.3813C71.5158 64.3813 71.2227 64.6745 71.2227 65.0356C71.2227 65.3966 71.5158 65.6898 71.8769 65.6898C72.2379 65.6898 72.5311 65.3966 72.5311 65.0356C72.5311 64.6745 72.2379 64.3813 71.8769 64.3813Z"
                fill="#0074BD" />
            <path
                d="M71.8769 61.5176C71.5158 61.5176 71.2227 61.8108 71.2227 62.1718C71.2227 62.5329 71.5158 62.826 71.8769 62.826C72.2379 62.826 72.5311 62.5329 72.5311 62.1718C72.5311 61.8108 72.2379 61.5176 71.8769 61.5176Z"
                fill="#0074BD" />
            <path
                d="M71.8769 58.6548C71.5158 58.6548 71.2227 58.948 71.2227 59.309C71.2227 59.6701 71.5158 59.9632 71.8769 59.9632C72.2379 59.9632 72.5311 59.6701 72.5311 59.309C72.5311 58.948 72.2379 58.6548 71.8769 58.6548Z"
                fill="#0074BD" />
            <path
                d="M71.8769 55.791C71.5158 55.791 71.2227 56.0842 71.2227 56.4452C71.2227 56.8063 71.5158 57.0995 71.8769 57.0995C72.2379 57.0995 72.5311 56.8063 72.5311 56.4452C72.5311 56.0842 72.2379 55.791 71.8769 55.791Z"
                fill="#0074BD" />
            <path
                d="M71.8769 52.9272C71.5158 52.9272 71.2227 53.2204 71.2227 53.5815C71.2227 53.9425 71.5158 54.2357 71.8769 54.2357C72.2379 54.2357 72.5311 53.9425 72.5311 53.5815C72.5311 53.2204 72.2379 52.9272 71.8769 52.9272Z"
                fill="#0074BD" />
            <path
                d="M71.8769 50.063C71.5158 50.063 71.2227 50.3562 71.2227 50.7172C71.2227 51.0783 71.5158 51.3714 71.8769 51.3714C72.2379 51.3714 72.5311 51.0783 72.5311 50.7172C72.5311 50.3562 72.2379 50.063 71.8769 50.063Z"
                fill="#0074BD" />
            <path
                d="M71.8769 47.2007C71.5158 47.2007 71.2227 47.4939 71.2227 47.8549C71.2227 48.216 71.5158 48.5091 71.8769 48.5091C72.2379 48.5091 72.5311 48.216 72.5311 47.8549C72.5311 47.4939 72.2379 47.2007 71.8769 47.2007Z"
                fill="#0074BD" />
            <path
                d="M71.8769 44.3364C71.5158 44.3364 71.2227 44.6296 71.2227 44.9907C71.2227 45.3517 71.5158 45.6449 71.8769 45.6449C72.2379 45.6449 72.5311 45.3517 72.5311 44.9907C72.5311 44.6296 72.2379 44.3364 71.8769 44.3364Z"
                fill="#0074BD" />
            <path
                d="M71.8769 41.4727C71.5158 41.4727 71.2227 41.7658 71.2227 42.1269C71.2227 42.4879 71.5158 42.7811 71.8769 42.7811C72.2379 42.7811 72.5311 42.4879 72.5311 42.1269C72.5311 41.7658 72.2379 41.4727 71.8769 41.4727Z"
                fill="#0074BD" />
            <path
                d="M71.8769 38.6084C71.5158 38.6084 71.2227 38.9016 71.2227 39.2626C71.2227 39.6237 71.5158 39.9169 71.8769 39.9169C72.2379 39.9169 72.5311 39.6237 72.5311 39.2626C72.5311 38.9016 72.2379 38.6084 71.8769 38.6084Z"
                fill="#0074BD" />
            <path
                d="M71.8769 35.7461C71.5158 35.7461 71.2227 36.0393 71.2227 36.4003C71.2227 36.7614 71.5158 37.0546 71.8769 37.0546C72.2379 37.0546 72.5311 36.7614 72.5311 36.4003C72.5311 36.0393 72.2379 35.7461 71.8769 35.7461Z"
                fill="#0074BD" />
            <path
                d="M71.8769 32.8818C71.5158 32.8818 71.2227 33.175 71.2227 33.5361C71.2227 33.8971 71.5158 34.1903 71.8769 34.1903C72.2379 34.1903 72.5311 33.8971 72.5311 33.5361C72.5311 33.175 72.2379 32.8818 71.8769 32.8818Z"
                fill="#0074BD" />
            <path
                d="M71.8769 30.0181C71.5158 30.0181 71.2227 30.3112 71.2227 30.6723C71.2227 31.0333 71.5158 31.3265 71.8769 31.3265C72.2379 31.3265 72.5311 31.0333 72.5311 30.6723C72.5311 30.3112 72.2379 30.0181 71.8769 30.0181Z"
                fill="#0074BD" />
            <path
                d="M71.8769 27.1553C71.5158 27.1553 71.2227 27.4485 71.2227 27.8095C71.2227 28.1706 71.5158 28.4637 71.8769 28.4637C72.2379 28.4637 72.5311 28.1706 72.5311 27.8095C72.5311 27.4485 72.2379 27.1553 71.8769 27.1553Z"
                fill="#0074BD" />
            <path
                d="M71.8769 24.2915C71.5158 24.2915 71.2227 24.5847 71.2227 24.9457C71.2227 25.3068 71.5158 25.6 71.8769 25.6C72.2379 25.6 72.5311 25.3068 72.5311 24.9457C72.5311 24.5847 72.2379 24.2915 71.8769 24.2915Z"
                fill="#0074BD" />
        </g>
        <path
            d="M58.4741 99.8594L58.4456 99.8187L42.463 75.5564C41.9025 74.7095 40.8695 74.3335 39.7525 74.571C38.634 74.8126 37.6011 75.6297 37.0405 76.717L20.9711 107.99C20.4133 109.078 20.4133 110.271 20.9711 111.121C21.5317 111.968 22.5646 112.344 23.6831 112.107L55.8273 105.229C57.5538 104.86 58.9573 103.155 58.9573 101.428C58.9573 100.837 58.7917 100.292 58.4754 99.8594"
            fill="#03B9E4" />
        <path
            d="M42.0835 103.118C42.0835 104.408 41.0927 105.612 39.738 105.901C38.416 106.183 37.3926 105.411 37.3926 104.121V103.792C37.3926 102.503 38.416 101.293 39.738 101.01C41.0927 100.721 42.0835 101.499 42.0835 102.789V103.118Z"
            fill="white" />
        <path
            d="M40.9579 97.1474C40.8928 97.8885 40.396 98.4572 39.7363 98.5984C39.0767 98.7395 38.6138 98.3771 38.5473 97.6632L37.3909 84.4306C37.3257 83.6515 37.7872 82.9253 38.5473 82.7624L40.9267 82.2534C41.6854 82.0905 42.1822 82.6118 42.1171 83.4194L40.9593 97.146L40.9579 97.1474Z"
            fill="white" />
        <path
            d="M129.957 42.3317L94.3286 34.1552C90.691 33.3204 87.7266 35.4989 87.7266 39.0239V48.87C87.7266 52.3963 90.691 55.8819 94.3286 56.6529L97.1926 57.2596V68.4738C97.1926 69.8095 98.9652 70.347 99.7484 69.2516L105.622 59.0513L129.958 64.1996C133.375 64.9231 136.132 62.7568 136.132 59.3648V49.892C136.132 46.5001 133.375 43.1176 129.958 42.3331L129.957 42.3317Z"
            fill="#03B9E4" />
        <path
            d="M107.663 50.0218C108.644 49.4124 108.848 47.9682 108.12 46.796C107.391 45.6239 106.006 45.1677 105.025 45.777C104.045 46.3864 103.841 47.8306 104.569 49.0027C105.297 50.1749 106.683 50.6311 107.663 50.0218Z"
            fill="white" />
        <path
            d="M114.62 51.616C115.601 51.0066 115.805 49.5624 115.077 48.3903C114.348 47.2181 112.963 46.7619 111.982 47.3713C111.002 47.9806 110.798 49.4248 111.526 50.597C112.254 51.7691 113.64 52.2254 114.62 51.616Z"
            fill="white" />
        <path
            d="M121.574 53.2117C122.554 52.6023 122.758 51.1581 122.03 49.986C121.301 48.8138 119.916 48.3576 118.936 48.967C117.955 49.5763 117.751 51.0205 118.479 52.1927C119.208 53.3648 120.593 53.8211 121.574 53.2117Z"
            fill="white" />
    </g>
    <defs>
        <clipPath id="clip0_2375_90172">
            <rect width="135" height="122.727" fill="white" transform="translate(8 13.5)" />
        </clipPath>
    </defs>
</svg>