<?xml version="1.0" encoding="utf-8"?>
<!DOCTYPE svg PUBLIC "-//W3C//DTD SVG 1.1//EN" "http://www.w3.org/Graphics/SVG/1.1/DTD/svg11.dtd">
<svg width="38" height="38" viewBox="0 0 38 38" 
  xmlns="http://www.w3.org/2000/svg" 
  xmlns:xlink="http://www.w3.org/1999/xlink">
  <g fill="none" fill-rule="evenodd">
    <path fill="#BEE4F8" d="M.379 4.98v28.116a4.701 4.701 0 0 0 4.687 4.688h28.117a4.701 4.701 0 0 0 4.686-4.688V4.98A4.701 4.701 0 0 0 33.183.292H5.066A4.701 4.701 0 0 0 .379 4.98" />
    <path fill="#EFF8FD" d="M5.066 37.783h28.116a4.7 4.7 0 0 0 4.688-4.687v-9.54A61.73 61.73 0 0 0 14.56.292H5.065A4.699 4.699 0 0 0 .38 4.978v28.118a4.7 4.7 0 0 0 4.686 4.687" />
    <path fill="#BEE4F8" d="M5.066 37.783h25.803C25.95 23.521 14.65 12.233.38 7.333v25.763a4.7 4.7 0 0 0 4.686 4.687" />
    <path fill="#EFF8FD" d="M5.066 37.783h12.536A37.008 37.008 0 0 0 .379 20.593v12.503a4.7 4.7 0 0 0 4.686 4.687" />
    <path fill="#0086CD" d="M19.16 23.37a4.367 4.367 0 1 1-8.733 0 4.367 4.367 0 0 1 8.733 0" />
    <path fill="#FFF" d="M15.219 25.064c.62 0 .998-.244.998-.71v-.017c0-.434-.347-.694-1.063-.694H13.71v1.42h1.509zm-.266-2.19c.584 0 .976-.229.976-.702v-.015c0-.407-.324-.657-.91-.657h-1.31v1.375h1.244zm-2.136-1.723c0-.259.199-.459.458-.459h1.863c.592 0 1.058.163 1.353.46.229.227.348.51.348.857v.015c0 .621-.354.954-.74 1.152.606.208 1.028.557 1.028 1.259v.015c0 .925-.762 1.42-1.915 1.42h-1.937a.452.452 0 0 1-.458-.459v-4.26z" />
    <path fill="#0086CD" d="M27.822 14.707a4.366 4.366 0 1 1-8.732 0 4.366 4.366 0 0 1 8.732 0" />
    <path fill="#FFF" d="M20.862 14.633v-.015c0-1.471 1.102-2.677 2.67-2.677.798 0 1.323.237 1.774.586a.446.446 0 0 1 .178.36c0 .252-.2.444-.45.444a.453.453 0 0 1-.276-.088c-.354-.29-.738-.465-1.234-.465-.983 0-1.708.812-1.708 1.825v.015c0 1.013.717 1.834 1.708 1.834.547 0 .917-.176 1.294-.495a.414.414 0 0 1 .273-.104c.23 0 .43.193.43.423a.436.436 0 0 1-.148.324c-.489.429-1.043.695-1.878.695-1.509 0-2.633-1.176-2.633-2.662" />
    <path fill="#0086CD" d="M36.485 6.044a4.367 4.367 0 1 1-8.733 0 4.367 4.367 0 0 1 8.733 0" />
    <path fill="#FFF" d="M32.095 7.715c1.087 0 1.797-.731 1.797-1.744v-.016c0-1.012-.71-1.76-1.797-1.76h-1.021v3.52h1.02zm-1.93-3.89c0-.258.199-.458.458-.458h1.472c1.627 0 2.75 1.117 2.75 2.574v.014c0 1.457-1.123 2.588-2.75 2.588h-1.472a.45.45 0 0 1-.458-.458v-4.26z" />
    <path fill="#0086CD" d="M10.497 32.032a4.367 4.367 0 1 1-8.733 0 4.367 4.367 0 0 1 8.733 0" />
    <path fill="#FFF" d="M5.226 32.477l.91-2.093.909 2.093h-1.82zm3.409 1.464l-1.923-4.29-.004-.01-.14-.31a.465.465 0 0 0-.847 0l-.903 2.017h.003L3.658 33.94a.477.477 0 0 0-.06.207c0 .237.187.422.423.422a.437.437 0 0 0 .42-.29l.437-.997h2.515l.42.968c.083.193.23.319.445.319a.428.428 0 0 0 .377-.63z" />
  </g>
</svg>
