<?xml version="1.0" encoding="UTF-8"?>
<svg xmlns="http://www.w3.org/2000/svg" data-name="HSL logo" viewBox="0 0 1300 620" width="2400" height="1144.6153846154"><path fill="#007ac9" d="M471.41 279c-.93 0-18.23.22-31.39 12.58l-26.46-63.86c18.06-.54 30.45-12.62 31.11-13.27 16.06-16.07 18.5-36.94 5.81-49.64s-33.55-10.26-49.61 5.81c-.67.67-12.76 13.06-13.3 31.1l-63.86-26.45c12.37-13.18 12.55-30.46 12.55-31.41 0-22.7-13-39.19-31-39.19s-31 16.49-31 39.19c0 1 .2 18.23 12.59 31.41L223 201.74c-.54-18-12.62-30.43-13.3-31.1-16.06-16.07-36.94-18.49-49.59-5.81s-10.27 33.57 5.78 49.64c.68.65 13 12.73 31.1 13.27l-26.41 63.86c-13.13-12.36-30.45-12.6-31.4-12.6-22.69 0-39.18 13-39.18 31s16.49 31 39.18 31c.95 0 18.27-.2 31.4-12.58L197 392.27c-18.06.54-30.42 12.62-31.09 13.32-16.06 16-18.5 36.89-5.79 49.61s33.53 10.24 49.59-5.83c.68-.65 12.76-13.06 13.3-31.07l63.88 26.44c-12.39 13.16-12.59 30.44-12.59 31.38 0 22.73 13 39.19 31 39.19s31-16.46 31-39.19c0-.94-.18-18.22-12.55-31.38l63.86-26.44c.54 18 12.63 30.42 13.3 31.07 16.05 16.07 36.9 18.49 49.61 5.83s10.25-33.59-5.81-49.61c-.66-.7-13.05-12.78-31.11-13.32l26.4-63.86c13.18 12.38 30.48 12.59 31.41 12.59 22.73 0 39.2-13 39.2-31s-16.47-31-39.2-31zm-79.1 118l-87 36-87-36-36.06-87 36.06-87 87-36 87 36 36.05 87zm21.16-213.8c8.77-8.72 19-11.18 24.4-5.77s3 15.66-5.77 24.39c-.63.6-11.6 10.91-25.92 7.31-3.57-14.32 6.71-25.3 7.29-25.92zm-108.18-60.68c7.64 0 13.16 9 13.19 21.33 0 .88-.5 15.9-13.19 23.5-12.65-7.6-13.13-22.62-13.15-23.5.02-12.35 5.55-21.33 13.15-21.33zm-132.55 54.92c5.37-5.41 15.63-2.95 24.38 5.77.62.62 10.92 11.6 7.32 25.93-14.36 3.6-25.29-6.71-25.93-7.31-8.74-8.73-11.16-19-5.77-24.39zm-33.59 145.75c-12.34-.05-21.33-5.57-21.33-13.17s9-13.15 21.33-13.18c.87 0 15.9.47 23.5 13.18-7.6 12.69-22.65 13.12-23.5 13.17zm58 113.62c-8.76 8.71-19 11.18-24.39 5.76s-3-15.63 5.77-24.38c.64-.59 11.57-10.89 25.93-7.28 3.54 14.34-6.72 25.27-7.33 25.9zm108.16 60.66c-7.6 0-13.13-9-13.15-21.29 0-.89.5-15.9 13.15-23.52 12.69 7.62 13.16 22.63 13.19 23.52-.05 12.34-5.57 21.29-13.21 21.29zm132.58-54.9c-5.37 5.42-15.63 2.95-24.4-5.76-.58-.65-10.86-11.56-7.29-25.9 14.32-3.61 25.29 6.69 25.92 7.28 8.71 8.75 11.13 18.99 5.75 24.38zm33.6-119.38c-.87-.05-15.9-.48-23.48-13.17 7.58-12.71 22.61-13.15 23.48-13.18 12.34 0 21.32 5.57 21.32 13.18s-9 13.12-21.34 13.17zM792.74 331a8.85 8.85 0 1 1 17.69 0v61.78h90.45V331a8.84 8.84 0 1 1 17.67 0v141a8.84 8.84 0 1 1-17.67 0v-62.69h-90.45V472a8.85 8.85 0 1 1-17.69 0zM943.69 332.09a8.92 8.92 0 0 1 8.73-8.95h58.66c19.28 0 34.7 5.81 44.55 15.64 7.6 7.64 12.13 18.62 12.13 30.94v.41c0 25.75-17.5 40.78-41.91 45.48l39 50.13c1.8 2 3 4.05 3 6.52 0 4.7-4.53 8.71-9 8.71-3.58 0-6.26-2-8.28-4.7L1006.38 419h-45v53a8.84 8.84 0 1 1-17.68 0zm65.81 71c23.52 0 40.3-12.08 40.3-32.27v-.41c0-19.25-14.77-30.9-40.08-30.9h-48.35v63.58zM1128.37 339.47h-45.46a8.21 8.21 0 0 1-8.29-8.05 8.4 8.4 0 0 1 8.29-8.28h108.8a8.4 8.4 0 0 1 8.29 8.28 8.21 8.21 0 0 1-8.29 8.05h-45.44V472a9 9 0 1 1-17.9 0zM789.38 157.18a17.25 17.25 0 1 1 34.5 0v46.13h63.58v-46.13a17.24 17.24 0 1 1 34.47 0V282.1a17.24 17.24 0 1 1-34.47 0v-47h-63.58v47a17.25 17.25 0 1 1-34.5 0zM949 281.42a16 16 0 0 1-6.47-13 15.86 15.86 0 0 1 16.13-15.91 16.51 16.51 0 0 1 9.83 3.16c11.87 8.73 24.84 14.08 40.08 14.08 14.1 0 22.61-5.59 22.61-14.77v-.41c0-8.77-5.39-13.25-31.55-19.95-31.59-8.08-51.95-16.8-51.95-47.92v-.45c0-28.43 22.83-47.23 54.83-47.23 19.06 0 35.62 4.91 49.72 13.87a16 16 0 0 1-8.51 29.57A16.27 16.27 0 0 1 1035 180c-11.41-6.71-22.17-10.48-32.89-10.48-13.21 0-20.16 6-20.16 13.64v.43c0 10.31 6.71 13.67 33.8 20.62 31.79 8.27 49.7 19.66 49.7 47v.45c0 31.11-23.75 48.58-57.54 48.58A101.14 101.14 0 0 1 949 281.42zM1086.05 157.18a17.23 17.23 0 1 1 34.46 0v109.47h63.81a15.68 15.68 0 1 1 0 31.36h-81a17.08 17.08 0 0 1-17.22-17.25zM621.58 113.66a8.84 8.84 0 1 0-17.68 0v392.71a8.84 8.84 0 1 0 17.68 0zM657 113.66a8.84 8.84 0 1 0-17.67 0v392.71a8.84 8.84 0 1 0 17.67 0z"/></svg>
