<?xml version="1.0" encoding="utf-8"?>
<!-- Generator: Adobe Illustrator 20.1.0, SVG Export Plug-In . SVG Version: 6.00 Build 0)  -->
<!DOCTYPE svg PUBLIC "-//W3C//DTD SVG 1.1//EN" "http://www.w3.org/Graphics/SVG/1.1/DTD/svg11.dtd">
<svg version="1.1" xmlns="http://www.w3.org/2000/svg" xmlns:xlink="http://www.w3.org/1999/xlink" x="0px" y="0px"
	 viewBox="0 116 283 51" xml:space="preserve">
<g id="bkg" display="none">
</g>
<g id="picto">
	<path fill="#FFFFFF" d="M46.404,143.554c-0.087-0.001-1.99-0.041-2.923-1.663c0.953-1.573,2.823-1.63,2.931-1.633
		c1.548,0.002,2.67,0.696,2.67,1.648C49.082,142.86,47.953,143.554,46.404,143.554 M42.158,158.443
		c-0.675,0.673-1.962,0.367-3.057-0.73c-0.062-0.062-1.379-1.433-0.891-3.242c1.785-0.437,3.147,0.844,3.225,0.92
		C42.528,156.486,42.833,157.769,42.158,158.443 M25.565,165.24c-0.952,0-1.646-1.128-1.646-2.678c0-0.087,0.04-1.987,1.663-2.921
		c1.574,0.953,1.631,2.822,1.632,2.931C27.212,164.118,26.521,165.24,25.565,165.24 M12.085,157.59
		c-1.097,1.091-2.379,1.396-3.054,0.723c-0.674-0.674-0.371-1.959,0.725-3.053c0.063-0.061,1.437-1.38,3.25-0.885
		C13.436,156.156,12.16,157.51,12.085,157.59 M4.9,143.373c-1.547-0.002-2.67-0.693-2.67-1.647c0-0.956,1.131-1.648,2.679-1.648
		c0.087,0,1.988,0.039,2.922,1.663C6.877,143.313,5.008,143.368,4.9,143.373 M9.153,125.189c0.677-0.673,1.965-0.366,3.06,0.73
		c0.062,0.061,1.378,1.433,0.891,3.242c-1.785,0.436-3.148-0.844-3.228-0.921C8.784,127.146,8.48,125.862,9.153,125.189
		 M25.748,118.389c0.952,0,1.645,1.13,1.645,2.679c-0.001,0.087-0.039,1.986-1.663,2.919c-1.573-0.95-1.629-2.819-1.631-2.927
		C24.102,119.512,24.792,118.389,25.748,118.389 M39.228,126.042c1.094-1.092,2.378-1.396,3.053-0.723
		c0.675,0.675,0.371,1.958-0.725,3.052c-0.062,0.062-1.437,1.381-3.25,0.885C37.876,127.477,39.153,126.12,39.228,126.042
		 M36.489,152.726l-10.889,4.465l-10.844-4.534l-4.472-10.896l4.541-10.854l10.889-4.466l10.844,4.535l4.472,10.897L36.489,152.726z
		 M46.408,138.029c-0.117,0-2.264,0.026-3.906,1.553l-3.274-7.975c2.274-0.043,3.827-1.579,3.911-1.663
		c2.003-2.009,2.307-4.614,0.719-6.2c-1.589-1.589-4.201-1.284-6.21,0.726c-0.081,0.083-1.58,1.612-1.664,3.847l-7.944-3.32
		c1.571-1.638,1.584-3.813,1.584-3.931c0-2.842-1.63-4.903-3.876-4.903c-2.249,0-3.88,2.062-3.88,4.903
		c0,0.116,0.026,2.262,1.554,3.905l-7.972,3.268c-0.048-2.266-1.579-3.816-1.664-3.899c-2.009-2.01-4.621-2.314-6.21-0.727
		c-1.59,1.589-1.283,4.2,0.727,6.208c0.084,0.084,1.617,1.585,3.861,1.665l-3.325,7.948c-1.638-1.569-3.814-1.583-3.934-1.583
		c-2.841,0-4.904,1.63-4.904,3.877c0,2.246,2.063,3.876,4.904,3.876c0.118,0,2.263-0.026,3.907-1.555l3.274,7.979
		c-2.275,0.043-3.829,1.579-3.911,1.662c-2.004,2.008-2.307,4.615-0.721,6.201c1.59,1.589,4.202,1.283,6.211-0.726
		c0.084-0.083,1.581-1.613,1.666-3.848l7.941,3.322c-1.57,1.636-1.583,3.813-1.583,3.932c0,2.842,1.631,4.903,3.877,4.903
		c2.247,0,3.879-2.061,3.879-4.903c0-0.119-0.024-2.263-1.553-3.905l7.972-3.27c0.047,2.268,1.578,3.817,1.664,3.9
		c2.01,2.01,4.622,2.314,6.211,0.726c1.589-1.588,1.282-4.2-0.727-6.209c-0.083-0.082-1.617-1.585-3.86-1.665l3.324-7.945
		c1.638,1.569,3.815,1.582,3.934,1.582c2.841,0,4.904-1.63,4.904-3.876C51.312,139.659,49.249,138.029,46.408,138.029"/>
	<path fill="#FFFFFF" d="M70.985,155.328c0,1.551,1.232,2.784,2.829,2.784c1.552,0,2.784-1.232,2.784-2.784v-8.58h7.074l7.758,9.903
		c0.639,0.867,1.46,1.46,2.738,1.46c1.369,0,2.692-1.05,2.692-2.601c0-0.867-0.365-1.46-0.913-2.145l-6.115-7.713
		c4.29-1.323,7.256-4.427,7.256-9.538v-0.091c0-2.784-0.958-5.157-2.647-6.891c-2.054-2.008-5.202-3.195-9.218-3.195H73.815
		c-1.597,0-2.829,1.232-2.829,2.83V155.328z M76.599,141.774V131.05h8.169c4.153,0,6.617,1.871,6.617,5.294v0.091
		c0,3.24-2.556,5.339-6.572,5.339H76.599z"/>
	<path fill="#FFFFFF" d="M105.657,144.147c0.502-3.742,2.875-6.343,6.252-6.343c3.651,0,5.75,2.784,6.115,6.343H105.657z
		 M121.218,155.237c0.411-0.411,0.73-1.004,0.73-1.689c0-1.278-0.958-2.236-2.191-2.236c-0.639,0-1.004,0.183-1.415,0.502
		c-1.552,1.278-3.377,2.099-5.705,2.099c-3.56,0-6.343-2.191-6.937-6.115h15.105c1.415,0,2.601-1.095,2.601-2.647
		c0-5.568-3.788-11.865-11.455-11.865c-6.891,0-11.774,5.659-11.774,12.55v0.091c0,7.439,5.385,12.504,12.367,12.504
		C116.29,158.431,119.028,157.199,121.218,155.237z"/>
	<path fill="#FFFFFF" d="M127.162,127.581c0,1.643,1.369,2.738,3.149,2.738c1.78,0,3.149-1.095,3.149-2.738v-0.274
		c0-1.643-1.369-2.692-3.149-2.692c-1.78,0-3.149,1.05-3.149,2.692V127.581z M127.573,155.374c0,1.551,1.232,2.738,2.738,2.738
		c1.551,0,2.784-1.187,2.784-2.738v-19.076c0-1.552-1.232-2.784-2.784-2.784c-1.552,0-2.738,1.232-2.738,2.784V155.374z"/>
	<path fill="#FFFFFF" d="M146.415,158.294c1.46,0,2.601-0.228,3.788-0.639c0.776-0.319,1.46-1.141,1.46-2.145
		c0-1.278-1.095-2.282-2.327-2.282c-0.183,0-0.73,0.137-1.369,0.137c-1.871,0-2.966-0.867-2.966-3.012v-11.82h4.335
		c1.324,0,2.419-1.05,2.419-2.373s-1.095-2.373-2.419-2.373H145v-4.107c0-1.506-1.232-2.738-2.738-2.738
		c-1.552,0-2.784,1.232-2.784,2.738v4.107h-0.913c-1.323,0-2.373,1.05-2.373,2.373s1.05,2.373,2.373,2.373h0.913v12.687
		C139.478,156.515,142.353,158.294,146.415,158.294z"/>
	<path fill="#FFFFFF" d="M164.028,158.294c1.46,0,2.601-0.228,3.788-0.639c0.776-0.319,1.46-1.141,1.46-2.145
		c0-1.278-1.095-2.282-2.327-2.282c-0.183,0-0.73,0.137-1.369,0.137c-1.871,0-2.966-0.867-2.966-3.012v-11.82h4.335
		c1.324,0,2.419-1.05,2.419-2.373s-1.095-2.373-2.419-2.373h-4.335v-4.107c0-1.506-1.232-2.738-2.738-2.738
		c-1.552,0-2.784,1.232-2.784,2.738v4.107h-0.913c-1.323,0-2.373,1.05-2.373,2.373s1.05,2.373,2.373,2.373h0.913v12.687
		C157.092,156.515,159.967,158.294,164.028,158.294z"/>
	<path fill="#FFFFFF" d="M172.246,127.581c0,1.643,1.369,2.738,3.149,2.738c1.78,0,3.149-1.095,3.149-2.738v-0.274
		c0-1.643-1.369-2.692-3.149-2.692c-1.78,0-3.149,1.05-3.149,2.692V127.581z M172.656,155.374c0,1.551,1.232,2.738,2.738,2.738
		c1.552,0,2.784-1.187,2.784-2.738v-19.076c0-1.552-1.232-2.784-2.784-2.784c-1.551,0-2.738,1.232-2.738,2.784V155.374z"/>
	<path fill="#FFFFFF" d="M195.008,158.431c7.439,0,12.915-5.705,12.915-12.55v-0.091c0-6.891-5.431-12.504-12.824-12.504
		c-7.393,0-12.869,5.704-12.869,12.595v0.091C182.23,152.818,187.66,158.431,195.008,158.431z M195.099,153.594
		c-4.29,0-7.347-3.514-7.347-7.713v-0.091c0-4.199,2.829-7.667,7.256-7.667c4.335,0,7.393,3.514,7.393,7.758v0.091
		C202.401,150.126,199.571,153.594,195.099,153.594z"/>
	<path fill="#FFFFFF" d="M212.004,162.675c0,1.552,1.232,2.738,2.738,2.738c1.551,0,2.784-1.186,2.784-2.738v-8.534
		c1.689,2.236,4.199,4.244,8.214,4.244c5.704,0,11.181-4.518,11.181-12.504v-0.091c0-8.032-5.522-12.504-11.181-12.504
		c-3.925,0-6.435,2.008-8.214,4.518v-1.506c0-1.552-1.232-2.784-2.784-2.784c-1.552,0-2.738,1.232-2.738,2.784V162.675z
		 M224.417,153.594c-3.742,0-7.028-3.103-7.028-7.713v-0.091c0-4.609,3.286-7.712,7.028-7.712c3.742,0,6.891,3.058,6.891,7.712
		v0.091C231.308,150.627,228.205,153.594,224.417,153.594z"/>
	<path fill="#FFFFFF" d="M247.844,158.386c3.697,0,6.206-1.552,7.849-3.514v0.913c0,1.232,1.095,2.327,2.692,2.327
		c1.506,0,2.692-1.141,2.692-2.647V143.6c0-3.149-0.821-5.704-2.601-7.439c-1.689-1.734-4.381-2.692-7.986-2.692
		c-3.149,0-5.476,0.548-7.758,1.415c-0.822,0.319-1.506,1.187-1.506,2.191c0,1.278,1.05,2.282,2.327,2.282
		c0.274,0,0.548-0.046,0.867-0.137c1.506-0.593,3.24-0.958,5.339-0.958c3.879,0,5.978,1.825,5.978,5.248v0.593
		c-1.871-0.593-3.788-1.004-6.48-1.004c-5.887,0-9.949,2.556-9.949,7.758v0.091C239.31,155.784,243.326,158.386,247.844,158.386z
		 M249.395,154.37c-2.647,0-4.7-1.323-4.7-3.651v-0.091c0-2.51,2.099-4.016,5.659-4.016c2.191,0,4.062,0.411,5.476,0.958v1.643
		C255.83,152.27,253.046,154.37,249.395,154.37z"/>
	<path fill="#FFFFFF" d="M274.52,158.34c5.02,0,8.945-2.51,8.945-7.575v-0.091c0-4.335-3.97-5.933-7.484-7.028
		c-2.829-0.913-5.431-1.643-5.431-3.423v-0.091c0-1.369,1.232-2.373,3.377-2.373c1.689,0,3.697,0.639,5.659,1.643
		c0.365,0.183,0.639,0.274,1.095,0.274c1.278,0,2.282-0.958,2.282-2.236c0-0.958-0.548-1.688-1.323-2.099
		c-2.327-1.232-5.02-1.962-7.576-1.962c-4.792,0-8.58,2.784-8.58,7.347v0.091c0,4.609,3.97,6.07,7.53,7.074
		c2.829,0.867,5.385,1.506,5.385,3.377v0.091c0,1.597-1.369,2.601-3.742,2.601c-2.191,0-4.609-0.776-6.937-2.327
		c-0.319-0.183-0.73-0.319-1.186-0.319c-1.278,0-2.236,1.004-2.236,2.236c0,0.913,0.456,1.597,1.05,1.917
		C268.131,157.382,271.462,158.34,274.52,158.34z"/>
</g>
</svg>
