<?xml version="1.0" encoding="utf-8"?>
<!-- Generator: Adobe Illustrator 23.1.1, SVG Export Plug-In . SVG Version: 6.00 Build 0)  -->
<svg version="1.1" id="Ebene_1" xmlns="http://www.w3.org/2000/svg" xmlns:xlink="http://www.w3.org/1999/xlink" x="0px" y="0px"
	 viewBox="0 0 374.82 66.03" style="enable-background:new 0 0 374.82 66.03;" xml:space="preserve">
<style type="text/css">
	.st0{fill:#C8DD9A;}
	.st1{fill:#FFFFFF;}
	.st2{fill:none;stroke:#FFFFFF;stroke-width:0.6709;}
</style>
<g>
	<path class="st0" d="M16.86,37.4c0.81-5.17,5.02-9.22,10.28-9.75l0.32-4.62c-7.84,0.41-14.19,6.39-15.2,14.05L16.86,37.4
		L16.86,37.4z"/>
	<path class="st1" d="M205.44,35.36h2.89v19.98h-2.89V35.36L205.44,35.36z M208.31,31.19c-0.39,0.39-0.86,0.59-1.39,0.59
		c-0.58,0-1.08-0.2-1.48-0.59c-0.41-0.39-0.61-0.87-0.61-1.43c0-0.58,0.2-1.07,0.61-1.47c0.41-0.39,0.9-0.59,1.48-0.59
		c0.53,0,1,0.2,1.39,0.59c0.39,0.39,0.59,0.88,0.59,1.47C208.9,30.32,208.7,30.8,208.31,31.19 M194.46,55.34h-2.51l-7.16-19.98h3.04
		l5.1,15.72l0.3,0.95l0.3-0.95l5.1-15.72h2.97L194.46,55.34L194.46,55.34z M178.93,46.4c-0.66-0.36-1.38-0.63-2.15-0.84
		c-0.77-0.2-1.77-0.3-2.99-0.3c-1.47,0-2.62,0.34-3.45,1.01c-0.82,0.67-1.24,1.64-1.24,2.91c0,1.5,0.37,2.58,1.12,3.25
		s1.73,1.01,2.95,1.01c1.29,0,2.42-0.29,3.39-0.88c0.96-0.58,1.75-1.29,2.36-2.13L178.93,46.4L178.93,46.4z M178.93,55.34V52.9
		c-0.71,0.76-1.57,1.43-2.57,2s-2.23,0.86-3.67,0.86c-0.79,0-1.56-0.11-2.32-0.32c-0.76-0.22-1.45-0.57-2.05-1.07
		c-0.61-0.5-1.1-1.15-1.47-1.96s-0.55-1.83-0.55-3.04c0-1.12,0.22-2.08,0.65-2.89c0.43-0.81,1-1.48,1.69-2
		c0.7-0.52,1.51-0.9,2.44-1.14s1.88-0.36,2.87-0.36c1.02,0,1.95,0.11,2.82,0.32c0.86,0.22,1.59,0.49,2.17,0.82v-2.35
		c0-2.93-1.45-4.39-4.34-4.39c-1.07,0-2.04,0.13-2.91,0.4c-0.88,0.27-1.72,0.64-2.53,1.12l-1.07-2.33c0.89-0.49,1.91-0.88,3.05-1.18
		c1.15-0.3,2.37-0.44,3.66-0.44c2.16,0,3.88,0.5,5.14,1.5s1.89,2.66,1.89,4.97v13.93h-2.9V55.34z M159.34,55.34V43.63
		c0-2.16-0.39-3.74-1.16-4.75c-0.77-1-1.95-1.51-3.54-1.51c-1.39,0-2.56,0.5-3.51,1.49s-1.42,2.58-1.42,4.77v11.71h-2.89V35.36h2.89
		v2.44c0.58-0.84,1.33-1.52,2.25-2.06c0.91-0.53,2-0.8,3.27-0.8c1.07,0,2.03,0.16,2.89,0.48c0.86,0.32,1.6,0.81,2.21,1.48
		c0.61,0.67,1.08,1.52,1.41,2.55c0.33,1.03,0.5,2.26,0.5,3.71v12.18L159.34,55.34L159.34,55.34z M141.8,54.54
		c-0.43,0.36-1.02,0.65-1.75,0.88c-0.74,0.23-1.51,0.34-2.32,0.34c-0.82,0-1.56-0.15-2.22-0.44s-1.23-0.7-1.69-1.24
		c-0.46-0.53-0.82-1.17-1.07-1.9c-0.26-0.74-0.38-1.55-0.38-2.44V40.3h-3.35v-4.95h3.35v-5.14l5.29-2.63v7.76h4.8v4.95h-4.8v8.03
		c0,0.96,0.17,1.6,0.5,1.92c0.33,0.32,0.81,0.48,1.45,0.48c0.48,0,0.93-0.11,1.35-0.34c0.42-0.23,0.96-0.62,1.62-1.18L141.8,54.54
		L141.8,54.54z M120.85,41.6c-0.84-1.14-2.03-1.71-3.56-1.71c-2.09,0-3.14,1.7-3.14,5.1c0,2.06,0.31,3.54,0.94,4.45
		c0.62,0.91,1.46,1.37,2.51,1.37c0.82,0,1.47-0.15,1.95-0.46c0.48-0.3,0.92-0.71,1.3-1.22V41.6L120.85,41.6z M120.85,55.34v-1.26
		c-0.51,0.43-1.1,0.82-1.77,1.16c-0.67,0.34-1.49,0.51-2.46,0.51c-1.07,0-2.07-0.2-3.01-0.61c-0.94-0.41-1.76-1.05-2.47-1.92
		c-0.71-0.88-1.27-1.98-1.68-3.31s-0.61-2.94-0.61-4.81c0-1.5,0.17-2.87,0.51-4.11s0.84-2.31,1.5-3.22c0.66-0.9,1.47-1.6,2.44-2.09
		c0.96-0.5,2.07-0.74,3.31-0.74c0.89,0,1.69,0.15,2.42,0.46c0.72,0.3,1.32,0.67,1.81,1.1v-6.28l5.29-2.63v27.75L120.85,55.34
		L120.85,55.34z M100.11,46.97c-0.45-0.28-0.94-0.49-1.46-0.63s-1.24-0.21-2.18-0.21c-0.98,0-1.74,0.22-2.25,0.65
		c-0.52,0.43-0.78,1.05-0.78,1.86c0,0.71,0.23,1.33,0.68,1.86s1.24,0.8,2.35,0.8c0.86,0,1.61-0.18,2.25-0.55s1.1-0.79,1.38-1.27
		v-2.51H100.11z M100.11,55.34v-1.33c-0.48,0.51-1.12,0.93-1.9,1.26c-0.79,0.33-1.65,0.49-2.59,0.49c-0.94,0-1.85-0.15-2.74-0.44
		s-1.68-0.73-2.38-1.31s-1.26-1.32-1.69-2.21s-0.65-1.94-0.65-3.16c0-1.09,0.21-2.05,0.63-2.89c0.42-0.84,1-1.53,1.73-2.07
		c0.74-0.55,1.59-0.96,2.57-1.24s2.04-0.42,3.18-0.42c0.91,0,1.67,0.08,2.28,0.25s1.13,0.35,1.56,0.55v-0.99
		c0-0.71-0.23-1.31-0.7-1.81c-0.47-0.49-1.19-0.74-2.15-0.74c-0.61,0-1.15,0.03-1.62,0.08c-0.47,0.05-0.91,0.13-1.33,0.23
		c-0.42,0.1-0.83,0.24-1.24,0.4c-0.41,0.17-0.84,0.37-1.29,0.63l-2.02-3.65c0.58-0.33,1.15-0.62,1.69-0.88
		c0.55-0.25,1.12-0.46,1.71-0.63c0.6-0.16,1.22-0.29,1.88-0.38c0.66-0.09,1.4-0.13,2.21-0.13c1.22,0,2.32,0.15,3.32,0.46
		c0.99,0.3,1.85,0.76,2.56,1.35c0.72,0.6,1.27,1.33,1.67,2.21s0.59,1.87,0.59,2.99v13.4h-5.28V55.34z M84.55,54.54
		c-0.43,0.36-1.02,0.65-1.75,0.88c-0.74,0.23-1.51,0.34-2.32,0.34c-0.82,0-1.56-0.15-2.22-0.44c-0.67-0.29-1.23-0.7-1.69-1.24
		c-0.46-0.53-0.82-1.17-1.07-1.9c-0.26-0.74-0.38-1.55-0.38-2.44V40.3h-3.35v-4.95h3.35v-5.14l5.29-2.63v7.76h4.8v4.95h-4.8v8.03
		c0,0.96,0.16,1.6,0.49,1.92c0.33,0.32,0.81,0.48,1.45,0.48c0.48,0,0.93-0.11,1.35-0.34c0.42-0.23,0.96-0.62,1.62-1.18L84.55,54.54
		L84.55,54.54z M68.98,52.43c-0.43,0.8-1.02,1.45-1.75,1.94c-0.74,0.49-1.6,0.85-2.59,1.07s-2.04,0.32-3.16,0.32
		c-1.6,0-3.13-0.21-4.59-0.63c-1.46-0.42-2.72-0.98-3.79-1.69l1.75-4c1.07,0.58,2.16,1.03,3.29,1.35c1.13,0.32,2.34,0.48,3.64,0.48
		c1.04,0,1.74-0.13,2.11-0.38s0.55-0.63,0.55-1.14c0-0.46-0.21-0.82-0.63-1.1s-1.19-0.58-2.3-0.91c-1.19-0.35-2.28-0.72-3.25-1.08
		c-0.98-0.37-1.81-0.8-2.49-1.29c-0.69-0.49-1.21-1.1-1.58-1.81s-0.55-1.6-0.55-2.66c0-1.04,0.2-1.93,0.59-2.68
		c0.39-0.75,0.94-1.36,1.66-1.85c0.71-0.48,1.55-0.84,2.53-1.07s2.05-0.34,3.22-0.34c1.27,0,2.55,0.18,3.84,0.53
		c1.29,0.36,2.47,0.82,3.54,1.41l-1.67,4.15c-0.99-0.53-2-0.93-3.03-1.2s-1.96-0.4-2.8-0.4c-1.07,0-1.78,0.11-2.15,0.32
		c-0.37,0.22-0.55,0.54-0.55,0.97c0,0.2,0.05,0.39,0.15,0.55c0.1,0.17,0.3,0.33,0.59,0.49c0.29,0.17,0.71,0.35,1.26,0.55
		s1.26,0.44,2.15,0.72c0.89,0.3,1.74,0.62,2.55,0.95c0.81,0.33,1.52,0.74,2.13,1.22c0.61,0.48,1.09,1.07,1.45,1.77
		c0.35,0.7,0.53,1.54,0.53,2.53C69.63,50.66,69.41,51.63,68.98,52.43"/>
	<path class="st1" d="M44.51,53.12V39.18v-0.01c0-7.79-5.53-14.31-12.88-15.86l-0.34,4.61c4.98,1.33,8.66,5.86,8.66,11.25l0,0v11.65
		H28.29c-5.6,0-10.29-3.97-11.4-9.25l-4.66-0.31c1.04,7.95,7.84,14.11,16.06,14.11h13.94C43.49,55.39,44.51,54.37,44.51,53.12"/>
	<path class="st0" d="M7.46,36.75c1.2-10.26,9.82-18.27,20.33-18.53l0.32-4.59c-13.1,0.1-23.85,10.05-25.23,22.81L7.46,36.75
		L7.46,36.75z"/>
	<polygon class="st1" points="247.38,55.33 247.38,45.9 238.03,45.9 238.03,55.33 235.81,55.33 235.81,35.33 238.03,35.33 
		238.03,43.87 247.38,43.87 247.38,35.33 249.6,35.33 249.6,55.33 	"/>
	<path class="st1" d="M265.2,48.56h-10c0.2,3.2,1.72,5.23,4.17,5.23c1.74,0,2.77-0.51,4.14-1.43l1,1.54
		c-1.8,1.14-3.11,1.74-5.37,1.74c-2.74,0-6.09-2-6.09-7.89c0-4.77,2.63-7.74,6.2-7.74c3.92,0,6.03,3.08,6.03,7.37
		C265.29,47.9,265.26,48.22,265.2,48.56 M259.23,41.87c-2.23,0-3.77,1.6-4.03,4.94h8.09C263.12,43.9,261.86,41.87,259.23,41.87"/>
	<path class="st1" d="M276.2,42.56c-0.6-0.34-1.26-0.57-2.26-0.57c-2.09,0-3.26,1.69-3.26,4.54v8.8h-2.14v-15h2.14v1.86
		c0.69-1.2,2.12-2.17,3.72-2.17c1.11,0,1.83,0.14,2.34,0.37L276.2,42.56L276.2,42.56z"/>
	<path class="st1" d="M287.08,42.56c-0.6-0.34-1.25-0.57-2.26-0.57c-2.08,0-3.26,1.69-3.26,4.54v8.8h-2.14v-15h2.14v1.86
		c0.69-1.2,2.12-2.17,3.72-2.17c1.11,0,1.83,0.14,2.34,0.37L287.08,42.56L287.08,42.56z"/>
	<path class="st1" d="M300.94,48.56h-10c0.2,3.2,1.71,5.23,4.17,5.23c1.74,0,2.77-0.51,4.14-1.43l1,1.54
		c-1.8,1.14-3.12,1.74-5.37,1.74c-2.74,0-6.08-2-6.08-7.89c0-4.77,2.63-7.74,6.2-7.74c3.92,0,6.03,3.08,6.03,7.37
		C301.03,47.9,301,48.22,300.94,48.56 M294.97,41.87c-2.23,0-3.77,1.6-4.03,4.94h8.09C298.86,43.9,297.6,41.87,294.97,41.87"/>
	<path class="st1" d="M313.69,55.33v-8.77c0-3.23-1.14-4.69-3.55-4.69c-2.08,0-3.71,1.4-3.71,4.69v8.77h-2.14v-15h2.14v1.83
		c0.86-1.26,2.26-2.14,4.14-2.14c3.17,0,5.26,1.86,5.26,6.17v9.14H313.69L313.69,55.33z"/>
	<path class="st1" d="M326.11,55.65c-1.88,0-3.17-0.8-4.23-2v1.68h-2.14V35.7l2.14-1.2v7.66c1.06-1.14,2.49-2.14,4.52-2.14
		c3,0,5.37,2.29,5.37,7.57C331.77,52.9,329.25,55.65,326.11,55.65 M325.86,41.87c-1.6,0-2.92,0.86-3.97,2.17v7.49
		c0.83,1.26,2.29,2.26,4.06,2.26c2.49,0,3.72-2.14,3.72-6.17C329.66,43.85,328.23,41.87,325.86,41.87"/>
	<path class="st1" d="M346.31,48.56h-10c0.2,3.2,1.71,5.23,4.17,5.23c1.75,0,2.77-0.51,4.15-1.43l1,1.54
		c-1.8,1.14-3.11,1.74-5.37,1.74c-2.74,0-6.09-2-6.09-7.89c0-4.77,2.63-7.74,6.2-7.74c3.91,0,6.03,3.08,6.03,7.37
		C346.4,47.9,346.37,48.22,346.31,48.56 M340.34,41.87c-2.23,0-3.77,1.6-4.03,4.94h8.09C344.23,43.9,342.97,41.87,340.34,41.87"/>
	<path class="st1" d="M357.31,42.56c-0.6-0.34-1.26-0.57-2.26-0.57c-2.09,0-3.26,1.69-3.26,4.54v8.8h-2.14v-15h2.14v1.86
		c0.69-1.2,2.11-2.17,3.72-2.17c1.11,0,1.83,0.14,2.34,0.37L357.31,42.56L357.31,42.56z"/>
	<path class="st1" d="M363.36,60.85l-0.69-1.63c5-0.14,6.14-1.46,6.14-4.94v-0.77c-1.05,1.14-2.49,2.14-4.51,2.14
		c-3,0-5.37-2.29-5.37-7.57c0-5.31,2.51-8.06,5.66-8.06c1.89,0,3.17,0.8,4.23,2v-1.68h2.14V54
		C370.96,58.5,368.93,60.67,363.36,60.85 M368.82,44.13c-0.83-1.26-2.29-2.26-4.06-2.26c-2.49,0-3.72,2.14-3.72,6.17
		c0,3.77,1.43,5.74,3.8,5.74c1.6,0,2.92-0.86,3.97-2.17v-7.48H368.82z"/>
	<g>
		<line class="st2" x1="222.04" y1="2.29" x2="222.04" y2="64.65"/>
	</g>
</g>
</svg>
