<svg display="none" width="0" height="0" version="1.1" xmlns="http://www.w3.org/2000/svg" xmlns:xlink="http://www.w3.org/1999/xlink">
<defs>
<symbol id="icon-icon_airplane-withoutBox" viewBox="0 0 1024 1024">
	<title>icon_airplane-withoutBox</title>
	<path class="path1" d="M1010.085 13.915c-40.5-40.5-162.938 16.274-203.438 56.774l-201.072 201.072-487.713-62.074c-20.631-2.626-41.316 4.447-56.023 19.153l-61.846 61.846 376.82 237.995-151.501 170.149-161.056 3.909c-14.772 0.358-21.928 18.236-11.477 28.687l239.798 239.794c10.451 10.447 28.329 3.295 28.687-11.477l3.905-161.056 170.149-151.501 237.995 376.817 61.846-61.846c14.706-14.706 21.776-35.392 19.153-56.023l-62.070-487.713 201.072-201.072c40.5-40.5 97.274-162.935 56.77-203.434z"></path>
</symbol>
<symbol id="icon-icon_airplane" viewBox="0 0 1024 1024">
	<title>icon_airplane</title>
	<path class="path1" d="M921.607 1024.025h-819.214c-56.554 0-102.4-45.846-102.4-102.4v-819.251c0-56.554 45.846-102.4 102.4-102.4h819.214c56.554 0 102.4 45.846 102.4 102.4v819.247c0 56.557-45.846 102.404-102.4 102.404z"></path>
	<path class="path2" d="M874.728 149.272c-30.374-30.374-122.204 12.203-152.578 42.581l-150.804 150.804-365.788-46.554c-15.476-1.969-30.988 3.334-42.017 14.363l-46.385 46.385 282.613 178.497-113.624 127.612-120.791 2.93c-11.080 0.267-16.444 13.677-8.609 21.512l179.848 179.852c7.836 7.836 21.245 2.471 21.516-8.609l2.93-120.791 127.612-113.624 178.497 282.613 46.385-46.385c11.029-11.029 16.332-26.545 14.363-42.017l-46.554-365.784 150.804-150.804c30.374-30.378 72.954-122.204 42.581-152.581z"></path>
</symbol>
<symbol id="icon-icon_arrow-collapse" viewBox="0 0 1024 1024">
	<title>icon_arrow-collapse</title>
	<path class="path1" d="M512 812.159l-512.007-512.004 88.311-88.311 512.007 512.007-88.311 88.308z"></path>
	<path class="path2" d="M512 812.159l-88.311-88.311 512.007-512.007 88.311 88.311-512.007 512.007z"></path>
</symbol>
<symbol id="icon-icon_arrow-down" viewBox="0 0 1024 1024">
	<title>icon_arrow-down</title>
	<path class="path1" d="M448.781 1.882h130.144v948.831h-130.144v-948.831z"></path>
	<path class="path2" d="M-0.242 557.651l92.025-92.025 420.206 420.206 420.206-420.206 92.025 92.025-437.236 437.236c-41.352 41.352-108.639 41.352-149.991 0l-437.236-437.236z"></path>
</symbol>
<symbol id="icon-icon_arrow-dropdown" viewBox="0 0 1024 1024">
	<title>icon_arrow-dropdown</title>
	<path class="path1" d="M887.465 187.727l-375.465 375.48-375.465-375.48-136.542 136.542 512.007 512.004 512.007-512.004z"></path>
</symbol>
<symbol id="icon-icon_arrow-left" viewBox="0 0 1024 1024">
	<title>icon_arrow-left</title>
	<path class="path1" d="M75.165 450.685h948.831v130.144h-948.831v-130.144z"></path>
	<path class="path2" d="M468.227 1.662l92.025 92.025-420.206 420.206 420.206 420.206-92.025 92.025-437.232-437.236c-41.352-41.352-41.352-108.639 0-149.991l437.232-437.236z"></path>
</symbol>
<symbol id="icon-icon_arrow-right" viewBox="0 0 1024 1024">
	<title>icon_arrow-right</title>
	<path class="path1" d="M0.621 446.957h948.831v130.144h-948.831v-130.144z"></path>
	<path class="path2" d="M556.39 1026.121l-92.025-92.025 420.206-420.206-420.206-420.206 92.025-92.021 437.232 437.232c41.352 41.352 41.352 108.639 0 149.991l-437.232 437.236z"></path>
</symbol>
<symbol id="icon-icon_arrow-up" viewBox="0 0 1024 1024">
	<title>icon_arrow-up</title>
	<path class="path1" d="M445.053 77.066h130.144v948.831h-130.144v-948.831z"></path>
	<path class="path2" d="M1024.22 470.131l-92.025 92.025-420.206-420.206-420.206 420.206-92.025-92.025 437.232-437.236c41.352-41.352 108.639-41.352 149.991 0l437.239 437.236z"></path>
</symbol>
<symbol id="icon-icon_bus-withoutBox" viewBox="0 0 1024 1024">
	<title>icon_bus-withoutBox</title>
	<path class="path1" d="M835.969-0.007h-647.938c-35.785 0-64.794 29.008-64.794 64.794v777.526c0 35.785 29.008 64.794 64.794 64.794h647.938c35.785 0 64.794-29.008 64.794-64.794v-777.526c0-35.785-29.008-64.794-64.794-64.794zM367.995 57.887h288.010v48.762h-288.010v-48.762zM237.63 791.008c-27.394 0-49.6-22.206-49.6-49.6s22.206-49.6 49.6-49.6c27.394 0 49.6 22.206 49.6 49.6 0.004 27.394-22.206 49.6-49.6 49.6zM786.37 791.008c-27.394 0-49.6-22.206-49.6-49.6s22.206-49.6 49.6-49.6c27.394 0 49.6 22.206 49.6 49.6s-22.206 49.6-49.6 49.6zM835.969 532.14c0 11.73-7.846 21.982-19.175 25.027-45.145 12.127-164.936 40.258-304.794 40.258s-259.649-28.131-304.794-40.258c-11.329-3.042-19.175-13.298-19.175-25.027v-351.139c0-14.313 11.603-25.916 25.92-25.916h596.103c14.313 0 25.92 11.603 25.92 25.916v351.139z"></path>
	<path class="path2" d="M188.031 906.008h99.203v117.999h-99.203v-117.999z"></path>
	<path class="path3" d="M736.766 906.008h99.203v117.999h-99.203v-117.999z"></path>
</symbol>
<symbol id="icon-icon_bus" viewBox="0 0 1024 1024">
	<title>icon_bus</title>
	<path class="path1" d="M921.607 1024.025h-819.214c-56.554 0-102.4-45.846-102.4-102.4v-819.251c0-56.554 45.846-102.4 102.4-102.4h819.214c56.554 0 102.4 45.846 102.4 102.4v819.247c0 56.557-45.846 102.404-102.4 102.404z"></path>
	<path class="path2" d="M771.175 102.393h-518.351c-28.629 0-51.836 23.207-51.836 51.836v622.019c0 28.629 23.207 51.836 51.836 51.836h518.351c28.629 0 51.836-23.207 51.836-51.836v-622.019c0-28.629-23.207-51.836-51.836-51.836zM396.797 148.709h230.409v39.011h-230.409v-39.011zM292.504 735.209c-21.913 0-39.68-17.766-39.68-39.68s17.766-39.68 39.68-39.68c21.917 0 39.68 17.766 39.68 39.68 0.004 21.913-17.763 39.68-39.68 39.68zM731.496 735.209c-21.917 0-39.68-17.766-39.68-39.68s17.766-39.68 39.68-39.68c21.913 0 39.68 17.766 39.68 39.68s-17.766 39.68-39.68 39.68zM771.175 528.112c0 9.385-6.279 17.586-15.342 20.020-36.118 9.703-131.95 32.205-243.833 32.205s-207.719-22.506-243.833-32.205c-9.064-2.435-15.342-10.635-15.342-20.020v-280.912c0-11.452 9.284-20.732 20.736-20.732h476.883c11.452 0 20.736 9.284 20.736 20.732v280.912z"></path>
	<path class="path3" d="M252.825 827.209h79.363v94.398h-79.363v-94.398z"></path>
	<path class="path4" d="M691.812 827.209h79.363v94.398h-79.363v-94.398z"></path>
</symbol>
<symbol id="icon-icon_car" viewBox="0 0 1024 1024">
	<title>icon_car</title>
	<path class="path1" d="M951.064 393.994c0.401-10.53-0.611-21.498-3.212-32.718l-33.455-144.388c-16.343-70.538-88.958-128.251-161.363-128.251h-482.067c-72.405 0-145.020 57.713-161.363 128.251l-33.455 144.388c-2.601 11.22-3.613 22.184-3.212 32.715-41.898 11.416-72.944 49.871-72.944 95.258v272.719c0 28.495 22.939 51.876 51.261 52.623v120.78h116.106v-114.162c78.962 7.084 205.056 11.672 347.151 11.672 144.793 0 272.968-4.765 351.594-12.080v114.571h116.106v-121.886c23.796-5.043 41.797-26.277 41.797-51.518v-272.719c0-45.387-31.049-83.839-72.944-95.254zM276.49 618.034c0 14.483-11.78 25.067-26.18 23.525l-142.69-15.288c-14.399-1.543-26.18-14.652-26.18-29.135v-44.127c0-14.483 11.842-25.905 26.313-25.389l142.423 5.086c14.472 0.517 26.313 12.788 26.313 27.271v58.057zM158.592 404.723c-5.726-7.666-4.942-17.878-3.269-25.107l33.455-144.388c7.778-33.575 47.721-65.321 82.188-65.321h482.067c34.467 0 74.407 31.747 82.188 65.321l33.455 144.388c1.68 7.254 2.467 17.513-3.327 25.19-0.119 0.159-0.267 0.278-0.39 0.434-78.716 7.258-206.35 11.972-350.445 11.972-147.495 0.004-277.726-4.938-355.922-12.488zM947.585 597.136c0 14.483-11.78 27.592-26.18 29.135l-142.69 15.288c-14.399 1.543-26.18-9.042-26.18-23.525v-58.060c0-14.483 11.842-26.754 26.313-27.271l142.423-5.086c14.472-0.517 26.313 10.91 26.313 25.389v44.13z"></path>
</symbol>
<symbol id="icon-icon_caution" viewBox="0 0 1024 1024">
	<title>icon_caution</title>
	<path class="path1" d="M1016.609 880.725l-457.303-792.074c-21.025-36.418-73.587-36.418-94.611 0l-457.303 792.074c-21.025 36.418 5.256 81.935 47.306 81.935h914.606c42.050 0 68.33-45.521 47.306-81.935zM460.699 318.702h104.781v206.675c0 22.166-1.326 44.141-3.974 65.939-2.655 21.805-6.141 44.026-10.48 66.662h-75.877c-4.335-22.64-7.828-44.86-10.476-66.662-2.655-21.798-3.974-43.776-3.974-65.939v-206.675zM570.721 812.802c-3.255 7.586-7.77 14.154-13.55 19.692-5.784 5.545-12.528 9.88-20.234 13.009-7.713 3.128-16.021 4.696-24.93 4.696-9.158 0-17.586-1.571-25.291-4.696-7.713-3.128-14.396-7.463-20.053-13.009-5.661-5.538-10.119-12.105-13.37-19.692-3.255-7.59-4.88-15.718-4.88-24.388 0-8.674 1.626-16.74 4.88-24.207 3.251-7.463 7.705-13.966 13.37-19.511 5.657-5.538 12.34-9.938 20.053-13.186 7.705-3.251 16.133-4.88 25.291-4.88 8.908 0 17.221 1.626 24.93 4.88 7.705 3.251 14.454 7.651 20.234 13.186 5.78 5.545 10.296 12.048 13.55 19.511 3.251 7.471 4.877 15.537 4.877 24.207s-1.626 16.802-4.877 24.388z"></path>
</symbol>
<symbol id="icon-icon_close" viewBox="0 0 1024 1024">
	<title>icon_close</title>
	<path class="path1" d="M1024.007 93.076l-93.080-93.083-418.927 418.92-418.917-418.92-93.091 93.083 418.924 418.924-418.924 418.92 93.091 93.087 418.917-418.92 418.927 418.92 93.080-93.087-418.92-418.92z"></path>
</symbol>
<symbol id="icon-icon_cycle" viewBox="0 0 1024 1024">
	<title>icon_cycle</title>
	<path class="path1" d="M201.314 824.705c-111.009 0-201.325-90.313-201.325-201.325s90.313-201.325 201.325-201.325 201.321 90.313 201.321 201.325-90.309 201.325-201.321 201.325zM201.314 468.661c-85.313 0-154.72 69.407-154.72 154.72s69.407 154.72 154.72 154.72c85.313 0 154.716-69.407 154.716-154.72s-69.403-154.72-154.716-154.72z"></path>
	<path class="path2" d="M822.686 824.705c-111.009 0-201.325-90.313-201.325-201.325s90.313-201.325 201.325-201.325 201.321 90.313 201.321 201.325-90.309 201.325-201.321 201.325zM822.686 468.661c-85.313 0-154.72 69.407-154.72 154.72s69.407 154.72 154.72 154.72c85.313 0 154.716-69.407 154.716-154.72s-69.403-154.72-154.716-154.72z"></path>
	<path class="path3" d="M201.314 646.689c-2.699 0-5.444-0.473-8.121-1.467-12.062-4.49-18.2-17.904-13.713-29.966l149.124-400.785c3.396-9.122 12.102-15.176 21.838-15.176h65.245c12.871 0 23.301 10.433 23.301 23.301s-10.429 23.301-23.301 23.301h-49.051l-143.481 385.613c-3.493 9.382-12.384 15.18-21.841 15.18z"></path>
	<path class="path4" d="M565.053 631.111l-43.964-15.458 90.685-257.907h-311.969v-46.605h377.752z"></path>
	<path class="path5" d="M822.686 646.681h-310.686c-7.579 0-14.685-3.685-19.052-9.884l-203.496-288.935 38.101-26.837 196.538 279.055h253.681l-177.638-252.218 38.101-26.837 203.499 288.939c5.011 7.113 5.639 16.426 1.633 24.15s-11.979 12.568-20.682 12.568z"></path>
	<path class="path6" d="M694.749 283.148h-114.397v-5.578c0-22.621 18.337-40.962 40.962-40.962h119.971c0 25.703-20.837 46.54-46.536 46.54z"></path>
</symbol>
<symbol id="icon-icon_cyclist" viewBox="0 0 1024 1024">
	<title>icon_cyclist</title>
	<path class="path1" d="M618.916 827.191c0-108.527 88.29-196.816 196.813-196.816s196.816 88.29 196.816 196.816-88.293 196.816-196.816 196.816-196.813-88.29-196.813-196.816zM664.477 827.191c0 83.402 67.854 151.259 151.255 151.259 83.405 0 151.259-67.854 151.259-151.259s-67.854-151.259-151.259-151.259c-83.405 0-151.255 67.857-151.255 151.259z"></path>
	<path class="path2" d="M11.452 827.191c0-108.527 88.29-196.816 196.813-196.816s196.816 88.29 196.816 196.816-88.293 196.816-196.816 196.816-196.813-88.29-196.813-196.816zM57.013 827.191c0 83.402 67.854 151.259 151.255 151.259 83.405 0 151.259-67.854 151.259-151.259s-67.854-151.259-151.259-151.259c-83.402 0-151.255 67.857-151.255 151.259z"></path>
	<path class="path3" d="M815.732 849.979c2.641 0 5.321-0.462 7.94-1.434 11.795-4.389 17.795-17.503 13.406-29.294l-145.79-391.819c-3.32-8.919-52.179-12.998-37.18 30.724l140.27 376.979c3.414 9.172 12.109 14.844 21.354 14.844z"></path>
	<path class="path4" d="M414.459 567.499h304.989v-45.557h-369.299z"></path>
	<path class="path5" d="M208.268 849.971h303.732c7.409 0 14.356-3.605 18.626-9.663l198.944-282.469-37.249-26.234-192.138 272.809h-248.009l173.66-246.571-37.249-26.234-198.944 282.469c-4.899 6.954-5.513 16.058-1.597 23.608 3.92 7.547 11.715 12.286 20.223 12.286z"></path>
	<path class="path6" d="M412.197 470.268l75.097-124.667 160.561 105.243c3.381 2.767 6.755 4.888 10.126 6.503 0 0 19.226 9.728 40.507-7.323 14.761-11.827 16.032-37.476-2.139-54.202l-197.842-158.773c-54.079-45.546-100.052-30.909-129.757 27.979l-74.938 148.604c-22.921 45.442-6.26 70.122 32.91 88.759l85.475-32.122z"></path>
	<path class="path7" d="M564.251 93.322c0 51.544-41.785 93.329-93.329 93.329s-93.329-41.785-93.329-93.329c0-51.544 41.785-93.329 93.329-93.329s93.329 41.785 93.329 93.329z"></path>
	<path class="path8" d="M438.067 864.125l11.983-233.458 11.564 34.662-163.654-180.542c-19.363-21.361-17.745-54.379 3.62-73.742 21.361-19.363 54.379-17.745 73.742 3.62 0.408 0.448 0.939 1.066 1.329 1.524l157.791 188.24c8.023 9.573 11.372 21.643 10.31 33.17l-22.145 232.717c-2.218 23.304-22.91 40.402-46.215 38.184-22.661-2.16-39.445-21.874-38.325-44.376z"></path>
</symbol>
<symbol id="icon-icon_digitransit-logo" viewBox="0 0 1024 1024">
	<title>icon_digitransit-logo</title>
	<path class="path1" d="M54.133 477.042c10.939 0 19.414 3.009 24.337 4.92v-79.027c0-2.738 2.46-5.195 5.195-5.195h23.243c2.735 0 5.195 2.46 5.195 5.195v181.023c0 2.735-2.46 5.195-5.195 5.195h-10.664c-2.46 0-4.375-2.189-5.195-5.195l-2.735-8.479c0 0-12.853 16.408-35.822 16.408-29.807 0-52.501-25.978-52.501-57.424 0-31.992 21.603-57.421 54.141-57.421zM56.597 562.355c14.493 0 21.054-11.21 22.968-17.774v-31.718c0 0-7.655-6.289-21.328-6.289-15.313 0-26.527 12.579-26.527 27.892s10.393 27.889 24.887 27.889z"></path>
	<path class="path2" d="M138.756 484.971c0-3.009 2.46-5.195 5.195-5.195h22.697c2.735 0 5.195 2.189 5.195 5.195v98.99c0 2.735-2.46 5.195-5.195 5.195h-22.697c-2.735 0-5.195-2.464-5.195-5.195v-98.99z"></path>
	<path class="path3" d="M207.99 550.321c0 0-8.204-9.295-8.204-25.703 0-25.428 20.508-47.577 47.58-47.577h49.766c3.009 0 5.195 2.189 5.195 5.195v9.024c0 1.915-1.095 4.1-3.009 4.646l-15.313 4.924c0 0 10.939 8.475 10.939 27.889 0 21.603-18.048 42.935-46.76 42.935-10.39 0-17.499-2.189-21.874-2.189-3.829 0-10.119 3.826-10.119 10.393 0 5.74 4.92 9.299 10.935 9.299h35.002c24.883 0 45.12 14.219 45.12 38.285 0 25.154-20.237 46.486-59.884 46.486-40.471 0-55.784-19.963-55.784-37.465 0-16.408 13.673-24.341 16.408-25.978v-0.82c-4.649-1.369-20.512-8.753-20.512-28.712 0.004-21.332 20.515-30.63 20.515-30.63zM247.092 646.577c15.313 0 25.428-6.835 25.428-17.228 0-4.92-3.826-13.399-19.963-13.399-6.015 0-12.033 0.271-17.774 1.095-3.284 1.095-11.759 4.92-11.759 13.399 0 9.573 9.299 16.133 24.066 16.133zM248.183 545.676c11.213 0 18.868-8.204 18.868-19.688s-7.655-19.688-18.868-19.688c-10.935 0-19.139 8.204-19.139 19.688s8.204 19.688 19.139 19.688z"></path>
	<path class="path4" d="M317.517 484.971c0-3.009 2.46-5.195 5.195-5.195h22.697c2.735 0 5.195 2.189 5.195 5.195v98.99c0 2.735-2.46 5.195-5.195 5.195h-22.697c-2.735 0-5.195-2.464-5.195-5.195v-98.99z"></path>
	<path class="path5" d="M381.827 508.485h-9.299c-2.735 0-4.92-2.46-4.92-5.195v-18.319c0-3.009 2.186-5.195 4.92-5.195h9.299v-30.356c0-2.735 2.46-5.191 5.195-5.191l22.423-0.275c2.735 0 4.924 2.46 4.924 5.195v30.627h24.063c3.009 0 5.195 2.189 5.195 5.195v18.319c0 2.738-2.189 5.195-5.195 5.195h-24.063v43.755c0 7.655 4.1 8.749 8.475 8.749 4.649 0 10.393-1.915 13.399-3.009 3.009-1.095 5.195 0.275 6.018 3.009l5.469 17.228c1.095 2.738-0.275 5.469-3.009 6.564-1.369 0.82-19.143 7.109-32.541 7.109-21.054 0-30.352-13.124-30.352-35.276v-48.129z"></path>
	<path class="path6" d="M464.727 484.971c0-3.009 2.46-5.195 5.195-5.195h10.393c2.46 0 4.1 1.369 4.92 3.555l3.829 10.66c3.826-5.466 13.944-16.953 30.901-16.953 12.85 0 24.334 4.1 21.054 10.935l-10.119 17.774c-1.369 2.46-4.1 3.551-6.289 2.46-0.82-0.271-4.92-1.64-7.929-1.64-10.939 0-17.499 7.384-19.414 11.21v66.177c0 3.826-2.46 5.195-6.289 5.195h-21.054c-2.735 0-5.195-2.464-5.195-5.195v-98.983z"></path>
	<path class="path7" d="M588.040 519.973c10.935 0 19.959 3.009 19.959 3.009 0.275-13.944-4.1-18.868-14.219-18.868s-24.334 2.189-30.627 4.1c-3.829 1.095-5.744-1.366-6.289-4.92l-2.464-14.219c-0.82-4.1 1.369-6.015 3.826-6.835 2.189-0.824 19.688-5.195 37.191-5.195 34.182 0 42.111 17.77 42.111 47.577v59.339c0 2.735-2.46 5.195-5.195 5.195h-9.844c-1.915 0-3.284-0.82-4.646-3.829l-3.284-7.38c-6.289 5.74-16.408 13.944-33.361 13.944-21.877 0-36.916-14.219-36.916-37.465 0.007-19.417 15.866-34.452 43.758-34.452zM588.585 568.648c8.749 0 17.228-7.384 18.868-10.664v-15.039c0 0-7.384-3.284-15.313-3.284-10.664 0-17.774 6.015-17.774 14.764 0 8.204 5.74 14.222 14.219 14.222z"></path>
	<path class="path8" d="M663.032 484.971c0-3.009 2.464-5.195 5.195-5.195h10.393c2.464 0 3.826 1.369 4.649 3.284l3.826 10.119c4.1-4.375 17.499-16.133 38.553-16.133 34.731 0 48.675 25.974 48.675 54.415v52.501c0 2.735-2.46 5.195-5.195 5.195h-22.423c-3.009 0-5.195-2.464-5.195-5.195v-54.144c0-14.219-7.384-23.243-20.508-23.243-14.219 0-22.972 9.844-25.703 17.228v60.159c0 3.826-1.64 5.195-6.835 5.195h-20.237c-2.735 0-5.195-2.464-5.195-5.195v-98.99z"></path>
	<path class="path9" d="M793.566 576.028l7.38-14.768c1.095-2.735 3.829-3.284 6.289-1.915 0 0 12.304 6.56 24.883 6.56 5.469 0 9.299-2.189 9.299-6.835 0-4.92-3.826-7.929-18.319-13.673-21.057-8.204-30.901-19.414-30.901-36.096 0-16.679 12.304-32.263 40.196-32.263 16.133 0 27.892 4.646 33.632 8.475 2.464 1.644 3.829 4.649 2.464 7.384l-6.835 13.948c-1.369 2.46-4.375 2.735-6.564 1.915 0 0-12.304-5.744-22.697-5.744-6.564 0-9.299 2.738-9.299 6.289 0 4.924 4.92 6.564 15.039 10.664 21.057 8.204 36.92 17.228 36.92 38.556 0 18.044-15.862 33.358-43.48 33.358-18.048 0-30.63-5.74-36.371-10.119-1.636-1.362-2.731-3.551-1.636-5.737z"></path>
	<path class="path10" d="M893.419 484.971c0-3.009 2.464-5.195 5.195-5.195h22.697c2.738 0 5.195 2.189 5.195 5.195v98.99c0 2.735-2.46 5.195-5.195 5.195h-22.697c-2.735 0-5.195-2.464-5.195-5.195v-98.99z"></path>
	<path class="path11" d="M957.729 508.485h-9.299c-2.735 0-4.92-2.46-4.92-5.195v-18.319c0-3.009 2.189-5.195 4.92-5.195h9.299v-30.356c0-2.735 2.464-5.191 5.195-5.191l22.423-0.275c2.738 0 4.924 2.46 4.924 5.195v30.627h24.063c3.009 0 5.195 2.189 5.195 5.195v18.319c0 2.738-2.189 5.195-5.195 5.195h-24.063v43.755c0 7.655 4.1 8.749 8.475 8.749 4.649 0 10.393-1.915 13.399-3.009 3.009-1.095 5.195 0.275 6.018 3.009l5.466 17.228c1.095 2.738-0.275 5.469-3.009 6.564-1.369 0.82-19.139 7.109-32.538 7.109-21.057 0-30.356-13.124-30.356-35.276v-48.129z"></path>
	<path class="path12" d="M799.198 452.719c-100.431 0-222.909-40.102-251.929-50.12-2.478-0.856-3.793-3.562-2.937-6.036 0.856-2.478 3.558-3.79 6.036-2.937 161.782 55.864 272.675 56.825 322.495 39.102 2.471-0.874 5.184 0.412 6.062 2.883s-0.412 5.184-2.883 6.062c-22.159 7.882-48.646 11.047-76.845 11.047z"></path>
	<path class="path13" d="M188.244 404.311c-1.564 0-3.096-0.773-4.003-2.193-1.412-2.207-0.766-5.144 1.441-6.553 95.63-61.138 204.988-43.039 289.575-20.443 2.532 0.679 4.035 3.28 3.36 5.813-0.676 2.536-3.277 4.024-5.813 3.363-82.705-22.098-189.501-39.871-282.010 19.262-0.788 0.509-1.676 0.751-2.55 0.751z"></path>
	<path class="path14" d="M472.891 411.908c-1.264 0-2.496-0.506-3.399-1.434-1.181-1.214-1.629-2.966-1.167-4.599l14.757-52.338c0.459-1.633 1.756-2.897 3.399-3.316 1.64-0.412 3.385 0.076 4.57 1.29l37.949 38.946c1.181 1.214 1.629 2.966 1.167 4.599-0.459 1.633-1.756 2.897-3.399 3.316l-52.703 13.392c-0.39 0.094-0.784 0.145-1.174 0.145zM489.985 364.021l-10.296 36.512 36.768-9.342-26.472-27.17z"></path>
	<path class="path15" d="M155.164 445.028c-13.023 0-23.615-10.592-23.615-23.611s10.592-23.615 23.615-23.615c13.019 0 23.615 10.595 23.615 23.615s-10.595 23.611-23.615 23.611zM155.164 407.295c-7.785 0-14.121 6.333-14.121 14.121 0 7.785 6.336 14.118 14.121 14.118s14.121-6.333 14.121-14.118c-0.004-7.789-6.336-14.121-14.121-14.121z"></path>
	<path class="path16" d="M909.827 445.028c-13.019 0-23.615-10.592-23.615-23.611s10.592-23.615 23.615-23.615c13.023 0 23.615 10.595 23.615 23.615s-10.592 23.611-23.615 23.611zM909.827 407.295c-7.785 0-14.121 6.333-14.121 14.121 0 7.785 6.333 14.118 14.121 14.118s14.121-6.333 14.121-14.118c0-7.789-6.336-14.121-14.121-14.121z"></path>
</symbol>
<symbol id="icon-icon_direction-a" viewBox="0 0 1024 1024">
	<title>icon_direction-a</title>
	<path class="path1" d="M457.968 1001.527l-49.061-64.18c149.745-114.469 232.212-265.663 232.212-425.73s-82.47-311.26-232.212-425.73l49.061-64.176c170.199 130.104 263.933 304.093 263.933 489.906s-93.734 359.805-263.933 489.91z"></path>
	<path class="path2" d="M384.93 0h296.543v79.074h-296.543v-79.074z"></path>
	<path class="path3" d="M384.93 0h79.074v296.543h-79.074v-296.543z"></path>
	<path class="path4" d="M384.93 944.196h296.543v79.074h-296.543v-79.074z"></path>
	<path class="path5" d="M384.93 726.807h79.074v296.543h-79.074v-296.543z"></path>
</symbol>
<symbol id="icon-icon_direction-b" viewBox="0 0 1024 1024">
	<title>icon_direction-b</title>
	<path class="path1" d="M315.462 297.226l-58.577-58.573-240.152 240.156c-18.33 18.33-18.33 48.054 0 66.383l240.156 240.156 58.573-58.573-171.89-171.894 307.565-0.004v-85.761l-307.565 0.004 171.89-171.894zM1008.528 478.808l-240.152-240.152-58.573 58.573 171.89 171.89h-307.565v85.761h307.568l-171.894 171.894 58.573 58.573 240.152-240.152c18.33-18.333 18.33-48.057 0-66.387z"></path>
</symbol>
<symbol id="icon-icon_ellipsis" viewBox="0 0 1024 1024">
	<title>icon_ellipsis</title>
	<path class="path1" d="M-0.007 512.921v-1.846c0-66.474 56.315-120.018 120.943-120.018 63.703 0 120.939 53.545 120.939 120.018v1.846c0 66.474-54.469 120.018-120.939 120.018-66.474 0-120.943-53.545-120.943-120.018z"></path>
	<path class="path2" d="M391.061 512.921v-1.846c0-66.474 56.315-120.018 120.943-120.018 63.703 0 120.939 53.545 120.939 120.018v1.846c0 66.474-54.469 120.018-120.939 120.018-66.474 0-120.943-53.545-120.943-120.018z"></path>
	<path class="path3" d="M782.125 512.921v-1.846c0-66.474 56.315-120.018 120.943-120.018 63.703 0 120.939 53.545 120.939 120.018v1.846c0 66.474-54.469 120.018-120.939 120.018s-120.943-53.545-120.943-120.018z"></path>
</symbol>
<symbol id="icon-icon_ferry-withoutBox" viewBox="0 0 1024 1024">
	<title>icon_ferry-withoutBox</title>
	<path class="path1" d="M859.389 936.075c-28.802 15.837-53.671 29.511-106.421 29.511-52.753 0-77.625-13.677-106.424-29.511-31.324-17.221-66.824-36.736-134.569-36.736-67.742 0-103.242 19.515-134.558 36.739-28.795 15.834-53.667 29.507-106.403 29.507-52.743 0-77.611-13.673-106.41-29.511-31.317-17.221-66.817-36.736-134.566-36.736v58.425c52.743 0 77.618 13.673 106.413 29.511 31.317 17.221 66.817 36.736 134.558 36.736s103.234-19.515 134.555-36.736c28.795-15.837 53.667-29.511 106.41-29.511 52.746 0 77.618 13.673 106.421 29.511 31.324 17.221 66.824 36.736 134.577 36.736 67.749 0 103.249-19.515 134.569-36.736 28.802-15.834 53.671-29.511 106.424-29.511v-58.425c-67.756 0-103.256 19.515-134.577 36.736z"></path>
	<path class="path2" d="M30.038 549.801l62.33 291.966c30.594 7.196 52.284 19.074 72.232 30.042 28.795 15.837 53.667 29.511 106.41 29.511 52.735 0 77.607-13.673 106.403-29.507 31.317-17.221 66.817-36.739 134.558-36.739 67.749 0 103.249 19.515 134.569 36.736 28.802 15.834 53.671 29.511 106.424 29.511 52.746 0 77.618-13.673 106.421-29.511 19.955-10.968 41.645-22.849 72.243-30.042l62.33-291.962-116.149-21.119-20.736-206.852h57.298v-111.406c0-27.441-22.246-49.683-49.686-49.683h-22.524v-33.184c0-9.147-7.416-16.56-16.563-16.56h-236.167v-94.449c0-9.147-7.413-16.56-16.563-16.56h-120.994c-9.147 0-16.56 7.416-16.56 16.56v94.445h-236.16c-9.147 0-16.563 7.416-16.563 16.56v33.184h-22.524c-27.441 0-49.683 22.246-49.683 49.683v111.402h61.824l-23.272 206.35-118.898 21.624zM636.209 484.747l-124.209-22.585-124.212 22.585v-143.185c0-9.147 7.413-16.56 16.56-16.56h215.298c9.147 0 16.56 7.416 16.56 16.56v143.185zM702.455 496.795v-155.233c0-9.147 7.416-16.56 16.563-16.56h55.12c8.529 0 15.664 6.477 16.484 14.967l17.029 175.954-105.196-19.128zM233.379 339.969c0.82-8.489 7.955-14.967 16.484-14.967h55.12c9.147 0 16.563 7.416 16.563 16.56v155.233l-105.192 19.128 17.026-175.954z"></path>
</symbol>
<symbol id="icon-icon_ferry" viewBox="0 0 1024 1024">
	<title>icon_ferry</title>
	<path class="path1" d="M921.607 1024.025h-819.214c-56.554 0-102.4-45.846-102.4-102.4v-819.251c0-56.554 45.846-102.4 102.4-102.4h819.214c56.554 0 102.4 45.846 102.4 102.4v819.247c0 56.557-45.846 102.404-102.4 102.404z"></path>
	<path class="path2" d="M789.91 851.304c-23.041 12.669-42.938 23.608-85.136 23.608-42.201 0-62.099-10.942-85.139-23.608-25.060-13.774-53.458-29.388-107.656-29.388-54.195 0-82.593 15.613-107.649 29.391-23.037 12.665-42.935 23.604-85.121 23.604-42.194 0-62.092-10.939-85.125-23.608-25.053-13.774-53.454-29.388-107.653-29.388v46.739c42.194 0 62.095 10.939 85.132 23.608 25.053 13.774 53.454 29.388 107.649 29.388s82.589-15.613 107.642-29.388c23.037-12.669 42.935-23.608 85.125-23.608 42.198 0 62.095 10.939 85.136 23.608 25.060 13.774 53.458 29.388 107.66 29.388 54.198 0 82.596-15.613 107.656-29.388 23.041-12.665 42.938-23.608 85.139-23.608v-46.739c-54.202 0-82.6 15.613-107.66 29.388z"></path>
	<path class="path3" d="M126.43 542.284l49.867 233.574c24.478 5.755 41.826 15.259 57.786 24.034 23.037 12.669 42.935 23.608 85.125 23.608s62.084-10.939 85.121-23.604c25.053-13.778 53.454-29.391 107.649-29.391 54.198 0 82.596 15.613 107.656 29.388 23.041 12.665 42.938 23.608 85.139 23.608 42.198 0 62.095-10.939 85.136-23.608 15.964-8.775 33.314-18.279 57.796-24.034l49.867-233.57-92.921-16.896-16.589-165.482h45.835v-89.12c0-21.953-17.795-39.748-39.748-39.748h-18.019v-26.548c0-7.319-5.932-13.251-13.251-13.251h-188.934v-75.555c0-7.319-5.932-13.251-13.251-13.251h-96.793c-7.315 0-13.247 5.932-13.247 13.251v75.555h-188.934c-7.315 0-13.251 5.932-13.251 13.251v26.548h-18.019c-21.953 0-39.748 17.795-39.748 39.748v89.12h49.462l-18.619 165.081-95.117 17.293zM611.369 490.246l-99.365-18.070-99.369 18.070v-114.549c0-7.315 5.932-13.251 13.247-13.251h172.241c7.315 0 13.247 5.932 13.247 13.251v114.549zM664.365 499.88v-124.187c0-7.315 5.932-13.251 13.251-13.251h44.094c6.824 0 12.532 5.18 13.189 11.972l13.623 140.765-84.157-15.299zM289.105 374.418c0.657-6.792 6.365-11.972 13.189-11.972h44.094c7.319 0 13.251 5.932 13.251 13.251v124.187l-84.153 15.303 13.619-140.768z"></path>
</symbol>
<symbol id="icon-icon_kutsuplus" viewBox="0 0 1024 1024">
	<title>icon_kutsuplus</title>
	<path class="path1" d="M908.682 491.723l-64.487-341.761-0.412 0.079c-0.202-1.29-0.412-2.583-0.723-3.898l-22.99-96.653c-6.477-27.224-34.669-49.499-62.655-49.499h-490.831c-27.982 0-56.178 22.275-62.655 49.499l-22.99 96.649c-0.314 1.315-0.52 2.608-0.723 3.898l-0.415-0.079-64.487 341.764v370.112c0 6.835 1.384 13.355 3.855 19.323 0.285 1.145 0.809 2.279 1.597 3.407 4.003 7.944 9.992 14.721 17.354 19.627-0.029 0.452-0.069 0.896-0.069 1.355v118.458h101.714v-105.561c70.339 9.291 165.984 14.999 272.235 14.999 103.867 0 197.582-5.455 267.448-14.381v104.943h101.714v-117.045c9.501-4.956 17.242-12.817 22.069-22.394 0.788-1.127 1.311-2.261 1.597-3.407 2.471-5.968 3.855-12.488 3.855-19.323v-370.112zM199.392 770.294c-28.719-5.386-26.924-48.462-26.924-48.462s0-34.106 0-67.312 29.615-14.36 62.821 0 43.975 40.388 43.975 40.388l42.18 88.85c0.004-0.004-93.333-8.078-122.052-13.464zM171.24 485.777l65.538-370.133h548.056l67.926 370.133c-84.074 11.040-205.573 17.983-340.76 17.983-135.191 0-256.686-6.94-340.76-17.983zM827.599 770.294c-28.719 5.386-122.056 13.464-122.056 13.464l42.18-88.85c0 0 10.769-26.028 43.975-40.388s62.821-33.206 62.821 0 0 67.312 0 67.312 1.799 43.075-26.92 48.462z"></path>
	<path class="path2" d="M135.834 469.065c2.536 10.903-4.545 19.822-15.74 19.822h-61.008c-11.195 0-20.353-9.158-20.353-20.353v-108.646c0-11.195 9.158-20.353 20.353-20.353h26.245c11.195 0 22.43 8.919 24.966 19.822l25.537 109.708z"></path>
	<path class="path3" d="M888.166 469.065c-2.536 10.903 4.545 19.822 15.74 19.822h61.008c11.195 0 20.353-9.158 20.353-20.353v-108.646c0-11.195-9.158-20.353-20.353-20.353h-26.245c-11.195 0-22.43 8.919-24.966 19.822l-25.537 109.708z"></path>
	<path class="path4" d="M529.846 202.073v90.341h85.309c9.367 0 16.964 7.593 16.964 16.964v0c0 9.367-7.593 16.964-16.964 16.964h-85.309v91.093c0 9.367-7.593 16.964-16.964 16.964h-2.767c-9.367 0-16.964-7.593-16.964-16.964v-91.096h-84.811c-9.367 0-16.964-7.593-16.964-16.964v0c0-9.367 7.593-16.964 16.964-16.964h84.811v-90.338c0-9.367 7.593-16.964 16.964-16.964h2.767c9.371 0.004 16.964 7.597 16.964 16.964z"></path>
</symbol>
<symbol id="icon-icon_mapMarker-location" viewBox="0 0 1024 1024">
	<title>icon_mapMarker-location</title>
	<path class="path1" d="M512 43.343c125.184 0 242.872 48.751 331.393 137.268s137.268 206.209 137.268 331.389c0 125.184-48.751 242.876-137.268 331.393s-206.209 137.268-331.393 137.268-242.872-48.751-331.393-137.268c-88.517-88.517-137.268-206.209-137.268-331.393s48.751-242.872 137.268-331.389 206.209-137.268 331.393-137.268zM512-0.007c-282.772 0-512.007 229.231-512.007 512.007s229.235 512.007 512.007 512.007 512.007-229.231 512.007-512.007c0-282.776-229.235-512.007-512.007-512.007v0z"></path>
	<path class="path2" d="M512 253.749c142.401 0 258.251 115.849 258.251 258.251s-115.849 258.251-258.251 258.251-258.251-115.849-258.251-258.251c0-142.401 115.849-258.251 258.251-258.251zM512 170.662c-188.515 0-341.338 152.823-341.338 341.338s152.823 341.338 341.338 341.338 341.338-152.823 341.338-341.338c0-188.515-152.823-341.338-341.338-341.338v0z"></path>
	<path class="path3" d="M512 341.331c94.257 0 170.669 76.412 170.669 170.669s-76.412 170.669-170.669 170.669-170.669-76.412-170.669-170.669c0-94.257 76.412-170.669 170.669-170.669z"></path>
	<path class="path4" d="M512 426.665c47.129 0 85.335 38.206 85.335 85.335s-38.206 85.335-85.335 85.335c-47.129 0-85.335-38.206-85.335-85.335s38.206-85.335 85.335-85.335z"></path>
</symbol>
<symbol id="icon-icon_mapMarker-point" viewBox="0 0 1024 1024">
	<title>icon_mapMarker-point</title>
	<path class="path1" d="M512-0.007c-212.979 0-385.635 172.656-385.635 385.635 0 167.295 237.941 486.861 340.016 616.257 23.272 29.5 67.966 29.5 91.237 0 102.078-129.396 340.016-448.962 340.016-616.257 0-212.982-172.656-385.635-385.635-385.635z"></path>
</symbol>
<symbol id="icon-icon_maximize" viewBox="0 0 1024 1024">
	<title>icon_maximize</title>
	<path class="path1" d="M421.648 90.352v-90.352h-370.448c-28.275 0-51.2 22.925-51.2 51.2v370.451h90.352v-265.15l325.1 325.093 66.145-66.145-325.104-325.096h265.154zM933.648 602.352v265.15l-325.1-325.1-66.145 66.145 325.104 325.104h-265.154v90.349h370.444c28.279 0 51.2-22.925 51.2-51.2v-370.448h-90.349z"></path>
</symbol>
<symbol id="icon-icon_menu" viewBox="0 0 1024 1024">
	<title>icon_menu</title>
	<path class="path1" d="M0 204.793h1024v102.404h-1024v-102.404z"></path>
	<path class="path2" d="M0 460.796h1024v102.404h-1024v-102.404z"></path>
	<path class="path3" d="M0 716.8h1024v102.404h-1024v-102.404z"></path>
</symbol>
<symbol id="icon-icon_subway-withoutBox" viewBox="0 0 1024 1024">
	<title>icon_subway-withoutBox</title>
	<path class="path1" d="M753.897-0.007h-483.794c-102.162 0-184.978 82.817-184.978 184.982v525.691c0 102.162 82.817 184.982 184.978 184.982h60.925l-99.463 128.367h108.928l99.463-128.367h144.088l99.463 128.367h108.928l-99.463-128.367h60.925c102.162 0 184.978-82.817 184.978-184.982v-525.695c0.004-102.162-82.817-184.978-184.978-184.978zM210.732 768.166c-30.078 0-54.462-24.384-54.462-54.462s24.384-54.462 54.462-54.462 54.466 24.384 54.466 54.462c0 30.078-24.384 54.462-54.466 54.462zM813.268 768.166c-30.078 0-54.462-24.384-54.462-54.462s24.384-54.462 54.462-54.462c30.078 0 54.462 24.384 54.462 54.462s-24.384 54.462-54.462 54.462zM867.73 564.233c0 12.882-8.616 24.139-21.057 27.48-49.571 13.316-181.106 24.128-334.677 24.128s-285.102-10.809-334.677-24.128c-12.441-3.342-21.054-14.598-21.054-27.48v-385.566c0-15.718 12.741-28.459 28.459-28.459h654.546c15.714 0 28.459 12.741 28.459 28.459v385.566z"></path>
</symbol>
<symbol id="icon-icon_subway" viewBox="0 0 1024 1024">
	<title>icon_subway</title>
	<path class="path1" d="M921.607 1024.025h-819.214c-56.554 0-102.4-45.846-102.4-102.4v-819.251c0-56.554 45.846-102.4 102.4-102.4h819.214c56.554 0 102.4 45.846 102.4 102.4v819.247c0 56.557-45.846 102.404-102.4 102.404z"></path>
	<path class="path2" d="M705.518 102.44h-387.036c-81.729 0-147.983 66.253-147.983 147.983v420.553c0 81.729 66.253 147.983 147.983 147.983h48.74l-79.569 102.693h87.141l79.569-102.693h115.271l79.573 102.693h87.141l-79.573-102.693h48.74c81.729 0 147.983-66.253 147.983-147.983v-420.553c0.004-81.729-66.25-147.983-147.979-147.983zM270.985 716.977c-24.063 0-43.57-19.508-43.57-43.57s19.508-43.57 43.57-43.57 43.57 19.508 43.57 43.57c0.004 24.063-19.508 43.57-43.57 43.57zM753.015 716.977c-24.063 0-43.57-19.508-43.57-43.57s19.508-43.57 43.57-43.57 43.57 19.508 43.57 43.57c0 24.063-19.508 43.57-43.57 43.57zM796.586 553.829c0 10.306-6.893 19.312-16.845 21.986-39.658 10.653-144.887 19.302-267.741 19.302s-228.083-8.648-267.741-19.302c-9.952-2.673-16.845-11.679-16.845-21.986v-308.45c0-12.575 10.194-22.766 22.766-22.766h523.636c12.572 0 22.766 10.194 22.766 22.766v308.45z"></path>
</symbol>
<symbol id="icon-icon_minimize" viewBox="0 0 1024 1024">
	<title>icon_minimize</title>
	<path class="path1" d="M349.163 280.504l-282.472-282.465-68.652 68.652 282.472 282.469h-280.514v93.781h389.803c29.352 0 53.144-23.792 53.144-53.144v-391.758h-93.781v282.465zM743.482 674.823h280.514v-93.777h-389.803c-29.352 0-53.144 23.792-53.144 53.144v389.807h93.781v-280.514l282.48 282.48 68.656-68.652-282.483-282.487z"></path>
</symbol>
<symbol id="icon-icon_pause" viewBox="0 0 1024 1024">
	<title>icon_pause</title>
	<path class="path1" d="M230.377 1024.079h-0.043c-84.832 0-153.604-68.771-153.604-153.604v-716.952c0-84.832 68.771-153.604 153.604-153.604h0.043c84.832 0 153.604 68.771 153.604 153.604v716.952c0 84.832-68.771 153.604-153.604 153.604z"></path>
	<path class="path2" d="M793.663 1024.079h-0.043c-84.832 0-153.604-68.771-153.604-153.604v-716.952c0-84.832 68.771-153.604 153.604-153.604h0.043c84.832 0 153.604 68.771 153.604 153.604v716.952c0 84.832-68.771 153.604-153.604 153.604z"></path>
</symbol>
<symbol id="icon-icon_place" viewBox="0 0 1024 1024">
	<title>icon_place</title>
	<path class="path1" d="M512-0.007c-212.979 0-385.635 172.656-385.635 385.635 0 167.295 237.941 486.861 340.016 616.257 23.272 29.5 67.966 29.5 91.237 0 102.078-129.396 340.016-448.962 340.016-616.257 0-212.982-172.656-385.635-385.635-385.635zM528.506 623.634c-8.421 10.675-24.594 10.675-33.011 0-36.934-46.822-123.031-162.451-123.031-222.989 0-77.066 62.475-139.537 139.54-139.537s139.54 62.475 139.54 139.537c-0.004 60.538-86.1 176.167-123.038 222.989z"></path>
</symbol>
<symbol id="icon-icon_plus" viewBox="0 0 1024 1024">
	<title>icon_plus</title>
	<path class="path1" d="M435.198 0h153.604v1024h-153.604v-1024z"></path>
	<path class="path2" d="M0 435.198h1024v153.604h-1024v-153.604z"></path>
</symbol>
<symbol id="icon-icon_print" viewBox="0 0 1024 1024">
	<title>icon_print</title>
	<path class="path1" d="M933.297 317.553h-67.81v-224.011c0-50.192-40.832-91.024-91.024-91.024h-524.929c-50.192-0.004-91.024 40.832-91.024 91.021v224.011h-67.807c-50.098 0-90.71 40.612-90.71 90.71v290.546c0 50.098 40.612 90.71 90.71 90.71h67.807v140.938c0 50.192 40.832 91.024 91.024 91.024h524.929c50.192 0 91.024-40.832 91.024-91.024v-140.938h67.81c50.098 0 90.71-40.612 90.71-90.71v-290.546c0-50.095-40.612-90.706-90.71-90.706zM238.512 93.539c0-6.080 4.946-11.025 11.025-11.025h524.929c6.080 0 11.025 4.946 11.025 11.025v224.011h-546.98v-224.011zM785.488 930.458c0 6.080-4.946 11.025-11.025 11.025h-524.929c-6.080 0-11.025-4.946-11.025-11.025v-335.652h546.976v335.652zM839.542 512c-32.137 0-58.187-26.050-58.187-58.187s26.050-58.187 58.187-58.187 58.187 26.050 58.187 58.187c0 32.137-26.050 58.187-58.187 58.187z"></path>
</symbol>
<symbol id="icon-icon_route" viewBox="0 0 1024 1024">
	<title>icon_route</title>
	<path class="path1" d="M257.673 173.541c-142.311 0-257.68 115.369-257.68 257.68 0 111.785 158.99 325.32 227.198 411.782 15.548 19.71 45.413 19.71 60.965 0 68.208-86.462 227.198-299.997 227.198-411.782 0-142.315-115.369-257.68-257.68-257.68zM268.702 590.254c-5.625 7.131-16.433 7.131-22.058 0-24.681-31.284-82.21-108.548-82.21-148.998 0-51.493 41.746-93.239 93.239-93.239s93.239 41.746 93.239 93.239c0 40.449-57.529 117.713-82.21 148.998z"></path>
	<path class="path2" d="M874.883 166.215c-82.358 0-149.124 66.766-149.124 149.124 0 64.693 92.010 188.269 131.484 238.306 8.999 11.408 26.281 11.408 35.28 0 39.474-50.037 131.484-173.613 131.484-238.306 0-82.358-66.763-149.124-149.124-149.124zM881.266 407.375c-3.255 4.129-9.508 4.129-12.767 0-14.284-18.106-47.577-62.821-47.577-86.227 0-29.8 24.157-53.96 53.96-53.96s53.96 24.157 53.96 53.96c0 23.409-33.293 68.121-47.577 86.227z"></path>
	<path class="path3" d="M351.941 848.382c-11.444 0-21.093-8.861-21.899-20.45-0.842-12.102 8.291-22.6 20.396-23.442 0.098-0.007 8.168-0.571 21.762-1.73 12.095-1.044 22.73 7.929 23.763 20.020s-7.929 22.73-20.020 23.763c-14.114 1.207-22.455 1.785-22.455 1.785-0.524 0.040-1.037 0.054-1.546 0.054zM439.873 840.113c-11.033 0-20.544-8.291-21.809-19.515-1.358-12.059 7.319-22.936 19.374-24.294 7.001-0.788 14.251-1.633 21.686-2.543 12.069-1.478 23.004 7.102 24.475 19.143 1.474 12.044-7.099 23.004-19.143 24.475-7.575 0.925-14.963 1.788-22.098 2.594-0.834 0.094-1.662 0.141-2.485 0.141zM527.216 828.441c-10.617 0-19.955-7.713-21.675-18.532-1.904-11.983 6.271-23.243 18.258-25.143 7.153-1.134 14.298-2.323 21.39-3.562 11.968-2.099 23.34 5.903 25.428 17.857 2.092 11.954-5.903 23.337-17.857 25.428-7.319 1.279-14.696 2.507-22.076 3.678-1.163 0.184-2.323 0.275-3.468 0.275zM613.616 811.278c-9.808 0-18.745-6.614-21.278-16.556-2.995-11.759 4.111-23.72 15.873-26.711 7.232-1.842 14.045-3.732 20.255-5.621 11.614-3.54 23.882 3.020 27.415 14.623 3.533 11.611-3.016 23.882-14.623 27.415-6.853 2.084-14.324 4.158-22.21 6.167-1.813 0.462-3.638 0.683-5.433 0.683zM692.889 775.781c-4.765 0-9.566-1.543-13.597-4.725-9.14-7.214-11.011-20.23-4.501-29.688-3.88-10.346 0.556-22.195 10.639-27.307 10.827-5.487 24.034-1.181 29.521 9.638 2.995 5.903 4.508 12.048 4.508 18.265-0.004 8.941-3.222 17.737-9.306 25.45-4.339 5.498-10.769 8.367-17.264 8.367zM641.642 719.217c-3.11 0-6.271-0.665-9.273-2.066-8.352-3.898-15.736-7.911-21.946-11.932-10.187-6.593-13.099-20.198-6.503-30.385 6.593-10.184 20.198-13.099 30.385-6.503 4.519 2.926 10.119 5.953 16.643 8.995 10.996 5.13 15.754 18.203 10.624 29.2-3.732 7.994-11.654 12.691-19.93 12.691zM617.561 657.779c-6.777 0-13.464-3.125-17.766-9.020-7.153-9.801-5.007-23.546 4.794-30.703 6.116-4.465 13.583-8.876 22.199-13.113 10.888-5.357 24.059-0.871 29.413 10.017 5.357 10.888 0.871 24.059-10.017 29.413-6.34 3.118-11.618 6.206-15.685 9.176-3.909 2.857-8.442 4.23-12.936 4.23zM698.47 624.009c-9.548 0-18.333-6.268-21.104-15.902-3.356-11.661 3.378-23.835 15.039-27.191 6.954-2.001 14.306-3.999 21.852-5.943 11.744-3.031 23.731 4.042 26.758 15.797 3.027 11.748-4.046 23.731-15.797 26.758-7.149 1.842-14.1 3.732-20.66 5.621-2.030 0.582-4.079 0.86-6.087 0.86zM784.173 603.7c-10.274 0-19.457-7.243-21.527-17.701-2.359-11.903 5.375-23.467 17.279-25.826 7.648-1.517 15.010-2.915 21.957-4.187 11.932-2.186 23.384 5.715 25.577 17.651 2.186 11.936-5.715 23.387-17.651 25.577-6.748 1.235-13.901 2.594-21.332 4.068-1.449 0.282-2.886 0.419-4.302 0.419z"></path>
</symbol>
<symbol id="icon-icon_search" viewBox="0 0 1024 1024">
	<title>icon_search</title>
	<path class="path1" d="M726.002 636.551l297.996 297.996-89.445 89.445-297.996-297.996 89.445-89.445z"></path>
	<path class="path2" d="M425.705 126.488c164.987 0 299.213 134.226 299.213 299.216 0 164.987-134.226 299.213-299.213 299.213s-299.216-134.226-299.216-299.213c0-164.987 134.23-299.216 299.216-299.216zM425.705-0.007c-235.116 0-425.712 190.596-425.712 425.712s190.599 425.708 425.712 425.708 425.712-190.596 425.712-425.708-190.596-425.712-425.712-425.712v0z"></path>
</symbol>
<symbol id="icon-icon_share" viewBox="0 0 1024 1024">
	<title>icon_share</title>
	<path class="path1" d="M389.106 512c0 101.796-82.522 184.317-184.317 184.317s-184.317-82.522-184.317-184.317c0-101.796 82.522-184.317 184.317-184.317s184.317 82.522 184.317 184.317z"></path>
	<path class="path2" d="M1003.528 184.31c0 101.796-82.522 184.317-184.317 184.317s-184.317-82.522-184.317-184.317c0-101.796 82.522-184.317 184.317-184.317s184.317 82.522 184.317 184.317z"></path>
	<path class="path3" d="M1003.528 839.69c0 101.796-82.522 184.317-184.317 184.317s-184.317-82.522-184.317-184.317c0-101.796 82.522-184.317 184.317-184.317s184.317 82.522 184.317 184.317z"></path>
	<path class="path4" d="M796.076 883.062l-695.739-371.062 695.739-371.062 46.265 86.743-533.104 284.318 533.104 284.318z"></path>
</symbol>
<symbol id="icon-icon_star" viewBox="0 0 1024 1024">
	<title>icon_star</title>
	<path class="path1" d="M560.393 56.937l102.18 293.964 311.152 6.34c48.566 0.99 68.619 62.706 29.908 92.054l-247.998 188.020 90.121 297.88c14.067 46.497-38.43 84.637-78.305 56.89l-255.455-177.76-255.455 177.76c-39.875 27.748-92.372-10.397-78.305-56.89l90.121-297.88-247.998-188.020c-38.708-29.348-18.659-91.064 29.908-92.054l311.152-6.34 102.18-293.964c15.956-45.882 80.844-45.882 96.793 0z"></path>
</symbol>
<symbol id="icon-icon_time" viewBox="0 0 1024 1024">
	<title>icon_time</title>
	<path class="path1" d="M763.423 557.333h-292.779v-403.383h86.7v316.683h206.079z"></path>
	<path class="path2" d="M512 86.357c113.696 0 220.583 44.275 300.979 124.667 80.393 80.393 124.667 187.279 124.667 300.972 0 113.696-44.275 220.583-124.667 300.979-80.393 80.393-187.283 124.667-300.979 124.667-113.693 0-220.583-44.275-300.976-124.667-80.396-80.393-124.671-187.283-124.671-300.979 0-113.693 44.275-220.579 124.671-300.972 80.393-80.393 187.283-124.667 300.976-124.667zM512-0.007c-282.772 0-512.011 229.231-512.011 512.004 0 282.779 229.239 512.011 512.011 512.011 282.779 0 512.011-229.231 512.011-512.011 0-282.772-229.231-512.004-512.011-512.004v0z"></path>
</symbol>
<symbol id="icon-icon_rail-withoutBox" viewBox="0 0 1024 1024">
	<title>icon_rail-withoutBox</title>
	<path class="path1" d="M884.149 663.313v-414.535c0-89.063-72.199-248.789-161.266-248.789h-421.767c-89.063 0-161.266 159.723-161.266 248.789v414.531c0 89.063 72.199 205.028 161.266 205.028h9.288l-39.712 47.407h-68.818l-43.762 46.681h73.471l-51.59 61.582h94.962l51.59-61.582h370.906l51.59 61.582h94.962l-51.59-61.582h73.471l-43.762-46.681h-68.815l-39.712-47.407h9.288c89.063 0 161.266-115.961 161.266-205.024zM774.643 713.444c-26.223 0-47.483-21.26-47.483-47.483s21.26-47.483 47.483-47.483c26.223 0 47.483 21.26 47.483 47.483-0.004 26.223-21.26 47.483-47.483 47.483zM374.147 99.174h275.703v46.681h-275.703v-46.681zM249.357 713.444c-26.223 0-47.483-21.26-47.483-47.483s21.26-47.483 47.483-47.483c26.223 0 47.483 21.26 47.483 47.483s-21.26 47.483-47.483 47.483zM220.233 515.851c-10.845-2.912-18.355-12.727-18.355-23.958v-248.609c0-13.702 11.108-24.811 24.811-24.811h570.627c13.702 0 24.811 11.108 24.811 24.811v248.609c0 11.231-7.51 21.043-18.355 23.958-43.216 11.611-157.888 21.032-291.767 21.032s-248.555-9.421-291.771-21.032zM658.35 915.744h-292.696l39.712-47.407h213.271l39.712 47.407z"></path>
</symbol>
<symbol id="icon-icon_rail" viewBox="0 0 1024 1024">
	<title>icon_rail</title>
	<path class="path1" d="M921.607 1024.025h-819.214c-56.554 0-102.4-45.846-102.4-102.4v-819.251c0-56.554 45.846-102.4 102.4-102.4h819.214c56.554 0 102.4 45.846 102.4 102.4v819.247c0 56.557-45.846 102.404-102.4 102.404z"></path>
	<path class="path2" d="M809.717 633.095v-331.624c0-71.249-57.76-199.031-129.010-199.031h-337.415c-71.249 0-129.010 127.778-129.010 199.031v331.624c0 71.249 57.76 164.022 129.010 164.022h7.431l-31.772 37.924h-55.051l-35.009 37.342h58.775l-41.273 49.267h75.971l41.273-49.267h296.724l41.273 49.267h75.971l-41.273-49.267h58.775l-35.009-37.342h-55.051l-31.772-37.924h7.431c71.249 0 129.010-92.773 129.010-164.022zM722.114 673.201c-20.978 0-37.985-17.008-37.985-37.985s17.008-37.985 37.985-37.985c20.978 0 37.985 17.008 37.985 37.985s-17.008 37.985-37.985 37.985zM401.718 181.785h220.561v37.342h-220.561v-37.342zM301.886 673.201c-20.978 0-37.985-17.008-37.985-37.985s17.008-37.985 37.985-37.985 37.985 17.008 37.985 37.985c0 20.978-17.008 37.985-37.985 37.985zM278.585 515.125c-8.677-2.33-14.685-10.184-14.685-19.164v-198.89c0-10.96 8.887-19.847 19.847-19.847h456.501c10.96 0 19.847 8.887 19.847 19.847v198.886c0 8.984-6.008 16.834-14.685 19.164-34.575 9.288-126.311 16.827-233.415 16.827s-198.836-7.536-233.411-16.823zM629.078 835.041h-234.159l31.772-37.924h170.618l31.768 37.924z"></path>
</symbol>
<symbol id="icon-icon_tram-withoutBox" viewBox="0 0 1024 1024">
	<title>icon_tram-withoutBox</title>
	<path class="path1" d="M813.77 851.911v-548.215c0-46.666-37.83-169.661-84.493-169.661h-146.162l42.584-88.622h71.632v-45.42h-370.556v45.424h72.376l42.584 88.622h-147.011c-46.666 0-84.496 122.995-84.496 169.661v548.215c0 46.645 37.798 84.457 84.431 84.493l-63.143 87.603h92.404l63.139-87.6h249.87l63.139 87.6h92.404l-63.139-87.603c46.637-0.036 84.435-37.852 84.435-84.496zM448.976 45.413h126.9l-42.584 88.622h-41.735l-42.581-88.622zM377.864 187.962h268.275v45.424h-268.275v-45.424zM270.584 790.582c0-25.515 20.685-46.2 46.2-46.2s46.2 20.685 46.2 46.2c0 25.515-20.685 46.2-46.2 46.2s-46.2-20.685-46.2-46.2zM707.212 836.782c-25.515 0-46.2-20.685-46.2-46.2s20.685-46.2 46.2-46.2c25.515 0 46.2 20.685 46.2 46.2 0.004 25.515-20.682 46.2-46.2 46.2zM753.416 655.268c0 10.928-5.849 20.476-14.291 23.311-33.643 11.296-122.908 20.465-227.125 20.465-104.221 0-193.486-9.169-227.125-20.465-8.442-2.836-14.291-12.384-14.291-23.311v-352.627c0-13.334 8.648-24.142 19.312-24.142h444.204c10.668 0 19.312 10.809 19.312 24.142v352.627z"></path>
</symbol>
<symbol id="icon-icon_tram" viewBox="0 0 1024 1024">
	<title>icon_tram</title>
	<path class="path1" d="M921.607 1024.025h-819.214c-56.554 0-102.4-45.846-102.4-102.4v-819.251c0-56.554 45.846-102.4 102.4-102.4h819.214c56.554 0 102.4 45.846 102.4 102.4v819.247c0 56.557-45.846 102.404-102.4 102.404z"></path>
	<path class="path2" d="M753.416 783.974v-438.572c0-37.332-30.266-135.729-67.597-135.729h-116.929l34.066-70.899h57.305v-36.335h-296.438v36.338h57.901l34.066 70.899h-117.609c-37.332 0-67.597 98.397-67.597 135.729v438.572c0 37.317 30.237 67.568 67.547 67.594l-50.514 70.083h73.923l50.51-70.083h199.894l50.51 70.083h73.923l-50.514-70.083c37.317-0.033 67.554-30.284 67.554-67.597zM461.58 138.774h101.519l-34.066 70.899h-33.387l-34.066-70.899zM404.691 252.814h214.619v36.338h-214.619v-36.338zM318.868 734.909c0-20.414 16.549-36.963 36.963-36.963s36.963 16.549 36.963 36.963c0 20.414-16.549 36.963-36.963 36.963s-36.963-16.549-36.963-36.963zM668.172 771.873c-20.414 0-36.963-16.549-36.963-36.963s16.549-36.963 36.963-36.963c20.414 0 36.963 16.549 36.963 36.963-0.004 20.414-16.552 36.963-36.963 36.963zM705.132 626.661c0 8.742-4.678 16.383-11.43 18.651-26.913 9.038-98.325 16.372-181.702 16.372s-154.789-7.337-181.702-16.372c-6.755-2.269-11.43-9.909-11.43-18.651v-282.1c0-10.668 6.918-19.312 15.451-19.312h355.362c8.533 0 15.451 8.648 15.451 19.312v282.1z"></path>
</symbol>
<symbol id="icon-icon_user" viewBox="0 0 1024 1024">
	<title>icon_user</title>
	<path class="path1" d="M512-0.007c-282.772 0-512.011 229.231-512.011 512.004 0 282.776 229.239 512.011 512.011 512.011 282.776 0 512.011-229.231 512.011-512.011 0-282.772-229.231-512.004-512.011-512.004zM838.263 817.986c-23.311-60.412-136.054-132.998-224.712-162.357-4.537-1.478-33.174-14.389-15.281-68.782h-0.249c46.641-48.032 82.293-125.386 82.293-201.516 0-117.023-77.842-178.375-168.288-178.375-90.504 0-167.898 61.351-167.898 178.375 0 76.422 35.453 154.080 82.376 202.018 18.283 47.963-14.417 65.762-21.263 68.28-86.877 31.418-199.616 104.763-217.729 164.268-79.302-83.463-122.836-192.333-122.836-307.901 0-119.48 46.529-231.811 131.018-316.3 84.489-84.486 196.82-131.015 316.304-131.015s231.818 46.529 316.304 131.015c84.486 84.486 131.015 196.816 131.015 316.3 0.007 114.693-42.888 222.779-121.051 305.99z"></path>
</symbol>
<symbol id="icon-icon_walk" viewBox="0 0 1024 1024">
	<title>icon_walk</title>
	<path class="path1" d="M683.771 110.16c0 60.843-49.323 110.167-110.167 110.167s-110.167-49.323-110.167-110.167c0-60.843 49.323-110.167 110.167-110.167s110.167 49.323 110.167 110.167z"></path>
	<path class="path2" d="M779.838 527.252l-111.175-74.096-76.394-186.355c-1.109-2.655-2.594-5.437-4.313-7.893-5.813-8.294-14.175-13.713-23.283-16.011-6.405-2.615-13.301-4.086-20.4-4.086h-64.212c-7.612 0-14.873 1.629-21.491 4.505-5.567 1.615-10.884 4.393-15.512 8.482l-144.717 127.933c-6.391 5.668-10.791 13.623-11.827 22.777l-0.116 1.008c-0.079 0.596-0.148 1.196-0.202 1.795l-18.987 167.411c-1.828 16.596 9.223 32.314 25.902 35.771 17.716 3.67 35.056-7.713 38.726-25.428l30.963-149.391 47.262-30.901-52.381 373.948-117.132 161.45c-17.535 24.171-12.156 57.984 12.015 75.519 9.591 6.961 20.7 10.31 31.711 10.31 16.729 0 33.235-7.745 43.812-22.325l124.454-171.543c4.248-5.621 7.442-12.138 9.244-19.291l25.020-93.593 54.809 80.158 100.041 197.001c9.537 18.781 28.539 29.601 48.256 29.601 8.233 0 16.596-1.889 24.439-5.87 26.628-13.522 37.252-46.070 23.731-72.698l-101.211-199.309c-0.249-0.509-0.506-1.015-0.769-1.517l-102.599-202.036 30.396-113.711 35.038 68.023 0.246 0.603c3.024 7.348 8.623 13.677 16.296 17.495l0.296 0.148c1.358 0.769 2.749 1.474 4.18 2.081l128.641 64.014c13.886 6.929 31.089 2.605 39.918-10.646 9.566-14.363 5.686-33.762-8.674-43.332z"></path>
</symbol>
</defs>
</svg>
