<svg style="position: absolute; width: 0; height: 0;" width="0" height="0" version="1.1" xmlns="http://www.w3.org/2000/svg" xmlns:xlink="http://www.w3.org/1999/xlink">
<defs>
<symbol id="icon-icon_airplane-withoutBox" viewBox="0 0 1024 1024">
	<title>icon_airplane-withoutBox</title>
	<path class="path1" d="M1010.085 13.915c-40.5-40.5-162.938 16.274-203.438 56.774l-201.072 201.072-487.713-62.074c-20.631-2.626-41.316 4.447-56.023 19.153l-61.846 61.846 376.82 237.995-151.501 170.149-161.056 3.909c-14.772 0.358-21.928 18.236-11.477 28.687l239.798 239.794c10.451 10.447 28.329 3.295 28.687-11.477l3.905-161.056 170.149-151.501 237.995 376.817 61.846-61.846c14.706-14.706 21.776-35.392 19.153-56.023l-62.070-487.713 201.072-201.072c40.5-40.5 97.274-162.935 56.77-203.434z"></path>
</symbol>
<symbol id="icon-icon_airplane" viewBox="0 0 1024 1024">
	<title>icon_airplane</title>
	<path fill="rgb(0, 70, 173)" class="path1 fill-color4" d="M921.607 1024.025h-819.214c-56.554 0-102.4-45.846-102.4-102.4v-819.251c0-56.554 45.846-102.4 102.4-102.4h819.214c56.554 0 102.4 45.846 102.4 102.4v819.247c0 56.557-45.846 102.404-102.4 102.404z"></path>
	<path fill="rgb(255, 255, 255)" class="path2 fill-color14" d="M874.728 149.272c-30.374-30.374-122.204 12.203-152.578 42.581l-150.804 150.804-365.788-46.554c-15.476-1.969-30.988 3.334-42.017 14.363l-46.385 46.385 282.613 178.497-113.624 127.612-120.791 2.93c-11.080 0.267-16.444 13.677-8.609 21.512l179.848 179.852c7.836 7.836 21.245 2.471 21.516-8.609l2.93-120.791 127.612-113.624 178.497 282.613 46.385-46.385c11.029-11.029 16.332-26.545 14.363-42.017l-46.554-365.784 150.804-150.804c30.374-30.378 72.954-122.204 42.581-152.581z"></path>
</symbol>
<symbol id="icon-icon_arrow-collapse" viewBox="0 0 1024 1024">
	<title>icon_arrow-collapse</title>
	<path class="path1" d="M512 812.159l-512.007-512.004 88.311-88.311 512.007 512.007-88.311 88.308z"></path>
	<path class="path2" d="M512 812.159l-88.311-88.311 512.007-512.007 88.311 88.311-512.007 512.007z"></path>
</symbol>
<symbol id="icon-icon_arrow-collapse--right" viewBox="0 0 1024 1024">
	<title>icon_arrow-collapse--right</title>
	<g transform="rotate(270 512 512)">
		<path class="path1" d="M512 814.511l-492.745-492.745c-25.685-25.685-25.685-67.326 0-93.011v0c25.685-25.685 67.326-25.685 93.011 0l492.742 492.742-93.007 93.015z"></path>
		<path class="path2" d="M512 814.511l-93.011-93.011 492.745-492.745c25.685-25.685 67.326-25.685 93.011 0v0c25.685 25.685 25.685 67.326 0 93.011l-492.745 492.745z"></path>
	</g>
</symbol>
<symbol id="icon-icon_arrow-down" viewBox="0 0 1024 1024">
	<title>icon_arrow-down</title>
	<path class="path1" d="M448.781 1.882h130.144v948.831h-130.144v-948.831z"></path>
	<path class="path2" d="M-0.242 557.651l92.025-92.025 420.206 420.206 420.206-420.206 92.025 92.025-437.236 437.236c-41.352 41.352-108.639 41.352-149.991 0l-437.236-437.236z"></path>
</symbol>
<symbol id="icon-icon_arrow-dropdown" viewBox="0 0 1024 1024">
	<title>icon_arrow-dropdown</title>
	<path class="path1" d="M887.465 187.727l-375.465 375.48-375.465-375.48-136.542 136.542 512.007 512.004 512.007-512.004z"></path>
</symbol>
<symbol id="icon-icon_arrow-left" viewBox="0 0 1024 1024">
	<title>icon_arrow-left</title>
	<path class="path1" d="M75.165 450.685h948.831v130.144h-948.831v-130.144z"></path>
	<path class="path2" d="M468.227 1.662l92.025 92.025-420.206 420.206 420.206 420.206-92.025 92.025-437.232-437.236c-41.352-41.352-41.352-108.639 0-149.991l437.232-437.236z"></path>
</symbol>
<symbol id="icon-icon_arrow-right" viewBox="0 0 1024 1024">
	<title>icon_arrow-right</title>
	<path class="path1" d="M0.621 446.957h948.831v130.144h-948.831v-130.144z"></path>
	<path class="path2" d="M556.39 1026.121l-92.025-92.025 420.206-420.206-420.206-420.206 92.025-92.021 437.232 437.232c41.352 41.352 41.352 108.639 0 149.991l-437.232 437.236z"></path>
</symbol>
<symbol id="icon-icon_arrow-up" viewBox="0 0 1024 1024">
	<title>icon_arrow-up</title>
	<path class="path1" d="M445.053 77.066h130.144v948.831h-130.144v-948.831z"></path>
	<path class="path2" d="M1024.22 470.131l-92.025 92.025-420.206-420.206-420.206 420.206-92.025-92.025 437.232-437.236c41.352-41.352 108.639-41.352 149.991 0l437.239 437.236z"></path>
</symbol>
<symbol id="icon-icon_bicycle" viewBox="0 0 1024 1024">
	<title>icon_bicycle</title>
	<path class="path1" d="M201.314 824.705c-111.009 0-201.325-90.313-201.325-201.325s90.313-201.325 201.325-201.325 201.321 90.313 201.321 201.325-90.309 201.325-201.321 201.325zM201.314 468.661c-85.313 0-154.72 69.407-154.72 154.72s69.407 154.72 154.72 154.72c85.313 0 154.716-69.407 154.716-154.72s-69.403-154.72-154.716-154.72z"></path>
	<path class="path2" d="M822.686 824.705c-111.009 0-201.325-90.313-201.325-201.325s90.313-201.325 201.325-201.325 201.321 90.313 201.321 201.325-90.309 201.325-201.321 201.325zM822.686 468.661c-85.313 0-154.72 69.407-154.72 154.72s69.407 154.72 154.72 154.72c85.313 0 154.716-69.407 154.716-154.72s-69.403-154.72-154.716-154.72z"></path>
	<path class="path3" d="M201.314 646.689c-2.699 0-5.444-0.473-8.121-1.467-12.062-4.49-18.2-17.904-13.713-29.966l149.124-400.785c3.396-9.122 12.102-15.176 21.838-15.176h65.245c12.871 0 23.301 10.433 23.301 23.301s-10.429 23.301-23.301 23.301h-49.051l-143.481 385.613c-3.493 9.382-12.384 15.18-21.841 15.18z"></path>
	<path class="path4" d="M565.053 631.111l-43.964-15.458 90.685-257.907h-311.969v-46.605h377.752z"></path>
	<path class="path5" d="M822.686 646.681h-310.686c-7.579 0-14.685-3.685-19.052-9.884l-203.496-288.935 38.101-26.837 196.538 279.055h253.681l-177.638-252.218 38.101-26.837 203.499 288.939c5.011 7.113 5.639 16.426 1.633 24.15s-11.979 12.568-20.682 12.568z"></path>
	<path class="path6" d="M694.749 283.148h-114.397v-5.578c0-22.621 18.337-40.962 40.962-40.962h119.971c0 25.703-20.837 46.54-46.536 46.54z"></path>
</symbol>
<symbol id="icon-icon_bus-live" viewBox="0 0 1024 1024">
	<title>icon_bus-live</title>
	<path fill="rgb(0, 136, 206)" class="path1 fill-color7" d="M1024.007 512c0 282.774-229.233 512.007-512.007 512.007s-512.007-229.233-512.007-512.007c0-282.774 229.233-512.007 512.007-512.007s512.007 229.233 512.007 512.007z"></path>
	<path fill="rgb(0, 102, 155)" class="path2 fill-color2" d="M512 36.118c127.113 0 246.618 49.499 336.501 139.381s139.381 209.388 139.381 336.501-49.502 246.618-139.381 336.501c-89.883 89.883-209.388 139.381-336.501 139.381s-246.618-49.499-336.501-139.381c-89.883-89.883-139.381-209.388-139.381-336.501s49.499-246.618 139.381-336.501c89.883-89.883 209.388-139.381 336.501-139.381zM512-0.007c-282.776 0-512.007 229.231-512.007 512.007s229.235 512.007 512.007 512.007 512.007-229.235 512.007-512.007c0-282.776-229.231-512.007-512.007-512.007v0z"></path>
	<path fill="rgb(255, 255, 255)" class="path3 fill-color14" d="M707.888 199.551h-390.801c-21.585 0-39.080 17.495-39.080 39.080v468.961c0 21.585 17.495 39.080 39.080 39.080h390.804c21.585 0 39.080-17.495 39.080-39.080v-468.961c-0.004-21.585-17.499-39.080-39.084-39.080zM425.632 234.469h173.714v29.413h-173.714v-29.413zM347.003 676.651c-16.524 0-29.915-13.395-29.915-29.915 0-16.524 13.395-29.915 29.915-29.915 16.524 0 29.915 13.395 29.915 29.915 0.004 16.52-13.392 29.915-29.915 29.915zM677.973 676.651c-16.524 0-29.915-13.395-29.915-29.915 0-16.524 13.395-29.915 29.915-29.915 16.524 0 29.915 13.395 29.915 29.915s-13.392 29.915-29.915 29.915zM707.888 520.515c0 7.077-4.732 13.258-11.567 15.097-27.231 7.315-99.481 24.283-183.837 24.283s-156.606-16.968-183.837-24.283c-6.835-1.835-11.567-8.020-11.567-15.097v-211.79c0-8.634 6.997-15.631 15.631-15.631h359.538c8.634 0 15.631 6.997 15.631 15.631v211.79z"></path>
	<path fill="rgb(255, 255, 255)" class="path4 fill-color14" d="M317.087 746.011h59.834v71.17h-59.834v-71.17z"></path>
	<path fill="rgb(255, 255, 255)" class="path5 fill-color14" d="M648.058 746.011h59.834v71.17h-59.834v-71.17z"></path>
</symbol>
<symbol id="icon-icon_bus-stop" viewBox="0 0 1024 1024">
	<title>icon_bus-stop</title>
	<path class="path1" d="M56.882-0.007c31.422 0 56.89 25.468 56.89 56.89v967.128h-113.779v-967.128c0-31.422 25.468-56.89 56.89-56.89z"></path>
	<path class="path2" d="M199.107 199.107h142.224v85.335h-142.224v-85.335z"></path>
	<path class="path3" d="M199.107 312.886h654.231v28.445h-654.231v-28.445z"></path>
	<path class="path4" d="M369.776 199.107h142.224v85.335h-142.224v-85.335z"></path>
	<path class="path5" d="M540.445 199.107h142.224v85.335h-142.224v-85.335z"></path>
	<path class="path6" d="M967.118 56.882h-910.235v512.007h910.235c31.422 0 56.89-25.468 56.89-56.89v-398.228c0-31.422-25.468-56.89-56.89-56.89zM881.783 398.221c0 15.711-12.734 28.445-28.445 28.445h-59.371c1.579 4.454 2.482 9.226 2.482 14.222 0 23.564-19.103 42.667-42.667 42.667s-42.667-19.103-42.667-42.667c0-4.996 0.903-9.768 2.482-14.222h-374.747c1.579 4.454 2.482 9.226 2.482 14.222 0 23.564-19.103 42.667-42.667 42.667s-42.667-19.103-42.667-42.667c0-4.996 0.903-9.768 2.482-14.222h-59.371c-15.711 0-28.445-12.734-28.445-28.445v-199.114c0-15.711 12.734-28.445 28.445-28.445h654.231c15.711 0 28.445 12.734 28.445 28.445v199.114z"></path>
	<path class="path7" d="M711.114 199.107h142.224v85.335h-142.224v-85.335z"></path>
</symbol>
<symbol id="icon-icon_bus-withoutBox" viewBox="0 0 1024 1024">
	<title>icon_bus-withoutBox</title>
	<path class="path1" d="M835.969-0.007h-647.938c-35.785 0-64.794 29.008-64.794 64.794v777.526c0 35.785 29.008 64.794 64.794 64.794h647.938c35.785 0 64.794-29.008 64.794-64.794v-777.526c0-35.785-29.008-64.794-64.794-64.794zM367.995 57.887h288.010v48.762h-288.010v-48.762zM237.63 791.008c-27.394 0-49.6-22.206-49.6-49.6s22.206-49.6 49.6-49.6c27.394 0 49.6 22.206 49.6 49.6 0.004 27.394-22.206 49.6-49.6 49.6zM786.37 791.008c-27.394 0-49.6-22.206-49.6-49.6s22.206-49.6 49.6-49.6c27.394 0 49.6 22.206 49.6 49.6s-22.206 49.6-49.6 49.6zM835.969 532.14c0 11.73-7.846 21.982-19.175 25.027-45.145 12.127-164.936 40.258-304.794 40.258s-259.649-28.131-304.794-40.258c-11.329-3.042-19.175-13.298-19.175-25.027v-351.139c0-14.313 11.603-25.916 25.92-25.916h596.103c14.313 0 25.92 11.603 25.92 25.916v351.139z"></path>
	<path class="path2" d="M188.031 906.008h99.203v117.999h-99.203v-117.999z"></path>
	<path class="path3" d="M736.766 906.008h99.203v117.999h-99.203v-117.999z"></path>
</symbol>
<symbol id="icon-icon_bus" viewBox="0 0 1024 1024">
	<title>icon_bus</title>
	<path fill="rgb(0, 136, 206)" class="path1 fill-color7" d="M921.607 1024.025h-819.214c-56.554 0-102.4-45.846-102.4-102.4v-819.251c0-56.554 45.846-102.4 102.4-102.4h819.214c56.554 0 102.4 45.846 102.4 102.4v819.247c0 56.557-45.846 102.404-102.4 102.404z"></path>
	<path fill="rgb(255, 255, 255)" class="path2 fill-color14" d="M771.175 102.393h-518.351c-28.629 0-51.836 23.207-51.836 51.836v622.019c0 28.629 23.207 51.836 51.836 51.836h518.351c28.629 0 51.836-23.207 51.836-51.836v-622.019c0-28.629-23.207-51.836-51.836-51.836zM396.797 148.709h230.409v39.011h-230.409v-39.011zM292.504 735.209c-21.913 0-39.68-17.766-39.68-39.68s17.766-39.68 39.68-39.68c21.917 0 39.68 17.766 39.68 39.68 0.004 21.913-17.763 39.68-39.68 39.68zM731.496 735.209c-21.917 0-39.68-17.766-39.68-39.68s17.766-39.68 39.68-39.68c21.913 0 39.68 17.766 39.68 39.68s-17.766 39.68-39.68 39.68zM771.175 528.112c0 9.385-6.279 17.586-15.342 20.020-36.118 9.703-131.95 32.205-243.833 32.205s-207.719-22.506-243.833-32.205c-9.064-2.435-15.342-10.635-15.342-20.020v-280.912c0-11.452 9.284-20.732 20.736-20.732h476.883c11.452 0 20.736 9.284 20.736 20.732v280.912z"></path>
	<path fill="rgb(255, 255, 255)" class="path3 fill-color14" d="M252.825 827.209h79.363v94.398h-79.363v-94.398z"></path>
	<path fill="rgb(255, 255, 255)" class="path4 fill-color14" d="M691.812 827.209h79.363v94.398h-79.363v-94.398z"></path>
</symbol>
<symbol id="icon-icon_car" viewBox="0 0 1024 1024">
	<title>icon_car</title>
	<path class="path1" d="M951.064 393.994c0.401-10.53-0.611-21.498-3.212-32.718l-33.455-144.388c-16.343-70.538-88.958-128.251-161.363-128.251h-482.067c-72.405 0-145.020 57.713-161.363 128.251l-33.455 144.388c-2.601 11.22-3.613 22.184-3.212 32.715-41.898 11.416-72.944 49.871-72.944 95.258v272.719c0 28.495 22.939 51.876 51.261 52.623v120.78h116.106v-114.162c78.962 7.084 205.056 11.672 347.151 11.672 144.793 0 272.968-4.765 351.594-12.080v114.571h116.106v-121.886c23.796-5.043 41.797-26.277 41.797-51.518v-272.719c0-45.387-31.049-83.839-72.944-95.254zM276.49 618.034c0 14.483-11.78 25.067-26.18 23.525l-142.69-15.288c-14.399-1.543-26.18-14.652-26.18-29.135v-44.127c0-14.483 11.842-25.905 26.313-25.389l142.423 5.086c14.472 0.517 26.313 12.788 26.313 27.271v58.057zM158.592 404.723c-5.726-7.666-4.942-17.878-3.269-25.107l33.455-144.388c7.778-33.575 47.721-65.321 82.188-65.321h482.067c34.467 0 74.407 31.747 82.188 65.321l33.455 144.388c1.68 7.254 2.467 17.513-3.327 25.19-0.119 0.159-0.267 0.278-0.39 0.434-78.716 7.258-206.35 11.972-350.445 11.972-147.495 0.004-277.726-4.938-355.922-12.488zM947.585 597.136c0 14.483-11.78 27.592-26.18 29.135l-142.69 15.288c-14.399 1.543-26.18-9.042-26.18-23.525v-58.060c0-14.483 11.842-26.754 26.313-27.271l142.423-5.086c14.472-0.517 26.313 10.91 26.313 25.389v44.13z"></path>
</symbol>
<symbol id="icon-icon_caution" viewBox="0 0 286.46 286.46">
	<title>icon_caution</title>
  <g id="picto">
    <g>
      <path fill="#333333" d="M278.569,215.773c3.425,4.894,4.894,10.766,4.894,16.638c0,16.638-13.703,30.83-30.83,30.83H30.461
        c-10.767,0-21.042-5.872-26.427-15.66c-5.382-9.298-5.382-21.042,0-30.34L115.121,24.432c5.382-9.298,15.659-15.171,26.424-15.171
        c11.256,0,21.042,5.872,26.915,15.171L278.569,215.773z"/>
    </g>
    <g>
      <path fill="#FFFFFF" d="M158.671,76.793c0.49-5.872-3.425-10.276-8.808-10.276h-16.638c-5.383,0-8.809,4.404-8.318,10.276
        l8.318,95.916c0.49,4.893,3.916,8.319,8.318,8.319c4.894,0,8.32-3.426,8.809-8.319L158.671,76.793z M158.183,214.305
        c0-9.298-6.852-16.149-16.64-16.149c-9.296,0-16.637,6.852-16.637,16.149v2.447c0,9.298,7.341,16.149,16.637,16.149
        c9.787,0,16.64-6.852,16.64-16.149V214.305z"/>
    </g>
  </g>
</symbol>
<symbol id="icon-icon_city" viewBox="0 0 1024 1024">
	<title>icon_city</title>
	<path class="path1" d="M1004.218 625.534h-264.963c-10.928 0-19.786 8.836-19.786 19.735v378.735h304.534v-378.738c0-10.895-8.858-19.731-19.786-19.731zM848.989 925.379c0 5.654-3.992 10.238-8.916 10.238h-29.247c-4.924 0-8.916-4.584-8.916-10.238v-56.778c0-5.657 3.992-10.241 8.916-10.241h29.247c4.924 0 8.916 4.584 8.916 10.241v56.778zM848.989 780.929c0 5.657-3.992 10.241-8.916 10.241h-29.247c-4.924 0-8.916-4.584-8.916-10.241v-56.778c0-5.654 3.992-10.238 8.916-10.238h29.247c4.924 0 8.916 4.584 8.916 10.238v56.778zM941.563 925.379c0 5.654-3.992 10.238-8.916 10.238h-29.25c-4.924 0-8.916-4.584-8.916-10.238v-56.778c0-5.657 3.992-10.241 8.916-10.241h29.25c4.924 0 8.916 4.584 8.916 10.241v56.778zM941.563 780.929c0 5.657-3.992 10.241-8.916 10.241h-29.25c-4.924 0-8.916-4.584-8.916-10.241v-56.778c0-5.654 3.992-10.238 8.916-10.238h29.25c4.924 0 8.916 4.584 8.916 10.238v56.778z"></path>
	<path class="path2" d="M379.598-0.007h-359.838c-10.917 0-19.764 9.169-19.764 20.479v1003.535h399.366v-1003.535c0-11.311-8.851-20.479-19.764-20.479zM122.048 773.325c0 5.654-4.584 10.241-10.241 10.241h-32.455c-5.657 0-10.241-4.584-10.241-10.241v-81.921c0-5.654 4.584-10.241 10.241-10.241h32.455c5.657 0 10.241 4.584 10.241 10.241v81.921zM122.048 584.153c0 5.654-4.584 10.238-10.241 10.238h-32.455c-5.657 0-10.241-4.584-10.241-10.238v-81.921c0-5.654 4.584-10.241 10.241-10.241h32.455c5.657 0 10.241 4.584 10.241 10.241v81.921zM122.048 394.98c0 5.657-4.584 10.241-10.241 10.241h-32.455c-5.657 0-10.241-4.584-10.241-10.241v-81.921c0-5.657 4.584-10.241 10.241-10.241h32.455c5.657 0 10.241 4.584 10.241 10.241v81.921zM122.048 205.812c0 5.654-4.584 10.238-10.241 10.238h-32.455c-5.657 0-10.241-4.584-10.241-10.238v-81.921c0-5.657 4.584-10.241 10.241-10.241h32.455c5.657 0 10.241 4.584 10.241 10.241v81.921zM226.146 773.325c0 5.654-4.584 10.241-10.241 10.241h-32.455c-5.657 0-10.241-4.584-10.241-10.241v-81.921c0-5.654 4.584-10.241 10.241-10.241h32.455c5.657 0 10.241 4.584 10.241 10.241v81.921zM226.146 584.153c0 5.654-4.584 10.238-10.241 10.238h-32.455c-5.657 0-10.241-4.584-10.241-10.238v-81.921c0-5.654 4.584-10.241 10.241-10.241h32.455c5.657 0 10.241 4.584 10.241 10.241v81.921zM226.146 394.98c0 5.657-4.584 10.241-10.241 10.241h-32.455c-5.657 0-10.241-4.584-10.241-10.241v-81.921c0-5.657 4.584-10.241 10.241-10.241h32.455c5.657 0 10.241 4.584 10.241 10.241v81.921zM226.146 205.812c0 5.654-4.584 10.238-10.241 10.238h-32.455c-5.657 0-10.241-4.584-10.241-10.238v-81.921c0-5.657 4.584-10.241 10.241-10.241h32.455c5.657 0 10.241 4.584 10.241 10.241v81.921zM330.244 773.325c0 5.654-4.584 10.241-10.238 10.241h-32.455c-5.654 0-10.238-4.584-10.238-10.241v-81.921c0-5.654 4.584-10.241 10.238-10.241h32.455c5.654 0 10.238 4.584 10.238 10.241v81.921zM330.244 584.153c0 5.654-4.584 10.238-10.238 10.238h-32.455c-5.654 0-10.238-4.584-10.238-10.238v-81.921c0-5.654 4.584-10.241 10.238-10.241h32.455c5.654 0 10.238 4.584 10.238 10.241v81.921zM330.244 394.98c0 5.657-4.584 10.241-10.238 10.241h-32.455c-5.654 0-10.238-4.584-10.238-10.241v-81.921c0-5.657 4.584-10.241 10.238-10.241h32.455c5.654 0 10.238 4.584 10.238 10.241v81.921zM330.244 205.812c0 5.654-4.584 10.238-10.238 10.238h-32.455c-5.654 0-10.238-4.584-10.238-10.238v-81.921c0-5.657 4.584-10.241 10.238-10.241h32.455c5.654 0 10.238 4.584 10.238 10.241v81.921z"></path>
	<path class="path3" d="M671.795 548.949l-102.797-303.1c-3.143-9.27-16.253-9.27-19.396 0l-102.797 303.1c-1.795 5.296-2.713 10.852-2.713 16.444v458.607h230.416v-458.607c0-5.592-0.914-11.148-2.713-16.444zM585.771 847.128c0 5.657-4.584 10.241-10.238 10.241h-32.455c-5.654 0-10.241-4.584-10.241-10.241v-65.744c0-14.591 11.827-26.418 26.418-26.418h0.098c14.591 0 26.418 11.827 26.418 26.418v65.744zM585.771 666.503c0 5.657-4.584 10.241-10.238 10.241h-32.455c-5.654 0-10.241-4.584-10.241-10.241v-65.744c0-14.591 11.827-26.418 26.418-26.418h0.098c14.591 0 26.418 11.827 26.418 26.418v65.744z"></path>
</symbol>
<symbol id="icon-icon_citybike-withoutBox" viewBox="0 0 1024 1024">
	<title>icon_citybike-withoutBox</title>
	<path class="path1" d="M644.64 564.233c4.761-18.843 13.522-36.978 23.929-53.14l30.652 35.699c-2.904 5.719-6.376 12.936-8.027 17.441h-46.554z"></path>
	<path class="path2" d="M194.27 809.659c-4.414 0-8.843-0.148-13.287-0.459-51.688-3.486-98.95-26.906-133.099-65.953-34.098-39.011-50.969-88.976-47.432-140.7 6.82-101.479 91.805-180.99 193.395-180.99 4.404 0 8.858 0.137 13.308 0.408 9.826 0.683 19.623 2.11 29.164 4.216l-16.636 41.826c-5.159-0.892-10.357-1.499-15.555-1.835-3.435-0.26-6.885-0.361-10.285-0.361-78.384 0-143.962 61.362-149.261 139.721-2.717 39.893 10.26 78.456 36.631 108.624 26.321 30.143 62.814 48.216 102.743 50.882 3.472 0.26 6.947 0.397 10.393 0.397 78.359 0 143.875-61.376 149.149-139.757 2.507-37.075-7.778-72.293-30.677-101.342l18.63-46.305c2.717 2.778 6.177 6.983 8.731 9.934 34.088 39.011 50.969 89.001 47.457 140.7-6.835 101.519-91.768 180.994-193.37 180.994z"></path>
	<path class="path3" d="M824.070 636.624l-274.008 0.076 16.484-44.271h213.513l-132.030-172.58 20.902-47.161 173.462 228.487c7.395 9.674 5.531 23.543-4.129 30.984-2.579 1.972-5.78 3.277-9.689 3.97l-3.797 0.571-0.708-0.076z"></path>
	<path class="path4" d="M253.634 365.56c-8.338 18.344-11.932 30.255-34.445 28.777-10.744-0.719-17.972-1.055-27.946-2.467-18.359-2.641-26.841-11.661-37.906-28.058-10.83-16.101-33.018-49.618-48.538-74.761-6.076-9.848-2.68-21.234 11.585-21.234h179.588c-6.802 17.253-33.979 79.363-42.339 97.743z"></path>
	<path class="path5" d="M550.029 638.196h-51.157c-28.853 0-37.028-22.090-41.392-33.961-10.567-28.456-29.211-79.114-40.662-113.349-30.963-92.585-50.622-92.585-80.378-92.585-13.67 0-24.746-11.101-24.746-24.782 0-13.67 11.076-24.76 24.746-24.76 57.666 0 91.432 18.915 127.366 126.412 11.213 33.553 29.659 83.64 39.633 110.521 0.423 1.116 0.769 2.095 1.066 2.951h45.525c13.655 0 24.76 11.101 24.76 24.785-0.004 13.677-11.105 24.767-24.76 24.767z"></path>
	<path class="path6" d="M541.995 636.696l-1.85-2.706-0.137 2.568h-0.56c-8.522 0-15.245-3.696-19.265-9.837l-0.311-2.11 15.107-48.44 125.928-281.974h-40.861c-20.046 0-36.345-16.3-36.345-36.345l-0.036-2.507h185.964v2.507c0 20.046-16.325 36.345-36.382 36.345h-23.843l-134.884 301.796-15.407 39.109-2.319 1.586h-14.8z"></path>
	<path class="path7" d="M312.94 406.269c-2.966 0-5.979-0.582-8.869-1.799-11.683-4.913-17.167-18.359-12.268-30.031l61.402-146.057c3.598-8.511 11.921-14.042 21.151-14.042h59.812c12.676 0 22.936 10.26 22.936 22.921 0 12.676-10.26 22.947-22.936 22.947h-44.582l-55.495 132.004c-3.685 8.775-12.196 14.056-21.151 14.056z"></path>
	<path class="path8" d="M999.229 520.381c0.47 0.831 2.63 4.725 3.078 5.545 14.464 27.798 21.982 58.884 21.693 91.086-0.856 106.092-87.871 192.402-193.941 192.402h-1.701c-51.836-0.423-100.413-20.989-136.755-57.952-23.293-23.705-40.204-53.003-48.834-84.72l46.366-0.036c7.268 20.703 18.359 37.783 34.012 53.736 28.058 28.517 65.545 44.394 105.561 44.755h1.315c81.881 0 149.037-66.662 149.745-148.564 0.199-24.388-5.372-47.942-16.151-69.078l35.612-27.173z"></path>
	<path class="path9" d="M758.532 429.064l105.821 138.135c0 0 124.812-90.179 131.596-95.164 11.723-8.659 9.822-19.934-1.004-27.152-17.9-11.921-53.783-38.69-144.547-38.69-64.046 0-91.866 22.871-91.866 22.871z"></path>
	<path class="path10" d="M200.050 631.628c-8.558 0-16.213-4.787-19.934-12.503-2.579-5.271-2.941-11.3-1.004-16.87 1.947-5.581 5.968-10.097 11.314-12.665 20.219-9.786 24.001-18.073 36.703-51.652 9.154-24.337 52.121-130.357 70.48-175.633l1.066-2.619 4.057-0.892 30.638 28.777 0.596 2.778c-20.974 51.8-57.37 141.841-65.469 163.253-13.222 34.955-21.968 57.988-58.833 75.801-3.053 1.492-6.289 2.225-9.613 2.225z"></path>
</symbol>
<symbol id="icon-icon_citybike" viewBox="0 0 1024 1024">
	<title>icon_citybike</title>
	<path fill="rgb(251, 184, 0)" class="path1 fill-color11" d="M0.043 102.447c0-56.323 46.081-102.4 102.4-102.4h792.24c71.676 0 129.27 57.594 129.27 126.709v794.798c0 56.554-45.846 102.4-102.4 102.4h-794.798c-69.114 0-126.709-57.594-126.709-129.27v-792.236z"></path>
	<path fill="rgb(255, 255, 255)" class="path2 fill-color14" d="M618.11 553.786c3.811-15.075 10.816-29.583 19.143-42.512l24.522 28.56c-2.323 4.573-5.101 10.35-6.419 13.951h-37.245z"></path>
	<path fill="rgb(255, 255, 255)" class="path3 fill-color14" d="M257.817 750.129c-3.533 0-7.077-0.119-10.628-0.368-41.352-2.789-79.157-21.523-106.479-52.764-27.278-31.208-40.774-71.181-37.946-112.562 5.458-81.184 73.442-144.793 154.716-144.793 3.522 0 7.084 0.108 10.646 0.329 7.861 0.545 15.7 1.687 23.33 3.374l-13.308 33.463c-4.129-0.715-8.287-1.199-12.445-1.467-2.749-0.21-5.509-0.289-8.226-0.289-62.706 0-115.17 49.090-119.408 111.778-2.175 31.913 8.208 62.767 29.305 86.899 21.057 24.113 50.254 38.571 82.195 40.706 2.778 0.21 5.556 0.318 8.316 0.318 62.684 0 115.102-49.101 119.317-111.807 2.005-29.662-6.221-57.833-24.54-81.075l14.905-37.043c2.175 2.222 4.942 5.589 6.987 7.948 27.271 31.208 40.774 71.199 37.967 112.562-5.48 81.213-73.424 144.793-154.705 144.793z"></path>
	<path fill="rgb(255, 255, 255)" class="path4 fill-color14" d="M761.656 611.698l-219.207 0.061 13.189-35.417h170.81l-105.626-138.063 16.722-37.729 138.767 182.789c5.914 7.742 4.425 18.836-3.305 24.789-2.063 1.579-4.624 2.619-7.749 3.175l-3.038 0.455-0.564-0.061z"></path>
	<path fill="rgb(255, 255, 255)" class="path5 fill-color14" d="M305.307 394.85c-6.669 14.678-9.548 24.204-27.556 23.022-8.594-0.574-14.378-0.842-22.358-1.976-14.685-2.113-21.473-9.327-30.327-22.448-8.663-12.882-26.415-39.694-38.831-59.809-4.862-7.879-2.142-16.99 9.27-16.99h143.669c-5.437 13.807-27.18 63.493-33.867 78.2z"></path>
	<path fill="rgb(255, 255, 255)" class="path6 fill-color14" d="M542.421 612.959h-40.926c-23.080 0-29.623-17.672-33.116-27.17-8.453-22.766-23.369-63.291-32.527-90.681-24.767-74.067-40.496-74.067-64.303-74.067-10.935 0-19.797-8.88-19.797-19.825 0-10.935 8.861-19.807 19.797-19.807 46.135 0 73.146 15.133 101.894 101.128 8.97 26.841 23.727 66.914 31.707 88.416 0.336 0.892 0.614 1.676 0.853 2.363h36.418c10.924 0 19.807 8.883 19.807 19.825 0 10.946-8.88 19.818-19.807 19.818z"></path>
	<path fill="rgb(255, 255, 255)" class="path7 fill-color14" d="M535.994 611.759l-1.478-2.164-0.108 2.056h-0.448c-6.817 0-12.196-2.959-15.411-7.868l-0.249-1.687 12.087-38.751 100.742-225.579h-32.686c-16.036 0-29.077-13.038-29.077-29.077l-0.029-2.005h148.77v2.005c0 16.036-13.059 29.077-29.106 29.077h-19.074l-107.905 241.434-12.326 31.288-1.857 1.272h-11.845z"></path>
	<path fill="rgb(255, 255, 255)" class="path8 fill-color14" d="M352.754 427.417c-2.373 0-4.783-0.466-7.095-1.438-9.349-3.93-13.735-14.688-9.815-24.023l49.119-116.846c2.879-6.806 9.537-11.235 16.921-11.235h47.851c10.14 0 18.348 8.208 18.348 18.337 0 10.14-8.208 18.359-18.348 18.359h-35.666l-44.398 105.604c-2.948 7.015-9.754 11.242-16.917 11.242z"></path>
	<path fill="rgb(255, 255, 255)" class="path9 fill-color14" d="M901.785 518.705c0.376 0.665 2.102 3.782 2.46 4.436 11.571 22.239 17.586 47.107 17.354 72.868-0.686 84.876-70.296 153.922-155.153 153.922h-1.358c-41.468-0.336-80.331-16.791-109.405-46.363-18.637-18.962-32.162-42.404-39.069-67.778l37.093-0.029c5.816 16.563 14.688 30.226 27.209 42.989 22.448 22.813 52.435 35.515 84.449 35.804h1.051c65.506 0 119.231-53.328 119.794-118.851 0.159-19.508-4.295-38.354-12.922-55.264l28.495-21.733z"></path>
	<path fill="rgb(255, 255, 255)" class="path10 fill-color14" d="M709.225 445.653l84.655 110.506c0 0 99.85-72.142 105.276-76.133 9.378-6.925 7.861-15.946-0.802-21.722-14.32-9.537-43.029-30.952-115.636-30.952-51.236 0.004-73.493 18.301-73.493 18.301z"></path>
	<path fill="rgb(255, 255, 255)" class="path11 fill-color14" d="M262.437 607.702c-6.846 0-12.969-3.829-15.946-10.003-2.063-4.216-2.352-9.038-0.802-13.496 1.557-4.465 4.772-8.078 9.049-10.133 16.173-7.828 19.2-14.457 29.362-41.32 7.323-19.471 41.699-104.286 56.384-140.505l0.853-2.095 3.244-0.715 24.511 23.022 0.477 2.222c-16.78 41.439-45.897 113.472-52.374 130.603-10.577 27.964-17.575 46.392-47.067 60.643-2.442 1.192-5.032 1.777-7.691 1.777z"></path>
</symbol>
<symbol id="icon-icon_close" viewBox="0 0 1024 1024">
	<title>icon_close</title>
	<path class="path1" d="M1024.007 93.076l-93.080-93.083-418.927 418.92-418.917-418.92-93.091 93.083 418.924 418.924-418.924 418.92 93.091 93.087 418.917-418.92 418.927 418.92 93.080-93.087-418.92-418.92z"></path>
</symbol>
<symbol id="icon-icon_cyclist" viewBox="0 0 1024 1024">
	<title>icon_cyclist</title>
	<path class="path1" d="M618.916 827.191c0-108.527 88.29-196.816 196.813-196.816s196.816 88.29 196.816 196.816-88.293 196.816-196.816 196.816-196.813-88.29-196.813-196.816zM664.477 827.191c0 83.402 67.854 151.259 151.255 151.259 83.405 0 151.259-67.854 151.259-151.259s-67.854-151.259-151.259-151.259c-83.405 0-151.255 67.857-151.255 151.259z"></path>
	<path class="path2" d="M11.452 827.191c0-108.527 88.29-196.816 196.813-196.816s196.816 88.29 196.816 196.816-88.293 196.816-196.816 196.816-196.813-88.29-196.813-196.816zM57.013 827.191c0 83.402 67.854 151.259 151.255 151.259 83.405 0 151.259-67.854 151.259-151.259s-67.854-151.259-151.259-151.259c-83.402 0-151.255 67.857-151.255 151.259z"></path>
	<path class="path3" d="M815.732 849.979c2.641 0 5.321-0.462 7.94-1.434 11.795-4.389 17.795-17.503 13.406-29.294l-145.79-391.819c-3.32-8.919-52.179-12.998-37.18 30.724l140.27 376.979c3.414 9.172 12.109 14.844 21.354 14.844z"></path>
	<path class="path4" d="M414.459 567.499h304.989v-45.557h-369.299z"></path>
	<path class="path5" d="M208.268 849.971h303.732c7.409 0 14.356-3.605 18.626-9.663l198.944-282.469-37.249-26.234-192.138 272.809h-248.009l173.66-246.571-37.249-26.234-198.944 282.469c-4.899 6.954-5.513 16.058-1.597 23.608 3.92 7.547 11.715 12.286 20.223 12.286z"></path>
	<path class="path6" d="M412.197 470.268l75.097-124.667 160.561 105.243c3.381 2.767 6.755 4.888 10.126 6.503 0 0 19.226 9.728 40.507-7.323 14.761-11.827 16.032-37.476-2.139-54.202l-197.842-158.773c-54.079-45.546-100.052-30.909-129.757 27.979l-74.938 148.604c-22.921 45.442-6.26 70.122 32.91 88.759l85.475-32.122z"></path>
	<path class="path7" d="M564.251 93.322c0 51.544-41.785 93.329-93.329 93.329s-93.329-41.785-93.329-93.329c0-51.544 41.785-93.329 93.329-93.329s93.329 41.785 93.329 93.329z"></path>
	<path class="path8" d="M438.067 864.125l11.983-233.458 11.564 34.662-163.654-180.542c-19.363-21.361-17.745-54.379 3.62-73.742 21.361-19.363 54.379-17.745 73.742 3.62 0.408 0.448 0.939 1.066 1.329 1.524l157.791 188.24c8.023 9.573 11.372 21.643 10.31 33.17l-22.145 232.717c-2.218 23.304-22.91 40.402-46.215 38.184-22.661-2.16-39.445-21.874-38.325-44.376z"></path>
</symbol>
<symbol id="icon-icon_digitransit-logo" viewBox="0 0 1024 1024">
	<title>icon_digitransit-logo</title>
	<path fill="rgb(61, 183, 228)" class="path1 fill-color12" d="M54.133 477.042c10.939 0 19.414 3.009 24.337 4.92v-79.027c0-2.738 2.46-5.195 5.195-5.195h23.243c2.735 0 5.195 2.46 5.195 5.195v181.023c0 2.735-2.46 5.195-5.195 5.195h-10.664c-2.46 0-4.375-2.189-5.195-5.195l-2.735-8.479c0 0-12.853 16.408-35.822 16.408-29.807 0-52.501-25.978-52.501-57.424 0-31.992 21.603-57.421 54.141-57.421zM56.597 562.355c14.493 0 21.054-11.21 22.968-17.774v-31.718c0 0-7.655-6.289-21.328-6.289-15.313 0-26.527 12.579-26.527 27.892s10.393 27.889 24.887 27.889z"></path>
	<path fill="rgb(61, 183, 228)" class="path2 fill-color12" d="M138.756 484.971c0-3.009 2.46-5.195 5.195-5.195h22.697c2.735 0 5.195 2.189 5.195 5.195v98.99c0 2.735-2.46 5.195-5.195 5.195h-22.697c-2.735 0-5.195-2.464-5.195-5.195v-98.99z"></path>
	<path fill="rgb(61, 183, 228)" class="path3 fill-color12" d="M207.99 550.321c0 0-8.204-9.295-8.204-25.703 0-25.428 20.508-47.577 47.58-47.577h49.766c3.009 0 5.195 2.189 5.195 5.195v9.024c0 1.915-1.095 4.1-3.009 4.646l-15.313 4.924c0 0 10.939 8.475 10.939 27.889 0 21.603-18.048 42.935-46.76 42.935-10.39 0-17.499-2.189-21.874-2.189-3.829 0-10.119 3.826-10.119 10.393 0 5.74 4.92 9.299 10.935 9.299h35.002c24.883 0 45.12 14.219 45.12 38.285 0 25.154-20.237 46.486-59.884 46.486-40.471 0-55.784-19.963-55.784-37.465 0-16.408 13.673-24.341 16.408-25.978v-0.82c-4.649-1.369-20.512-8.753-20.512-28.712 0.004-21.332 20.515-30.63 20.515-30.63zM247.092 646.577c15.313 0 25.428-6.835 25.428-17.228 0-4.92-3.826-13.399-19.963-13.399-6.015 0-12.033 0.271-17.774 1.095-3.284 1.095-11.759 4.92-11.759 13.399 0 9.573 9.299 16.133 24.066 16.133zM248.183 545.676c11.213 0 18.868-8.204 18.868-19.688s-7.655-19.688-18.868-19.688c-10.935 0-19.139 8.204-19.139 19.688s8.204 19.688 19.139 19.688z"></path>
	<path fill="rgb(61, 183, 228)" class="path4 fill-color12" d="M317.517 484.971c0-3.009 2.46-5.195 5.195-5.195h22.697c2.735 0 5.195 2.189 5.195 5.195v98.99c0 2.735-2.46 5.195-5.195 5.195h-22.697c-2.735 0-5.195-2.464-5.195-5.195v-98.99z"></path>
	<path fill="rgb(61, 183, 228)" class="path5 fill-color12" d="M381.827 508.485h-9.299c-2.735 0-4.92-2.46-4.92-5.195v-18.319c0-3.009 2.186-5.195 4.92-5.195h9.299v-30.356c0-2.735 2.46-5.191 5.195-5.191l22.423-0.275c2.735 0 4.924 2.46 4.924 5.195v30.627h24.063c3.009 0 5.195 2.189 5.195 5.195v18.319c0 2.738-2.189 5.195-5.195 5.195h-24.063v43.755c0 7.655 4.1 8.749 8.475 8.749 4.649 0 10.393-1.915 13.399-3.009 3.009-1.095 5.195 0.275 6.018 3.009l5.469 17.228c1.095 2.738-0.275 5.469-3.009 6.564-1.369 0.82-19.143 7.109-32.541 7.109-21.054 0-30.352-13.124-30.352-35.276v-48.129z"></path>
	<path fill="rgb(61, 183, 228)" class="path6 fill-color12" d="M464.727 484.971c0-3.009 2.46-5.195 5.195-5.195h10.393c2.46 0 4.1 1.369 4.92 3.555l3.829 10.66c3.826-5.466 13.944-16.953 30.901-16.953 12.85 0 24.334 4.1 21.054 10.935l-10.119 17.774c-1.369 2.46-4.1 3.551-6.289 2.46-0.82-0.271-4.92-1.64-7.929-1.64-10.939 0-17.499 7.384-19.414 11.21v66.177c0 3.826-2.46 5.195-6.289 5.195h-21.054c-2.735 0-5.195-2.464-5.195-5.195v-98.983z"></path>
	<path fill="rgb(61, 183, 228)" class="path7 fill-color12" d="M588.040 519.973c10.935 0 19.959 3.009 19.959 3.009 0.275-13.944-4.1-18.868-14.219-18.868s-24.334 2.189-30.627 4.1c-3.829 1.095-5.744-1.366-6.289-4.92l-2.464-14.219c-0.82-4.1 1.369-6.015 3.826-6.835 2.189-0.824 19.688-5.195 37.191-5.195 34.182 0 42.111 17.77 42.111 47.577v59.339c0 2.735-2.46 5.195-5.195 5.195h-9.844c-1.915 0-3.284-0.82-4.646-3.829l-3.284-7.38c-6.289 5.74-16.408 13.944-33.361 13.944-21.877 0-36.916-14.219-36.916-37.465 0.007-19.417 15.866-34.452 43.758-34.452zM588.585 568.648c8.749 0 17.228-7.384 18.868-10.664v-15.039c0 0-7.384-3.284-15.313-3.284-10.664 0-17.774 6.015-17.774 14.764 0 8.204 5.74 14.222 14.219 14.222z"></path>
	<path fill="rgb(61, 183, 228)" class="path8 fill-color12" d="M663.032 484.971c0-3.009 2.464-5.195 5.195-5.195h10.393c2.464 0 3.826 1.369 4.649 3.284l3.826 10.119c4.1-4.375 17.499-16.133 38.553-16.133 34.731 0 48.675 25.974 48.675 54.415v52.501c0 2.735-2.46 5.195-5.195 5.195h-22.423c-3.009 0-5.195-2.464-5.195-5.195v-54.144c0-14.219-7.384-23.243-20.508-23.243-14.219 0-22.972 9.844-25.703 17.228v60.159c0 3.826-1.64 5.195-6.835 5.195h-20.237c-2.735 0-5.195-2.464-5.195-5.195v-98.99z"></path>
	<path fill="rgb(61, 183, 228)" class="path9 fill-color12" d="M793.566 576.028l7.38-14.768c1.095-2.735 3.829-3.284 6.289-1.915 0 0 12.304 6.56 24.883 6.56 5.469 0 9.299-2.189 9.299-6.835 0-4.92-3.826-7.929-18.319-13.673-21.057-8.204-30.901-19.414-30.901-36.096 0-16.679 12.304-32.263 40.196-32.263 16.133 0 27.892 4.646 33.632 8.475 2.464 1.644 3.829 4.649 2.464 7.384l-6.835 13.948c-1.369 2.46-4.375 2.735-6.564 1.915 0 0-12.304-5.744-22.697-5.744-6.564 0-9.299 2.738-9.299 6.289 0 4.924 4.92 6.564 15.039 10.664 21.057 8.204 36.92 17.228 36.92 38.556 0 18.044-15.862 33.358-43.48 33.358-18.048 0-30.63-5.74-36.371-10.119-1.636-1.362-2.731-3.551-1.636-5.737z"></path>
	<path fill="rgb(61, 183, 228)" class="path10 fill-color12" d="M893.419 484.971c0-3.009 2.464-5.195 5.195-5.195h22.697c2.738 0 5.195 2.189 5.195 5.195v98.99c0 2.735-2.46 5.195-5.195 5.195h-22.697c-2.735 0-5.195-2.464-5.195-5.195v-98.99z"></path>
	<path fill="rgb(61, 183, 228)" class="path11 fill-color12" d="M957.729 508.485h-9.299c-2.735 0-4.92-2.46-4.92-5.195v-18.319c0-3.009 2.189-5.195 4.92-5.195h9.299v-30.356c0-2.735 2.464-5.191 5.195-5.191l22.423-0.275c2.738 0 4.924 2.46 4.924 5.195v30.627h24.063c3.009 0 5.195 2.189 5.195 5.195v18.319c0 2.738-2.189 5.195-5.195 5.195h-24.063v43.755c0 7.655 4.1 8.749 8.475 8.749 4.649 0 10.393-1.915 13.399-3.009 3.009-1.095 5.195 0.275 6.018 3.009l5.466 17.228c1.095 2.738-0.275 5.469-3.009 6.564-1.369 0.82-19.139 7.109-32.538 7.109-21.057 0-30.356-13.124-30.356-35.276v-48.129z"></path>
	<path fill="rgb(61, 183, 228)" class="path12 fill-color12" d="M799.198 452.719c-100.431 0-222.909-40.102-251.929-50.12-2.478-0.856-3.793-3.562-2.937-6.036 0.856-2.478 3.558-3.79 6.036-2.937 161.782 55.864 272.675 56.825 322.495 39.102 2.471-0.874 5.184 0.412 6.062 2.883s-0.412 5.184-2.883 6.062c-22.159 7.882-48.646 11.047-76.845 11.047z"></path>
	<path fill="rgb(61, 183, 228)" class="path13 fill-color12" d="M188.244 404.311c-1.564 0-3.096-0.773-4.003-2.193-1.412-2.207-0.766-5.144 1.441-6.553 95.63-61.138 204.988-43.039 289.575-20.443 2.532 0.679 4.035 3.28 3.36 5.813-0.676 2.536-3.277 4.024-5.813 3.363-82.705-22.098-189.501-39.871-282.010 19.262-0.788 0.509-1.676 0.751-2.55 0.751z"></path>
	<path fill="rgb(61, 183, 228)" class="path14 fill-color12" d="M472.891 411.908c-1.264 0-2.496-0.506-3.399-1.434-1.181-1.214-1.629-2.966-1.167-4.599l14.757-52.338c0.459-1.633 1.756-2.897 3.399-3.316 1.64-0.412 3.385 0.076 4.57 1.29l37.949 38.946c1.181 1.214 1.629 2.966 1.167 4.599-0.459 1.633-1.756 2.897-3.399 3.316l-52.703 13.392c-0.39 0.094-0.784 0.145-1.174 0.145zM489.985 364.021l-10.296 36.512 36.768-9.342-26.472-27.17z"></path>
	<path fill="rgb(61, 183, 228)" class="path15 fill-color12" d="M155.164 445.028c-13.023 0-23.615-10.592-23.615-23.611s10.592-23.615 23.615-23.615c13.019 0 23.615 10.595 23.615 23.615s-10.595 23.611-23.615 23.611zM155.164 407.295c-7.785 0-14.121 6.333-14.121 14.121 0 7.785 6.336 14.118 14.121 14.118s14.121-6.333 14.121-14.118c-0.004-7.789-6.336-14.121-14.121-14.121z"></path>
	<path fill="rgb(61, 183, 228)" class="path16 fill-color12" d="M909.827 445.028c-13.019 0-23.615-10.592-23.615-23.611s10.592-23.615 23.615-23.615c13.023 0 23.615 10.595 23.615 23.615s-10.592 23.611-23.615 23.611zM909.827 407.295c-7.785 0-14.121 6.333-14.121 14.121 0 7.785 6.333 14.118 14.121 14.118s14.121-6.333 14.121-14.118c0-7.789-6.336-14.121-14.121-14.121z"></path>
</symbol>
<symbol id="icon-icon_direction-a" viewBox="0 0 1024 1024">
	<title>icon_direction-a</title>
	<path class="path1" d="M457.968 1001.527l-49.061-64.18c149.745-114.469 232.212-265.663 232.212-425.73s-82.47-311.26-232.212-425.73l49.061-64.176c170.199 130.104 263.933 304.093 263.933 489.906s-93.734 359.805-263.933 489.91z"></path>
	<path class="path2" d="M384.93 0h296.543v79.074h-296.543v-79.074z"></path>
	<path class="path3" d="M384.93 0h79.074v296.543h-79.074v-296.543z"></path>
	<path class="path4" d="M384.93 944.196h296.543v79.074h-296.543v-79.074z"></path>
	<path class="path5" d="M384.93 726.807h79.074v296.543h-79.074v-296.543z"></path>
</symbol>
<symbol id="icon-icon_direction-b" viewBox="0 0 1024 1024">
	<title>icon_direction-b</title>
	<path class="path1" d="M315.462 297.226l-58.577-58.573-240.152 240.156c-18.33 18.33-18.33 48.054 0 66.383l240.156 240.156 58.573-58.573-171.89-171.894 307.565-0.004v-85.761l-307.565 0.004 171.89-171.894zM1008.528 478.808l-240.152-240.152-58.573 58.573 171.89 171.89h-307.565v85.761h307.568l-171.894 171.894 58.573 58.573 240.152-240.152c18.33-18.333 18.33-48.057 0-66.387z"></path>
</symbol>
<symbol id="icon-icon_ellipsis" viewBox="0 0 1024 1024">
	<title>icon_ellipsis</title>
	<path class="path1" d="M-0.007 512.921v-1.846c0-66.474 56.315-120.018 120.943-120.018 63.703 0 120.939 53.545 120.939 120.018v1.846c0 66.474-54.469 120.018-120.939 120.018-66.474 0-120.943-53.545-120.943-120.018z"></path>
	<path class="path2" d="M391.061 512.921v-1.846c0-66.474 56.315-120.018 120.943-120.018 63.703 0 120.939 53.545 120.939 120.018v1.846c0 66.474-54.469 120.018-120.939 120.018-66.474 0-120.943-53.545-120.943-120.018z"></path>
	<path class="path3" d="M782.125 512.921v-1.846c0-66.474 56.315-120.018 120.943-120.018 63.703 0 120.939 53.545 120.939 120.018v1.846c0 66.474-54.469 120.018-120.939 120.018s-120.943-53.545-120.943-120.018z"></path>
</symbol>
<symbol id="icon-icon_ferry-live" viewBox="0 0 1024 1024">
	<title>icon_ferry-live</title>
	<path fill="rgb(53, 181, 179)" class="path1 fill-color8" d="M1024.007 512c0 282.774-229.233 512.007-512.007 512.007s-512.007-229.233-512.007-512.007c0-282.774 229.233-512.007 512.007-512.007s512.007 229.233 512.007 512.007z"></path>
	<path fill="rgb(40, 136, 134)" class="path2 fill-color6" d="M512 36.118c127.113 0 246.618 49.499 336.501 139.381s139.381 209.388 139.381 336.501-49.502 246.618-139.381 336.501c-89.883 89.883-209.388 139.381-336.501 139.381s-246.618-49.499-336.501-139.381c-89.883-89.883-139.381-209.388-139.381-336.501s49.499-246.618 139.381-336.501c89.883-89.883 209.388-139.381 336.501-139.381zM512-0.007c-282.776 0-512.007 229.231-512.007 512.007s229.235 512.007 512.007 512.007 512.007-229.235 512.007-512.007c0-282.776-229.231-512.007-512.007-512.007v0z"></path>
	<path fill="rgb(255, 255, 255)" class="path3 fill-color14" d="M735.112 784.361c-18.496 10.169-34.471 18.951-68.349 18.951-33.882 0-49.853-8.782-68.352-18.951-20.118-11.058-42.917-23.593-86.429-23.593-43.509 0-66.307 12.535-86.422 23.593-18.492 10.169-34.467 18.951-68.338 18.951-33.874 0-49.845-8.782-68.341-18.951-20.114-11.058-42.913-23.593-86.426-23.593v37.523c33.874 0 49.849 8.782 68.345 18.951 20.114 11.058 42.913 23.593 86.422 23.593s66.304-12.535 86.418-23.593c18.492-10.169 34.467-18.951 68.341-18.951 33.878 0 49.849 8.782 68.349 18.951 20.118 11.058 42.917 23.593 86.433 23.593 43.513 0 66.311-12.535 86.429-23.593 18.496-10.169 34.471-18.951 68.352-18.951v-37.523c-43.516 0-66.318 12.535-86.433 23.593z"></path>
	<path fill="rgb(255, 255, 255)" class="path4 fill-color14" d="M202.459 536.276l40.034 187.514c19.652 4.62 33.578 12.25 46.392 19.294 18.492 10.169 34.467 18.951 68.341 18.951 33.871 0 49.842-8.782 68.338-18.951 20.114-11.061 42.913-23.593 86.422-23.593 43.513 0 66.311 12.535 86.429 23.593 18.5 10.169 34.471 18.951 68.352 18.951 33.878 0 49.849-8.782 68.349-18.951 12.814-7.044 26.747-14.674 46.399-19.294l40.034-187.514-74.598-13.565-13.316-132.85h36.797v-71.546c0-17.622-14.287-31.909-31.909-31.909h-14.464v-21.314c0-5.874-4.761-10.635-10.635-10.635h-151.678v-60.658c0-5.874-4.761-10.635-10.635-10.635h-77.709c-5.874 0-10.635 4.761-10.635 10.635v60.658h-151.693c-5.874 0-10.635 4.761-10.635 10.635v21.314h-14.468c-17.622 0-31.909 14.287-31.909 31.909v71.546h39.709l-14.945 132.528-76.365 13.886zM591.775 494.497l-79.771-14.504-79.775 14.504v-91.96c0-5.874 4.761-10.635 10.635-10.635h138.276c5.874 0 10.635 4.761 10.635 10.635v91.96zM634.319 502.235v-99.698c0-5.874 4.761-10.635 10.635-10.635h35.403c5.477 0 10.061 4.162 10.588 9.613l10.935 113.006-67.561-12.286zM333.055 401.512c0.527-5.451 5.108-9.613 10.588-9.613h35.399c5.874 0 10.635 4.761 10.635 10.635v99.698l-67.561 12.286 10.939-113.006z"></path>
</symbol>
<symbol id="icon-icon_ferry-withoutBox" viewBox="0 0 1024 1024">
	<title>icon_ferry-withoutBox</title>
	<path class="path1" d="M859.389 936.075c-28.802 15.837-53.671 29.511-106.421 29.511-52.753 0-77.625-13.677-106.424-29.511-31.324-17.221-66.824-36.736-134.569-36.736-67.742 0-103.242 19.515-134.558 36.739-28.795 15.834-53.667 29.507-106.403 29.507-52.743 0-77.611-13.673-106.41-29.511-31.317-17.221-66.817-36.736-134.566-36.736v58.425c52.743 0 77.618 13.673 106.413 29.511 31.317 17.221 66.817 36.736 134.558 36.736s103.234-19.515 134.555-36.736c28.795-15.837 53.667-29.511 106.41-29.511 52.746 0 77.618 13.673 106.421 29.511 31.324 17.221 66.824 36.736 134.577 36.736 67.749 0 103.249-19.515 134.569-36.736 28.802-15.834 53.671-29.511 106.424-29.511v-58.425c-67.756 0-103.256 19.515-134.577 36.736z"></path>
	<path class="path2" d="M30.038 549.801l62.33 291.966c30.594 7.196 52.284 19.074 72.232 30.042 28.795 15.837 53.667 29.511 106.41 29.511 52.735 0 77.607-13.673 106.403-29.507 31.317-17.221 66.817-36.739 134.558-36.739 67.749 0 103.249 19.515 134.569 36.736 28.802 15.834 53.671 29.511 106.424 29.511 52.746 0 77.618-13.673 106.421-29.511 19.955-10.968 41.645-22.849 72.243-30.042l62.33-291.962-116.149-21.119-20.736-206.852h57.298v-111.406c0-27.441-22.246-49.683-49.686-49.683h-22.524v-33.184c0-9.147-7.416-16.56-16.563-16.56h-236.167v-94.449c0-9.147-7.413-16.56-16.563-16.56h-120.994c-9.147 0-16.56 7.416-16.56 16.56v94.445h-236.16c-9.147 0-16.563 7.416-16.563 16.56v33.184h-22.524c-27.441 0-49.683 22.246-49.683 49.683v111.402h61.824l-23.272 206.35-118.898 21.624zM636.209 484.747l-124.209-22.585-124.212 22.585v-143.185c0-9.147 7.413-16.56 16.56-16.56h215.298c9.147 0 16.56 7.416 16.56 16.56v143.185zM702.455 496.795v-155.233c0-9.147 7.416-16.56 16.563-16.56h55.12c8.529 0 15.664 6.477 16.484 14.967l17.029 175.954-105.196-19.128zM233.379 339.969c0.82-8.489 7.955-14.967 16.484-14.967h55.12c9.147 0 16.563 7.416 16.563 16.56v155.233l-105.192 19.128 17.026-175.954z"></path>
</symbol>
<symbol id="icon-icon_ferry" viewBox="0 0 1024 1024">
	<title>icon_ferry</title>
	<path fill="rgb(53, 181, 179)" class="path1 fill-color8" d="M921.607 1024.025h-819.214c-56.554 0-102.4-45.846-102.4-102.4v-819.251c0-56.554 45.846-102.4 102.4-102.4h819.214c56.554 0 102.4 45.846 102.4 102.4v819.247c0 56.557-45.846 102.404-102.4 102.404z"></path>
	<path fill="rgb(255, 255, 255)" class="path2 fill-color14" d="M789.91 851.304c-23.041 12.669-42.938 23.608-85.136 23.608-42.201 0-62.099-10.942-85.139-23.608-25.060-13.774-53.458-29.388-107.656-29.388-54.195 0-82.593 15.613-107.649 29.391-23.037 12.665-42.935 23.604-85.121 23.604-42.194 0-62.092-10.939-85.125-23.608-25.053-13.774-53.454-29.388-107.653-29.388v46.739c42.194 0 62.095 10.939 85.132 23.608 25.053 13.774 53.454 29.388 107.649 29.388s82.589-15.613 107.642-29.388c23.037-12.669 42.935-23.608 85.125-23.608 42.198 0 62.095 10.939 85.136 23.608 25.060 13.774 53.458 29.388 107.66 29.388 54.198 0 82.596-15.613 107.656-29.388 23.041-12.665 42.938-23.608 85.139-23.608v-46.739c-54.202 0-82.6 15.613-107.66 29.388z"></path>
	<path fill="rgb(255, 255, 255)" class="path3 fill-color14" d="M126.43 542.284l49.867 233.574c24.478 5.755 41.826 15.259 57.786 24.034 23.037 12.669 42.935 23.608 85.125 23.608s62.084-10.939 85.121-23.604c25.053-13.778 53.454-29.391 107.649-29.391 54.198 0 82.596 15.613 107.656 29.388 23.041 12.665 42.938 23.608 85.139 23.608 42.198 0 62.095-10.939 85.136-23.608 15.964-8.775 33.314-18.279 57.796-24.034l49.867-233.57-92.921-16.896-16.589-165.482h45.835v-89.12c0-21.953-17.795-39.748-39.748-39.748h-18.019v-26.548c0-7.319-5.932-13.251-13.251-13.251h-188.934v-75.555c0-7.319-5.932-13.251-13.251-13.251h-96.793c-7.315 0-13.247 5.932-13.247 13.251v75.555h-188.934c-7.315 0-13.251 5.932-13.251 13.251v26.548h-18.019c-21.953 0-39.748 17.795-39.748 39.748v89.12h49.462l-18.619 165.081-95.117 17.293zM611.369 490.246l-99.365-18.070-99.369 18.070v-114.549c0-7.315 5.932-13.251 13.247-13.251h172.241c7.315 0 13.247 5.932 13.247 13.251v114.549zM664.365 499.88v-124.187c0-7.315 5.932-13.251 13.251-13.251h44.094c6.824 0 12.532 5.18 13.189 11.972l13.623 140.765-84.157-15.299zM289.105 374.418c0.657-6.792 6.365-11.972 13.189-11.972h44.094c7.319 0 13.251 5.932 13.251 13.251v124.187l-84.153 15.303 13.619-140.768z"></path>
</symbol>
<symbol id="icon-icon_info" viewBox="0 0 1024 1024">
	<title>icon_info</title>
	<path class="path1" d="M512-0.007c-282.776 0-512.007 229.231-512.007 512.007s229.231 512.007 512.007 512.007 512.007-229.235 512.007-512.007-229.231-512.007-512.007-512.007zM645.984 806.647c-27.939 11.007-50.239 19.406-66.889 25.19-16.654 5.784-35.984 8.677-57.999 8.677-33.867 0-60.188-8.255-78.951-24.764-18.771-16.509-28.152-37.465-28.152-62.865 0-9.873 0.701-19.963 2.117-30.269 1.409-10.299 3.667-21.939 6.773-34.926l34.947-123.616c3.121-11.853 5.747-23.073 7.864-33.654s3.175-20.244 3.175-28.998c0-15.801-3.255-26.808-9.757-33.022-6.51-6.206-18.955-9.313-37.353-9.313-9.057 0-18.319 1.416-27.805 4.234-9.486 2.825-17.622 5.502-24.41 8.045l9.327-38.101c22.885-9.313 44.781-17.282 65.69-23.918 20.909-6.629 40.691-9.949 59.343-9.949 33.625 0 59.545 8.117 77.766 24.341 18.218 16.231 27.332 37.328 27.332 63.291 0 5.365-0.636 14.818-1.904 28.365s-3.598 25.967-6.987 37.252l-34.814 123.194c-2.832 9.88-5.386 21.166-7.648 33.867s-3.392 22.3-3.392 28.788c0 16.372 3.659 27.516 10.989 33.445 7.326 5.928 20.010 8.89 38.054 8.89 8.453 0 18.030-1.481 28.741-4.443 10.707-2.962 18.46-5.57 23.257-7.832l-9.317 38.090zM639.846 306.47c-16.231 15.104-35.771 22.65-58.631 22.65s-42.479-7.547-58.844-22.65c-16.372-15.097-24.554-33.369-24.554-54.823 0-21.447 8.182-39.795 24.554-55.033 16.365-15.241 35.984-22.86 58.844-22.86s42.4 7.619 58.631 22.86c16.224 15.241 24.341 33.589 24.341 55.033 0 21.455-8.117 39.727-24.341 54.823z"></path>
</symbol>
<symbol id="icon-icon_kutsuplus" viewBox="0 0 1024 1024">
	<title>icon_kutsuplus</title>
	<path class="path1" d="M908.682 491.723l-64.487-341.761-0.412 0.079c-0.202-1.29-0.412-2.583-0.723-3.898l-22.99-96.653c-6.477-27.224-34.669-49.499-62.655-49.499h-490.831c-27.982 0-56.178 22.275-62.655 49.499l-22.99 96.649c-0.314 1.315-0.52 2.608-0.723 3.898l-0.415-0.079-64.487 341.764v370.112c0 6.835 1.384 13.355 3.855 19.323 0.285 1.145 0.809 2.279 1.597 3.407 4.003 7.944 9.992 14.721 17.354 19.627-0.029 0.452-0.069 0.896-0.069 1.355v118.458h101.714v-105.561c70.339 9.291 165.984 14.999 272.235 14.999 103.867 0 197.582-5.455 267.448-14.381v104.943h101.714v-117.045c9.501-4.956 17.242-12.817 22.069-22.394 0.788-1.127 1.311-2.261 1.597-3.407 2.471-5.968 3.855-12.488 3.855-19.323v-370.112zM199.392 770.294c-28.719-5.386-26.924-48.462-26.924-48.462s0-34.106 0-67.312 29.615-14.36 62.821 0 43.975 40.388 43.975 40.388l42.18 88.85c0.004-0.004-93.333-8.078-122.052-13.464zM171.24 485.777l65.538-370.133h548.056l67.926 370.133c-84.074 11.040-205.573 17.983-340.76 17.983-135.191 0-256.686-6.94-340.76-17.983zM827.599 770.294c-28.719 5.386-122.056 13.464-122.056 13.464l42.18-88.85c0 0 10.769-26.028 43.975-40.388s62.821-33.206 62.821 0 0 67.312 0 67.312 1.799 43.075-26.92 48.462z"></path>
	<path class="path2" d="M135.834 469.065c2.536 10.903-4.545 19.822-15.74 19.822h-61.008c-11.195 0-20.353-9.158-20.353-20.353v-108.646c0-11.195 9.158-20.353 20.353-20.353h26.245c11.195 0 22.43 8.919 24.966 19.822l25.537 109.708z"></path>
	<path class="path3" d="M888.166 469.065c-2.536 10.903 4.545 19.822 15.74 19.822h61.008c11.195 0 20.353-9.158 20.353-20.353v-108.646c0-11.195-9.158-20.353-20.353-20.353h-26.245c-11.195 0-22.43 8.919-24.966 19.822l-25.537 109.708z"></path>
	<path class="path4" d="M529.846 202.073v90.341h85.309c9.367 0 16.964 7.593 16.964 16.964v0c0 9.367-7.593 16.964-16.964 16.964h-85.309v91.093c0 9.367-7.593 16.964-16.964 16.964h-2.767c-9.367 0-16.964-7.593-16.964-16.964v-91.096h-84.811c-9.367 0-16.964-7.593-16.964-16.964v0c0-9.367 7.593-16.964 16.964-16.964h84.811v-90.338c0-9.367 7.593-16.964 16.964-16.964h2.767c9.371 0.004 16.964 7.597 16.964 16.964z"></path>
</symbol>
<symbol id="icon-icon_location-with-user" viewBox="0 0 1024 1024">
	<title>icon_location-with-user</title>
	<path fill="rgb(61, 183, 228)" class="path1 fill-color12" d="M1024.007 512c0 282.774-229.233 512.007-512.007 512.007s-512.007-229.233-512.007-512.007c0-282.774 229.233-512.007 512.007-512.007s512.007 229.233 512.007 512.007z"></path>
	<path fill="rgb(255, 255, 255)" class="path2 fill-color14" d="M512 81.913c-237.529 0-430.087 192.554-430.087 430.083 0 237.533 192.561 430.087 430.087 430.087 237.533 0 430.087-192.554 430.087-430.087 0-237.526-192.554-430.083-430.087-430.083zM786.059 769.030c-19.583-50.745-114.285-111.717-188.757-136.379-3.811-1.239-27.867-12.087-12.835-57.778h-0.21c39.181-40.348 69.125-105.326 69.125-169.271 0-98.3-65.386-149.832-141.361-149.832-76.022 0-141.032 51.532-141.032 149.832 0 64.194 29.781 129.429 69.194 169.694 15.36 40.29-12.109 55.239-17.86 57.356-72.976 26.389-167.674 87.997-182.89 137.983-66.615-70.108-103.18-161.562-103.18-258.637 0-100.363 39.084-194.721 110.055-265.689s165.33-110.051 265.692-110.051c100.366 0 194.725 39.084 265.696 110.051 70.968 70.968 110.055 165.326 110.055 265.689-0.004 96.342-36.035 187.135-101.692 257.033z"></path>
</symbol>
<symbol id="icon-icon_mapMarker-location" viewBox="0 0 1024 1024">
	<title>icon_mapMarker-location</title>
	<path fill="rgb(255, 255, 255)" class="path1 fill-color14" d="M512 43.343c125.184 0 242.872 48.751 331.393 137.268s137.268 206.209 137.268 331.389c0 125.184-48.751 242.876-137.268 331.393s-206.209 137.268-331.393 137.268-242.872-48.751-331.393-137.268c-88.517-88.517-137.268-206.209-137.268-331.393s48.751-242.872 137.268-331.389 206.209-137.268 331.393-137.268zM512-0.007c-282.772 0-512.007 229.231-512.007 512.007s229.235 512.007 512.007 512.007 512.007-229.231 512.007-512.007c0-282.776-229.235-512.007-512.007-512.007v0z"></path>
	<path fill="rgb(255, 255, 255)" class="path2 fill-color14" d="M512 253.749c142.401 0 258.251 115.849 258.251 258.251s-115.849 258.251-258.251 258.251-258.251-115.849-258.251-258.251c0-142.401 115.849-258.251 258.251-258.251zM512 170.662c-188.515 0-341.338 152.823-341.338 341.338s152.823 341.338 341.338 341.338 341.338-152.823 341.338-341.338c0-188.515-152.823-341.338-341.338-341.338v0z"></path>
	<path fill="rgb(255, 255, 255)" class="path3 fill-color14" d="M512 341.331c94.257 0 170.669 76.412 170.669 170.669s-76.412 170.669-170.669 170.669-170.669-76.412-170.669-170.669c0-94.257 76.412-170.669 170.669-170.669z"></path>
	<path fill="rgb(61, 183, 228)" class="path4 fill-color12" d="M512 426.665c47.129 0 85.335 38.206 85.335 85.335s-38.206 85.335-85.335 85.335c-47.129 0-85.335-38.206-85.335-85.335s38.206-85.335 85.335-85.335z"></path>
</symbol>
<symbol id="icon-icon_position" viewBox="0 0 1024 1024">
	<title>icon_position</title>
	<path class="path1" d="M512 57.786c121.322 0 235.383 47.244 321.173 133.034s133.034 199.851 133.034 321.173-47.244 235.383-133.034 321.173c-85.79 85.79-199.851 133.034-321.173 133.034s-235.383-47.244-321.173-133.034c-85.79-85.79-133.034-199.851-133.034-321.173s47.248-235.383 133.034-321.173c85.79-85.786 199.851-133.034 321.173-133.034zM512-0.014c-282.772 0-512.007 229.235-512.007 512.007s229.231 512.007 512.007 512.007 512.007-229.235 512.007-512.007c0-282.772-229.235-512.007-512.007-512.007v0z"></path>
	<path class="path2" d="M512 196.029c174.224 0 315.968 141.74 315.968 315.964s-141.74 315.968-315.968 315.968-315.968-141.744-315.968-315.968 141.744-315.964 315.968-315.964zM512 138.229c-206.426 0-373.768 167.342-373.768 373.764 0 206.426 167.342 373.768 373.768 373.768s373.768-167.342 373.768-373.768c0-206.426-167.342-373.764-373.768-373.764v0z"></path>
	<path class="path3" d="M512 375.516c75.256 0 136.48 61.225 136.48 136.48s-61.225 136.48-136.48 136.48-136.48-61.225-136.48-136.48 61.225-136.48 136.48-136.48zM512 281.591c-127.247 0-230.405 103.155-230.405 230.405s103.155 230.405 230.405 230.405 230.405-103.155 230.405-230.405c0-127.25-103.155-230.405-230.405-230.405v0z"></path>
</symbol>
<symbol id="icon-icon_mapMarker-point" viewBox="0 0 1024 1024">
	<title>icon_mapMarker-point</title>
	<path class="path1" d="M512-0.007c-212.979 0-385.635 172.656-385.635 385.635 0 167.295 237.941 486.861 340.016 616.257 23.272 29.5 67.966 29.5 91.237 0 102.078-129.396 340.016-448.962 340.016-616.257 0-212.982-172.656-385.635-385.635-385.635z"></path>
</symbol>
<symbol id="icon-icon_maximize" viewBox="0 0 1024 1024">
	<title>icon_maximize</title>
	<path class="path1" d="M421.648 90.352v-90.352h-370.448c-28.275 0-51.2 22.925-51.2 51.2v370.451h90.352v-265.15l325.1 325.093 66.145-66.145-325.104-325.096h265.154zM933.648 602.352v265.15l-325.1-325.1-66.145 66.145 325.104 325.104h-265.154v90.349h370.444c28.279 0 51.2-22.925 51.2-51.2v-370.448h-90.349z"></path>
</symbol>
<symbol id="icon-icon_menu" viewBox="0 0 1024 1024">
	<title>icon_menu</title>
	<path class="path1" d="M0 204.793h1024v102.404h-1024v-102.404z"></path>
	<path class="path2" d="M0 460.796h1024v102.404h-1024v-102.404z"></path>
	<path class="path3" d="M0 716.804h1024v102.404h-1024v-102.404z"></path>
</symbol>
<symbol id="icon-icon_minimize" viewBox="0 0 1024 1024">
	<title>icon_minimize</title>
	<path class="path1" d="M349.163 280.504l-282.472-282.465-68.652 68.652 282.472 282.469h-280.514v93.781h389.803c29.352 0 53.144-23.792 53.144-53.144v-391.758h-93.781v282.465zM743.482 674.823h280.514v-93.777h-389.803c-29.352 0-53.144 23.792-53.144 53.144v389.807h93.781v-280.514l282.48 282.48 68.656-68.652-282.483-282.487z"></path>
</symbol>
<symbol id="icon-icon_pause" viewBox="0 0 1024 1024">
	<title>icon_pause</title>
	<path class="path1" d="M230.377 1024.079h-0.043c-84.832 0-153.604-68.771-153.604-153.604v-716.952c0-84.832 68.771-153.604 153.604-153.604h0.043c84.832 0 153.604 68.771 153.604 153.604v716.952c0 84.832-68.771 153.604-153.604 153.604z"></path>
	<path class="path2" d="M793.663 1024.079h-0.043c-84.832 0-153.604-68.771-153.604-153.604v-716.952c0-84.832 68.771-153.604 153.604-153.604h0.043c84.832 0 153.604 68.771 153.604 153.604v716.952c0 84.832-68.771 153.604-153.604 153.604z"></path>
</symbol>
<symbol id="icon-icon_place" viewBox="0 0 1024 1024">
	<title>icon_place</title>
	<path class="path1" d="M512-0.007c-212.979 0-385.635 172.656-385.635 385.635 0 167.295 237.941 486.861 340.016 616.257 23.272 29.5 67.966 29.5 91.237 0 102.078-129.396 340.016-448.962 340.016-616.257 0-212.982-172.656-385.635-385.635-385.635zM528.506 623.634c-8.421 10.675-24.594 10.675-33.011 0-36.934-46.822-123.031-162.451-123.031-222.989 0-77.066 62.475-139.537 139.54-139.537s139.54 62.475 139.54 139.537c-0.004 60.538-86.1 176.167-123.038 222.989z"></path>
</symbol>
<symbol id="icon-icon_plus" viewBox="0 0 1024 1024">
	<title>icon_plus</title>
	<path class="path1" d="M435.198 0h153.604v1024h-153.604v-1024z"></path>
	<path class="path2" d="M0 435.198h1024v153.604h-1024v-153.604z"></path>
</symbol>
<symbol id="icon-icon_print" viewBox="0 0 1024 1024">
	<title>icon_print</title>
	<path class="path1" d="M933.297 317.553h-67.81v-224.011c0-50.192-40.832-91.024-91.024-91.024h-524.929c-50.192-0.004-91.024 40.832-91.024 91.021v224.011h-67.807c-50.098 0-90.71 40.612-90.71 90.71v290.546c0 50.098 40.612 90.71 90.71 90.71h67.807v140.938c0 50.192 40.832 91.024 91.024 91.024h524.929c50.192 0 91.024-40.832 91.024-91.024v-140.938h67.81c50.098 0 90.71-40.612 90.71-90.71v-290.546c0-50.095-40.612-90.706-90.71-90.706zM238.512 93.539c0-6.080 4.946-11.025 11.025-11.025h524.929c6.080 0 11.025 4.946 11.025 11.025v224.011h-546.98v-224.011zM785.488 930.458c0 6.080-4.946 11.025-11.025 11.025h-524.929c-6.080 0-11.025-4.946-11.025-11.025v-335.652h546.976v335.652zM839.542 512c-32.137 0-58.187-26.050-58.187-58.187s26.050-58.187 58.187-58.187 58.187 26.050 58.187 58.187c0 32.137-26.050 58.187-58.187 58.187z"></path>
</symbol>
<symbol id="icon-icon_rail-live" viewBox="0 0 1024 1024">
	<title>icon_rail-live</title>
	<path fill="rgb(175, 141, 188)" class="path1 fill-color13" d="M1024.007 512c0 282.774-229.233 512.007-512.007 512.007s-512.007-229.233-512.007-512.007c0-282.774 229.233-512.007 512.007-512.007s512.007 229.233 512.007 512.007z"></path>
	<path fill="rgb(131, 106, 141)" class="path2 fill-color10" d="M512 36.118c127.113 0 246.618 49.499 336.501 139.381s139.381 209.388 139.381 336.501-49.502 246.618-139.381 336.501c-89.883 89.883-209.388 139.381-336.501 139.381s-246.618-49.499-336.501-139.381c-89.883-89.883-139.381-209.388-139.381-336.501s49.499-246.618 139.381-336.501c89.883-89.883 209.388-139.381 336.501-139.381zM512-0.007c-282.776 0-512.007 229.231-512.007 512.007s229.235 512.007 512.007 512.007 512.007-229.235 512.007-512.007c0-282.776-229.231-512.007-512.007-512.007v0z"></path>
	<path fill="rgb(255, 255, 255)" class="path3 fill-color14" d="M760.656 630.551v-276.974c0-59.509-48.241-166.233-107.75-166.233h-281.811c-59.509 0-107.75 106.724-107.75 166.233v276.978c0 59.509 48.241 136.993 107.75 136.993h6.206l-26.534 31.674h-45.98l-29.24 31.19h49.090l-34.471 41.15h63.45l34.471-41.15h247.829l34.471 41.15h63.45l-34.471-41.15h49.090l-29.24-31.19h-45.98l-26.534-31.674h6.206c59.505-0.004 107.747-77.488 107.747-136.997zM687.488 664.047c-17.521 0-31.725-14.204-31.725-31.725s14.204-31.725 31.725-31.725 31.725 14.204 31.725 31.725c0 17.524-14.201 31.725-31.725 31.725zM419.892 253.612h184.216v31.19h-184.216v-31.19zM336.512 664.047c-17.521 0-31.725-14.204-31.725-31.725s14.204-31.725 31.725-31.725c17.521 0 31.725 14.204 31.725 31.725 0 17.524-14.204 31.725-31.725 31.725zM317.051 532.024c-7.247-1.947-12.264-8.504-12.264-16.007v-166.114c0-9.154 7.424-16.578 16.578-16.578h381.274c9.154 0 16.578 7.42 16.578 16.578v166.114c0 7.503-5.018 14.060-12.264 16.007-28.875 7.756-105.496 14.053-194.949 14.053s-166.078-6.297-194.952-14.053zM609.787 799.219h-195.57l26.534-31.674h142.502l26.534 31.674z"></path>
</symbol>
<symbol id="icon-icon_rail-withoutBox" viewBox="0 0 1024 1024">
	<title>icon_rail-withoutBox</title>
	<path class="path1" d="M884.149 663.313v-414.535c0-89.063-72.199-248.789-161.266-248.789h-421.767c-89.063 0-161.266 159.723-161.266 248.789v414.531c0 89.063 72.199 205.028 161.266 205.028h9.288l-39.712 47.407h-68.818l-43.762 46.681h73.471l-51.59 61.582h94.962l51.59-61.582h370.906l51.59 61.582h94.962l-51.59-61.582h73.471l-43.762-46.681h-68.815l-39.712-47.407h9.288c89.063 0 161.266-115.961 161.266-205.024zM774.643 713.444c-26.223 0-47.483-21.26-47.483-47.483s21.26-47.483 47.483-47.483c26.223 0 47.483 21.26 47.483 47.483-0.004 26.223-21.26 47.483-47.483 47.483zM374.147 99.174h275.703v46.681h-275.703v-46.681zM249.357 713.444c-26.223 0-47.483-21.26-47.483-47.483s21.26-47.483 47.483-47.483c26.223 0 47.483 21.26 47.483 47.483s-21.26 47.483-47.483 47.483zM220.233 515.851c-10.845-2.912-18.355-12.727-18.355-23.958v-248.609c0-13.702 11.108-24.811 24.811-24.811h570.627c13.702 0 24.811 11.108 24.811 24.811v248.609c0 11.231-7.51 21.043-18.355 23.958-43.216 11.611-157.888 21.032-291.767 21.032s-248.555-9.421-291.771-21.032zM658.35 915.744h-292.696l39.712-47.407h213.271l39.712 47.407z"></path>
</symbol>
<symbol id="icon-icon_rail" viewBox="0 0 1024 1024">
	<title>icon_rail</title>
	<path fill="rgb(175, 141, 188)" class="path1 fill-color13" d="M921.607 1024.025h-819.214c-56.554 0-102.4-45.846-102.4-102.4v-819.251c0-56.554 45.846-102.4 102.4-102.4h819.214c56.554 0 102.4 45.846 102.4 102.4v819.247c0 56.557-45.846 102.404-102.4 102.404z"></path>
	<path fill="rgb(255, 255, 255)" class="path2 fill-color14" d="M809.717 633.095v-331.624c0-71.249-57.76-199.031-129.010-199.031h-337.415c-71.249 0-129.010 127.778-129.010 199.031v331.624c0 71.249 57.76 164.022 129.010 164.022h7.431l-31.772 37.924h-55.051l-35.009 37.342h58.775l-41.273 49.267h75.971l41.273-49.267h296.724l41.273 49.267h75.971l-41.273-49.267h58.775l-35.009-37.342h-55.051l-31.772-37.924h7.431c71.249 0 129.010-92.773 129.010-164.022zM722.114 673.201c-20.978 0-37.985-17.008-37.985-37.985s17.008-37.985 37.985-37.985c20.978 0 37.985 17.008 37.985 37.985s-17.008 37.985-37.985 37.985zM401.718 181.785h220.561v37.342h-220.561v-37.342zM301.886 673.201c-20.978 0-37.985-17.008-37.985-37.985s17.008-37.985 37.985-37.985 37.985 17.008 37.985 37.985c0 20.978-17.008 37.985-37.985 37.985zM278.585 515.125c-8.677-2.33-14.685-10.184-14.685-19.164v-198.89c0-10.96 8.887-19.847 19.847-19.847h456.501c10.96 0 19.847 8.887 19.847 19.847v198.886c0 8.984-6.008 16.834-14.685 19.164-34.575 9.288-126.311 16.827-233.415 16.827s-198.836-7.536-233.411-16.823zM629.078 835.041h-234.159l31.772-37.924h170.618l31.768 37.924z"></path>
</symbol>
<symbol id="icon-icon_route" viewBox="0 0 1024 1024">
	<title>icon_route</title>
	<path class="path1" d="M257.673 173.541c-142.311 0-257.68 115.369-257.68 257.68 0 111.785 158.99 325.32 227.198 411.782 15.548 19.71 45.413 19.71 60.965 0 68.208-86.462 227.198-299.997 227.198-411.782 0-142.315-115.369-257.68-257.68-257.68zM268.702 590.254c-5.625 7.131-16.433 7.131-22.058 0-24.681-31.284-82.21-108.548-82.21-148.998 0-51.493 41.746-93.239 93.239-93.239s93.239 41.746 93.239 93.239c0 40.449-57.529 117.713-82.21 148.998z"></path>
	<path class="path2" d="M874.883 166.215c-82.358 0-149.124 66.766-149.124 149.124 0 64.693 92.010 188.269 131.484 238.306 8.999 11.408 26.281 11.408 35.28 0 39.474-50.037 131.484-173.613 131.484-238.306 0-82.358-66.763-149.124-149.124-149.124zM881.266 407.375c-3.255 4.129-9.508 4.129-12.767 0-14.284-18.106-47.577-62.821-47.577-86.227 0-29.8 24.157-53.96 53.96-53.96s53.96 24.157 53.96 53.96c0 23.409-33.293 68.121-47.577 86.227z"></path>
	<path class="path3" d="M351.941 848.382c-11.444 0-21.093-8.861-21.899-20.45-0.842-12.102 8.291-22.6 20.396-23.442 0.098-0.007 8.168-0.571 21.762-1.73 12.095-1.044 22.73 7.929 23.763 20.020s-7.929 22.73-20.020 23.763c-14.114 1.207-22.455 1.785-22.455 1.785-0.524 0.040-1.037 0.054-1.546 0.054zM439.873 840.113c-11.033 0-20.544-8.291-21.809-19.515-1.358-12.059 7.319-22.936 19.374-24.294 7.001-0.788 14.251-1.633 21.686-2.543 12.069-1.478 23.004 7.102 24.475 19.143 1.474 12.044-7.099 23.004-19.143 24.475-7.575 0.925-14.963 1.788-22.098 2.594-0.834 0.094-1.662 0.141-2.485 0.141zM527.216 828.441c-10.617 0-19.955-7.713-21.675-18.532-1.904-11.983 6.271-23.243 18.258-25.143 7.153-1.134 14.298-2.323 21.39-3.562 11.968-2.099 23.34 5.903 25.428 17.857 2.092 11.954-5.903 23.337-17.857 25.428-7.319 1.279-14.696 2.507-22.076 3.678-1.163 0.184-2.323 0.275-3.468 0.275zM613.616 811.278c-9.808 0-18.745-6.614-21.278-16.556-2.995-11.759 4.111-23.72 15.873-26.711 7.232-1.842 14.045-3.732 20.255-5.621 11.614-3.54 23.882 3.020 27.415 14.623 3.533 11.611-3.016 23.882-14.623 27.415-6.853 2.084-14.324 4.158-22.21 6.167-1.813 0.462-3.638 0.683-5.433 0.683zM692.889 775.781c-4.765 0-9.566-1.543-13.597-4.725-9.14-7.214-11.011-20.23-4.501-29.688-3.88-10.346 0.556-22.195 10.639-27.307 10.827-5.487 24.034-1.181 29.521 9.638 2.995 5.903 4.508 12.048 4.508 18.265-0.004 8.941-3.222 17.737-9.306 25.45-4.339 5.498-10.769 8.367-17.264 8.367zM641.642 719.217c-3.11 0-6.271-0.665-9.273-2.066-8.352-3.898-15.736-7.911-21.946-11.932-10.187-6.593-13.099-20.198-6.503-30.385 6.593-10.184 20.198-13.099 30.385-6.503 4.519 2.926 10.119 5.953 16.643 8.995 10.996 5.13 15.754 18.203 10.624 29.2-3.732 7.994-11.654 12.691-19.93 12.691zM617.561 657.779c-6.777 0-13.464-3.125-17.766-9.020-7.153-9.801-5.007-23.546 4.794-30.703 6.116-4.465 13.583-8.876 22.199-13.113 10.888-5.357 24.059-0.871 29.413 10.017 5.357 10.888 0.871 24.059-10.017 29.413-6.34 3.118-11.618 6.206-15.685 9.176-3.909 2.857-8.442 4.23-12.936 4.23zM698.47 624.009c-9.548 0-18.333-6.268-21.104-15.902-3.356-11.661 3.378-23.835 15.039-27.191 6.954-2.001 14.306-3.999 21.852-5.943 11.744-3.031 23.731 4.042 26.758 15.797 3.027 11.748-4.046 23.731-15.797 26.758-7.149 1.842-14.1 3.732-20.66 5.621-2.030 0.582-4.079 0.86-6.087 0.86zM784.173 603.7c-10.274 0-19.457-7.243-21.527-17.701-2.359-11.903 5.375-23.467 17.279-25.826 7.648-1.517 15.010-2.915 21.957-4.187 11.932-2.186 23.384 5.715 25.577 17.651 2.186 11.936-5.715 23.387-17.651 25.577-6.748 1.235-13.901 2.594-21.332 4.068-1.449 0.282-2.886 0.419-4.302 0.419z"></path>
</symbol>
<symbol id="icon-icon_search" viewBox="0 0 1024 1024">
	<title>icon_search</title>
	<path class="path1" d="M726.005 636.553l297.996 297.996-89.445 89.445-297.996-297.996 89.445-89.445z"></path>
	<path class="path2" d="M425.705 126.488c164.987 0 299.213 134.226 299.213 299.216 0 164.987-134.226 299.213-299.213 299.213s-299.216-134.226-299.216-299.213c0-164.987 134.23-299.216 299.216-299.216zM425.705-0.007c-235.116 0-425.712 190.596-425.712 425.712s190.599 425.708 425.712 425.708 425.712-190.596 425.712-425.708-190.596-425.712-425.712-425.712v0z"></path>
</symbol>
<symbol id="icon-icon_share" viewBox="0 0 1024 1024">
	<title>icon_share</title>
	<path class="path1" d="M389.106 512c0 101.796-82.522 184.317-184.317 184.317s-184.317-82.522-184.317-184.317c0-101.796 82.522-184.317 184.317-184.317s184.317 82.522 184.317 184.317z"></path>
	<path class="path2" d="M1003.528 184.31c0 101.796-82.522 184.317-184.317 184.317s-184.317-82.522-184.317-184.317c0-101.796 82.522-184.317 184.317-184.317s184.317 82.522 184.317 184.317z"></path>
	<path class="path3" d="M1003.528 839.69c0 101.796-82.522 184.317-184.317 184.317s-184.317-82.522-184.317-184.317c0-101.796 82.522-184.317 184.317-184.317s184.317 82.522 184.317 184.317z"></path>
	<path class="path4" d="M796.076 883.062l-695.739-371.062 695.739-371.062 46.265 86.743-533.104 284.318 533.104 284.318z"></path>
</symbol>
<symbol id="icon-icon_star" viewBox="0 0 1024 1024">
	<title>icon_star</title>
	<path class="path1" d="M560.393 56.937l102.18 293.964 311.152 6.34c48.566 0.99 68.619 62.706 29.908 92.054l-247.998 188.020 90.121 297.88c14.067 46.497-38.43 84.637-78.305 56.89l-255.455-177.76-255.455 177.76c-39.875 27.748-92.372-10.397-78.305-56.89l90.121-297.88-247.998-188.020c-38.708-29.348-18.659-91.064 29.908-92.054l311.152-6.34 102.18-293.964c15.956-45.882 80.844-45.882 96.793 0z"></path>
</symbol>
<symbol id="icon-icon_station" viewBox="0 0 1024 1024">
	<title>icon_station</title>
	<path class="path1" d="M-0.007 80.935l1023.776-80.823v80.826l-1023.776 269.413v-269.417z"></path>
	<path class="path2" d="M-0.007 161.761h215.529v862.127h-215.529v-862.127z"></path>
	<path class="path3" d="M727.717 242.374c-163.607 0-296.269 132.723-296.269 296.442 0 163.711 132.658 296.467 296.269 296.467 163.657 0 296.29-132.756 296.29-296.467 0-163.715-132.633-296.442-296.29-296.442zM727.695 754.424c-118.967 0-215.435-96.504-215.435-215.576 0-119.043 96.468-215.547 215.435-215.547 119.010 0 215.435 96.504 215.435 215.547 0 119.072-96.425 215.576-215.435 215.576z"></path>
	<path class="path4" d="M798.652 456.57c-14.873 14.674-29.691 29.395-44.542 44.065 0-33.921 0-67.864 0-101.735 0-34.051-52.732-34.051-52.732 0 0 54.477 0 109.004 0 163.448-0.025 1.308 0.051 2.583 0.238 3.862 0.903 11.441 8.005 18.691 16.841 21.588 8.33 3.703 18.254 3.226 26.798-4.472 0.289-0.238 0.553-0.452 0.849-0.719 0.079-0.051 0.184-0.105 0.238-0.184 29.85-29.532 59.729-59.028 89.554-88.582 24.272-23.9-13.030-61.203-37.245-37.27z"></path>
</symbol>
<symbol id="icon-icon_subway-live" viewBox="0 0 1024 1024">
	<title>icon_subway-live</title>
	<path fill="rgb(237, 140, 0)" class="path1 fill-color9" d="M1024.267 512c0 282.774-229.233 512.007-512.007 512.007s-512.007-229.233-512.007-512.007c0-282.774 229.233-512.007 512.007-512.007s512.007 229.233 512.007 512.007z"></path>
	<path fill="rgb(178, 105, 0)" class="path2 fill-color5" d="M512.26 36.118c127.113 0 246.618 49.499 336.501 139.381s139.381 209.388 139.381 336.501-49.502 246.618-139.381 336.501c-89.883 89.883-209.388 139.381-336.501 139.381s-246.618-49.499-336.501-139.381c-89.883-89.883-139.381-209.388-139.381-336.501s49.499-246.618 139.381-336.501c89.883-89.883 209.388-139.381 336.501-139.381zM512.26-0.007c-282.776 0-512.007 229.231-512.007 512.007s229.235 512.007 512.007 512.007 512.007-229.235 512.007-512.007c0-282.776-229.231-512.007-512.007-512.007v0z"></path>
	<path fill="rgb(255, 255, 255)" class="path3 fill-color14" d="M667.619 200.613h-310.719c-65.614 0-118.804 53.19-118.804 118.804v337.624c0 65.614 53.19 118.804 118.804 118.804h39.131l-63.88 82.441h69.96l63.88-82.441h92.541l63.88 82.441h69.96l-63.88-82.441h39.131c65.614 0 118.804-53.19 118.804-118.804v-337.624c-0.004-65.614-53.194-118.804-118.808-118.804zM318.771 693.973c-19.32 0-34.98-15.66-34.98-34.98s15.66-34.98 34.98-34.98 34.98 15.66 34.98 34.98c0 19.32-15.66 34.98-34.98 34.98zM705.749 693.973c-19.32 0-34.98-15.66-34.98-34.98s15.66-34.98 34.98-34.98c19.32 0 34.98 15.66 34.98 34.98s-15.66 34.98-34.98 34.98zM740.729 562.998c0 8.273-5.534 15.505-13.522 17.651-31.837 8.554-116.315 15.494-214.948 15.494s-183.107-6.943-214.948-15.494c-7.991-2.146-13.522-9.378-13.522-17.651v-247.63c0-10.093 8.182-18.279 18.279-18.279h420.383c10.093 0 18.276 8.182 18.276 18.279v247.63z"></path>
</symbol>
<symbol id="icon-icon_subway-withoutBox" viewBox="0 0 1024 1024">
	<title>icon_subway-withoutBox</title>
	<path class="path1" d="M753.897-0.007h-483.794c-102.162 0-184.978 82.817-184.978 184.982v525.691c0 102.162 82.817 184.982 184.978 184.982h60.925l-99.463 128.367h108.928l99.463-128.367h144.088l99.463 128.367h108.928l-99.463-128.367h60.925c102.162 0 184.978-82.817 184.978-184.982v-525.695c0.004-102.162-82.817-184.978-184.978-184.978zM210.732 768.166c-30.078 0-54.462-24.384-54.462-54.462s24.384-54.462 54.462-54.462 54.466 24.384 54.466 54.462c0 30.078-24.384 54.462-54.466 54.462zM813.268 768.166c-30.078 0-54.462-24.384-54.462-54.462s24.384-54.462 54.462-54.462c30.078 0 54.462 24.384 54.462 54.462s-24.384 54.462-54.462 54.462zM867.73 564.233c0 12.882-8.616 24.139-21.057 27.48-49.571 13.316-181.106 24.128-334.677 24.128s-285.102-10.809-334.677-24.128c-12.441-3.342-21.054-14.598-21.054-27.48v-385.566c0-15.718 12.741-28.459 28.459-28.459h654.546c15.714 0 28.459 12.741 28.459 28.459v385.566z"></path>
</symbol>
<symbol id="icon-icon_subway" viewBox="0 0 1024 1024">
	<title>icon_subway</title>
	<path fill="rgb(237, 140, 0)" class="path1 fill-color9" d="M921.607 1024.025h-819.214c-56.554 0-102.4-45.846-102.4-102.4v-819.251c0-56.554 45.846-102.4 102.4-102.4h819.214c56.554 0 102.4 45.846 102.4 102.4v819.247c0 56.557-45.846 102.404-102.4 102.404z"></path>
	<path fill="rgb(255, 255, 255)" class="path2 fill-color14" d="M705.518 102.44h-387.036c-81.729 0-147.983 66.253-147.983 147.983v420.553c0 81.729 66.253 147.983 147.983 147.983h48.74l-79.569 102.693h87.141l79.569-102.693h115.271l79.573 102.693h87.141l-79.573-102.693h48.74c81.729 0 147.983-66.253 147.983-147.983v-420.553c0.004-81.729-66.25-147.983-147.979-147.983zM270.985 716.977c-24.063 0-43.57-19.508-43.57-43.57s19.508-43.57 43.57-43.57 43.57 19.508 43.57 43.57c0.004 24.063-19.508 43.57-43.57 43.57zM753.015 716.977c-24.063 0-43.57-19.508-43.57-43.57s19.508-43.57 43.57-43.57 43.57 19.508 43.57 43.57c0 24.063-19.508 43.57-43.57 43.57zM796.586 553.829c0 10.306-6.893 19.312-16.845 21.986-39.658 10.653-144.887 19.302-267.741 19.302s-228.083-8.648-267.741-19.302c-9.952-2.673-16.845-11.679-16.845-21.986v-308.45c0-12.575 10.194-22.766 22.766-22.766h523.636c12.572 0 22.766 10.194 22.766 22.766v308.45z"></path>
</symbol>
<symbol id="icon-icon_thumb-up" viewBox="0 0 1024 1024">
	<title>icon_thumb-up</title>
	<path class="path1" d="M567.362 47.934c42.786 71.401-5.726 160.818-42.075 238.812-31.245 67.059-26.48 143.142 57.291 133.395 100.937-11.748 141.675-19.822 227.591-25.692 86.765-5.925 114.151 29.709 114.151 62.717 0 53.299-17.799 57.309-17.799 77.756 0 20.443 66.55 7.117 66.55 74.172 0 67.153-51.995 64.96-51.995 83.68 0 18.771 50.611 27.177 50.611 80.862s-68.215 60.798-68.215 82.961c0 22.163 22.040 27.939 22.040 61.185 0 33.195-69.216 106.226-313.453 106.226-416.207 0-366.835-99.824-561.13-99.824v-368.818c101.132 0 95.648-89.608 165.435-158.047 70.408-69.017 205.075-225.294 231.551-348.473 17.698-82.441 93.018-44.994 119.447-0.91z"></path>
</symbol>
<symbol id="icon-icon_thumb-down" viewBox="0 0 1024 1024">
	<title>icon_thumb-down</title>
	<path class="path1" d="M447.914 975.159c-26.476-123.179-161.143-279.456-231.551-348.473-69.786-68.439-64.299-158.047-165.435-158.047v-368.822c194.291 0 144.923-99.824 561.13-99.824 244.238 0 313.453 73.030 313.453 106.226 0 33.246-22.040 39.022-22.040 61.185s68.215 29.276 68.215 82.961c0 53.689-50.611 62.095-50.611 80.862 0 18.72 51.995 16.527 51.995 83.68 0 67.059-66.55 53.729-66.55 74.172 0 20.447 17.799 24.457 17.799 77.756 0 33.007-27.386 68.638-114.151 62.717-85.916-5.87-126.654-13.948-227.591-25.692-83.77-9.747-88.535 66.336-57.291 133.395 36.349 77.994 84.861 167.411 42.075 238.812-26.429 44.083-101.75 81.531-119.447-0.907z"></path>
</symbol>
<symbol id="icon-icon_time" viewBox="0 0 1024 1024">
	<title>icon_time</title>
	<path class="path1" d="M763.423 557.333h-292.779v-403.383h86.7v316.683h206.079z"></path>
	<path class="path2" d="M512 86.357c113.696 0 220.583 44.275 300.979 124.667 80.393 80.393 124.667 187.279 124.667 300.972 0 113.696-44.275 220.583-124.667 300.979-80.393 80.393-187.283 124.667-300.979 124.667-113.693 0-220.583-44.275-300.976-124.667-80.396-80.393-124.671-187.283-124.671-300.979 0-113.693 44.275-220.579 124.671-300.972 80.393-80.393 187.283-124.667 300.976-124.667zM512-0.007c-282.772 0-512.011 229.231-512.011 512.004 0 282.779 229.239 512.011 512.011 512.011 282.779 0 512.011-229.231 512.011-512.011 0-282.772-229.231-512.004-512.011-512.004v0z"></path>
</symbol>
<symbol id="icon-icon_tram-live" viewBox="0 0 1024 1024">
	<title>icon_tram-live</title>
	<path fill="rgb(106, 137, 37)" class="path1 fill-color3" d="M1024.007 512c0 282.774-229.233 512.007-512.007 512.007s-512.007-229.233-512.007-512.007c0-282.774 229.233-512.007 512.007-512.007s512.007 229.233 512.007 512.007z"></path>
	<path fill="rgb(80, 103, 28)" class="path2 fill-color1" d="M512 36.118c127.113 0 246.618 49.499 336.501 139.381s139.381 209.388 139.381 336.501-49.502 246.618-139.381 336.501c-89.883 89.883-209.388 139.381-336.501 139.381s-246.618-49.499-336.501-139.381c-89.883-89.883-139.381-209.388-139.381-336.501s49.499-246.618 139.381-336.501c89.883-89.883 209.388-139.381 336.501-139.381zM512-0.007c-282.776 0-512.007 229.231-512.007 512.007s229.235 512.007 512.007 512.007 512.007-229.235 512.007-512.007c0-282.776-229.231-512.007-512.007-512.007v0z"></path>
	<path fill="rgb(255, 255, 255)" class="path3 fill-color14" d="M713.307 729.321v-365.712c0-31.129-25.237-113.18-56.366-113.18h-97.505l28.405-59.119h47.786v-30.302h-247.189v30.302h48.281l28.405 59.119h-98.069c-31.129 0-56.366 82.051-56.366 113.18v365.708c0 31.114 25.215 56.341 56.326 56.366l-42.122 58.439h61.644l42.118-58.439h166.684l42.118 58.439h61.64l-42.122-58.439c31.118-0.022 56.33-25.248 56.33-56.362zM469.958 191.311h84.655l-28.405 59.119h-27.842l-28.409-59.119zM422.518 286.403h178.963v30.302h-178.963v-30.302zM350.955 688.406c0-17.022 13.8-30.822 30.822-30.822s30.822 13.8 30.822 30.822c0 17.022-13.8 30.822-30.822 30.822s-30.822-13.8-30.822-30.822zM642.227 719.228c-17.022 0-30.822-13.8-30.822-30.822s13.8-30.822 30.822-30.822 30.822 13.8 30.822 30.822c-0.004 17.022-13.803 30.822-30.822 30.822zM673.045 598.14c0 7.29-3.902 13.659-9.533 15.552-22.441 7.536-81.989 13.652-151.512 13.652s-129.071-6.116-151.512-13.652c-5.632-1.893-9.533-8.262-9.533-15.552v-235.235c0-8.894 5.769-16.105 12.882-16.105h296.326c7.117 0 12.882 7.211 12.882 16.105v235.235z"></path>
</symbol>
<symbol id="icon-icon_tram-withoutBox" viewBox="0 0 1024 1024">
	<title>icon_tram-withoutBox</title>
	<path class="path1" d="M813.77 851.911v-548.215c0-46.666-37.83-169.661-84.493-169.661h-146.162l42.584-88.622h71.632v-45.42h-370.556v45.424h72.376l42.584 88.622h-147.011c-46.666 0-84.496 122.995-84.496 169.661v548.215c0 46.645 37.798 84.457 84.431 84.493l-63.143 87.603h92.404l63.139-87.6h249.87l63.139 87.6h92.404l-63.139-87.603c46.637-0.036 84.435-37.852 84.435-84.496zM448.976 45.413h126.9l-42.584 88.622h-41.735l-42.581-88.622zM377.864 187.962h268.275v45.424h-268.275v-45.424zM270.584 790.582c0-25.515 20.685-46.2 46.2-46.2s46.2 20.685 46.2 46.2c0 25.515-20.685 46.2-46.2 46.2s-46.2-20.685-46.2-46.2zM707.212 836.782c-25.515 0-46.2-20.685-46.2-46.2s20.685-46.2 46.2-46.2c25.515 0 46.2 20.685 46.2 46.2 0.004 25.515-20.682 46.2-46.2 46.2zM753.416 655.268c0 10.928-5.849 20.476-14.291 23.311-33.643 11.296-122.908 20.465-227.125 20.465-104.221 0-193.486-9.169-227.125-20.465-8.442-2.836-14.291-12.384-14.291-23.311v-352.627c0-13.334 8.648-24.142 19.312-24.142h444.204c10.668 0 19.312 10.809 19.312 24.142v352.627z"></path>
</symbol>
<symbol id="icon-icon_tram" viewBox="0 0 1024 1024">
	<title>icon_tram</title>
	<path fill="rgb(106, 137, 37)" class="path1 fill-color3" d="M921.607 1024.025h-819.214c-56.554 0-102.4-45.846-102.4-102.4v-819.251c0-56.554 45.846-102.4 102.4-102.4h819.214c56.554 0 102.4 45.846 102.4 102.4v819.247c0 56.557-45.846 102.404-102.4 102.404z"></path>
	<path fill="rgb(255, 255, 255)" class="path2 fill-color14" d="M753.416 783.974v-438.572c0-37.332-30.266-135.729-67.597-135.729h-116.929l34.066-70.899h57.305v-36.335h-296.438v36.338h57.901l34.066 70.899h-117.609c-37.332 0-67.597 98.397-67.597 135.729v438.572c0 37.317 30.237 67.568 67.547 67.594l-50.514 70.083h73.923l50.51-70.083h199.894l50.51 70.083h73.923l-50.514-70.083c37.317-0.033 67.554-30.284 67.554-67.597zM461.58 138.774h101.519l-34.066 70.899h-33.387l-34.066-70.899zM404.691 252.814h214.619v36.338h-214.619v-36.338zM318.868 734.909c0-20.414 16.549-36.963 36.963-36.963s36.963 16.549 36.963 36.963c0 20.414-16.549 36.963-36.963 36.963s-36.963-16.549-36.963-36.963zM668.172 771.873c-20.414 0-36.963-16.549-36.963-36.963s16.549-36.963 36.963-36.963c20.414 0 36.963 16.549 36.963 36.963-0.004 20.414-16.552 36.963-36.963 36.963zM705.132 626.661c0 8.742-4.678 16.383-11.43 18.651-26.913 9.038-98.325 16.372-181.702 16.372s-154.789-7.337-181.702-16.372c-6.755-2.269-11.43-9.909-11.43-18.651v-282.1c0-10.668 6.918-19.312 15.451-19.312h355.362c8.533 0 15.451 8.648 15.451 19.312v282.1z"></path>
</symbol>
<symbol id="icon-icon_under-construction" viewBox="0 0 1024 1024">
	<title>icon_under-construction</title>
	<path class="path1" d="M259.114 310.509l112.381 300.083-126.062 47.212c-16.224 6.076-24.449 24.153-18.373 40.373l55.763 148.897c3.818-3.941 7.427-8.19 11.231-13.077 23.864-30.656 55.452-60.6 128.739-28.015 43.809 19.5 126.214-12.824 168.126-40.753 38.585-25.717 91.418-19.717 119.487-13.821 3.287 0.69 6.755 1.636 10.162 2.493l-79.005-210.956c-6.076-16.224-24.153-24.449-40.377-18.373l-126.062 47.212-111.030-296.471c47.15-66.181 30.020-191.77 24.691-223.672 1.145-14.602-4.443-29.019-15.559-39.138-13.359-12.152-32.177-15.769-49.094-9.432l-208.86 78.222c-16.917 6.336-28.723 21.411-30.811 39.358-1.756 15.053 3.613 29.724 14.248 39.994 20.060 31.472 86.559 127.565 160.406 149.865zM326.531 71.101c10.158 68.381 7.886 164.438-29.211 178.331-33.329 12.481-98.986-55.799-138.879-115.38l168.090-62.951z"></path>
	<path class="path2" d="M1.727 1024h1020.546c0 0-14.79-88.745-81.346-103.534s-118.949-36.566-140.508-70.256c-29.583-46.222-140.508-77.651-184.881-48.068s-144.207 73.952-210.764 44.372-62.865 11.094-99.842 40.673c-36.978 29.583-129.418 62.861-155.301 59.162s-147.903-14.79-147.903 77.651z"></path>
</symbol>
<symbol id="icon-icon_user" viewBox="0 0 1024 1024">
	<title>icon_user</title>
	<path class="path1" d="M512-0.007c-282.772 0-512.011 229.231-512.011 512.004 0 282.776 229.239 512.011 512.011 512.011 282.776 0 512.011-229.231 512.011-512.011 0-282.772-229.231-512.004-512.011-512.004zM838.263 817.986c-23.311-60.412-136.054-132.998-224.712-162.357-4.537-1.478-33.174-14.389-15.281-68.782h-0.249c46.641-48.032 82.293-125.386 82.293-201.516 0-117.023-77.842-178.375-168.288-178.375-90.504 0-167.898 61.351-167.898 178.375 0 76.422 35.453 154.080 82.376 202.018 18.283 47.963-14.417 65.762-21.263 68.28-86.877 31.418-199.616 104.763-217.729 164.268-79.302-83.463-122.836-192.333-122.836-307.901 0-119.48 46.529-231.811 131.018-316.3 84.489-84.486 196.82-131.015 316.304-131.015s231.818 46.529 316.304 131.015c84.486 84.486 131.015 196.816 131.015 316.3 0.007 114.693-42.888 222.779-121.051 305.99z"></path>
</symbol>
<symbol id="icon-icon_wait" viewBox="0 0 1024 1024">
	<title>icon_wait</title>
	<path class="path1" d="M805.48 115.524c58.938 0 108.317 49.379 108.317 108.317 0 60.531-49.379 108.317-108.317 108.317s-108.317-47.786-108.317-108.317c0-58.938 49.379-108.317 108.317-108.317z"></path>
	<path class="path2" d="M789.032 897.194c-1.705 0-138.236-0.072-138.236-0.072-19.616 0-35.518-15.917-35.518-35.543 0-19.63 15.902-35.543 35.518-35.543l137.221 0.065c8.576 0.325 74.006 0.177 94.369-79.244 28.228-110.102 48.888-218.148 49.090-219.225 3.67-19.276 22.264-31.949 41.54-28.261 19.273 3.67 31.916 22.278 28.246 41.565-0.21 1.098-21.263 111.247-50.066 223.585-18.514 72.199-62.865 104.578-96.815 119.028-28.474 12.12-54.206 13.644-65.35 13.644z"></path>
	<path class="path3" d="M907.172 433.58c-7.268-39.727-50.037-73.323-104.34-64.425-43.924 7.196-70.469 128.804-85.988 215.074-14.035 3.331-134.298 34.127-152.979 39.337-17.297 4.888-28.622 22.21-25.497 40.33 0.311 1.81 0.798 3.547 1.366 5.245-15.003 1.113-28.914 3.688-41.042 8.8-40.814 17.206-39.965 51.41-39.962 115.044h-0.004v231.023h118.002v-228.39c41.168 0.018 156.374 0.058 210.558 0.058 55.531 0 67.33-60.824 77.698-115.517 5.119-26.978 50.781-199.612 42.187-246.579z"></path>
	<path class="path4" d="M290.705-0.007c-148.329 0-268.604 120.332-268.604 268.763 0 148.427 120.275 268.785 268.604 268.785 148.376 0 268.626-120.358 268.626-268.785 0-148.434-120.249-268.763-268.626-268.763zM290.684 464.232c-107.858 0-195.321-87.495-195.321-195.447 0-107.927 87.462-195.422 195.321-195.422 107.898 0 195.321 87.495 195.321 195.422 0 107.952-87.419 195.447-195.321 195.447z"></path>
	<path class="path5" d="M355.015 194.186c-13.482 13.301-26.92 26.649-40.384 39.951 0-30.753 0-61.528 0-92.234 0-30.872-47.808-30.872-47.808 0 0 49.39 0 98.824 0 148.188-0.025 1.185 0.047 2.341 0.217 3.504 0.82 10.375 7.261 16.943 15.27 19.573 7.554 3.356 16.552 2.923 24.298-4.053 0.26-0.217 0.502-0.408 0.769-0.654 0.072-0.047 0.17-0.094 0.217-0.166 27.065-26.772 54.151-53.516 81.191-80.31 22.004-21.679-11.816-55.499-33.77-33.799z"></path>
</symbol>
<symbol id="icon-icon_walk" viewBox="0 0 1024 1024">
	<title>icon_walk</title>
	<path class="path1" d="M683.771 110.16c0 60.843-49.323 110.167-110.167 110.167s-110.167-49.323-110.167-110.167c0-60.843 49.323-110.167 110.167-110.167s110.167 49.323 110.167 110.167z"></path>
	<path class="path2" d="M779.838 527.252l-111.175-74.096-76.394-186.355c-1.109-2.655-2.594-5.437-4.313-7.893-5.813-8.294-14.175-13.713-23.283-16.011-6.405-2.615-13.301-4.086-20.4-4.086h-64.212c-7.612 0-14.873 1.629-21.491 4.505-5.567 1.615-10.884 4.393-15.512 8.482l-144.717 127.933c-6.391 5.668-10.791 13.623-11.827 22.777l-0.116 1.008c-0.079 0.596-0.148 1.196-0.202 1.795l-18.987 167.411c-1.828 16.596 9.223 32.314 25.902 35.771 17.716 3.67 35.056-7.713 38.726-25.428l30.963-149.391 47.262-30.901-52.381 373.948-117.132 161.45c-17.535 24.171-12.156 57.984 12.015 75.519 9.591 6.961 20.7 10.31 31.711 10.31 16.729 0 33.235-7.745 43.812-22.325l124.454-171.543c4.248-5.621 7.442-12.138 9.244-19.291l25.020-93.593 54.809 80.158 100.041 197.001c9.537 18.781 28.539 29.601 48.256 29.601 8.233 0 16.596-1.889 24.439-5.87 26.628-13.522 37.252-46.070 23.731-72.698l-101.211-199.309c-0.249-0.509-0.506-1.015-0.769-1.517l-102.599-202.036 30.396-113.711 35.038 68.023 0.246 0.603c3.024 7.348 8.623 13.677 16.296 17.495l0.296 0.148c1.358 0.769 2.749 1.474 4.18 2.081l128.641 64.014c13.886 6.929 31.089 2.605 39.918-10.646 9.566-14.363 5.686-33.762-8.674-43.332z"></path>
</symbol>
<!--
  Custom icons (not from Ville below)
-->
<radialGradient id="mapMarker-white" cx="50%" cy="50%" r="70%">
	<stop offset="0%" stop-color="rgb(255,255,255)" stop-opacity="1" />
	<stop offset="25%" stop-color="rgb(255,255,255)" stop-opacity="1" />
	<stop offset="70%" stop-color="rgb(255,255,255)" stop-opacity="0" />
</radialGradient>
<symbol id="icon-icon_realtime" viewBox="0 0 1024 1024">
	<title>icon_realtime</title>
	<path class="path1" d="M368.356 1024.014c-44.781 0-81.079-36.302-81.079-81.079 0-361.528 294.123-655.658 655.651-655.658 44.781 0 81.079 36.302 81.079 81.079s-36.298 81.079-81.079 81.079c-272.112 0-493.497 221.385-493.497 493.5 0.004 44.773-36.295 81.079-81.075 81.079z">
		<animate values="1; 1; 0; 1; 1; 1" keyTimes="0;0.2;0.4;0.6;0.8;1" attributeName="opacity" dur="2s" repeatCount="indefinite"/>
	</path>
	<path class="path2" d="M81.072 1024.014c-44.781 0-81.079-36.302-81.079-81.079 0-519.948 423.002-942.946 942.939-942.946 44.781 0 81.079 36.302 81.079 81.079s-36.298 81.079-81.079 81.079c-430.524 0-780.781 350.257-780.781 780.788 0 44.773-36.298 81.079-81.079 81.079z">
		<animate values="1; 1; 0; 0; 1; 1" keyTimes="0;0.2;0.4;0.6;0.8;1" attributeName="opacity" dur="2s" repeatCount="indefinite"/>
	</path>
</symbol>
<symbol id="icon-icon_mapMarker-station" viewBox="0 0 2348 2348">
	<title>icon_mapMarker-station</title>
	<circle key="halo" class="stop-halo" cx="1174" cy="1174" r="1135" stroke-width="78" stroke="#333" stroke-opacity="0.4" fill="#fff" fill-opacity="1"/>
	<circle fill="currentColor" fill-opacity="1" cx="1174" cy="1174" r="980"/>
	<use x="657" y="657" width="1024" height="1024" class="fill-color14" fill="#fff" xlink:href="#icon-icon_station"/>
</symbol>
<symbol id="icon-icon_mapMarker-location-animated" viewBox="0 0 2248 2248">
	<title>icon_mapMarker-location-animated</title>
	<circle fill="rgb(61, 183, 228)" cx="1124" cy="1124" r="340"/>
	<circle cx="1124" cy="1124" r="732" stroke-width="784" fill="none" stroke="url(#mapMarker-white)" />
	<circle stroke-width="70" r="340" cx="1124" fill="rgba(0,0,0,0)" stroke="rgba(61, 183, 228, 0.1)" cy="1124" id="circle_pink_first">
		<animate from="340" attributeName="r" to="1079" dur="2.4s" repeatCount="indefinite"/>
		<animate values="rgba(61, 183, 228, 1) ;rgba(61, 183, 228, 0.4) ; rgba(61, 183, 228, 0.1) ; rgba(61, 183, 228, 0.0)" keyTimes="0;0.5;0.75;1" attributeName="stroke" dur="2.4s" repeatCount="indefinite"/>
		<animate values="50 ; 150" attributeName="stroke-width" dur="2.4s" keyTimes="0;1" begin="0s" repeatCount="indefinite"/>
	</circle>
	<circle stroke-width="70" r="340" cx="1124" fill="rgba(0,0,0,0)" stroke="rgba(61, 183, 228, 0.1)" cy="1124" id="circle_pink_second">
		<animate from="340" attributeName="r" to="1079" dur="2.4s" repeatCount="indefinite" begin="0.6s"/>
		<animate values="rgba(61, 183, 228, 1) ;rgba(61, 183, 228, 0.4) ; rgba(61, 183, 228, 0.1) ; rgba(61, 183, 228, 0.0)" keyTimes="0;0.5;0.75;1" attributeName="stroke" dur="2.4s" repeatCount="indefinite" begin="0.6s"/>
		<animate values="50 ; 150" attributeName="stroke-width" dur="2.4s" keyTimes="0;1" begin="0.6s" repeatCount="indefinite"/>
	</circle>
	<circle stroke-width="70" r="340" cx="1124" fill="rgba(0,0,0,0)" stroke="rgba(61, 183, 228, 0.1)" cy="1124" id="circle_pink_third">
		<animate from="340" attributeName="r" to="1079" dur="2.4s" repeatCount="indefinite" begin="1.2s"/>
		<animate values="rgba(61, 183, 228, 1) ;rgba(61, 183, 228, 0.4) ; rgba(61, 183, 228, 0.1) ; rgba(61, 183, 228, 0.0)" keyTimes="0;0.5;0.75;1" attributeName="stroke" dur="2.4s" repeatCount="indefinite" begin="1.2s"/>
		<animate values="50 ; 150" attributeName="stroke-width" dur="2.4s" keyTimes="0;1" begin="1.2s" repeatCount="indefinite"/>
	</circle>
	<circle stroke-width="70" r="340" cx="1124" fill="rgba(0,0,0,0)" stroke="rgba(61, 183, 228, 0.1)" cy="1124" id="circle_pink_fourth">
		<animate from="340" attributeName="r" to="1079" dur="2.4s" repeatCount="indefinite" begin="1.8s"/>
		<animate values="rgba(61, 183, 228, 1) ;rgba(61, 183, 228, 0.4) ; rgba(61, 183, 228, 0.1) ; rgba(61, 183, 228, 0.0)" keyTimes="0;0.5;0.75;1" attributeName="stroke" dur="2.4s" repeatCount="indefinite" begin="1.8s"/>
		<animate values="50 ; 150" attributeName="stroke-width" dur="2.4s" keyTimes="0;1" begin="1.8s" repeatCount="indefinite"/>
	</circle>
	<use x="850" y="830" width="550" height="550" class="fill-color14" xlink:href="#icon-icon_user" fill="#fff"/>
</symbol>
<symbol id="icon-icon_no_route_found" viewBox="0 0 283.46 283.46" enable-background="new 0 0 283.46 283.46">
  <g id="bkg" display="none"> </g>
  <g id="picto">
    <g>
      <path fill-rule="evenodd" clip-rule="evenodd" fill="#CCCCCC" d="M258.146,106.881c13.982,0,25.316,11.107,25.316,24.809
          c0,13.701-25.316,45.482-25.316,45.482s-25.316-31.781-25.316-45.482C232.83,117.988,244.164,106.881,258.146,106.881z"/>
      <g>
        <path fill="#FFFFFF" d="M249.904,124.683c0-1.28,1.012-2.291,2.291-2.291h7.379c2.38,0,4.255,0.655,5.445,1.845
            c0.952,0.952,1.428,2.113,1.428,3.541v0.06c0,2.351-1.25,3.66-2.738,4.493c2.41,0.922,3.898,2.321,3.898,5.118v0.06
            c0,3.809-3.095,5.713-7.796,5.713h-7.617c-1.28,0-2.291-1.012-2.291-2.291V124.683z M258.592,130.812
            c2.023,0,3.303-0.655,3.303-2.202v-0.059c0-1.369-1.071-2.142-3.005-2.142h-4.523v4.404H258.592z M259.812,139.203
            c2.023,0,3.243-0.714,3.243-2.262v-0.059c0-1.399-1.042-2.262-3.392-2.262h-5.296v4.582H259.812z"/>
      </g>
      <path fill-rule="evenodd" clip-rule="evenodd" fill="#CCCCCC" d="M25.314,106.881c13.982,0,25.316,11.107,25.316,24.809
          c0,13.701-25.316,45.482-25.316,45.482S-0.002,145.39-0.002,131.689C-0.002,117.988,11.332,106.881,25.314,106.881z"/>
      <g>
        <path fill="#FFFFFF" d="M15.256,140.274l7.26-16.395c0.506-1.131,1.428-1.815,2.678-1.815h0.268c1.25,0,2.142,0.684,2.648,1.815
            l7.26,16.395c0.149,0.327,0.238,0.625,0.238,0.922c0,1.22-0.952,2.202-2.172,2.202c-1.071,0-1.785-0.625-2.202-1.577
            l-1.398-3.273h-9.165l-1.458,3.422c-0.387,0.893-1.16,1.428-2.113,1.428c-1.19,0-2.113-0.952-2.113-2.142
            C14.988,140.929,15.107,140.601,15.256,140.274z M28.14,134.502l-2.886-6.873l-2.887,6.873H28.14z"/>
      </g>
      <g>
        <path fill="#DC0451" d="M138.913,158.592c-2.852,0-4.959-2.108-5.331-4.959l-1.24-10.663c-0.496-3.348,1.488-5.827,4.835-6.199
            c11.655-1.116,18.102-5.579,18.102-13.39v-0.248c0-6.943-5.331-11.779-14.258-11.779c-6.571,0-11.903,2.356-16.862,6.819
            c-1.24,0.992-2.852,1.736-4.587,1.736c-3.844,0-6.943-3.1-6.943-6.819c0-1.86,0.744-3.844,2.48-5.331
            c6.571-6.199,14.878-10.291,26.285-10.291c17.358,0,29.136,9.671,29.136,25.169v0.248c0,15.622-11.283,22.689-25.045,25.045
            l-0.496,5.703c-0.496,2.728-2.48,4.959-5.331,4.959H138.913z M138.913,167.643c5.083,0,8.803,3.72,8.803,8.555v1.24
            c0,4.835-3.72,8.555-8.803,8.555s-8.803-3.72-8.803-8.555v-1.24C130.11,171.362,133.83,167.643,138.913,167.643z"/>
      </g>
      <path fill-rule="evenodd" clip-rule="evenodd" fill="#CCCCCC" d="M107.409,181.528H43.266c-1.697,0-3.074-1.376-3.074-3.074
          v-0.179c0-1.697,1.376-3.074,3.074-3.074h64.144c1.697,0,3.074,1.376,3.074,3.074v0.179
          C110.483,180.152,109.107,181.528,107.409,181.528z"/>
      <path fill-rule="evenodd" clip-rule="evenodd" fill="#CCCCCC" d="M240.194,181.528h-64.144c-1.697,0-3.074-1.376-3.074-3.074
          v-0.179c0-1.697,1.376-3.074,3.074-3.074h64.144c1.697,0,3.074,1.376,3.074,3.074v0.179
          C243.268,180.152,241.892,181.528,240.194,181.528z"/>
    </g>
  </g>
</symbol>
<linearGradient id="fadeGrad" x1="0" x2="0" y1="0" y2="1">
	<stop offset="0" stop-color="#999" stop-opacity="1"/>
	<stop offset="1" stop-color="#999" stop-opacity="0"/>
</linearGradient>
<mask id="fadeMask" maskContentUnits="objectBoundingBox" x="0" y="0" width="1" height="1">
	<rect x="0" y="0" width="1" height="1" fill="url(#fadeGrad)"/>
</mask>
<symbol id="icon-icon_vehicle-live-shadow" viewBox="0 0 1024 1024">
	<title>icon_vehicle-live-shadow</title>
	<path fill="url(#fadeGrad)" class="path1" d="M693.568 516.62c0-97.725-79.222-176.948-176.948-176.948s-176.948 79.222-176.948 176.948c0 0.509 0.036 1.012 0.040 1.521-0.004 0.47-0.040 0.936-0.040 1.405 0 90.208 79.222 509.074 176.948 509.074s176.948-418.862 176.948-509.074c0-0.47-0.036-0.936-0.036-1.405 0-0.509 0.036-1.012 0.036-1.521z"></path>
</symbol>
<symbol id="icon-icon_home" viewBox="0 0 283.46 283.46" enable-background="new 0 0 283.46 283.46">
	<title>icon_home</title>
	<g id="bkg" display="none">
	</g>
	<g id="picto">
		<g>
			<path d="M278.166,125.471c9.757,9.757,1.857,26.481-11.618,26.481h-26.023v131.511H43.028V151.951H17.005
				c-13.94,0-21.375-16.723-11.618-26.481L123.885,6.97c9.761-9.296,26.023-9.296,35.784,0L278.166,125.471z M105.762,188.666
				v-34.385H73.699v34.385H105.762z M105.762,243.964V209.58H73.699v34.385H105.762z M158.738,188.666v-34.385h-32.063v34.385
				H158.738z M158.738,243.964V209.58h-32.063v34.385H158.738z"/>
		</g>
	</g>
</symbol>
<symbol id="icon-icon_school" viewBox="0 0 283.46 283.46" enable-background="new 0 0 283.46 283.46">
	<title>icon_school</title>
	<g id="bkg" display="none">
	</g>
	<g id="picto">
		<path d="M270.033,68.188L154.071,4.936c-7.693-4.195-16.988-4.195-24.681,0L13.427,68.188
			C5.149,72.703-0.002,81.381-0.002,90.812v177.974c0,7.116,5.769,12.885,12.885,12.885h257.695c7.116,0,12.885-5.769,12.885-12.885
			V90.812C283.462,81.381,278.311,72.703,270.033,68.188z M66.568,234.51H36.505v-42.95h30.063V234.51z M66.568,158.727H36.505
			v-42.948h30.063V158.727z M126.698,234.51H96.633v-42.95h30.065V234.51z M126.698,158.727H96.633v-42.948h30.065V158.727z
			 M119.542,58.251c0-12.254,9.934-22.188,22.188-22.188s22.188,9.934,22.188,22.188s-9.934,22.187-22.188,22.187
			S119.542,70.505,119.542,58.251z M186.827,234.51h-30.065v-42.95h30.065V234.51z M186.827,158.727h-30.065v-42.948h30.065V158.727z
			 M246.955,234.51h-30.063v-42.95h30.063V234.51z M246.955,158.727h-30.063v-42.948h30.063V158.727z"/>
	</g>
</symbol>
<symbol id="icon-icon_work" viewBox="0 0 283.46 283.46" enable-background="new 0 0 283.46 283.46">
	<g id="bkg" display="none">
	</g>
	<g id="picto">
		<g>
			<path d="M0.005,89.228c0,0-0.939-18.83,18.363-18.83h75.807V51.561c-0.471-12.239,7.062-18.83,18.834-18.83h56.973
				c13.186,0,18.363,7.534,18.363,18.363v19.305h75.335c0,0,19.776-0.943,19.776,18.83v36.258
				c-44.259,21.658-98.879,32.019-142.666,32.019c-49.439,0-98.879-8.951-140.784-31.552V89.228z M283.455,231.898
				c0,0,0.943,18.83-19.305,18.83H17.896c0,0-17.891,0.475-17.891-18.83v-89.935c35.786,18.363,86.164,30.134,140.784,30.134
				c50.849,0,106.412-13.649,142.666-31.544V231.898z M111.127,70.398h58.854V58.627c0-6.123-1.881-10.361-9.886-10.361h-38.139
				c-7.062-0.467-10.829,4.238-10.829,8.951V70.398z M156.328,133.962c0-7.534-6.123-14.124-14.124-14.124
				c-7.534,0-14.128,6.591-14.128,14.124c0,8.001,6.595,14.124,14.128,14.124C150.205,148.087,156.328,141.963,156.328,133.962z
				 M156.328,197.526c0-8.009-6.123-14.124-14.124-14.124c-7.534,0-14.128,6.116-14.128,14.124c0,7.534,6.595,14.124,14.128,14.124
				C150.205,211.65,156.328,205.059,156.328,197.526z"/>
		</g>
	</g>
</symbol>
<symbol id="icon-icon_sport" viewBox="0 0 283.46 283.46" enable-background="new 0 0 283.46 283.46">
	<g id="bkg" display="none">
	</g>
	<g id="picto">
		<g transform="translate(0,-952.36216)">
			<path d="M40.038,994.883c-22.913,23.385-36.85,54.093-39.685,86.927c7.559,1.417,16.535,1.182,26.929-0.949
				c19.606-4.724,42.991-17.008,63.779-36.14c20.787-19.134,34.96-41.102,40.866-60.473c4.016-12.519,4.488-23.386,2.126-31.889
				c-35.433,1.889-68.976,17.007-94.015,42.518L40.038,994.883z M0.118,1102.125c4.016,67.559,54.803,122.833,121.652,132.283
				c0.472-8.741,2.126-17.953,4.961-27.166c8.268-26.692,26.456-54.802,52.677-78.896c26.22-24.095,55.511-39.92,82.912-46.062
				c6.85-1.654,13.701-2.363,20.551-2.599c-7.086-67.558-60.472-120.707-128.03-127.084c1.89,11.811,0.472,24.802-3.543,37.558
				c-7.559,23.622-23.622,48.189-46.535,69.448c-23.149,21.26-48.897,35.433-72.991,40.866
				C20.905,1102.833,10.039,1103.542,0.118,1102.125L0.118,1102.125z M188.619,1147.242c-21.496,21.024-36.142,44.882-42.755,65.905
				c-2.362,8.267-3.78,15.827-4.016,22.677c74.408-0.233,136.061-57.401,141.494-131.574c0-1.417,0-3.07,0-4.487
				c-5.197,0.233-10.866,0.949-16.771,2.126c-22.913,5.196-49.606,19.369-73.464,41.338
				C191.454,1144.644,190.037,1146.062,188.619,1147.242z"/>
		</g>
	</g>
</symbol>
<symbol id="icon-icon_shopping" viewBox="0 0 283.46 283.46" enable-background="new 0 0 283.46 283.46">
	<g id="bkg" display="none">
	</g>
	<g id="picto">
		<g>
			<path d="M141.415,106.297c9.788,0,17.717-7.928,17.717-17.717V17.714c0-9.788-7.928-17.717-17.717-17.717
				c-9.788,0-17.717,7.928-17.717,17.717V88.58C123.699,98.369,131.627,106.297,141.415,106.297z"/>
			<path d="M265.662,88.58h-88.583c0,19.586-15.883,35.433-35.433,35.433c-19.586,0-35.433-15.847-35.433-35.433
				H17.621c-9.788,0-19.656,8.584-16.468,22.73l34.193,154.435c2.976,9.824,7.928,17.717,17.717,17.717h177.165
				c9.788,0,14.324-7.299,17.717-17.717l34.051-153.912C286.151,98.271,275.459,88.58,265.662,88.58z"/>
		</g>
	</g>
</symbol>
<symbol id="icon-icon_search-plus" viewBox="0 0 283.46 283.46" enable-background="new 0 0 283.46 283.46">
	<g id="bkg" display="none">
	</g>
	<g id="picto">
		<g>
			<path d="M252.955,278.402l-72.063-72.062l25.447-25.448l72.063,72.063c7.023,7.023,7.023,18.409,0,25.432
				l-0.015,0.015C271.364,285.425,259.978,285.425,252.955,278.402z"/>
			<path d="M120.904,35.779c46.938,0,85.125,38.187,85.125,85.125c0,46.937-38.187,85.124-85.125,85.124
				s-85.125-38.186-85.125-85.124C35.779,73.966,73.966,35.779,120.904,35.779 M120.904-0.209
				C54.015-0.209-0.209,54.015-0.209,120.904s54.224,121.112,121.113,121.112s121.113-54.223,121.113-121.112
				S187.793-0.209,120.904-0.209L120.904-0.209z"/>
			<path d="M64.211,120.904L64.211,120.904c0-7.828,6.346-14.173,14.173-14.173h85.039
				c7.828,0,14.173,6.346,14.173,14.173v0c0,7.828-6.346,14.173-14.173,14.173H78.384C70.556,135.077,64.211,128.731,64.211,120.904z
				"/>
			<path d="M120.904,64.211L120.904,64.211c7.828,0,14.173,6.346,14.173,14.173v85.039
				c0,7.828-6.346,14.173-14.173,14.173h0c-7.828,0-14.173-6.346-14.173-14.173V78.384C106.731,70.556,113.076,64.211,120.904,64.211
				z"/>
		</g>
	</g>
</symbol>
</defs>
</svg>
