<svg style="position: absolute; width: 0; height: 0;" width="0" height="0" version="1.1" xmlns="http://www.w3.org/2000/svg" xmlns:xlink="http://www.w3.org/1999/xlink">
<defs>
<symbol id="icon-icon_citybike-withoutBox" viewBox="0 0 1024 1024">
	<title>icon_citybike-withoutBox</title>
	<path class="path1" d="M644.64 564.233c4.761-18.843 13.522-36.978 23.929-53.14l30.652 35.699c-2.904 5.719-6.376 12.936-8.027 17.441h-46.554z"></path>
	<path class="path2" d="M194.27 809.659c-4.414 0-8.843-0.148-13.287-0.459-51.688-3.486-98.95-26.906-133.099-65.953-34.098-39.011-50.969-88.976-47.432-140.7 6.82-101.479 91.805-180.99 193.395-180.99 4.404 0 8.858 0.137 13.308 0.408 9.826 0.683 19.623 2.11 29.164 4.216l-16.636 41.826c-5.159-0.892-10.357-1.499-15.555-1.835-3.435-0.26-6.885-0.361-10.285-0.361-78.384 0-143.962 61.362-149.261 139.721-2.717 39.893 10.26 78.456 36.631 108.624 26.321 30.143 62.814 48.216 102.743 50.882 3.472 0.26 6.947 0.397 10.393 0.397 78.359 0 143.875-61.376 149.149-139.757 2.507-37.075-7.778-72.293-30.677-101.342l18.63-46.305c2.717 2.778 6.177 6.983 8.731 9.934 34.088 39.011 50.969 89.001 47.457 140.7-6.835 101.522-91.768 180.994-193.37 180.994z"></path>
	<path class="path3" d="M824.070 636.624l-274.008 0.076 16.484-44.271h213.513l-132.030-172.58 20.902-47.161 173.462 228.487c7.395 9.674 5.531 23.543-4.129 30.984-2.579 1.972-5.78 3.277-9.689 3.97l-3.797 0.571-0.708-0.076z"></path>
	<path class="path4" d="M253.634 365.56c-8.338 18.344-11.932 30.255-34.445 28.777-10.744-0.719-17.972-1.055-27.946-2.467-18.359-2.641-26.841-11.661-37.906-28.058-10.83-16.101-33.018-49.618-48.538-74.761-6.076-9.848-2.68-21.234 11.585-21.234h179.588c-6.802 17.253-33.979 79.363-42.339 97.743z"></path>
	<path class="path5" d="M550.029 638.196h-51.157c-28.853 0-37.028-22.090-41.392-33.961-10.567-28.456-29.211-79.114-40.662-113.349-30.963-92.585-50.622-92.585-80.378-92.585-13.67 0-24.746-11.101-24.746-24.782 0-13.67 11.076-24.76 24.746-24.76 57.666 0 91.432 18.915 127.366 126.412 11.213 33.553 29.659 83.64 39.633 110.521 0.423 1.116 0.769 2.095 1.066 2.951h45.525c13.655 0 24.76 11.101 24.76 24.785s-11.105 24.767-24.76 24.767z"></path>
	<path class="path6" d="M541.995 636.696l-1.85-2.706-0.137 2.568h-0.56c-8.522 0-15.245-3.696-19.265-9.837l-0.311-2.11 15.107-48.44 125.928-281.974h-40.861c-20.046 0-36.345-16.3-36.345-36.345l-0.036-2.507h185.964v2.507c0 20.046-16.325 36.345-36.382 36.345h-23.843l-134.884 301.796-15.407 39.109-2.319 1.586h-14.8z"></path>
	<path class="path7" d="M312.94 406.269c-2.966 0-5.979-0.582-8.869-1.799-11.683-4.913-17.167-18.359-12.268-30.031l61.402-146.057c3.598-8.511 11.921-14.042 21.151-14.042h59.812c12.676 0 22.936 10.26 22.936 22.921 0 12.676-10.26 22.947-22.936 22.947h-44.582l-55.495 132.004c-3.685 8.775-12.196 14.056-21.151 14.056z"></path>
	<path class="path8" d="M999.229 520.381c0.47 0.831 2.63 4.725 3.078 5.545 14.464 27.798 21.982 58.884 21.693 91.086-0.856 106.092-87.871 192.402-193.941 192.402h-1.701c-51.836-0.423-100.413-20.989-136.755-57.952-23.293-23.705-40.204-53.003-48.834-84.72l46.366-0.036c7.268 20.703 18.359 37.783 34.012 53.736 28.058 28.517 65.545 44.394 105.561 44.755h1.315c81.881 0 149.037-66.662 149.745-148.564 0.199-24.388-5.372-47.942-16.151-69.078l35.612-27.173z"></path>
	<path class="path9" d="M758.532 429.068l105.821 138.135c0 0 124.812-90.179 131.596-95.164 11.723-8.659 9.822-19.934-1.004-27.152-17.9-11.921-53.783-38.69-144.547-38.69-64.046-0.004-91.866 22.871-91.866 22.871z"></path>
	<path class="path10" d="M200.050 631.628c-8.558 0-16.213-4.787-19.934-12.503-2.579-5.271-2.941-11.3-1.004-16.87 1.947-5.581 5.968-10.097 11.314-12.665 20.219-9.786 24.001-18.073 36.703-51.652 9.154-24.337 52.121-130.357 70.48-175.633l1.066-2.619 4.057-0.892 30.638 28.777 0.596 2.778c-20.974 51.8-57.37 141.841-65.469 163.253-13.222 34.955-21.968 57.988-58.833 75.801-3.053 1.492-6.289 2.225-9.613 2.225z"></path>
</symbol>
<symbol id="icon-icon_citybike" viewBox="0 0 1024 1024">
	<title>icon_citybike</title>
	<path fill="rgb(251, 184, 0)" class="path1 fill-color12" d="M0.043 126.755c0-69.114 57.594-126.709 126.709-126.709h767.931c71.676 0 129.27 57.594 129.27 126.709v767.931c0 71.672-57.594 129.27-129.27 129.27h-767.928c-69.114 0-126.709-57.594-126.709-129.27v-767.931z"></path>
	<path fill="rgb(255, 255, 255)" class="path2 fill-color14" d="M618.11 553.786c3.811-15.075 10.816-29.583 19.143-42.512l24.522 28.56c-2.323 4.573-5.101 10.35-6.419 13.951h-37.245z"></path>
	<path fill="rgb(255, 255, 255)" class="path3 fill-color14" d="M257.817 750.129c-3.533 0-7.077-0.119-10.628-0.368-41.352-2.789-79.157-21.523-106.479-52.764-27.278-31.208-40.774-71.181-37.946-112.562 5.458-81.184 73.442-144.793 154.716-144.793 3.522 0 7.084 0.108 10.646 0.329 7.861 0.545 15.7 1.687 23.33 3.374l-13.308 33.463c-4.129-0.715-8.287-1.199-12.445-1.467-2.749-0.21-5.509-0.289-8.226-0.289-62.706 0-115.17 49.090-119.408 111.778-2.175 31.913 8.208 62.767 29.305 86.899 21.057 24.113 50.254 38.571 82.195 40.706 2.778 0.21 5.556 0.318 8.316 0.318 62.684 0 115.102-49.101 119.317-111.807 2.005-29.662-6.221-57.833-24.54-81.075l14.905-37.043c2.175 2.222 4.942 5.585 6.987 7.948 27.271 31.208 40.774 71.199 37.967 112.562-5.48 81.213-73.424 144.793-154.705 144.793z"></path>
	<path fill="rgb(255, 255, 255)" class="path4 fill-color14" d="M761.656 611.698l-219.207 0.061 13.189-35.417h170.81l-105.626-138.063 16.722-37.729 138.767 182.789c5.914 7.742 4.425 18.836-3.305 24.789-2.063 1.579-4.624 2.619-7.749 3.175l-3.038 0.455-0.564-0.061z"></path>
	<path fill="rgb(255, 255, 255)" class="path5 fill-color14" d="M305.307 394.85c-6.669 14.678-9.548 24.204-27.556 23.022-8.594-0.574-14.378-0.842-22.358-1.976-14.685-2.113-21.473-9.327-30.327-22.448-8.663-12.882-26.415-39.694-38.831-59.809-4.862-7.879-2.142-16.99 9.27-16.99h143.669c-5.437 13.807-27.18 63.493-33.867 78.2z"></path>
	<path fill="rgb(255, 255, 255)" class="path6 fill-color14" d="M542.421 612.959h-40.926c-23.080 0-29.623-17.672-33.116-27.17-8.453-22.766-23.369-63.291-32.527-90.681-24.767-74.067-40.496-74.067-64.303-74.067-10.935 0-19.797-8.88-19.797-19.825 0-10.935 8.861-19.807 19.797-19.807 46.135 0 73.146 15.133 101.894 101.128 8.97 26.841 23.727 66.914 31.707 88.416 0.336 0.892 0.614 1.676 0.853 2.363h36.418c10.924 0 19.807 8.883 19.807 19.825 0 10.946-8.88 19.818-19.807 19.818z"></path>
	<path fill="rgb(255, 255, 255)" class="path7 fill-color14" d="M535.994 611.759l-1.478-2.164-0.108 2.056h-0.448c-6.817 0-12.196-2.959-15.411-7.868l-0.249-1.687 12.087-38.751 100.742-225.579h-32.686c-16.036 0-29.077-13.038-29.077-29.077l-0.029-2.005h148.77v2.005c0 16.036-13.059 29.077-29.106 29.077h-19.074l-107.905 241.434-12.326 31.288-1.857 1.272h-11.845z"></path>
	<path fill="rgb(255, 255, 255)" class="path8 fill-color14" d="M352.754 427.417c-2.373 0-4.783-0.466-7.095-1.438-9.349-3.93-13.735-14.688-9.815-24.023l49.119-116.846c2.879-6.806 9.537-11.235 16.921-11.235h47.851c10.14 0 18.348 8.208 18.348 18.337 0 10.14-8.208 18.359-18.348 18.359h-35.666l-44.398 105.604c-2.948 7.015-9.754 11.242-16.917 11.242z"></path>
	<path fill="rgb(255, 255, 255)" class="path9 fill-color14" d="M901.782 518.705c0.376 0.665 2.102 3.782 2.46 4.436 11.571 22.239 17.586 47.107 17.354 72.868-0.686 84.876-70.296 153.922-155.153 153.922h-1.358c-41.468-0.336-80.331-16.791-109.405-46.363-18.637-18.962-32.162-42.404-39.069-67.778l37.093-0.029c5.816 16.563 14.688 30.226 27.209 42.989 22.448 22.813 52.435 35.515 84.449 35.804h1.051c65.506 0 119.231-53.328 119.794-118.851 0.159-19.508-4.295-38.354-12.922-55.264l28.495-21.733z"></path>
	<path fill="rgb(255, 255, 255)" class="path10 fill-color14" d="M709.225 445.653l84.655 110.506c0 0 99.85-72.142 105.276-76.133 9.378-6.925 7.861-15.946-0.802-21.722-14.32-9.537-43.029-30.952-115.636-30.952-51.236 0.004-73.493 18.301-73.493 18.301z"></path>
	<path fill="rgb(255, 255, 255)" class="path11 fill-color14" d="M262.437 607.702c-6.846 0-12.969-3.829-15.946-10.003-2.063-4.216-2.352-9.038-0.802-13.496 1.557-4.465 4.772-8.078 9.049-10.133 16.173-7.828 19.2-14.457 29.362-41.32 7.323-19.471 41.699-104.286 56.384-140.505l0.853-2.095 3.244-0.715 24.511 23.022 0.477 2.222c-16.78 41.439-45.897 113.472-52.374 130.603-10.577 27.964-17.575 46.392-47.067 60.643-2.442 1.192-5.032 1.777-7.691 1.777z"></path>
</symbol>
<symbol id="icon-icon_position" viewBox="0 0 1024 1024">
	<title>icon_position</title>
	<path class="path1" d="M512 57.786c121.322 0 235.383 47.244 321.173 133.034s133.034 199.851 133.034 321.173-47.244 235.383-133.034 321.173c-85.79 85.79-199.851 133.034-321.173 133.034s-235.383-47.244-321.173-133.034c-85.79-85.79-133.034-199.851-133.034-321.173s47.248-235.383 133.034-321.173c85.79-85.786 199.851-133.034 321.173-133.034zM512-0.014c-282.772 0-512.007 229.235-512.007 512.007s229.231 512.007 512.007 512.007 512.007-229.235 512.007-512.007c0-282.772-229.235-512.007-512.007-512.007v0z"></path>
	<path class="path2" d="M512 196.029c174.224 0 315.968 141.74 315.968 315.964s-141.74 315.968-315.968 315.968-315.968-141.744-315.968-315.968 141.744-315.964 315.968-315.964zM512 138.229c-206.426 0-373.768 167.342-373.768 373.764 0 206.426 167.342 373.768 373.768 373.768s373.768-167.342 373.768-373.768c0-206.426-167.342-373.764-373.768-373.764v0z"></path>
	<path class="path3" d="M512 375.516c75.256 0 136.48 61.225 136.48 136.48s-61.225 136.48-136.48 136.48-136.48-61.225-136.48-136.48 61.225-136.48 136.48-136.48zM512 281.591c-127.247 0-230.405 103.155-230.405 230.405s103.155 230.405 230.405 230.405 230.405-103.155 230.405-230.405c0-127.25-103.155-230.405-230.405-230.405v0z"></path>
</symbol>

<symbol id="icon-icon_under-construction" viewBox="0 0 1024 1024">
	<title>icon_under-construction</title>
	<path class="path1" d="M259.114 310.509l112.381 300.083-126.062 47.212c-16.224 6.076-24.449 24.153-18.373 40.373l55.763 148.897c3.818-3.941 7.427-8.19 11.231-13.077 23.864-30.656 55.452-60.6 128.739-28.015 43.809 19.5 126.214-12.824 168.126-40.753 38.585-25.717 91.418-19.717 119.487-13.821 3.287 0.69 6.755 1.636 10.162 2.493l-79.005-210.956c-6.076-16.224-24.153-24.449-40.377-18.373l-126.062 47.212-111.030-296.471c47.15-66.181 30.020-191.77 24.691-223.672 1.145-14.602-4.443-29.019-15.559-39.138-13.359-12.152-32.177-15.769-49.094-9.432l-208.86 78.222c-16.917 6.336-28.723 21.411-30.811 39.358-1.756 15.053 3.613 29.724 14.248 39.994 20.060 31.472 86.559 127.565 160.406 149.865zM326.531 71.101c10.158 68.381 7.886 164.438-29.211 178.331-33.329 12.481-98.986-55.799-138.879-115.38l168.090-62.951z"></path>
	<path class="path2" d="M1.727 1024h1020.546c0 0-14.79-88.745-81.346-103.534s-118.949-36.566-140.508-70.256c-29.583-46.222-140.508-77.651-184.881-48.068s-144.207 73.952-210.764 44.372-62.865 11.094-99.842 40.673-129.418 62.861-155.301 59.162-147.903-14.79-147.903 77.651z"></path>
</symbol>
<symbol id="icon-icon_HSL-logo" viewBox="0 0 1024 1024">
	<title>icon_HSL-logo</title>
	<path class="path1" d="M1023.996 512.043c0 45.084-41.865 77.286-98.217 77.286-1.608 0-45.080-1.611-77.282-32.202l-66.011 159.398c43.473 1.608 75.675 32.202 77.282 33.809 40.254 40.254 45.084 91.776 14.493 122.37-32.202 32.198-83.723 25.761-123.977-12.882-1.611-1.611-32.202-32.202-33.813-78.893l-157.787 66.011c30.591 33.809 30.591 77.282 30.591 78.893 0 56.355-32.198 98.213-77.282 98.213s-77.286-41.862-77.286-98.213c0-1.611 0-45.084 32.202-78.893l-161.009-66.011c0 46.692-30.591 77.282-32.202 78.893-40.254 38.643-91.776 45.080-123.977 12.882-32.202-30.594-25.761-82.116 14.493-122.37 1.608-1.608 32.198-32.202 77.282-33.809l-66.011-159.398c-32.202 30.591-75.675 32.202-77.286 32.202-57.963 0-98.213-32.202-98.213-77.286 0-45.080 40.254-77.282 98.213-77.282 1.611 0 45.084 0 77.286 30.591l66.011-157.787c-45.084-3.219-75.675-32.202-77.282-33.809-40.254-40.254-46.695-91.779-14.493-123.981s83.723-25.761 123.977 14.49c1.611 1.611 32.202 32.202 32.202 77.286l161.009-66.015c-32.202-32.198-32.202-75.675-32.202-77.282 0-57.963 32.202-98.213 77.286-98.213s77.282 40.254 77.282 98.213c0 1.608 0 45.084-30.591 77.282l157.787 66.015c1.611-45.084 32.202-75.675 33.813-77.286 40.254-40.254 91.776-46.692 123.977-14.49 30.591 32.202 25.761 83.723-14.493 123.977-1.608 1.608-33.809 30.591-77.282 33.809l66.011 157.787c32.202-30.591 75.675-30.591 77.282-30.591 56.355 0.004 98.217 32.205 98.217 77.286zM156.161 512.043c-19.32-32.198-56.355-33.809-57.966-33.809-32.202 0-53.133 14.49-53.133 33.809 0 19.323 20.931 32.202 53.133 32.202 1.611 0 38.643-1.608 57.966-32.202zM196.412 241.55c1.611 1.608 27.372 27.372 64.404 19.32 8.052-37.032-17.708-62.793-19.32-66.011-20.931-20.931-46.692-27.372-61.181-12.882-12.882 12.882-6.445 38.643 16.097 59.574zM260.815 763.217c-37.032-9.66-62.793 16.101-64.404 17.712-22.542 22.542-28.979 48.299-16.097 61.181 14.49 12.882 40.251 8.052 61.181-14.49 1.608-1.611 28.979-28.979 19.32-64.404zM729.35 727.796l88.557-215.753-88.557-217.361-217.361-90.164-217.361 90.164-90.168 217.361 90.168 215.753 217.361 90.164 217.361-90.164zM479.787 98.253c0 1.608 0 38.643 32.202 57.963 30.591-19.32 32.202-56.355 32.202-57.963 0-32.202-12.882-53.133-32.202-53.133s-32.202 20.931-32.202 53.133zM544.191 925.837c0-1.611-1.611-40.254-32.202-57.963-32.202 17.708-32.202 56.351-32.202 57.963 0 30.591 12.882 53.133 32.202 53.133s32.202-22.542 32.202-53.133zM763.163 260.873c35.421 8.052 62.793-17.712 64.4-19.32 22.542-20.931 28.983-46.692 14.493-59.574-12.882-14.493-38.643-8.052-61.185 12.882-1.608 3.215-25.757 28.976-17.708 66.011zM827.567 780.929c-1.608-1.611-28.979-27.372-64.4-17.712-8.052 35.421 16.097 62.793 17.708 64.404 22.542 22.542 48.303 27.372 61.185 14.49 14.49-12.879 8.049-38.639-14.493-61.181zM978.916 512.043c0-19.32-22.542-33.809-53.133-33.809-1.608 0-38.643 1.611-57.963 33.809 19.32 30.594 56.355 32.202 57.963 32.202 30.591 0 53.133-12.879 53.133-32.202z"></path>
</symbol>
<symbol id="icon-icon_bus" viewBox="0 0 1024 1024">
	<title>icon_bus</title>
	<path fill="rgb(255, 255, 255)" class="path1 fill-color14" d="M874.388 993.287h-716.811c-67.864 0-122.883-55.015-122.883-122.883v-716.811c0-67.864 55.015-122.883 122.883-122.883h716.811c67.864 0 122.883 55.015 122.883 122.883v716.811c0 67.868-55.018 122.883-122.883 122.883z"></path>
	<path fill="rgb(0, 122, 201)" class="path2 fill-color8" d="M0.033 126.799c0-69.114 57.594-126.709 126.709-126.709h767.931c71.676 0 129.27 57.594 129.27 126.709v767.931c0 71.672-57.594 129.27-129.27 129.27h-767.928c-69.114 0-126.709-57.594-126.709-129.27v-767.931zM513.268 110.16c-106.229 0-198.384 5.119-299.491 19.197-30.717 3.84-48.635 21.758-48.635 48.635v598.985c0 19.197 14.078 31.996 26.877 35.836l38.397 6.398v80.631c0 8.959 7.68 15.36 17.918 15.36h61.434c7.68 0 15.357-6.398 15.357-15.36v-71.672c49.914 6.398 117.75 8.959 185.585 8.959 69.114 0 139.508-2.558 188.146-8.959v71.672c0 8.959 8.959 15.36 16.636 15.36h61.434c10.238 0 17.918-6.398 17.918-15.36v-80.631l38.397-6.398c14.078-3.84 26.877-15.357 26.877-35.836v-598.982c0-26.877-17.918-44.795-48.635-48.635-102.393-12.799-195.823-19.2-298.216-19.2zM778.205 620.834c-72.951 12.799-168.946 25.598-262.376 25.598-98.553 0-191.983-11.517-266.216-28.156-20.476-3.84-28.156-11.52-28.156-28.156v-373.731c0-16.636 7.68-28.156 28.156-28.156l528.592 2.558c20.479 0 26.877 11.52 26.877 28.159v373.728c0 16.639-6.398 25.598-26.877 28.156zM241.933 723.227c1.279-16.636 16.636-31.996 34.557-31.996 17.918 0 33.275 15.357 33.275 31.996 0 19.197-15.357 34.557-33.275 34.557-19.197-1.279-34.557-16.639-34.557-34.557zM710.373 723.227c1.279-16.636 16.639-31.996 33.275-31.996 17.918 0 33.278 15.357 33.278 31.996 0 19.197-15.357 34.557-33.278 34.557-17.918-1.279-33.275-16.639-33.275-34.557z"></path>
</symbol>
<symbol id="icon-icon_bus-withoutBox" viewBox="0 0 1024 1024">
	<title>icon_bus-withoutBox</title>
	<path class="path1" d="M954.633 86.277v761.906c0 26.050-16.282 40.702-34.189 45.586l-48.841 8.139v102.563c0 11.397-9.765 19.536-22.791 19.536h-78.142c-9.768 0-21.162-8.139-21.162-19.536v-91.169c-61.868 8.139-151.407 11.397-239.321 11.397-86.285 0-172.566-3.255-236.059-11.397v91.169c0 11.397-9.768 19.536-19.536 19.536h-78.146c-13.023 0-22.791-8.139-22.791-19.536v-102.563l-48.841-8.139c-16.282-4.884-34.189-21.166-34.189-45.586v-761.906c0-34.189 22.791-56.98 61.868-61.864 128.609-17.911 245.827-24.421 380.953-24.421 130.242 0 249.086 8.139 379.327 24.421 39.069 4.884 61.86 27.675 61.86 61.864zM884.63 138.373c0-21.166-8.139-35.818-34.189-35.818l-672.366-3.255c-26.050 0-35.818 14.652-35.818 35.814v475.38c0 21.162 9.768 30.93 35.818 35.814 94.424 21.166 213.268 35.814 338.625 35.814 118.844 0 240.947-16.282 333.741-32.559 26.050-3.255 34.189-14.652 34.189-35.814v-475.376zM254.588 779.806c0-21.162-19.533-40.698-42.324-40.698-22.795 0-42.328 19.536-43.957 40.698 0 22.795 19.536 42.328 43.957 43.957 22.791 0 42.324-19.536 42.324-43.957zM848.812 779.806c0-21.162-19.533-40.698-42.328-40.698-21.162 0-40.695 19.536-42.324 40.698 0 22.795 19.533 42.328 42.324 43.957 22.795 0 42.328-19.536 42.328-43.957z"></path>
</symbol>
<symbol id="icon-icon_bus-live" viewBox="0 0 1024 1024">
	<title>icon_bus-live</title>
	<path fill="rgb(0, 122, 201)" class="path1 fill-color8" d="M1024.007 512c0 282.774-229.233 512.007-512.007 512.007s-512.007-229.233-512.007-512.007c0-282.774 229.233-512.007 512.007-512.007s512.007 229.233 512.007 512.007z"></path>
	<path fill="rgb(0, 92, 151)" class="path2 fill-color4" d="M512 36.118c127.113 0 246.618 49.499 336.501 139.381s139.381 209.388 139.381 336.501-49.502 246.618-139.381 336.501c-89.883 89.883-209.388 139.381-336.501 139.381s-246.618-49.499-336.501-139.381c-89.883-89.883-139.381-209.388-139.381-336.501s49.499-246.618 139.381-336.501c89.883-89.883 209.388-139.381 336.501-139.381zM512-0.007c-282.776 0-512.007 229.231-512.007 512.007s229.235 512.007 512.007 512.007 512.007-229.235 512.007-512.007c0-282.776-229.231-512.007-512.007-512.007v0z"></path>
	<path fill="rgb(255, 255, 255)" class="path3 fill-color14" d="M777.208 256.571v457.151c0 15.631-9.768 24.421-20.515 27.35l-29.305 4.884v61.539c0 6.838-5.859 11.723-13.673 11.723h-46.887c-5.863 0-12.698-4.884-12.698-11.723v-54.701c-37.122 4.884-90.847 6.838-143.593 6.838-51.771 0-103.542-1.954-141.639-6.838v54.701c0 6.838-5.863 11.723-11.723 11.723h-46.887c-7.814 0-13.673-4.884-13.673-11.723v-61.539l-29.305-4.884c-9.768-2.93-20.515-12.698-20.515-27.35v-457.151c0-20.515 13.673-34.189 37.122-37.118 77.167-10.747 147.498-14.652 228.574-14.652 78.146 0 149.453 4.884 227.599 14.652 23.442 2.93 37.118 16.603 37.118 37.118zM735.206 287.83c0-12.698-4.884-21.491-20.515-21.491l-403.426-1.954c-15.631 0-21.491 8.793-21.491 21.491v285.232c0 12.698 5.863 18.557 21.491 21.491 56.655 12.698 127.962 21.491 203.178 21.491 71.307 0 144.569-9.768 200.248-19.536 15.631-1.954 20.515-8.789 20.515-21.491v-285.232zM357.175 672.695c0-12.698-11.719-24.421-25.396-24.421s-25.4 11.723-26.375 24.421c0 13.677 11.723 25.4 26.375 26.375 13.673-0.004 25.396-11.723 25.396-26.375zM713.711 672.695c0-12.698-11.719-24.421-25.4-24.421-12.698 0-24.417 11.723-25.396 24.421 0 13.677 11.719 25.4 25.396 26.375 13.681-0.004 25.4-11.723 25.4-26.375z"></path>
</symbol>
<symbol id="icon-icon_ferry" viewBox="0 0 1024 1024">
	<title>icon_ferry</title>
	<path fill="rgb(255, 255, 255)" class="path1 fill-color14" d="M870.396 993.287h-716.814c-67.864 0-122.883-55.015-122.883-122.883v-716.811c0-67.864 55.015-122.883 122.883-122.883h716.814c67.864 0 122.883 55.015 122.883 122.883v716.811c-0.004 67.868-55.018 122.883-122.883 122.883z"></path>
	<path fill="rgb(0, 185, 228)" class="path2 fill-color11" d="M0.036 126.799c0-69.114 57.594-126.709 126.709-126.709h767.931c71.676 0 129.266 57.594 129.266 126.709v767.931c0 71.672-57.591 129.27-129.266 129.27h-767.931c-69.114 0-126.709-57.594-126.709-129.27v-767.931zM154.901 865.292c-12.799 0-24.316 10.238-24.316 24.319 0 14.078 11.517 24.316 24.316 24.316h714.177c14.078 0 25.598-10.238 25.598-24.316s-11.517-24.319-25.598-24.319h-714.177zM820.443 582.44c0 0-102.393-26.877-171.507-42.234-60.155-12.799-134.389-21.758-139.508-21.758s-78.073 8.959-139.508 21.758c-69.114 15.357-171.507 42.234-171.507 42.234l28.159 243.179h566.99l26.881-243.179zM369.92 491.568c61.434-12.799 135.671-21.758 139.508-23.037 3.836 1.279 78.073 10.238 139.508 23.037 47.353 10.238 74.233 16.639 108.791 25.598v-177.905c0-23.037 6.398-53.754-53.758-53.754h-111.348v-167.667c0-8.959-7.68-16.639-16.636-17.918h-133.11c-8.959 1.279-15.36 8.959-16.639 17.918v167.663h-111.348c-60.152 0-53.758 30.717-53.758 53.754v177.905l108.791-25.595zM430.079 378.937c0 26.877-20.479 47.356-47.356 47.356s-47.353-20.479-47.353-47.356c0-26.877 20.476-47.356 47.353-47.356s47.356 20.479 47.356 47.356zM556.788 378.937c0 26.877-20.479 47.356-47.356 47.356-25.598 0-47.353-20.479-47.353-47.356s21.754-47.356 47.353-47.356c26.877 0 47.356 20.479 47.356 47.356zM683.493 378.937c0 26.877-20.476 47.356-47.353 47.356-25.598 0-47.356-20.479-47.356-47.356s21.758-47.356 47.356-47.356c26.877 0 47.353 20.479 47.353 47.356z"></path>
</symbol>
<symbol id="icon-icon_ferry-withoutBox" viewBox="0 0 1024 1024">
	<title>icon_ferry-withoutBox</title>
	<path class="path1" d="M961.666 962.822c17.708 0 32.198 12.882 32.198 30.594 0 17.708-14.49 30.591-32.198 30.591h-898.429c-16.101 0-30.591-12.882-30.591-30.591 0-17.712 14.49-30.594 30.591-30.594h898.429zM866.672 912.912h-713.274l-35.421-305.918c0 0 128.807-33.809 215.753-53.133 77.282-16.101 169.058-27.372 175.499-27.372s99.824 11.271 175.495 27.372c86.946 19.32 215.753 53.133 215.753 53.133l-33.806 305.918zM196.874 524.882v-223.805c0-28.979-8.052-67.622 67.622-67.622h140.082v-210.92c1.611-11.271 9.66-20.931 20.931-22.542h167.45c11.271 1.611 20.931 11.271 20.931 22.542v210.92h140.082c75.671 0 67.622 38.643 67.622 67.622v223.802c-43.469-11.271-77.282-19.32-136.86-32.202-77.282-16.101-170.665-27.372-175.495-28.983-4.834 1.611-98.217 12.882-175.499 28.983l-136.867 32.205zM290.257 350.991c0 33.809 25.761 59.574 59.574 59.574 33.809 0 59.57-25.761 59.57-59.574s-25.761-59.574-59.57-59.574c-33.809 0-59.574 25.761-59.574 59.574zM449.655 350.991c0 33.809 27.372 59.574 59.574 59.574 33.809 0 59.57-25.761 59.57-59.574s-25.761-59.574-59.57-59.574c-32.198 0-59.574 25.761-59.574 59.574zM609.057 350.991c0 33.809 27.372 59.574 59.57 59.574 33.813 0 59.574-25.761 59.574-59.574s-25.761-59.574-59.574-59.574c-32.198 0-59.57 25.761-59.57 59.574z"></path>
</symbol>
<symbol id="icon-icon_ferry-live" viewBox="0 0 1024 1024">
	<title>icon_ferry-live</title>
	<path fill="rgb(0, 185, 228)" class="path1 fill-color11" d="M1024.007 512c0 282.774-229.233 512.007-512.007 512.007s-512.007-229.233-512.007-512.007c0-282.774 229.233-512.007 512.007-512.007s512.007 229.233 512.007 512.007z"></path>
	<path fill="rgb(0, 139, 171)" class="path2 fill-color7" d="M512 36.118c127.113 0 246.618 49.499 336.501 139.381s139.381 209.388 139.381 336.501-49.502 246.618-139.381 336.501c-89.883 89.883-209.388 139.381-336.501 139.381s-246.618-49.502-336.501-139.381c-89.883-89.883-139.381-209.388-139.381-336.501s49.499-246.618 139.381-336.501c89.883-89.883 209.388-139.381 336.501-139.381zM512-0.007c-282.776 0-512.007 229.231-512.007 512.007s229.231 512.007 512.007 512.007 512.007-229.235 512.007-512.007-229.231-512.007-512.007-512.007v0z"></path>
	<path fill="rgb(255, 255, 255)" class="path3 fill-color14" d="M780.236 782.497c10.624 0 19.32 7.727 19.32 18.355 0 10.624-8.695 18.355-19.32 18.355h-539.068c-9.66 0-18.355-7.727-18.355-18.355s8.695-18.355 18.355-18.355h539.068zM723.237 752.553h-427.97l-21.252-183.555c0 0 77.286-20.288 129.454-31.88 46.37-9.66 101.435-16.426 105.301-16.426s59.895 6.763 105.301 16.426c52.168 11.593 129.454 31.88 129.454 31.88l-20.288 183.555zM321.35 519.727v-134.284c0-17.387-4.83-40.576 40.572-40.576h84.048v-126.553c0.968-6.763 5.798-12.561 12.557-13.525h100.471c6.763 0.968 12.557 6.763 12.557 13.525v126.553h84.048c45.406 0 40.572 23.185 40.572 40.576v134.284c-26.082-6.763-46.37-11.593-82.116-19.323-46.37-9.66-102.404-16.422-105.301-17.391-2.901 0.968-58.931 7.727-105.301 17.391l-82.109 19.323zM377.384 415.394c0 20.288 15.458 35.746 35.746 35.746 20.284 0 35.742-15.458 35.742-35.746s-15.458-35.746-35.742-35.746c-20.288 0-35.746 15.458-35.746 35.746zM473.025 415.394c0 20.288 16.426 35.746 35.746 35.746 20.284 0 35.742-15.458 35.742-35.746s-15.458-35.746-35.742-35.746c-19.323 0-35.746 15.458-35.746 35.746zM568.666 415.394c0 20.288 16.426 35.746 35.742 35.746 20.288 0 35.746-15.458 35.746-35.746s-15.458-35.746-35.746-35.746c-19.32 0-35.742 15.458-35.742 35.746z"></path>
</symbol>
<symbol id="icon-icon_rail" viewBox="0 0 1024 1024">
	<title>icon_rail</title>
	<path fill="rgb(255, 255, 255)" class="path1 fill-color14" d="M870.407 993.287h-716.811c-67.864 0-122.883-55.015-122.883-122.883v-716.811c0-67.864 55.015-122.883 122.883-122.883h716.811c67.864 0 122.883 55.015 122.883 122.883v716.811c0 67.868-55.018 122.883-122.883 122.883z"></path>
	<path fill="rgb(140, 71, 153)" class="path2 fill-color10" d="M0.033 126.799c0-69.114 57.594-126.709 126.709-126.709h767.931c71.676 0 129.27 57.594 129.27 126.709v767.931c0 71.672-57.594 129.27-129.27 129.27h-767.931c-69.114 0-126.709-57.594-126.709-129.27v-767.931zM785.886 130.639c-28.156-25.598-149.749-55.036-273.896-55.036-120.311 0-244.458 29.438-271.335 55.036-19.197 16.636-38.397 55.033-61.434 103.672-19.197 42.234-34.557 81.913-34.557 104.95v369.888c0 29.438 10.238 42.237 49.918 72.954 29.435 23.037 42.234 33.275 87.032 33.275h84.471v55.036h295.654v-55.036h83.192c44.795 0 57.594-10.238 85.754-33.275 39.676-31.996 48.635-43.516 48.635-72.954v-369.888c0-23.037-15.357-62.713-33.275-104.95-23.044-48.639-40.962-87.032-60.159-103.672zM751.328 908.812v-53.754h-47.356v53.754h-381.404v-53.754h-48.639v53.754h-58.873c-14.078 0-25.598 11.517-25.598 24.316 0 14.078 11.52 25.598 25.598 25.598h596.428c14.078 0 24.316-11.52 24.316-25.598 0-12.799-10.238-24.316-24.316-24.316h-60.155zM724.451 582.44c-3.836 21.758-25.595 38.397-47.356 38.397h-327.654c-21.758 0-43.516-16.639-47.353-38.397l-60.155-254.699c-3.84-21.758 10.238-38.397 31.996-38.397h477.399c21.758 0 37.115 16.639 31.996 38.397l-58.873 254.699zM706.533 175.434v21.758c0 16.639-12.799 30.717-29.438 30.717h-327.654c-16.636 0-30.717-14.078-30.717-30.717v-21.758h387.809zM318.727 715.546c0-17.918 12.799-31.996 30.717-31.996s33.278 14.078 33.278 31.996-15.357 30.717-33.278 30.717c-17.918 0-30.717-12.799-30.717-30.717zM645.099 711.706c0-17.918 14.078-31.996 31.996-31.996s31.996 14.078 31.996 31.996-14.078 30.717-31.996 30.717c-17.918 0-31.996-12.799-31.996-30.717z"></path>
</symbol>
<symbol id="icon-icon_rail-withoutBox" viewBox="0 0 1024 1024">
	<title>icon_rail-withoutBox</title>
	<path class="path1" d="M937.929 305.712v428.902c0 34.135-10.386 47.49-56.395 84.594-32.646 26.711-47.49 38.585-99.431 38.585h-96.465v63.815h-342.823v-63.818h-97.949c-51.944 0-66.784-11.874-100.915-38.585-46.009-35.616-57.88-50.459-57.88-84.594v-428.898c0-26.711 17.81-72.72 40.070-121.694 26.714-56.395 48.978-100.919 71.239-120.21 31.161-29.68 175.12-63.815 314.624-63.815 143.955 0 284.943 34.135 317.59 63.815 22.26 19.291 43.039 63.815 69.754 120.21 20.776 48.975 38.582 94.984 38.582 121.694zM859.273 966.128c16.325 0 28.196 13.355 28.196 28.196 0 16.325-11.871 29.68-28.196 29.68h-691.578c-16.325 0-29.68-13.359-29.68-29.68 0-14.84 13.355-28.196 29.68-28.196h68.265v-62.33h56.398v62.33h442.253v-62.33h54.914v62.33h69.747zM826.627 292.356c5.935-25.23-11.874-44.524-37.104-44.524h-553.565c-25.226 0-41.555 19.294-37.097 44.524l69.75 295.333c4.451 25.23 29.68 44.524 54.91 44.524h379.923c25.23 0 50.463-19.294 54.914-44.524l68.269-295.333zM287.902 115.748v25.23c0 19.294 16.325 35.619 35.616 35.619h379.923c19.294 0 34.138-16.325 34.138-35.619v-25.23h-449.677zM362.106 742.033c0-20.776-17.806-37.104-38.589-37.104-20.776 0-35.616 16.325-35.616 37.104 0 20.776 14.84 35.616 35.616 35.616 20.783 0 38.589-14.84 38.589-35.616zM740.549 737.579c0-20.776-16.321-37.104-37.104-37.104-20.776 0-37.097 16.325-37.097 37.104 0 20.776 16.321 35.616 37.097 35.616 20.783 0.004 37.104-14.84 37.104-35.616z"></path>
</symbol>
<symbol id="icon-icon_rail-live" viewBox="0 0 1024 1024">
	<title>icon_rail-live</title>
	<path fill="rgb(140, 71, 153)" class="path1 fill-color10" d="M1024.007 512c0 282.774-229.233 512.007-512.007 512.007s-512.007-229.233-512.007-512.007c0-282.774 229.233-512.007 512.007-512.007s512.007 229.233 512.007 512.007z"></path>
	<path fill="rgb(105, 53, 115)" class="path2 fill-color6" d="M512 36.118c127.113 0 246.618 49.499 336.501 139.381s139.381 209.388 139.381 336.501-49.502 246.618-139.381 336.501c-89.883 89.883-209.388 139.381-336.501 139.381s-246.618-49.502-336.501-139.381c-89.879-89.883-139.381-209.388-139.381-336.501s49.502-246.618 139.381-336.501c89.883-89.883 209.388-139.381 336.501-139.381zM512-0.007c-282.776 0-512.007 229.231-512.007 512.007s229.235 512.007 512.007 512.007 512.007-229.235 512.007-512.007c0-282.776-229.231-512.007-512.007-512.007v0z"></path>
	<path fill="rgb(255, 255, 255)" class="path3 fill-color14" d="M767.588 388.232v257.344c0 20.479-6.232 28.495-33.838 50.756-19.591 16.029-28.492 23.153-59.66 23.153h-57.88v38.289h-205.696v-38.289h-58.772c-31.165 0-40.070-7.124-60.553-23.153-27.607-21.372-34.727-30.276-34.727-50.756v-257.344c0-16.029 10.686-43.632 24.041-73.016 16.029-33.838 29.388-60.553 42.743-72.127 18.698-17.81 105.073-38.289 188.779-38.289 86.375 0 170.969 20.479 190.56 38.289 13.355 11.574 25.822 38.289 41.854 72.127 12.463 29.384 23.149 56.991 23.149 73.016zM720.394 784.491c9.797 0 16.917 8.013 16.917 16.917 0 9.793-7.124 17.81-16.917 17.81h-414.957c-9.797 0-17.81-8.016-17.81-17.81 0-8.905 8.013-16.917 17.81-16.917h40.959v-37.4h33.838v37.4h265.356v-37.4h32.95v37.4h41.854zM700.804 380.22c3.562-15.136-7.124-26.714-22.26-26.714h-332.144c-15.136 0-24.933 11.578-22.26 26.714l41.851 177.2c2.67 15.136 17.81 26.714 32.946 26.714h227.96c15.14 0 30.276-11.578 32.95-26.714l40.959-177.2zM377.564 274.254v15.136c0 11.578 9.797 21.372 21.372 21.372h227.96c11.578 0 20.483-9.797 20.483-21.372v-15.136h-269.814zM422.088 650.030c0-12.467-10.686-22.26-23.153-22.26s-21.372 9.797-21.372 22.26 8.905 21.372 21.372 21.372c12.467 0 23.153-8.905 23.153-21.372zM649.156 647.357c0-12.467-9.793-22.26-22.26-22.26s-22.26 9.797-22.26 22.26 9.793 21.372 22.26 21.372c12.467 0 22.26-8.905 22.26-21.372z"></path>
</symbol>
<symbol id="icon-icon_subway" viewBox="0 0 1024 1024">
	<title>icon_subway</title>
	<path fill="rgb(255, 255, 255)" class="path1 fill-color14" d="M871.036 993.287h-716.811c-67.864 0-122.883-55.015-122.883-122.883v-716.811c0-67.864 55.015-122.883 122.883-122.883h716.811c67.864 0 122.883 55.015 122.883 122.883v716.811c0 67.868-55.018 122.883-122.883 122.883z"></path>
	<path fill="rgb(255, 99, 25)" class="path2 fill-color13" d="M0.033 126.799c0-69.114 57.594-126.709 126.709-126.709h767.931c71.676 0 129.27 57.594 129.27 126.709v767.931c0 71.672-57.594 129.27-129.27 129.27h-767.931c-69.114 0-126.709-57.594-126.709-129.27v-767.931zM511.989 120.401c-121.59 0-222.7 11.517-305.892 26.877-34.557 3.84-57.594 29.438-57.594 66.553v501.715c0 35.836 21.758 63.995 57.594 69.114 83.192 14.078 184.303 26.877 305.892 26.877 122.868 0 223.979-11.517 307.171-26.877 33.278-5.119 56.315-30.717 56.315-66.553v-501.719c0-37.115-21.758-65.274-56.315-69.114-83.192-14.074-184.303-26.873-307.171-26.873zM197.138 677.149c1.279-16.639 16.639-31.996 34.557-31.996 16.639 0 31.996 15.357 31.996 31.996 0 19.197-15.357 34.557-31.996 34.557-19.2-1.279-34.557-16.639-34.557-34.557zM202.257 560.682v-323.814c0-17.918 10.238-30.717 25.598-30.717h566.99c16.639 0 28.156 14.078 28.156 30.717v323.81c0 17.918-8.959 29.438-25.598 29.438h-565.707c-16.639 0-29.438-12.795-29.438-29.435zM376.322 861.455c-12.799 0-25.598 14.078-25.598 28.156 0 12.799 12.799 25.598 25.598 25.598h276.454c12.799 0 25.598-12.799 25.598-25.598 0-14.078-12.799-28.156-25.598-28.156h-276.454zM761.566 677.149c1.279-16.639 16.636-31.996 33.275-31.996 17.918 0 31.996 15.357 31.996 31.996 0 19.197-14.078 34.557-31.996 34.557-19.197-1.279-33.275-16.639-33.275-34.557z"></path>
</symbol>
<symbol id="icon-icon_subway-withoutBox" viewBox="0 0 1024 1024">
	<title>icon_subway-withoutBox</title>
	<path class="path1" d="M980.285 123.663v646.4c0 46.171-29.68 79.154-72.554 85.746-107.183 19.786-237.453 34.626-395.753 34.626-156.653 0-286.923-16.487-394.11-34.626-46.171-6.596-74.204-42.873-74.204-89.045v-646.4c0-47.819 29.684-80.801 74.204-85.746 107.183-19.786 237.453-34.626 394.11-34.626 158.3 0 288.57 16.491 395.753 34.626 44.52 4.949 72.554 41.226 72.554 89.045zM192.073 717.299c0-21.437-19.786-41.226-41.226-41.226-23.084 0-42.873 19.786-44.52 41.226 0 23.084 19.786 42.873 44.52 44.524 21.44-0.004 41.226-19.789 41.226-44.524zM879.695 605.166c21.44 0 32.979-14.844 32.979-37.928v-417.19c0-21.437-14.84-39.575-36.277-39.575h-730.491c-19.789 0-32.979 16.491-32.979 39.575v417.19c0 21.437 16.491 37.928 37.924 37.928h728.844zM693.362 954.752c16.491 0 32.979 18.138 32.979 36.277 0 16.491-16.491 32.979-32.979 32.979h-356.178c-16.491 0-32.979-16.491-32.979-32.979 0-18.138 16.491-36.277 32.979-36.277h356.178zM917.626 717.299c0-21.437-18.138-41.226-41.226-41.226-21.44 0-41.226 19.786-42.873 41.226 0 23.084 18.138 42.873 42.873 44.524 23.088-0.004 41.226-19.789 41.226-44.524z"></path>
</symbol>
<symbol id="icon-icon_subway-live" viewBox="0 0 1024 1024">
	<title>icon_subway-live</title>
	<path fill="rgb(255, 99, 25)" class="path1 fill-color13" d="M1024.007 512c0 282.774-229.233 512.007-512.007 512.007s-512.007-229.233-512.007-512.007c0-282.774 229.233-512.007 512.007-512.007s512.007 229.233 512.007 512.007z"></path>
	<path fill="rgb(191, 74, 19)" class="path2 fill-color9" d="M512 36.118c127.113 0 246.618 49.499 336.501 139.381s139.381 209.388 139.381 336.501-49.502 246.618-139.381 336.501c-89.883 89.883-209.388 139.381-336.501 139.381s-246.618-49.499-336.501-139.381c-89.883-89.883-139.381-209.388-139.381-336.501s49.499-246.618 139.381-336.501c89.883-89.883 209.388-139.381 336.501-139.381zM512-0.007c-282.776 0-512.007 229.231-512.007 512.007s229.231 512.007 512.007 512.007 512.007-229.235 512.007-512.007-229.231-512.007-512.007-512.007v0z"></path>
	<path fill="rgb(255, 255, 255)" class="path3 fill-color14" d="M792.991 297.056v387.846c0 27.704-17.81 47.494-43.534 51.449-64.313 11.874-142.473 20.776-237.457 20.776-93.994 0-172.157-9.891-236.467-20.776-27.701-3.956-44.524-25.725-44.524-53.429v-387.842c0-28.694 17.81-48.48 44.524-51.449 64.313-11.874 142.473-20.776 236.467-20.776 94.98 0 173.144 9.895 237.457 20.776 26.714 2.966 43.534 24.735 43.534 53.425zM320.057 653.242c0-12.864-11.871-24.735-24.735-24.735-13.85 0-25.725 11.874-26.711 24.735 0 13.85 11.871 25.725 26.711 26.714 12.864 0 24.735-11.871 24.735-26.714zM732.637 585.962c12.864 0 19.789-8.905 19.789-22.755v-250.318c0-12.864-8.905-23.745-21.765-23.745h-438.309c-11.874 0-19.789 9.895-19.789 23.745v250.318c0 12.864 9.895 22.755 22.755 22.755h437.319zM620.834 795.719c9.895 0 19.789 10.884 19.789 21.765 0 9.895-9.895 19.789-19.789 19.789h-213.712c-9.895 0-19.789-9.895-19.789-19.789 0-10.884 9.895-21.765 19.789-21.765h213.712zM755.396 653.242c0-12.864-10.884-24.735-24.735-24.735-12.864 0-24.735 11.874-25.725 24.735 0 13.85 10.884 25.725 25.725 26.714 13.85 0 24.735-11.871 24.735-26.714z"></path>
</symbol>
<symbol id="icon-icon_tram" viewBox="0 0 1024 1024">
	<title>icon_tram</title>
	<path fill="rgb(255, 255, 255)" class="path1 fill-color14" d="M870.393 993.287h-716.811c-67.864 0-122.883-55.015-122.883-122.883v-716.811c0-67.864 55.015-122.883 122.883-122.883h716.811c67.864 0 122.883 55.015 122.883 122.883v716.811c0 67.868-55.015 122.883-122.883 122.883z"></path>
	<path fill="rgb(0, 152, 95)" class="path2 fill-color5" d="M0.033 126.799c0-69.114 57.594-126.709 126.709-126.709h767.931c71.676 0 129.27 57.594 129.27 126.709v767.931c0 71.672-57.594 129.27-129.27 129.27h-767.931c-69.114 0-126.709-57.594-126.709-129.27v-767.931zM715.492 218.95c-6.398-15.36-15.357-23.037-30.717-26.877-55.033-14.078-94.713-19.197-145.909-20.476v-44.799h94.713c12.799 0 23.037-11.52 23.037-24.319 0-15.357-10.238-26.877-23.037-26.877h-240.618c-15.357 0-26.877 11.517-26.877 26.877 0 12.799 11.52 24.319 26.877 24.319h93.43v44.795c-52.475 1.279-94.713 6.398-145.909 20.476-17.918 5.119-26.877 11.517-34.557 26.877l-21.758 52.475c-6.398 15.357-6.398 37.115-6.398 53.754v460.76c0 23.037 15.357 37.115 38.397 40.955 69.114 14.078 129.27 19.197 195.823 19.197 63.995 0 125.43-5.119 197.102-19.197 21.758-3.84 38.397-17.918 38.397-40.955v-460.753c0-16.639-3.84-38.397-10.238-53.754l-21.758-52.479zM651.497 908.812v-38.397l-47.356 6.398v31.996h-183.024v-31.996l-47.356-6.398v38.397h-38.397c-14.078 0-23.037 11.517-23.037 23.037 0 16.639 8.959 26.877 23.037 26.877h354.527c11.52 0 24.319-10.238 24.319-26.877 0-11.517-12.799-23.037-24.319-23.037h-38.394zM323.846 711.706c0-17.918 12.799-31.996 29.435-31.996 17.918 0 30.717 14.078 30.717 31.996 0 16.639-12.799 28.156-30.717 28.156-16.636 0.004-29.435-11.517-29.435-28.156zM325.125 314.942h372.449v311.011c-48.635 14.078-117.75 23.037-185.585 23.037-66.553 0-135.668-10.238-186.864-23.037v-311.011zM646.378 711.706c0-17.918 11.52-31.996 28.156-31.996 17.918 0 31.996 14.078 31.996 31.996 0 16.639-14.078 28.156-31.996 28.156-16.636 0.004-28.156-11.517-28.156-28.156z"></path>
</symbol>
<symbol id="icon-icon_tram-withoutBox" viewBox="0 0 1024 1024">
	<title>icon_tram-withoutBox</title>
	<path class="path1" d="M773.086 227.057c7.42 17.81 11.871 43.039 11.871 62.33v534.271c0 26.711-19.291 43.039-44.524 47.49-83.106 16.325-154.341 22.26-228.545 22.26-77.174 0-146.924-5.935-227.064-22.26-26.714-4.454-44.524-20.779-44.524-47.49v-534.271c0-19.294 0-44.524 7.42-62.33l25.226-60.845c8.905-17.81 19.294-25.23 40.073-31.165 59.364-16.325 108.339-22.26 169.184-23.745v-51.944h-108.339c-17.81 0-31.165-13.359-31.165-28.199 0-17.81 13.355-31.165 31.165-31.165h279.004c14.84 0 26.714 13.355 26.714 31.165 0 14.84-11.874 28.199-26.714 28.199h-109.824v51.944c59.364 1.481 105.373 7.42 169.184 23.745 17.81 4.454 28.196 13.355 35.616 31.165l25.241 60.845zM718.173 966.128c13.359 0 28.203 13.355 28.203 26.711 0 19.294-14.84 31.165-28.203 31.165h-411.088c-16.325 0-26.714-11.874-26.714-31.165 0-13.355 10.39-26.711 26.714-26.711h44.524v-44.524l54.91 7.42v37.104h212.224v-37.1l54.914-7.42v44.524h44.517zM363.479 737.579c0-20.776-14.84-37.104-35.616-37.104-19.291 0-34.131 16.325-34.131 37.104 0 19.294 14.84 32.65 34.131 32.65 20.776 0 35.616-13.355 35.616-32.65zM295.21 638.145c59.364 14.84 139.504 26.714 216.678 26.714 78.655 0 158.795-10.39 215.19-26.714v-360.629h-431.867v360.629zM737.471 737.579c0-20.776-16.325-37.104-37.104-37.104-19.291 0-32.653 16.325-32.653 37.104 0 19.294 13.359 32.65 32.653 32.65 20.776 0 37.104-13.355 37.104-32.65z"></path>
</symbol>
<symbol id="icon-icon_tram-live" viewBox="0 0 1024 1024">
	<title>icon_tram-live</title>
	<path fill="rgb(0, 152, 95)" class="path1 fill-color5" d="M1024.007 512c0 282.774-229.233 512.007-512.007 512.007s-512.007-229.233-512.007-512.007c0-282.774 229.233-512.007 512.007-512.007s512.007 229.233 512.007 512.007z"></path>
	<path fill="rgb(0, 114, 71)" class="path2 fill-color3" d="M512 36.118c127.113 0 246.618 49.499 336.501 139.381s139.381 209.388 139.381 336.501-49.502 246.618-139.381 336.501c-89.883 89.883-209.388 139.381-336.501 139.381s-246.618-49.499-336.501-139.381c-89.883-89.883-139.381-209.388-139.381-336.501s49.499-246.618 139.381-336.501c89.883-89.883 209.388-139.381 336.501-139.381zM512-0.007c-282.776 0-512.007 229.231-512.007 512.007s229.235 512.007 512.007 512.007 512.007-229.235 512.007-512.007c0-282.776-229.231-512.007-512.007-512.007v0z"></path>
	<path fill="rgb(255, 255, 255)" class="path3 fill-color14" d="M694.323 312.543c5.195 12.467 8.309 30.128 8.309 43.632v373.995c0 18.698-13.504 30.128-31.165 33.242-58.176 11.426-108.039 15.581-159.983 15.581-54.021 0-102.848-4.154-158.947-15.581-18.702-3.118-31.165-14.544-31.165-33.242v-373.992c0-13.507 0-31.165 5.195-43.632l17.658-42.595c6.235-12.467 13.507-17.662 28.051-21.816 41.555-11.426 75.837-15.584 118.432-16.621v-36.363h-75.837c-12.467 0-21.816-9.349-21.816-19.739 0-12.467 9.349-21.816 21.816-21.816h195.306c10.39 0 18.702 9.349 18.702 21.816 0 10.39-8.312 19.739-18.702 19.739h-76.878v36.36c41.555 1.037 73.76 5.195 118.432 16.621 12.467 3.118 19.739 9.349 24.933 21.816l17.658 42.595zM655.882 829.904c9.353 0 19.742 9.349 19.742 18.698 0 13.507-10.39 21.816-19.742 21.816h-287.765c-11.43 0-18.702-8.312-18.702-21.816 0-9.349 7.272-18.698 18.702-18.698h31.165v-31.165l38.437 5.195v25.97h148.561v-25.97l38.441-5.195v31.165h31.161zM407.595 669.917c0-14.544-10.39-25.97-24.933-25.97-13.504 0-23.893 11.43-23.893 25.97 0 13.507 10.39 22.856 23.893 22.856 14.544 0 24.933-9.353 24.933-22.856zM359.805 600.311c41.555 10.39 97.653 18.702 151.678 18.702 55.058 0 111.16-7.272 150.634-18.702v-252.445h-302.312v252.445zM669.39 669.917c0-14.544-11.43-25.97-25.97-25.97-13.504 0-22.856 11.43-22.856 25.97 0 13.507 9.353 22.856 22.856 22.856 14.544 0 25.97-9.353 25.97-22.856z"></path>
</symbol>
<symbol id="icon-icon_airplane" viewBox="0 0 1024 1024">
	<title>icon_airplane</title>
	<path class="path1" d="M0.043 126.755c0-69.114 57.594-126.709 126.709-126.709h767.931c71.676 0 129.27 57.594 129.27 126.709v767.931c0 71.672-57.594 129.27-129.27 129.27h-767.928c-69.114 0-126.709-57.594-126.709-129.27v-767.931z"></path>
	<path fill="rgb(255, 255, 255)" class="path2 fill-color14" d="M861.495 712.552v-88.723l-292.602-208.279v-247.276c0-31.393-25.465-56.857-56.933-56.857-31.389 0-56.854 25.465-56.854 56.857v243.432l-292.598 212.123v88.723l297.804-116.59 14.331 201.393-81.596 61.658v53.57l119.393-37.075 119.393 37.075v-53.57l-82.477-61.738 14.331-201.314 297.807 116.59z"></path>
</symbol>
<symbol id="icon-icon_airplane-withoutBox" viewBox="0 0 1024 1024">
	<title>icon_airplane-withoutBox</title>
	<path class="path1" d="M958.708 768.336v-113.4l-373.992-266.216v-316.058c0-40.124-32.545-72.673-72.77-72.673-40.12 0-72.669 32.545-72.669 72.673v311.141l-373.984 271.129v113.4l380.642-149.023 18.319 257.412-104.293 78.81v68.471l152.603-47.389 152.603 47.389v-68.471l-105.42-78.912 18.319-257.311 380.642 149.027z"></path>
</symbol>
<symbol id="icon-icon_car" viewBox="0 0 1024 1024">
	<title>icon_car</title>
	<path class="path1" d="M984.678 426.705l-57.666 14.829c42.841 31.306 59.317 90.62 59.317 131.813v151.581c0 39.546-29.655 74.143-77.441 82.383v87.325c0 13.178-11.531 19.771-24.713 19.771h-87.329c-11.535 0-23.066-6.593-23.066-19.771v-72.499c-69.197 3.298-166.414 9.887-261.975 9.887-97.205 0-191.123-6.589-261.971-9.887v72.499c0 13.178-11.535 19.771-23.069 19.771h-87.325c-13.178 0-24.713-6.593-24.713-19.771v-87.325c-46.132-8.237-75.787-42.837-75.787-82.383v-151.581c0-41.19 18.12-100.507 60.961-131.813l-60.961-14.829c-24.713-6.589-41.19-26.364-37.895-51.077 1.644-24.713 26.36-42.841 54.372-41.19l87.325 16.477 59.31-105.449c24.713-46.135 44.488-67.554 103.805-77.438 64.259-8.237 112.038-14.829 205.952-14.829 92.271 0 144.991 6.593 209.254 14.829 59.31 9.884 79.085 31.306 103.802 77.438l59.31 105.449 85.681-16.477c26.36-1.647 52.728 16.477 54.372 41.19 3.287 24.717-13.189 44.488-39.55 51.077zM304.202 573.348l-179.592-18.124v46.135c0 23.066 21.422 37.895 44.484 37.895h92.274c23.062 0 42.837-14.829 42.837-37.895v-28.011zM178.985 421.763c98.86 13.182 224.076 19.771 339.413 19.771 108.74 0 220.778-3.295 329.525-19.771l-75.794-154.879c-13.178-28.011-28.008-39.542-57.666-46.132-57.666-11.535-112.038-14.829-202.658-14.829s-141.693 3.298-199.363 14.829c-29.655 6.589-44.488 18.124-57.666 46.132l-75.79 154.879zM903.942 555.22l-176.297 18.124v28.011c0 23.066 19.768 37.895 42.841 37.895h88.969c23.069 0 44.488-14.829 44.488-37.895v-46.135z"></path>
</symbol>
<symbol id="icon-icon_walk" viewBox="0 0 1024 1024">
	<title>icon_walk</title>
	<path class="path1" d="M345.2 820.179l61.47-132.651c8.088-3.233 16.177-6.47 22.65-11.322v-1.618c17.792-12.94 27.502-33.968 29.117-58.234v-25.88l142.354 3.233 187.648 376.914-111.615 56.619-148.828-297.649-79.262 163.383-114.856 134.266-97.061-77.651 108.382-129.411zM558.735 310.614c33.968 27.498 46.908 63.089 45.294 105.146l-3.237 153.679-142.354-3.233 1.618-137.503-24.265 37.209-3.233 148.824c0 17.795-6.474 32.354-17.799 40.442-11.322 8.088-22.643 12.944-40.442 12.944-17.792 0-29.117-6.47-40.438-14.558-9.707-8.088-16.177-22.65-16.177-40.442l3.233-173.093 77.647-137.499c11.325-16.177 32.354-24.265 58.241-24.265 37.205-0.004 72.792 8.085 101.912 32.35zM398.582 131.051c1.622-71.177 61.474-129.414 132.651-127.796 72.796 1.618 131.029 59.856 129.414 132.651-1.618 71.177-61.47 129.411-132.651 127.796-72.796-1.618-131.029-61.474-129.414-132.651zM623.442 551.644l1.615-116.471 77.647 1.615c17.795 0 32.354 8.088 40.442 17.795 8.088 12.94 12.944 24.265 12.944 42.057 0 16.177-4.855 29.12-14.558 40.442-8.088 9.707-22.65 16.177-40.442 16.177l-77.647-1.615z"></path>
</symbol>
<symbol id="icon-icon_cyclist" viewBox="0 0 1024 1024">
	<title>icon_cyclist</title>
	<path class="path1" d="M361.131 891.19h40.503c-22.683 76.155-92.354 132.864-174.99 132.864-100.456 0-181.47-81.014-181.47-181.47s81.014-181.474 181.47-181.474c22.687 0 46.991 4.862 66.434 12.962l-22.687 30.786c-14.58-3.24-29.164-6.481-43.747-6.481-81.014 0-145.826 64.812-145.826 144.204s64.812 144.204 145.826 144.204c61.575 0.004 115.044-38.885 134.486-95.594zM694.908 648.148l-144.204 149.066-12.962 106.937-103.697-12.962 3.244-29.164h-210.641c-8.103 0-14.58-4.862-17.82-11.343s-1.622-12.962 1.618-19.446l150.688-197.673-40.507-35.645c-35.645-32.404-32.404-71.293-12.962-119.903l149.066 42.125-11.343 45.369h212.256l-21.061-58.327c-8.103-1.622-17.824-6.481-29.167-14.584l-116.662-87.495-27.545 95.598-149.066-43.747 42.129-145.826c19.442-51.85 89.117-76.155 136.105-37.267l181.47 144.204c21.065 19.442 24.305 58.327-1.618 79.392l144.204 338.64c4.862 8.103-3.24 21.065-9.721 22.687-8.103 4.859-21.065-1.622-24.305-9.721l-87.498-200.917zM263.915 823.138h179.852l14.58-110.178-71.293-51.85-123.139 162.028zM370.852 732.402c12.962 19.442 22.687 40.507 30.786 61.571h-40.507c-4.862-9.721-8.103-19.442-14.584-29.167l24.305-32.404zM489.133 0.036c59.949 0 110.178 50.228 110.178 110.178 0 61.571-50.228 110.181-110.178 110.181s-110.181-48.61-110.181-110.181c0.004-59.949 50.232-110.178 110.181-110.178zM675.466 602.782h-209.016l102.078 72.911-9.721 59.949 119.903-124.761-3.244-8.099zM980.079 842.584c0 100.456-81.014 181.47-181.474 181.47-98.838 0-181.474-81.014-181.474-181.47 0-58.331 27.545-108.559 68.052-140.963l16.202 35.645c-27.545 25.927-45.366 64.812-45.366 105.319 0 79.392 64.808 144.204 142.585 144.204 79.392 0 144.204-64.808 144.204-144.204s-64.812-144.204-144.204-144.204c-3.24 0-4.862 0-9.721 1.618l-14.58-35.645c8.103-1.618 16.202-3.24 24.305-3.24 100.456-0.004 181.47 81.010 181.47 181.47z"></path>
</symbol>
<symbol id="icon-icon_bicycle" viewBox="0 0 1024 1024">
	<title>icon_bicycle</title>
	<path class="path1" d="M323.084 455.417c45.615 36.179 73.93 91.234 73.93 154.153 0 110.109-88.087 198.196-198.196 198.196s-198.2-88.087-198.2-198.196c0-108.538 88.087-198.196 198.2-198.196 9.436 0 18.872 0 28.311 1.575l-17.304 39.326h-11.007c-86.516 0-157.299 70.783-157.299 157.299s70.783 157.299 157.299 157.299c86.512 0 157.296-70.783 157.296-157.299 0-45.615-18.872-86.512-50.333-114.827l17.304-39.329zM826.443 630.020h-278.419c-7.864 0-14.161-3.146-17.304-6.289l-217.072-226.511-95.955 220.218c-3.143 7.864-11.007 12.586-18.872 12.586-3.146 0-4.722 0-7.864-1.575-11.015-4.718-15.729-15.729-11.015-26.74l162.017-372.803c3.146-7.864 9.439-12.586 17.304-12.586h59.772c12.586 0 20.45 9.436 20.45 20.45 0 11.011-7.864 20.447-20.45 20.447h-45.615l-22.022 48.765h302.012l22.022-50.337h-47.19c-18.872 0-37.751-20.45-37.751-39.326h195.050c0 18.875-18.879 39.326-39.326 39.326h-26.743l-48.758 116.402 171.457 224.936c4.718 6.289 4.718 14.157 1.568 22.022-3.143 6.293-9.432 11.015-17.297 11.015zM541.727 574.962l95.955-228.083h-303.587l-3.143 9.439 210.775 218.643zM579.478 589.123h204.489l-132.131-173.032-72.358 173.032zM1024.636 609.57c0 110.109-89.659 198.196-198.196 198.196-91.237 0-168.314-61.348-191.907-144.713h42.472c22.022 59.772 80.223 103.816 149.435 103.816 86.512 0 157.296-70.783 157.296-157.299 0-86.512-70.783-157.299-157.296-157.299-17.304 0-33.033 3.146-48.765 7.864l-26.743-34.604c23.593-9.439 48.765-14.157 75.505-14.157 108.541 0 198.2 89.659 198.2 198.196zM634.532 557.662c6.297-25.168 18.879-47.19 33.033-67.64l26.743 33.033c-7.864 11.011-12.586 22.022-17.304 34.604h-42.472z"></path>
</symbol>
<symbol id="icon-icon_wait" viewBox="0 0 1024 1024">
	<title>icon_wait</title>
	<path class="path1" d="M805.48 115.524c58.938 0 108.317 49.379 108.317 108.317 0 60.531-49.379 108.317-108.317 108.317s-108.317-47.786-108.317-108.317c0-58.938 49.379-108.317 108.317-108.317z"></path>
	<path class="path2" d="M789.032 897.194c-1.705 0-138.236-0.072-138.236-0.072-19.616 0-35.518-15.917-35.518-35.543 0-19.63 15.902-35.543 35.518-35.543l137.221 0.065c8.576 0.325 74.006 0.177 94.369-79.244 28.228-110.102 48.888-218.148 49.090-219.225 3.67-19.276 22.264-31.949 41.54-28.261 19.273 3.67 31.916 22.278 28.246 41.565-0.21 1.098-21.263 111.247-50.066 223.585-18.514 72.199-62.865 104.578-96.815 119.028-28.474 12.12-54.206 13.644-65.35 13.644z"></path>
	<path class="path3" d="M907.172 433.58c-7.268-39.727-50.037-73.323-104.34-64.425-43.924 7.196-70.469 128.804-85.988 215.074-14.035 3.331-134.298 34.127-152.979 39.337-17.297 4.888-28.622 22.21-25.497 40.33 0.311 1.81 0.798 3.547 1.366 5.245-15.003 1.113-28.914 3.688-41.042 8.8-40.814 17.206-39.965 51.41-39.962 115.044h-0.004v231.023h118.002v-228.39c41.168 0.014 156.374 0.058 210.558 0.058 55.531 0 67.33-60.827 77.698-115.517 5.119-26.978 50.781-199.612 42.187-246.579z"></path>
	<path class="path4" d="M290.705-0.007c-148.329 0-268.604 120.332-268.604 268.763 0 148.427 120.275 268.785 268.604 268.785 148.376 0 268.626-120.358 268.626-268.785 0-148.434-120.249-268.763-268.626-268.763zM290.684 464.232c-107.858 0-195.321-87.495-195.321-195.447 0-107.927 87.462-195.422 195.321-195.422 107.898 0 195.321 87.495 195.321 195.422 0 107.952-87.419 195.447-195.321 195.447z"></path>
	<path class="path5" d="M355.015 194.186c-13.482 13.301-26.92 26.649-40.384 39.951 0-30.753 0-61.528 0-92.234 0-30.872-47.808-30.872-47.808 0 0 49.39 0 98.824 0 148.188-0.025 1.185 0.047 2.341 0.217 3.504 0.82 10.375 7.261 16.943 15.27 19.573 7.554 3.356 16.552 2.923 24.298-4.053 0.26-0.217 0.502-0.408 0.769-0.654 0.072-0.047 0.17-0.094 0.217-0.166 27.065-26.772 54.151-53.516 81.191-80.31 22.004-21.679-11.816-55.499-33.77-33.799z"></path>
</symbol>
<symbol id="icon-icon_kutsuplus" viewBox="0 0 1024 1024">
	<title>icon_kutsuplus</title>
	<path class="path1" d="M300.008 914.801v89.684c0 11.416-11.412 19.565-21.195 19.565h-91.313c-11.416 0-22.831-8.153-22.831-19.565v-101.096l-34.239-9.786c-14.678-3.262-34.247-21.195-34.247-44.026 0 0-13.045-127.185-13.045-257.633 0-290.247 40.767-505.487 40.767-505.487 3.262-34.243 26.089-57.070 65.224-61.965 125.56-16.307 187.521-24.46 322.86-24.46s197.3 8.153 322.86 24.46c39.134 4.891 61.962 27.719 65.224 61.965 0 0 40.767 215.237 40.767 505.487 0 130.447-13.048 257.633-13.048 257.633 0 22.831-19.565 40.767-34.243 44.026l-34.239 9.786v101.096c0 11.416-11.416 19.565-22.831 19.565h-91.31c-9.786 0-21.195-8.153-21.195-19.565v-89.684c-63.598 6.524-125.56 9.786-211.978 9.786s-148.391-3.262-211.989-9.786zM872.351 523.459l-24.46-397.867c-1.626-17.936-16.307-39.134-42.393-39.134h-587.021c-26.086 0-40.767 21.195-42.393 39.134l-24.46 397.867h720.727zM335.883 666.951l-177.735-16.307v47.288c0 22.827 21.202 37.505 44.026 37.505h92.946c22.827 0 40.767-14.678 40.767-37.505v-30.981zM489.162 427.254v-101.096h-102.732c-9.779 0-19.565-9.786-19.565-21.198 0-9.783 9.786-21.198 19.565-21.198h102.732v-101.096c0-11.416 11.412-21.198 22.827-21.198s22.827 9.783 22.827 21.198v101.096h102.732c9.779 0 19.565 11.416 19.565 21.198 0 11.416-9.786 21.198-19.565 21.198h-102.732v101.096c0 13.045-11.412 21.195-22.827 21.195-11.419 0.004-22.827-8.15-22.827-21.195zM688.091 697.932c0 22.827 17.936 37.505 40.767 37.505h92.946c22.824 0 44.026-14.678 44.026-37.505v-47.288l-177.735 16.307v30.981z"></path>
</symbol>
<symbol id="icon-icon_bus-stop" viewBox="0 0 1024 1024">
	<title>icon_bus-stop</title>
	<path class="path1" d="M56.882-0.007c31.422 0 56.89 25.468 56.89 56.89v967.128h-113.779v-967.128c0-31.422 25.468-56.89 56.89-56.89z"></path>
	<path class="path2" d="M199.107 199.107h142.224v85.335h-142.224v-85.335z"></path>
	<path class="path3" d="M199.107 312.886h654.231v28.445h-654.231v-28.445z"></path>
	<path class="path4" d="M369.776 199.107h142.224v85.335h-142.224v-85.335z"></path>
	<path class="path5" d="M540.445 199.107h142.224v85.335h-142.224v-85.335z"></path>
	<path class="path6" d="M967.118 56.882h-910.235v512.007h910.235c31.422 0 56.89-25.468 56.89-56.89v-398.228c0-31.422-25.468-56.89-56.89-56.89zM881.783 398.221c0 15.711-12.734 28.445-28.445 28.445h-59.371c1.579 4.454 2.482 9.226 2.482 14.222 0 23.564-19.103 42.667-42.667 42.667s-42.667-19.103-42.667-42.667c0-4.996 0.903-9.768 2.482-14.222h-374.747c1.579 4.454 2.482 9.226 2.482 14.222 0 23.564-19.103 42.667-42.667 42.667s-42.667-19.103-42.667-42.667c0-4.996 0.903-9.768 2.482-14.222h-59.371c-15.711 0-28.445-12.734-28.445-28.445v-199.114c0-15.711 12.734-28.445 28.445-28.445h654.231c15.711 0 28.445 12.734 28.445 28.445v199.114z"></path>
	<path class="path7" d="M711.114 199.107h142.224v85.335h-142.224v-85.335z"></path>
</symbol>
<symbol id="icon-icon_station" viewBox="0 0 1024 1024">
	<title>icon_station</title>
	<path class="path1" d="M-0.007 80.935l1023.776-80.823v80.826l-1023.776 269.413v-269.417z"></path>
	<path class="path2" d="M-0.007 161.761h215.529v862.127h-215.529v-862.127z"></path>
	<path class="path3" d="M727.717 242.374c-163.607 0-296.269 132.723-296.269 296.442 0 163.711 132.658 296.467 296.269 296.467 163.657 0 296.29-132.756 296.29-296.467 0-163.715-132.633-296.442-296.29-296.442zM727.695 754.424c-118.967 0-215.435-96.504-215.435-215.576 0-119.043 96.468-215.547 215.435-215.547 119.010 0 215.435 96.504 215.435 215.547 0 119.072-96.425 215.576-215.435 215.576z"></path>
	<path class="path4" d="M798.652 456.57c-14.873 14.674-29.691 29.395-44.542 44.065 0-33.921 0-67.864 0-101.735 0-34.051-52.732-34.051-52.732 0 0 54.477 0 109.004 0 163.448-0.025 1.308 0.051 2.583 0.238 3.862 0.903 11.441 8.005 18.691 16.841 21.588 8.33 3.703 18.254 3.226 26.798-4.472 0.289-0.238 0.553-0.452 0.849-0.719 0.079-0.051 0.184-0.105 0.238-0.184 29.85-29.532 59.729-59.028 89.554-88.582 24.272-23.9-13.030-61.203-37.245-37.27z"></path>
</symbol>
<symbol id="icon-icon_city" viewBox="0 0 1024 1024">
	<title>icon_city</title>
	<path class="path1" d="M1004.222 625.534h-264.963c-10.928 0-19.786 8.836-19.786 19.735v378.735h304.534v-378.738c0-10.895-8.858-19.731-19.786-19.731zM848.992 925.379c0 5.654-3.992 10.238-8.916 10.238h-29.247c-4.924 0-8.916-4.584-8.916-10.238v-56.778c0-5.657 3.992-10.241 8.916-10.241h29.247c4.924 0 8.916 4.584 8.916 10.241v56.778zM848.992 780.929c0 5.657-3.992 10.241-8.916 10.241h-29.247c-4.924 0-8.916-4.584-8.916-10.241v-56.778c0-5.654 3.992-10.238 8.916-10.238h29.247c4.924 0 8.916 4.584 8.916 10.238v56.778zM941.57 925.379c0 5.654-3.992 10.238-8.916 10.238h-29.25c-4.924 0-8.916-4.584-8.916-10.238v-56.778c0-5.657 3.992-10.241 8.916-10.241h29.25c4.924 0 8.916 4.584 8.916 10.241v56.778zM941.57 780.929c0 5.657-3.992 10.241-8.916 10.241h-29.25c-4.924 0-8.916-4.584-8.916-10.241v-56.778c0-5.654 3.992-10.238 8.916-10.238h29.25c4.924 0 8.916 4.584 8.916 10.238v56.778z"></path>
	<path class="path2" d="M379.602-0.007h-359.838c-10.913 0-19.764 9.169-19.764 20.479v1003.535h399.366v-1003.535c0-11.311-8.847-20.479-19.764-20.479zM122.056 773.325c0 5.654-4.584 10.241-10.241 10.241h-32.455c-5.657 0-10.241-4.584-10.241-10.241v-81.921c0-5.654 4.584-10.241 10.241-10.241h32.455c5.657 0 10.241 4.584 10.241 10.241v81.921zM122.056 584.153c0 5.654-4.584 10.238-10.241 10.238h-32.455c-5.657 0-10.241-4.584-10.241-10.238v-81.921c0-5.654 4.584-10.241 10.241-10.241h32.455c5.657 0 10.241 4.584 10.241 10.241v81.921zM122.056 394.98c0 5.657-4.584 10.241-10.241 10.241h-32.455c-5.657 0-10.241-4.584-10.241-10.241v-81.921c0-5.657 4.584-10.241 10.241-10.241h32.455c5.657 0 10.241 4.584 10.241 10.241v81.921zM122.056 205.812c0 5.654-4.584 10.238-10.241 10.238h-32.455c-5.657 0-10.241-4.584-10.241-10.238v-81.921c0-5.657 4.584-10.241 10.241-10.241h32.455c5.657 0 10.241 4.584 10.241 10.241v81.921zM226.15 773.325c0 5.654-4.584 10.241-10.241 10.241h-32.455c-5.657 0-10.241-4.584-10.241-10.241v-81.921c0-5.654 4.584-10.241 10.241-10.241h32.455c5.657 0 10.241 4.584 10.241 10.241v81.921zM226.15 584.153c0 5.654-4.584 10.238-10.241 10.238h-32.455c-5.657 0-10.241-4.584-10.241-10.238v-81.921c0-5.654 4.584-10.241 10.241-10.241h32.455c5.657 0 10.241 4.584 10.241 10.241v81.921zM226.15 394.98c0 5.657-4.584 10.241-10.241 10.241h-32.455c-5.657 0-10.241-4.584-10.241-10.241v-81.921c0-5.657 4.584-10.241 10.241-10.241h32.455c5.657 0 10.241 4.584 10.241 10.241v81.921zM226.15 205.812c0 5.654-4.584 10.238-10.241 10.238h-32.455c-5.657 0-10.241-4.584-10.241-10.238v-81.921c0-5.657 4.584-10.241 10.241-10.241h32.455c5.657 0 10.241 4.584 10.241 10.241v81.921zM330.248 773.325c0 5.654-4.584 10.241-10.238 10.241h-32.455c-5.654 0-10.238-4.584-10.238-10.241v-81.921c0-5.654 4.584-10.241 10.238-10.241h32.455c5.654 0 10.238 4.584 10.238 10.241v81.921zM330.248 584.153c0 5.654-4.584 10.238-10.238 10.238h-32.455c-5.654 0-10.238-4.584-10.238-10.238v-81.921c0-5.654 4.584-10.241 10.238-10.241h32.455c5.654 0 10.238 4.584 10.238 10.241v81.921zM330.248 394.98c0 5.657-4.584 10.241-10.238 10.241h-32.455c-5.654 0-10.238-4.584-10.238-10.241v-81.921c0-5.657 4.584-10.241 10.238-10.241h32.455c5.654 0 10.238 4.584 10.238 10.241v81.921zM330.248 205.812c0 5.654-4.584 10.238-10.238 10.238h-32.455c-5.654 0-10.238-4.584-10.238-10.238v-81.921c0-5.657 4.584-10.241 10.238-10.241h32.455c5.654 0 10.238 4.584 10.238 10.241v81.921z"></path>
	<path class="path3" d="M671.803 548.949l-102.797-303.1c-3.143-9.27-16.253-9.27-19.396 0l-102.797 303.1c-1.795 5.296-2.713 10.852-2.713 16.444v458.607h230.416v-458.607c0-5.592-0.918-11.148-2.713-16.444zM585.775 847.128c0 5.657-4.584 10.241-10.238 10.241h-32.455c-5.654 0-10.241-4.584-10.241-10.241v-65.744c0-14.591 11.827-26.418 26.418-26.418h0.098c14.591 0 26.418 11.827 26.418 26.418v65.744zM585.775 666.503c0 5.657-4.584 10.241-10.238 10.241h-32.455c-5.654 0-10.241-4.584-10.241-10.241v-65.744c0-14.591 11.827-26.418 26.418-26.418h0.098c14.591 0 26.418 11.827 26.418 26.418v65.744z"></path>
</symbol>
<symbol id="icon-icon_no-connection" viewBox="0 0 1024 1024">
	<title>icon_no-connection</title>
	<path class="path1" d="M606.962 834.654c0 52.446-42.516 94.962-94.962 94.962s-94.962-42.516-94.962-94.962c0-52.446 42.516-94.962 94.962-94.962s94.962 42.516 94.962 94.962z"></path>
	<path class="path2" d="M366.958 477.699c-65.654 21.754-127.362 58.591-179.512 110.738l89.529 89.536c31.367-31.371 67.521-55.073 106.106-71.257l-16.123-129.017z"></path>
	<path class="path3" d="M660.846 478.924l-16.173 129.422c37.173 16.137 72.004 39.282 102.353 69.631l89.529-89.536c-51.146-51.146-111.475-87.607-175.709-109.517z"></path>
	<path class="path4" d="M333.622 210.952c-125.173 31.57-239.975 96.378-333.629 190.036l89.529 89.536c73.431-73.435 162.664-125.235 259.974-152.578l-15.873-126.994z"></path>
	<path class="path5" d="M694.2 212.007l-15.87 126.994c95.825 27.621 183.678 79.045 256.148 151.519l89.529-89.532c-92.693-92.697-206.129-157.057-329.807-188.981z"></path>
	<path class="path6" d="M406.356 151.747c-3.562-34.42 15.429-60.535 47.479-60.535h116.326c32.050 0 51.041 26.115 47.479 60.535l-51.041 446.303c-3.562 32.050-24.926 52.226-54.603 52.226-29.673 0-51.041-20.179-54.599-52.226l-51.041-446.303zM511.996 728.616c59.353 0 103.271 43.917 103.271 100.897v2.373c0 56.98-43.917 100.897-103.271 100.897-59.346 0-103.267-43.917-103.267-100.897v-2.373c0-56.976 43.917-100.897 103.267-100.897z"></path>
</symbol>
<symbol id="icon-icon_arrow-left" viewBox="0 0 1024 1024">
	<title>icon_arrow-left</title>
	<path class="path1" d="M19.016 556.632c-2.045-4.089-18.398-20.44-18.398-44.968 0-24.525 16.354-40.875 18.398-44.965l449.666-447.629c24.529-24.525 63.363-24.525 89.937 0 24.525 24.529 24.525 65.404 0 89.937l-341.342 339.293h743.999c34.745 0 63.36 28.615 63.36 63.36 0 34.749-28.615 63.363-63.36 63.363h-743.999l341.342 341.338c24.525 24.525 24.525 63.36 0 89.933-26.574 24.525-65.404 24.525-89.937 0l-449.666-449.663z"></path>
</symbol>
<symbol id="icon-icon_arrow-right" viewBox="0 0 1024 1024">
	<title>icon_arrow-right</title>
	<path class="path1" d="M556.575 1006.295c-24.525 24.525-63.36 24.525-89.933 0-24.525-26.574-24.525-65.404 0-89.933l341.338-341.338h-743.995c-34.745 0-63.363-28.615-63.363-63.363 0-34.745 28.618-63.36 63.363-63.36h743.995l-341.338-339.293c-24.525-24.529-24.525-65.404 0-89.937 26.574-24.525 65.404-24.525 89.933 0l449.67 447.622c2.041 4.089 18.395 20.44 18.395 44.965 0 24.529-16.354 40.879-18.395 44.968l-449.67 449.67z"></path>
</symbol>
<symbol id="icon-icon_arrow-up" viewBox="0 0 1024 1024">
	<title>icon_arrow-up</title>
	<path class="path1" d="M1004.962 468.74c24.525 24.525 24.525 63.36 0 89.933-26.574 24.525-65.404 24.525-89.933 0l-341.338-341.338v743.995c0 34.745-28.618 63.363-63.363 63.363s-63.36-28.618-63.36-63.363v-743.995l-339.297 341.338c-24.525 24.525-65.404 24.525-89.933 0-24.525-26.574-24.525-65.404 0-89.933l447.622-449.67c4.086-2.041 20.44-18.395 44.965-18.395s40.879 16.354 44.965 18.395l449.673 449.67z"></path>
</symbol>
<symbol id="icon-icon_arrow-down" viewBox="0 0 1024 1024">
	<title>icon_arrow-down</title>
	<path class="path1" d="M555.292 1006.295c-4.086 2.045-20.44 18.398-44.965 18.398s-40.879-16.354-44.965-18.398l-447.625-449.663c-24.525-24.529-24.525-63.363 0-89.937 24.525-24.525 65.404-24.525 89.933 0l339.297 341.342v-743.999c0-34.745 28.615-63.36 63.36-63.36s63.363 28.615 63.363 63.36v743.999l341.338-341.342c24.525-24.525 63.36-24.525 89.933 0 24.525 26.574 24.525 65.404 0 89.937l-449.67 449.663z"></path>
</symbol>
<symbol id="icon-icon_menu" viewBox="0 0 1024 1024">
	<title>icon_menu</title>
	<path class="path1" d="M51.193 204.793h921.614c28.279 0 51.2 22.925 51.2 51.204 0 28.275-22.921 51.2-51.2 51.2h-921.614c-28.279 0-51.2-22.925-51.2-51.2 0-28.279 22.921-51.204 51.2-51.204z"></path>
	<path class="path2" d="M51.193 460.796h921.614c28.279 0 51.2 22.925 51.2 51.204 0 28.275-22.921 51.2-51.2 51.2h-921.614c-28.279 0-51.2-22.925-51.2-51.2 0-28.279 22.921-51.204 51.2-51.204z"></path>
	<path class="path3" d="M51.193 716.804h921.614c28.279 0 51.2 22.925 51.2 51.2 0 28.279-22.921 51.204-51.2 51.204h-921.614c-28.279 0-51.2-22.925-51.2-51.204 0-28.275 22.921-51.2 51.2-51.2z"></path>
</symbol>
<symbol id="icon-icon_search" viewBox="0 0 1024 1024">
	<title>icon_search</title>
	<path class="path1" d="M914.563 1006.479l-260.328-260.324 91.927-91.931 260.328 260.328c25.371 25.371 25.371 66.503 0 91.873l-0.054 0.054c-25.367 25.371-66.503 25.371-91.873 0z"></path>
	<path class="path2" d="M437.528 130.007c169.564 0 307.514 137.951 307.514 307.514 0 169.56-137.951 307.511-307.514 307.511s-307.514-137.951-307.514-307.511c0-169.564 137.951-307.514 307.514-307.514zM437.528 0c-241.637 0-437.521 195.884-437.521 437.521s195.884 437.517 437.521 437.517 437.521-195.881 437.521-437.517-195.884-437.521-437.521-437.521v0z"></path>
</symbol>
<symbol id="icon-icon_ellipsis" viewBox="0 0 1024 1024">
	<title>icon_ellipsis</title>
	<path class="path1" d="M-0.007 512.921v-1.846c0-66.474 56.315-120.018 120.943-120.018 63.703 0 120.939 53.545 120.939 120.018v1.846c0 66.474-54.469 120.018-120.939 120.018-66.474 0-120.943-53.545-120.943-120.018z"></path>
	<path class="path2" d="M391.061 512.921v-1.846c0-66.474 56.315-120.018 120.943-120.018 63.703 0 120.939 53.545 120.939 120.018v1.846c0 66.474-54.469 120.018-120.939 120.018-66.474 0-120.943-53.545-120.943-120.018z"></path>
	<path class="path3" d="M782.125 512.921v-1.846c0-66.474 56.315-120.018 120.943-120.018 63.703 0 120.939 53.545 120.939 120.018v1.846c0 66.474-54.469 120.018-120.939 120.018s-120.943-53.545-120.943-120.018z"></path>
</symbol>
<symbol id="icon-icon_arrow-collapse" viewBox="0 0 1024 1024">
	<title>icon_arrow-collapse</title>
	<path class="path1" d="M512 814.511l-492.745-492.745c-25.685-25.685-25.685-67.326 0-93.011v0c25.685-25.685 67.326-25.685 93.011 0l492.742 492.742-93.007 93.015z"></path>
	<path class="path2" d="M512 814.511l-93.011-93.011 492.745-492.745c25.685-25.685 67.326-25.685 93.011 0v0c25.685 25.685 25.685 67.326 0 93.011l-492.745 492.745z"></path>
</symbol>
<symbol id="icon-icon_arrow-collapse--right" viewBox="0 0 1024 1024">
	<title>icon_arrow-collapse--right</title>
	<g transform="rotate(270 512 512)">
		<path class="path1" d="M512 814.511l-492.745-492.745c-25.685-25.685-25.685-67.326 0-93.011v0c25.685-25.685 67.326-25.685 93.011 0l492.742 492.742-93.007 93.015z"></path>
		<path class="path2" d="M512 814.511l-93.011-93.011 492.745-492.745c25.685-25.685 67.326-25.685 93.011 0v0c25.685 25.685 25.685 67.326 0 93.011l-492.745 492.745z"></path>
	</g>
</symbol>
<symbol id="icon-icon_arrow-dropdown" viewBox="0 0 1024 1024">
	<title>icon_arrow-dropdown</title>
	<path class="path1" d="M845.224 212.621l-333.221 333.235-333.224-333.235c-40.901-40.901-107.212-40.901-148.113 0v0c-40.901 40.901-40.897 107.212 0 148.109l481.333 481.326 481.333-481.326c40.901-40.901 40.901-107.212 0-148.109v0c-40.897-40.904-107.212-40.901-148.109 0z"></path>
</symbol>
<symbol id="icon-icon_close" viewBox="0 0 1024 1024">
	<title>icon_close</title>
	<path class="path1" d="M610.332 512l393.322-393.326c27.152-27.152 27.152-71.17 0-98.318-27.148-27.152-71.17-27.152-98.321 0l-393.322 393.322-393.322-393.326c-27.152-27.152-71.17-27.152-98.318 0l-0.007 0.004c-27.152 27.152-27.152 71.17 0 98.321l393.326 393.322-393.326 393.322c-27.152 27.152-27.152 71.17 0 98.321l0.004 0.004c27.152 27.148 71.17 27.148 98.318 0l393.322-393.326 393.326 393.322c27.152 27.152 71.17 27.152 98.321 0 27.148-27.152 27.148-71.17 0-98.318l-393.322-393.326z"></path>
</symbol>
<symbol id="icon-icon_plus" viewBox="0 0 1024 1024">
	<title>icon_plus</title>
	<path class="path1" d="M512 1024v0c-42.418 0-76.802-34.384-76.802-76.802v-870.396c0-42.418 34.387-76.802 76.802-76.802v0c42.414 0 76.802 34.384 76.802 76.802v870.396c0 42.418-34.387 76.802-76.802 76.802z"></path>
	<path class="path2" d="M0 512v0c0-42.418 34.384-76.802 76.802-76.802h870.396c42.414 0 76.802 34.384 76.802 76.802v0c0 42.414-34.384 76.802-76.802 76.802h-870.396c-42.418 0-76.802-34.387-76.802-76.802z"></path>
</symbol>
<symbol id="icon-icon_direction-b" viewBox="0 0 1024 1024">
	<title>icon_direction-b</title>
	<path class="path1" d="M409.73 469.12l-266.162 0.004 142.618-142.618c16.17-16.17 16.17-42.382 0-58.551l-0.022-0.022c-16.17-16.17-42.382-16.17-58.551 0l-210.88 210.876c-18.33 18.33-18.33 48.054 0 66.383l210.88 210.88c16.17 16.17 42.382 16.17 58.551 0l0.022-0.022c16.17-16.17 16.17-42.382 0-58.551l-142.614-142.618 266.162-0.004c22.867 0 41.403-18.536 41.403-41.403v-2.955c-0.004-22.864-18.539-41.399-41.407-41.399zM1008.528 478.808l-210.876-210.876c-16.17-16.17-42.382-16.17-58.551 0l-0.022 0.022c-16.17 16.17-16.17 42.382 0 58.551l142.614 142.614h-266.162c-22.867 0-41.403 18.536-41.403 41.403v2.955c0 22.867 18.536 41.403 41.403 41.403h266.169l-142.618 142.618c-16.17 16.17-16.17 42.382 0 58.551l0.022 0.022c16.17 16.17 42.382 16.17 58.551 0l210.876-210.876c18.326-18.333 18.326-48.057-0.004-66.387z"></path>
</symbol>
<symbol id="icon-icon_maximize" viewBox="0 0 1024 1024">
	<title>icon_maximize</title>
	<path class="path1" d="M156.494 90.352h219.994c24.941 0 45.16-20.219 45.16-45.16v-0.036c0-24.937-20.219-45.156-45.16-45.156h-325.288c-28.275 0-51.2 22.925-51.2 51.2v325.291c0 24.941 20.219 45.16 45.16 45.16h0.036c24.941 0 45.16-20.219 45.16-45.16v-219.991l293.165 293.162c17.636 17.636 46.229 17.636 63.865 0l2.279-2.279c17.636-17.636 17.636-46.229 0-63.865l-293.173-293.165zM978.84 602.352h-0.036c-24.941 0-45.16 20.219-45.16 45.16v219.991l-293.165-293.169c-17.636-17.636-46.229-17.636-63.865 0l-2.279 2.279c-17.636 17.636-17.636 46.229 0 63.865l293.169 293.173h-219.994c-24.941 0-45.16 20.219-45.16 45.16v0.033c0 24.941 20.219 45.16 45.16 45.16h325.288c28.279 0 51.2-22.925 51.2-51.2v-325.288c0.004-24.944-20.216-45.164-45.156-45.164z"></path>
</symbol>
<symbol id="icon-icon_minimize" viewBox="0 0 1024 1024">
	<title>icon_minimize</title>
	<path class="path1" d="M396.075 5.3h-0.036c-25.887 0-46.872 20.985-46.872 46.872v228.339l-266.794-266.791c-18.305-18.305-47.981-18.305-66.286 0l-2.366 2.366c-18.305 18.305-18.305 47.981 0 66.289l266.794 266.791h-228.339c-25.887 0-46.872 20.985-46.872 46.872v0.036c0 25.887 20.985 46.872 46.872 46.872h337.628c29.352 0 53.144-23.792 53.144-53.144v-337.632c0-25.887-20.985-46.872-46.872-46.872zM1010.28 941.628l-266.798-266.798h228.339c25.887 0 46.872-20.985 46.872-46.872v-0.033c0-25.887-20.985-46.872-46.872-46.872h-337.628c-29.352 0-53.144 23.792-53.144 53.144v337.628c0 25.887 20.985 46.872 46.872 46.872h0.036c25.887 0 46.872-20.985 46.872-46.872v-228.335l266.794 266.794c18.305 18.305 47.981 18.305 66.289 0l2.366-2.366c18.305-18.308 18.305-47.985 0-66.289z"></path>
</symbol>
<symbol id="icon-icon_direction-a" viewBox="0 0 1024 1024">
	<title>icon_direction-a</title>
	<path class="path1" d="M457.968 1001.527l-49.061-64.18c149.745-114.469 232.212-265.663 232.212-425.73s-82.47-311.26-232.212-425.73l49.061-64.176c170.199 130.104 263.933 304.093 263.933 489.906s-93.734 359.805-263.933 489.91z"></path>
	<path class="path2" d="M384.93 0h296.543v79.074h-296.543v-79.074z"></path>
	<path class="path3" d="M384.93 0h79.074v296.543h-79.074v-296.543z"></path>
	<path class="path4" d="M384.93 944.196h296.543v79.074h-296.543v-79.074z"></path>
	<path class="path5" d="M384.93 726.807h79.074v296.543h-79.074v-296.543z"></path>
</symbol>
<symbol id="icon-icon_mapMarker-location" viewBox="0 0 1024 1024">
	<title>icon_mapMarker-location</title>
	<path fill="rgb(255, 255, 255)" class="path1 fill-color14" d="M512 43.343c125.184 0 242.872 48.751 331.393 137.268s137.268 206.209 137.268 331.389c0 125.184-48.751 242.876-137.268 331.393s-206.209 137.268-331.393 137.268-242.872-48.751-331.393-137.268c-88.517-88.517-137.268-206.209-137.268-331.393s48.751-242.872 137.268-331.389 206.209-137.268 331.393-137.268zM512-0.007c-282.772 0-512.007 229.231-512.007 512.007s229.235 512.007 512.007 512.007 512.007-229.231 512.007-512.007c0-282.776-229.235-512.007-512.007-512.007v0z"></path>
	<path fill="rgb(255, 255, 255)" class="path2 fill-color14" d="M512 253.749c142.401 0 258.251 115.849 258.251 258.251s-115.849 258.251-258.251 258.251-258.251-115.849-258.251-258.251c0-142.401 115.849-258.251 258.251-258.251zM512 170.662c-188.515 0-341.338 152.823-341.338 341.338s152.823 341.338 341.338 341.338 341.338-152.823 341.338-341.338c0-188.515-152.823-341.338-341.338-341.338v0z"></path>
	<path fill="rgb(255, 255, 255)" class="path3 fill-color14" d="M512 341.331c94.257 0 170.669 76.412 170.669 170.669s-76.412 170.669-170.669 170.669-170.669-76.412-170.669-170.669c0-94.257 76.412-170.669 170.669-170.669z"></path>
	<path fill="rgb(0, 185, 228)" class="path4 fill-color11" d="M512 426.665c47.129 0 85.335 38.206 85.335 85.335s-38.206 85.335-85.335 85.335c-47.129 0-85.335-38.206-85.335-85.335s38.206-85.335 85.335-85.335z"></path>
</symbol>
<symbol id="icon-icon_mapMarker-point" viewBox="0 0 1024 1024">
	<title>icon_mapMarker-point</title>
	<path class="path1" d="M512-0.007c203.687 0 368.811 161.811 368.811 361.42 0 199.602-368.811 662.598-368.811 662.598s-368.811-462.996-368.811-662.602c0-199.609 165.12-361.416 368.811-361.416z"></path>
</symbol>
<symbol id="icon-icon_place" viewBox="0 0 1024 1024">
	<title>icon_place</title>
	<path class="path1" d="M864.309 343.535c0 188.974-340.8 683.218-340.8 683.218s-340.8-494.245-340.8-683.218c0-187.359 151.826-340.8 340.8-340.8s340.8 153.441 340.8 340.8zM675.336 341.92c0-82.372-67.839-150.211-151.826-150.211-83.991 0-151.826 67.836-151.826 150.211 0 83.991 67.836 151.826 151.826 151.826 83.987 0 151.826-67.839 151.826-151.826z"></path>
</symbol>
<symbol id="icon-icon_route" viewBox="0 0 1024 1024">
	<title>icon_route</title>
	<path class="path1" d="M436.405 430.657c0 120.112-218.661 435.783-218.661 435.783s-217.122-315.671-217.122-435.783c0-120.108 97.010-217.122 217.122-217.122 121.647 0.004 218.661 97.014 218.661 217.122zM314.754 430.657c0-53.895-43.115-97.010-97.010-97.010-52.356 0-97.010 43.119-97.010 97.010 0 52.356 44.654 95.471 97.010 95.471 53.895 0.004 97.010-43.112 97.010-95.471zM370.191 966.536c-38.498-4.62-75.454-20.020-107.793-44.654l30.797-40.037c24.637 18.482 53.895 29.258 83.153 33.878l-6.156 50.813zM441.025 911.102c33.874-7.698 64.671-26.176 87.769-50.817l36.956 33.878c-29.258 32.339-69.295 55.437-112.41 66.217l-12.315-49.278zM564.212 804.851c10.78-26.176 13.858-53.895 12.322-83.153l50.813-4.62c3.081 36.956-3.081 73.912-16.939 107.79l-46.197-20.017zM570.371 637.003c-6.159-44.654 6.163-92.393 43.119-126.271l36.956 33.878c-24.637 23.098-32.339 55.437-29.258 87.773l-50.817 4.62zM804.436 529.21c-24.637-20.017-49.278-24.637-78.536-21.556-4.617 0-10.78 1.539-15.4 3.078l-10.78-50.813c6.163-1.543 13.861-3.078 21.563-3.078 41.573-4.62 83.153 6.159 113.949 32.336l-30.797 40.034zM1024.639 215.078c0 70.834-127.814 255.621-127.814 255.621s-127.81-184.783-127.81-255.621c0-70.834 56.976-127.81 127.81-127.81s127.814 56.976 127.814 127.81zM953.802 213.539c0-30.797-26.18-55.437-56.976-55.437s-56.973 24.637-56.973 55.437c0 32.336 26.176 56.976 56.973 56.976s56.976-24.641 56.976-56.976z"></path>
</symbol>
<symbol id="icon-icon_caution" viewBox="0 0 1024 1024">
	<title>icon_caution</title>
	<path class="path1" d="M1006.801 779.481c12.373 17.68 17.68 38.892 17.68 60.105 0 60.105-49.502 111.373-111.373 111.373h-802.597c-38.896 0-76.014-21.213-95.468-56.572-19.442-33.589-19.442-76.014 0-109.603l401.302-696.523c19.442-33.589 56.568-54.805 95.457-54.805 40.662 0 76.014 21.213 97.231 54.805l397.769 691.22zM573.68 277.415c1.77-21.213-12.373-37.122-31.819-37.122h-60.105c-19.446 0-31.823 15.909-30.049 37.122l30.049 346.497c1.77 17.676 14.147 30.052 30.049 30.052 17.68 0 30.056-12.376 31.823-30.052l30.052-346.497zM571.913 774.177c0-33.589-24.753-58.338-60.112-58.338-33.582 0-60.101 24.753-60.101 58.338v8.84c0 33.589 26.519 58.338 60.101 58.338 35.356 0 60.112-24.753 60.112-58.338v-8.84z"></path>
</symbol>
<symbol id="icon-icon_info" viewBox="0 0 1024 1024">
	<title>icon_info</title>
	<path class="path1" d="M1024.007 512.853c0 282.375-229.64 510.306-512.007 510.306-282.371 0-512.011-227.934-512.011-510.306 0.004-284.073 229.64-512.011 512.011-512.011s512.007 227.938 512.007 512.011zM608.956 506.047c0-54.437-35.72-96.96-90.154-96.96h-93.557c-45.929 0-73.142 30.623-73.142 69.743 0 34.023 22.116 69.743 93.557 69.743v234.74c0 54.43 28.918 96.956 81.65 96.956 54.433 0 81.65-42.526 81.65-96.956v-277.267zM622.568 228.78c0-57.836-47.627-95.254-110.564-95.254s-110.571 37.418-110.571 95.254v8.504c0 57.836 47.631 96.96 110.568 96.96s110.564-39.127 110.564-96.96v-8.504z"></path>
</symbol>
<symbol id="icon-icon_thumb-up" viewBox="0 0 1024 1024">
	<title>icon_thumb-up</title>
	<path class="path1" d="M567.362 47.934c42.786 71.401-5.726 160.818-42.075 238.812-31.245 67.059-26.48 143.142 57.291 133.395 100.937-11.748 141.675-19.822 227.591-25.692 86.765-5.925 114.151 29.709 114.151 62.717 0 53.299-17.799 57.309-17.799 77.756 0 20.443 66.55 7.117 66.55 74.172 0 67.153-51.995 64.96-51.995 83.68 0 18.771 50.611 27.177 50.611 80.862s-68.215 60.798-68.215 82.961c0 22.163 22.040 27.939 22.040 61.185 0 33.195-69.216 106.226-313.453 106.226-416.207 0-366.835-99.824-561.13-99.824v-368.818c101.132 0 95.648-89.608 165.435-158.047 70.408-69.017 205.075-225.294 231.551-348.473 17.698-82.441 93.018-44.994 119.447-0.91z"></path>
</symbol>
<symbol id="icon-icon_thumb-down" viewBox="0 0 1024 1024">
	<title>icon_thumb-down</title>
	<path class="path1" d="M447.914 975.159c-26.476-123.179-161.143-279.456-231.551-348.473-69.786-68.439-64.299-158.047-165.435-158.047v-368.822c194.291 0 144.923-99.824 561.13-99.824 244.238 0 313.453 73.030 313.453 106.226 0 33.246-22.040 39.022-22.040 61.185s68.215 29.276 68.215 82.961c0 53.689-50.611 62.095-50.611 80.862 0 18.72 51.995 16.527 51.995 83.68 0 67.059-66.55 53.729-66.55 74.172 0 20.447 17.799 24.457 17.799 77.756 0 33.007-27.386 68.638-114.151 62.717-85.916-5.87-126.654-13.948-227.591-25.692-83.77-9.747-88.535 66.336-57.291 133.395 36.349 77.994 84.861 167.411 42.075 238.812-26.429 44.083-101.75 81.531-119.447-0.907z"></path>
</symbol>
<symbol id="icon-icon_pause" viewBox="0 0 1024 1024">
	<title>icon_pause</title>
	<path class="path1" d="M230.377 1024.079h-0.043c-84.832 0-153.604-68.771-153.604-153.604v-716.952c0-84.832 68.771-153.604 153.604-153.604h0.043c84.832 0 153.604 68.771 153.604 153.604v716.952c0 84.832-68.771 153.604-153.604 153.604z"></path>
	<path class="path2" d="M793.663 1024.079h-0.043c-84.832 0-153.604-68.771-153.604-153.604v-716.952c0-84.832 68.771-153.604 153.604-153.604h0.043c84.832 0 153.604 68.771 153.604 153.604v716.952c0 84.832-68.771 153.604-153.604 153.604z"></path>
</symbol>
<symbol id="icon-icon_print" viewBox="0 0 1024 1024">
	<title>icon_print</title>
	<path class="path1" d="M941.425 198.532h-858.851c-45.416 0-82.585 34.322-82.585 76.274v250.791c0 39.904 37.169 72.55 82.585 72.55h84.626l3.551-88.199c0-46.027 36.219-83.673 80.487-83.673h525.33c36.866 0 68.074 26.147 77.499 61.467l-0.022 109.495-171.251 0.213c-59.198 0-113.859 57.63-113.859 113.855v170.803l-283.502 0.863c-32.397 0-58.754-30.468-58.754-67.911l-5.35-134.259c0-14.439-11.448-26.144-25.573-26.144s-25.577 11.701-25.577 26.144v144.627c0 62.485 49.715 113.306 110.828 113.306l323.034 0.029c6.575 0 12.875-2.475 17.524-6.885l289.044-274.55c4.646-4.422 7.258-10.408 7.258-16.643v-51.373h23.561c45.42 0 82.585-35.309 82.585-78.449v-236.059c-0.007-41.948-37.169-76.271-82.589-76.271zM142.022 369.234c-15.758 0-28.528-12.709-28.528-28.394 0-15.678 12.77-28.387 28.528-28.387s28.535 12.709 28.535 28.387c-0.004 15.682-12.777 28.394-28.535 28.394zM255.61 369.234c-15.754 0-28.528-12.709-28.528-28.394 0-15.678 12.774-28.387 28.528-28.387 15.758 0 28.535 12.709 28.535 28.387 0 15.682-12.774 28.394-28.535 28.394zM624.688 862.337v-147.134c0-30.28 25.931-54.914 57.804-54.914h154.908l-212.711 202.047zM751 85.241h-477.999c-49.82 0-91.718 24.023-103.209 56.323h684.414c-11.481-32.299-53.389-56.323-103.206-56.323z"></path>
</symbol>
<symbol id="icon-icon_share" viewBox="0 0 1024 1024">
	<title>icon_share</title>
	<path class="path1" d="M1024.007 775.557c0 70.505-58.754 129.259-130.942 129.259-58.75 0-109.112-40.29-124.227-94.008l-508.648 62.117c-3.36 70.505-60.434 125.907-130.942 125.907-72.185 0-129.255-57.078-129.255-129.263s57.070-130.939 129.255-130.939c15.111 0 28.539 3.356 41.97 6.716l58.757-112.475c-31.891-23.503-53.718-62.113-53.718-104.080 0-45.326 23.503-83.933 57.078-107.439l-67.156-141.014c-11.751 3.356-23.503 5.036-36.934 5.036-72.185 0-129.255-58.754-129.255-129.259 0-72.185 57.070-130.942 129.255-130.942 70.509 0 129.263 57.078 130.942 127.583l359.249 47.006c16.787-53.718 65.466-94.008 125.899-94.008 70.505 0 129.259 58.757 129.259 130.939 0 52.042-31.891 97.368-75.545 117.511l80.58 292.096c5.036-1.68 8.395-1.68 13.428-1.68 72.196 0 130.95 58.754 130.95 130.939zM270.262 404.561c11.748-3.356 23.496-6.716 36.931-6.716 36.931 0 72.189 16.787 95.684 41.97l223.271-149.406c-6.708-15.107-10.068-33.575-11.748-50.362l-360.925-48.682c-8.395 30.219-26.859 55.398-50.362 72.185l67.149 141.010zM206.473 765.486c23.496 16.787 40.283 40.29 48.678 68.825l508.655-63.79c0-8.395 1.676-18.467 3.36-26.859l-349.174-147.726c-23.507 38.61-63.79 62.113-110.795 62.113-15.107 0-28.535-1.676-41.97-6.716l-58.754 114.151zM758.77 364.274c-3.36 1.68-8.395 1.68-13.431 1.68-38.614 0-72.185-16.787-95.684-41.97l-224.951 149.406c8.395 16.787 11.748 35.251 11.748 55.398 0 10.072-1.676 20.147-3.356 30.219l350.853 147.726c13.428-21.823 31.891-40.29 57.070-50.358l-82.249-292.1z"></path>
</symbol>
<symbol id="icon-icon_star" viewBox="0 0 1024 1024">
	<title>icon_star</title>
	<path class="path1" d="M1007.715 441.173l-195.187 203.322 38.628 278.546c2.034 22.365-6.102 44.73-24.399 56.929-18.297 12.196-40.666 14.233-60.997 6.098l-254.15-124.024-254.147 124.024c-8.135 4.064-16.267 4.064-24.399 4.064-12.199 0-24.402-2.030-34.568-10.162-18.297-12.199-28.463-34.568-24.399-56.929l36.598-278.546-193.15-203.322c-16.267-16.267-20.331-38.628-14.233-58.963 6.102-22.365 24.402-36.598 46.764-40.666l276.515-50.832 134.19-248.049c10.166-20.331 30.497-30.497 50.832-30.497 22.365 0 42.696 10.166 52.862 30.497l134.194 248.049 276.512 50.832c22.365 4.064 38.628 18.297 46.764 40.666 6.102 20.335 2.034 42.696-14.23 58.963z"></path>
</symbol>
<symbol id="icon-icon_time" viewBox="0 0 1024 1024">
	<title>icon_time</title>
	<path class="path1" d="M763.423 557.333h-292.779v-403.383h86.7v316.683h206.079z"></path>
	<path class="path2" d="M513.994 86.693c114.137 0 221.439 44.445 302.142 125.152 80.703 80.703 125.152 188.005 125.152 302.139 0 114.137-44.445 221.439-125.152 302.142-80.703 80.707-188.009 125.152-302.142 125.152s-221.436-44.445-302.142-125.152c-80.703-80.707-125.152-188.009-125.152-302.142s44.448-221.436 125.152-302.139c80.707-80.707 188.009-125.152 302.142-125.152zM513.994-0.007c-283.867 0-513.994 230.12-513.994 513.99 0 283.874 230.127 513.994 513.994 513.994 283.874 0 513.994-230.12 513.994-513.994 0.004-283.87-230.12-513.99-513.994-513.99v0z"></path>
	<path class="path3" d="M588.802 512c0 42.416-34.385 76.802-76.802 76.802s-76.802-34.385-76.802-76.802c0-42.416 34.385-76.802 76.802-76.802s76.802 34.385 76.802 76.802z"></path>
</symbol>
<symbol id="icon-icon_user" viewBox="0 0 1024 1024">
	<title>icon_user</title>
	<path class="path1" d="M255.96 261.061c0 144.793 117.215 264.15 258.554 264.15h3.45c141.343 0 258.554-119.357 258.554-264.15s-117.211-262.008-258.55-262.008c-144.793 0-262.008 117.215-262.008 262.008z"></path>
	<path class="path2" d="M888.376 656.93c-28.821-89.662-79.128-120.882-159.189-120.882h-64.042c0 0-63.425 69.382-152.169 69.382-90.984 0-152.039-69.382-152.039-69.382h-64.046c-80.060 0-128.829 31.219-160.85 120.882 0 0-71.636 251.918-71.372 284.579 0.177 21.913 14.894 39.394 34.694 45.955 20.613 9.291 64.985 17.68 125.372 23.976l27.321-175.557h25.988v180.231c68.638 5.119 150.724 8.103 238.649 8.103 87.755 0 169.564-2.977 238.201-8.081v-180.253h26.415l28.355 175.315c60.419-6.409 104.423-14.829 124.071-24.251 16.621-6.141 27.553-20.797 27.553-45.409-0.004-32.661-72.911-284.607-72.911-284.607z"></path>
</symbol>
<!--
  Custom icons (not from Ville below)
-->
<radialGradient id="location-with-user-gradient">
	<stop offset="80%" stop-color="white"/>
	<stop offset="100%" stop-color="#f092cd"/>
</radialGradient>
<radialGradient id="mapMarker-white" cx="50%" cy="50%" r="70%">
	<stop offset="0%" stop-color="rgb(255,255,255)" stop-opacity="1" />
	<stop offset="25%" stop-color="rgb(255,255,255)" stop-opacity="1" />
	<stop offset="70%" stop-color="rgb(255,255,255)" stop-opacity="0" />
</radialGradient>
<symbol id="icon-icon_realtime" viewBox="0 0 1024 1024">
	<title>icon_realtime</title>
	<path class="path1" d="M368.356 1024.014c-44.781 0-81.079-36.302-81.079-81.079 0-361.528 294.123-655.658 655.651-655.658 44.781 0 81.079 36.302 81.079 81.079s-36.298 81.079-81.079 81.079c-272.112 0-493.497 221.385-493.497 493.5 0.004 44.773-36.295 81.079-81.075 81.079z">
		<animate values="1; 1; 0; 1; 1; 1" keyTimes="0;0.2;0.4;0.6;0.8;1" attributeName="opacity" dur="2s" repeatCount="indefinite"/>
	</path>
	<path class="path2" d="M81.072 1024.014c-44.781 0-81.079-36.302-81.079-81.079 0-519.948 423.002-942.946 942.939-942.946 44.781 0 81.079 36.302 81.079 81.079s-36.298 81.079-81.079 81.079c-430.524 0-780.781 350.257-780.781 780.788 0 44.773-36.298 81.079-81.079 81.079z">
		<animate values="1; 1; 0; 0; 1; 1" keyTimes="0;0.2;0.4;0.6;0.8;1" attributeName="opacity" dur="2s" repeatCount="indefinite"/>
	</path>
</symbol>
<symbol id="icon-icon_location-with-user" viewBox="0 0 1024 1024">
	<circle fill="url(#location-with-user-gradient)" cx="512" cy="512" r="500"/>
	<circle fill="#f092cd" cx="512" cy="512" r="400"/>
	<use x="256" y="256" width="512" height="512" class="fill-color14" xlink:href="#icon-icon_user" fill="#fff"/>
</symbol>
<symbol id="icon-icon_mapMarker-station" viewBox="0 0 2348 2348">
	<title>icon_mapMarker-station</title>
	<circle key="halo" class="stop-halo" cx="1174" cy="1174" r="1135" stroke-width="78" stroke="#333" stroke-opacity="0.4" fill="#fff" fill-opacity="1"/>
	<circle fill="currentColor" fill-opacity="1" cx="1174" cy="1174" r="980"/>
	<use x="657" y="657" width="1024" height="1024" class="fill-color14" fill="#fff" xlink:href="#icon-icon_station"/>
</symbol>
<symbol id="icon-icon_mapMarker-location-animated" viewBox="0 0 2248 2248">
	<title>icon_mapMarker-location-animated</title>
	<circle fill="#EF80C6" cx="1124" cy="1124" r="340"/>
	<circle cx="1124" cy="1124" r="732" stroke-width="784" fill="none" stroke="url(#mapMarker-white)" />
	<circle stroke-width="70" r="340" cx="1124" fill="rgba(0,0,0,0)" stroke="rgba(239, 128, 198, 0.1)" cy="1124" id="circle_pink_first">
		<animate from="340" attributeName="r" to="1079" dur="2.4s" repeatCount="indefinite"/>
		<animate values="rgba(239, 128, 198, 1) ;rgba(239, 128, 198, 0.4) ; rgba(239, 128, 198, 0.1) ; rgba(239, 128, 198, 0.0)" keyTimes="0;0.5;0.75;1" attributeName="stroke" dur="2.4s" repeatCount="indefinite"/>
		<animate values="50 ; 150" attributeName="stroke-width" dur="2.4s" keyTimes="0;1" begin="0s" repeatCount="indefinite"/>
	</circle>
	<circle stroke-width="70" r="340" cx="1124" fill="rgba(0,0,0,0)" stroke="rgba(239, 128, 198, 0.1)" cy="1124" id="circle_pink_second">
		<animate from="340" attributeName="r" to="1079" dur="2.4s" repeatCount="indefinite" begin="0.6s"/>
		<animate values="rgba(239, 128, 198, 1) ;rgba(239, 128, 198, 0.4) ; rgba(239, 128, 198, 0.1) ; rgba(239, 128, 198, 0.0)" keyTimes="0;0.5;0.75;1" attributeName="stroke" dur="2.4s" repeatCount="indefinite" begin="0.6s"/>
		<animate values="50 ; 150" attributeName="stroke-width" dur="2.4s" keyTimes="0;1" begin="0.6s" repeatCount="indefinite"/>
	</circle>
	<circle stroke-width="70" r="340" cx="1124" fill="rgba(0,0,0,0)" stroke="rgba(239, 128, 198, 0.1)" cy="1124" id="circle_pink_third">
		<animate from="340" attributeName="r" to="1079" dur="2.4s" repeatCount="indefinite" begin="1.2s"/>
		<animate values="rgba(239, 128, 198, 1) ;rgba(239, 128, 198, 0.4) ; rgba(239, 128, 198, 0.1) ; rgba(239, 128, 198, 0.0)" keyTimes="0;0.5;0.75;1" attributeName="stroke" dur="2.4s" repeatCount="indefinite" begin="1.2s"/>
		<animate values="50 ; 150" attributeName="stroke-width" dur="2.4s" keyTimes="0;1" begin="1.2s" repeatCount="indefinite"/>
	</circle>
	<circle stroke-width="70" r="340" cx="1124" fill="rgba(0,0,0,0)" stroke="rgba(239, 128, 198, 0.1)" cy="1124" id="circle_pink_fourth">
		<animate from="340" attributeName="r" to="1079" dur="2.4s" repeatCount="indefinite" begin="1.8s"/>
		<animate values="rgba(239, 128, 198, 1) ;rgba(239, 128, 198, 0.4) ; rgba(239, 128, 198, 0.1) ; rgba(239, 128, 198, 0.0)" keyTimes="0;0.5;0.75;1" attributeName="stroke" dur="2.4s" repeatCount="indefinite" begin="1.8s"/>
		<animate values="50 ; 150" attributeName="stroke-width" dur="2.4s" keyTimes="0;1" begin="1.8s" repeatCount="indefinite"/>
	</circle>
	<use x="850" y="830" width="550" height="550" class="fill-color14" xlink:href="#icon-icon_user" fill="#fff"/>
</symbol>
<symbol id="icon-icon_no_route_found" viewBox="0 0 283.46 283.46" enable-background="new 0 0 283.46 283.46">
  <g id="bkg" display="none"> </g>
  <g id="picto">
    <g>
      <path fill-rule="evenodd" clip-rule="evenodd" fill="#CCCCCC" d="M258.146,106.881c13.982,0,25.316,11.107,25.316,24.809
          c0,13.701-25.316,45.482-25.316,45.482s-25.316-31.781-25.316-45.482C232.83,117.988,244.164,106.881,258.146,106.881z"/>
      <g>
        <path fill="#FFFFFF" d="M249.904,124.683c0-1.28,1.012-2.291,2.291-2.291h7.379c2.38,0,4.255,0.655,5.445,1.845
            c0.952,0.952,1.428,2.113,1.428,3.541v0.06c0,2.351-1.25,3.66-2.738,4.493c2.41,0.922,3.898,2.321,3.898,5.118v0.06
            c0,3.809-3.095,5.713-7.796,5.713h-7.617c-1.28,0-2.291-1.012-2.291-2.291V124.683z M258.592,130.812
            c2.023,0,3.303-0.655,3.303-2.202v-0.059c0-1.369-1.071-2.142-3.005-2.142h-4.523v4.404H258.592z M259.812,139.203
            c2.023,0,3.243-0.714,3.243-2.262v-0.059c0-1.399-1.042-2.262-3.392-2.262h-5.296v4.582H259.812z"/>
      </g>
      <path fill-rule="evenodd" clip-rule="evenodd" fill="#CCCCCC" d="M25.314,106.881c13.982,0,25.316,11.107,25.316,24.809
          c0,13.701-25.316,45.482-25.316,45.482S-0.002,145.39-0.002,131.689C-0.002,117.988,11.332,106.881,25.314,106.881z"/>
      <g>
        <path fill="#FFFFFF" d="M15.256,140.274l7.26-16.395c0.506-1.131,1.428-1.815,2.678-1.815h0.268c1.25,0,2.142,0.684,2.648,1.815
            l7.26,16.395c0.149,0.327,0.238,0.625,0.238,0.922c0,1.22-0.952,2.202-2.172,2.202c-1.071,0-1.785-0.625-2.202-1.577
            l-1.398-3.273h-9.165l-1.458,3.422c-0.387,0.893-1.16,1.428-2.113,1.428c-1.19,0-2.113-0.952-2.113-2.142
            C14.988,140.929,15.107,140.601,15.256,140.274z M28.14,134.502l-2.886-6.873l-2.887,6.873H28.14z"/>
      </g>
      <g>
        <path fill="#DC0451" d="M138.913,158.592c-2.852,0-4.959-2.108-5.331-4.959l-1.24-10.663c-0.496-3.348,1.488-5.827,4.835-6.199
            c11.655-1.116,18.102-5.579,18.102-13.39v-0.248c0-6.943-5.331-11.779-14.258-11.779c-6.571,0-11.903,2.356-16.862,6.819
            c-1.24,0.992-2.852,1.736-4.587,1.736c-3.844,0-6.943-3.1-6.943-6.819c0-1.86,0.744-3.844,2.48-5.331
            c6.571-6.199,14.878-10.291,26.285-10.291c17.358,0,29.136,9.671,29.136,25.169v0.248c0,15.622-11.283,22.689-25.045,25.045
            l-0.496,5.703c-0.496,2.728-2.48,4.959-5.331,4.959H138.913z M138.913,167.643c5.083,0,8.803,3.72,8.803,8.555v1.24
            c0,4.835-3.72,8.555-8.803,8.555s-8.803-3.72-8.803-8.555v-1.24C130.11,171.362,133.83,167.643,138.913,167.643z"/>
      </g>
      <path fill-rule="evenodd" clip-rule="evenodd" fill="#CCCCCC" d="M107.409,181.528H43.266c-1.697,0-3.074-1.376-3.074-3.074
          v-0.179c0-1.697,1.376-3.074,3.074-3.074h64.144c1.697,0,3.074,1.376,3.074,3.074v0.179
          C110.483,180.152,109.107,181.528,107.409,181.528z"/>
      <path fill-rule="evenodd" clip-rule="evenodd" fill="#CCCCCC" d="M240.194,181.528h-64.144c-1.697,0-3.074-1.376-3.074-3.074
          v-0.179c0-1.697,1.376-3.074,3.074-3.074h64.144c1.697,0,3.074,1.376,3.074,3.074v0.179
          C243.268,180.152,241.892,181.528,240.194,181.528z"/>
    </g>
  </g>
</symbol>
<linearGradient id="fadeGrad" x1="0" x2="0" y1="0" y2="1">
	<stop offset="0" stop-color="#999" stop-opacity="1"/>
	<stop offset="1" stop-color="#999" stop-opacity="0"/>
</linearGradient>
<mask id="fadeMask" maskContentUnits="objectBoundingBox" x="0" y="0" width="1" height="1">
	<rect x="0" y="0" width="1" height="1" fill="url(#fadeGrad)"/>
</mask>
<symbol id="icon-icon_vehicle-live-shadow" viewBox="0 0 1024 1024">
	<title>icon_vehicle-live-shadow</title>
	<path fill="url(#fadeGrad)" class="path1" d="M693.568 516.62c0-97.725-79.222-176.948-176.948-176.948s-176.948 79.222-176.948 176.948c0 0.509 0.036 1.012 0.040 1.521-0.004 0.47-0.040 0.936-0.040 1.405 0 90.208 79.222 509.074 176.948 509.074s176.948-418.862 176.948-509.074c0-0.47-0.036-0.936-0.036-1.405 0-0.509 0.036-1.012 0.036-1.521z"></path>
</symbol>
<symbol id="icon-icon_home" viewBox="0 0 283.46 283.46" enable-background="new 0 0 283.46 283.46">
	<title>icon_home</title>
	<g id="bkg" display="none">
	</g>
	<g id="picto">
		<g>
			<path d="M278.166,125.471c9.757,9.757,1.857,26.481-11.618,26.481h-26.023v131.511H43.028V151.951H17.005
				c-13.94,0-21.375-16.723-11.618-26.481L123.885,6.97c9.761-9.296,26.023-9.296,35.784,0L278.166,125.471z M105.762,188.666
				v-34.385H73.699v34.385H105.762z M105.762,243.964V209.58H73.699v34.385H105.762z M158.738,188.666v-34.385h-32.063v34.385
				H158.738z M158.738,243.964V209.58h-32.063v34.385H158.738z"/>
		</g>
	</g>
</symbol>
<symbol id="icon-icon_school" viewBox="0 0 283.46 283.46" enable-background="new 0 0 283.46 283.46">
	<title>icon_school</title>
	<g id="bkg" display="none">
	</g>
	<g id="picto">
		<path d="M270.033,68.188L154.071,4.936c-7.693-4.195-16.988-4.195-24.681,0L13.427,68.188
			C5.149,72.703-0.002,81.381-0.002,90.812v177.974c0,7.116,5.769,12.885,12.885,12.885h257.695c7.116,0,12.885-5.769,12.885-12.885
			V90.812C283.462,81.381,278.311,72.703,270.033,68.188z M66.568,234.51H36.505v-42.95h30.063V234.51z M66.568,158.727H36.505
			v-42.948h30.063V158.727z M126.698,234.51H96.633v-42.95h30.065V234.51z M126.698,158.727H96.633v-42.948h30.065V158.727z
			 M119.542,58.251c0-12.254,9.934-22.188,22.188-22.188s22.188,9.934,22.188,22.188s-9.934,22.187-22.188,22.187
			S119.542,70.505,119.542,58.251z M186.827,234.51h-30.065v-42.95h30.065V234.51z M186.827,158.727h-30.065v-42.948h30.065V158.727z
			 M246.955,234.51h-30.063v-42.95h30.063V234.51z M246.955,158.727h-30.063v-42.948h30.063V158.727z"/>
	</g>
</symbol>
<symbol id="icon-icon_work" viewBox="0 0 283.46 283.46" enable-background="new 0 0 283.46 283.46">
	<g id="bkg" display="none">
	</g>
	<g id="picto">
		<g>
			<path d="M0.005,89.228c0,0-0.939-18.83,18.363-18.83h75.807V51.561c-0.471-12.239,7.062-18.83,18.834-18.83h56.973
				c13.186,0,18.363,7.534,18.363,18.363v19.305h75.335c0,0,19.776-0.943,19.776,18.83v36.258
				c-44.259,21.658-98.879,32.019-142.666,32.019c-49.439,0-98.879-8.951-140.784-31.552V89.228z M283.455,231.898
				c0,0,0.943,18.83-19.305,18.83H17.896c0,0-17.891,0.475-17.891-18.83v-89.935c35.786,18.363,86.164,30.134,140.784,30.134
				c50.849,0,106.412-13.649,142.666-31.544V231.898z M111.127,70.398h58.854V58.627c0-6.123-1.881-10.361-9.886-10.361h-38.139
				c-7.062-0.467-10.829,4.238-10.829,8.951V70.398z M156.328,133.962c0-7.534-6.123-14.124-14.124-14.124
				c-7.534,0-14.128,6.591-14.128,14.124c0,8.001,6.595,14.124,14.128,14.124C150.205,148.087,156.328,141.963,156.328,133.962z
				 M156.328,197.526c0-8.009-6.123-14.124-14.124-14.124c-7.534,0-14.128,6.116-14.128,14.124c0,7.534,6.595,14.124,14.128,14.124
				C150.205,211.65,156.328,205.059,156.328,197.526z"/>
		</g>
	</g>
</symbol>
<symbol id="icon-icon_sport" viewBox="0 0 283.46 283.46" enable-background="new 0 0 283.46 283.46">
	<g id="bkg" display="none">
	</g>
	<g id="picto">
		<g transform="translate(0,-952.36216)">
			<path d="M40.038,994.883c-22.913,23.385-36.85,54.093-39.685,86.927c7.559,1.417,16.535,1.182,26.929-0.949
				c19.606-4.724,42.991-17.008,63.779-36.14c20.787-19.134,34.96-41.102,40.866-60.473c4.016-12.519,4.488-23.386,2.126-31.889
				c-35.433,1.889-68.976,17.007-94.015,42.518L40.038,994.883z M0.118,1102.125c4.016,67.559,54.803,122.833,121.652,132.283
				c0.472-8.741,2.126-17.953,4.961-27.166c8.268-26.692,26.456-54.802,52.677-78.896c26.22-24.095,55.511-39.92,82.912-46.062
				c6.85-1.654,13.701-2.363,20.551-2.599c-7.086-67.558-60.472-120.707-128.03-127.084c1.89,11.811,0.472,24.802-3.543,37.558
				c-7.559,23.622-23.622,48.189-46.535,69.448c-23.149,21.26-48.897,35.433-72.991,40.866
				C20.905,1102.833,10.039,1103.542,0.118,1102.125L0.118,1102.125z M188.619,1147.242c-21.496,21.024-36.142,44.882-42.755,65.905
				c-2.362,8.267-3.78,15.827-4.016,22.677c74.408-0.233,136.061-57.401,141.494-131.574c0-1.417,0-3.07,0-4.487
				c-5.197,0.233-10.866,0.949-16.771,2.126c-22.913,5.196-49.606,19.369-73.464,41.338
				C191.454,1144.644,190.037,1146.062,188.619,1147.242z"/>
		</g>
	</g>
</symbol>
<symbol id="icon-icon_shopping" viewBox="0 0 283.46 283.46" enable-background="new 0 0 283.46 283.46">
	<g id="bkg" display="none">
	</g>
	<g id="picto">
		<g>
			<path d="M141.415,106.297c9.788,0,17.717-7.928,17.717-17.717V17.714c0-9.788-7.928-17.717-17.717-17.717
				c-9.788,0-17.717,7.928-17.717,17.717V88.58C123.699,98.369,131.627,106.297,141.415,106.297z"/>
			<path d="M265.662,88.58h-88.583c0,19.586-15.883,35.433-35.433,35.433c-19.586,0-35.433-15.847-35.433-35.433
				H17.621c-9.788,0-19.656,8.584-16.468,22.73l34.193,154.435c2.976,9.824,7.928,17.717,17.717,17.717h177.165
				c9.788,0,14.324-7.299,17.717-17.717l34.051-153.912C286.151,98.271,275.459,88.58,265.662,88.58z"/>
		</g>
	</g>
</symbol>
<symbol id="icon-icon_search-plus" viewBox="0 0 283.46 283.46" enable-background="new 0 0 283.46 283.46">
	<g id="bkg" display="none">
	</g>
	<g id="picto">
		<g>
			<path d="M252.955,278.402l-72.063-72.062l25.447-25.448l72.063,72.063c7.023,7.023,7.023,18.409,0,25.432
				l-0.015,0.015C271.364,285.425,259.978,285.425,252.955,278.402z"/>
			<path d="M120.904,35.779c46.938,0,85.125,38.187,85.125,85.125c0,46.937-38.187,85.124-85.125,85.124
				s-85.125-38.186-85.125-85.124C35.779,73.966,73.966,35.779,120.904,35.779 M120.904-0.209
				C54.015-0.209-0.209,54.015-0.209,120.904s54.224,121.112,121.113,121.112s121.113-54.223,121.113-121.112
				S187.793-0.209,120.904-0.209L120.904-0.209z"/>
			<path d="M64.211,120.904L64.211,120.904c0-7.828,6.346-14.173,14.173-14.173h85.039
				c7.828,0,14.173,6.346,14.173,14.173v0c0,7.828-6.346,14.173-14.173,14.173H78.384C70.556,135.077,64.211,128.731,64.211,120.904z
				"/>
			<path d="M120.904,64.211L120.904,64.211c7.828,0,14.173,6.346,14.173,14.173v85.039
				c0,7.828-6.346,14.173-14.173,14.173h0c-7.828,0-14.173-6.346-14.173-14.173V78.384C106.731,70.556,113.076,64.211,120.904,64.211
				z"/>
		</g>
	</g>
</symbol>
</defs>
</svg>
</defs>
</svg>
