<?xml version="1.0" encoding="utf-8"?>
<!-- Generator: Adobe Illustrator 25.4.1, SVG Export Plug-In . SVG Version: 6.00 Build 0)  -->
<svg version="1.1" id="Ebene_1" xmlns="http://www.w3.org/2000/svg" xmlns:xlink="http://www.w3.org/1999/xlink" x="0px" y="0px"
	 viewBox="0 0 312 75" style="enable-background:new 0 0 312 75;" xml:space="preserve">
<style type="text/css">
	.st0{fill:#FFFFFF;}
	.st1{fill:none;stroke:#FFFFFF;stroke-width:0.5;stroke-miterlimit:10;}
</style>
<path class="st0" d="M47.5,51.9c-21.5,0-39,4.5-39,10S26,72,47.5,72s39-4.5,39-10S69,51.9,47.5,51.9z M46.9,67.9
	c-17,0-30.7-2.8-30.7-6.2s13.8-6.2,30.7-6.2s30.7,2.8,30.7,6.2S63.9,67.9,46.9,67.9z"/>
<path class="st0" d="M63.1,18c0,1.1-0.1,2.2-0.3,3.3l-1.4,3.9L48.3,62.6c-0.2,0.6-0.9,0.9-1.5,0.7c-0.3-0.1-0.6-0.4-0.7-0.7
	L32.8,24.8l-1.1-3.1c-2.2-8.5,2.9-17.3,11.4-19.5S60.4,5,62.6,13.5C63,15,63.2,16.5,63.1,18z"/>
<path class="st0" d="M126.6,28.1c2.2,1.6,3.8,3.9,4.7,6.4c1.1,3,1.6,6.3,1.6,9.5v0.7c0.1,3.3-0.5,6.5-1.6,9.6
	c-0.9,2.6-2.5,4.8-4.7,6.4c-2.3,1.6-5,2.4-7.7,2.3c-3.6,0.1-7-1.6-9.2-4.5l-0.5,3.8h-9v-51h10v18.2c2.1-2.5,5.3-3.9,8.5-3.8
	C121.6,25.7,124.3,26.5,126.6,28.1z M122.8,44c0.1-2.5-0.4-5.1-1.4-7.4c-1-1.8-2.7-2.7-5.1-2.7c-2.9,0-4.9,1.2-6,3.5v14
	c1.1,2.3,3.1,3.5,6.1,3.5c2.5,0,4.2-0.9,5.1-2.6s1.4-4.3,1.4-7.6L122.8,44z"/>
<path class="st0" d="M164.8,28.1c2.2,1.6,3.8,3.8,4.7,6.4c1.1,3,1.6,6.3,1.6,9.5v0.7c0.1,3.3-0.5,6.5-1.6,9.6
	c-0.9,2.6-2.5,4.8-4.7,6.4c-2.3,1.6-5,2.4-7.7,2.3c-3.6,0.1-7-1.6-9.1-4.5l-0.5,3.8h-9v-51h10v18.2c2.1-2.5,5.3-3.9,8.5-3.8
	C159.8,25.7,162.6,26.5,164.8,28.1z M161.1,44c0.1-2.5-0.4-5.1-1.4-7.4c-1-1.8-2.7-2.7-5.1-2.7c-2.9,0-4.9,1.2-6,3.5v14
	c1.1,2.3,3.1,3.5,6.1,3.5c2.5,0,4.2-0.9,5.1-2.6s1.4-4.3,1.4-7.6L161.1,44z"/>
<path class="st0" d="M206.1,38.8v23.5h-6.2V38.8c0-2.7-0.6-4.7-1.8-6c-1.4-1.3-3.4-2-5.4-1.9c-1.8,0-3.6,0.5-5.1,1.6
	c-1.5,1.1-2.8,2.5-3.6,4.2v25.7h-6.2V26.5h5.9l0.2,4.4c2.6-3.3,6.5-5.1,10.7-5.1C202.3,25.8,206.1,30.1,206.1,38.8z"/>
<path class="st0" d="M243.1,58.4c0.2,1.2,0.5,2.3,0.9,3.4v0.5h-6.5c-0.5-1.2-0.7-2.5-0.9-3.8c-1.3,1.3-2.8,2.4-4.5,3.2
	c-1.8,0.8-3.8,1.2-5.7,1.2c-2.2,0-4.4-0.4-6.4-1.4c-1.8-0.9-3.2-2.2-4.3-3.8c-1-1.6-1.5-3.5-1.5-5.4c-0.1-2.3,0.6-4.6,2-6.5
	c1.4-1.9,3.4-3.2,5.6-4c2.8-1,5.7-1.4,8.6-1.3h6v-2.8c0.1-1.9-0.6-3.8-1.9-5.2c-1.5-1.3-3.6-2-5.6-1.9c-1.4,0-2.7,0.2-4,0.8
	c-1.1,0.5-2,1.2-2.7,2.1c-0.6,0.8-1,1.8-1,2.8H215c0-1.8,0.7-3.6,1.8-5.1c1.3-1.7,3-3.1,5-4c4.6-2,9.8-2.1,14.4-0.2
	c1.9,0.8,3.6,2.3,4.7,4c1.2,2,1.8,4.3,1.7,6.6v16.7C242.7,55.8,242.8,57.1,243.1,58.4z M231.4,57c1.2-0.5,2.2-1.1,3.2-2
	c0.8-0.8,1.5-1.7,2-2.7v-7.4h-5c-3.5,0-6.2,0.6-8.1,1.7c-1.8,1-2.9,2.9-2.8,5c0,1.1,0.3,2.2,0.8,3.2c0.5,0.9,1.3,1.7,2.3,2.2
	c1.2,0.6,2.4,0.9,3.7,0.8C228.7,57.8,230.1,57.5,231.4,57z"/>
<path class="st0" d="M278.9,26.5l-12.9,35.9h-4.7l-13-35.9h6.3l9.1,27.5l8.8-27.5L278.9,26.5z"/>
<path class="st0" d="M291.2,14.4c0.7,0.7,1,1.6,1,2.5c0,0.9-0.3,1.8-1,2.5c-0.7,0.7-1.7,1-2.7,1c-1,0.1-2-0.3-2.7-1
	c-0.6-0.7-1-1.6-0.9-2.5c-0.1-1.8,1.3-3.4,3.1-3.5c0.2,0,0.3,0,0.5,0C289.5,13.3,290.5,13.7,291.2,14.4z M285.4,62.4V26.5h6.2v35.9
	L285.4,62.4z"/>
<line class="st1" x1="305.8" y1="2.3" x2="305.8" y2="72.7"/>
</svg>
