<svg id="Ebene_1" data-name="Ebene 1" xmlns="http://www.w3.org/2000/svg" viewBox="0 0 312 75"><defs><style>.cls-1{fill:#fff;}</style></defs><path class="cls-1" d="M47.49,51.92c-21.53,0-39,4.49-39,10S26,72,47.49,72s39-4.5,39-10S69,51.92,47.49,51.92ZM46.9,67.86c-17,0-30.72-2.77-30.72-6.2s13.75-6.2,30.72-6.2,30.71,2.78,30.71,6.2S63.86,67.86,46.9,67.86Z"/><path class="cls-1" d="M63.14,18a16,16,0,0,1-.34,3.28l-1.37,3.91L48.28,62.64a1.18,1.18,0,0,1-2.22,0L32.77,24.76l-1.1-3.13A16,16,0,1,1,63.14,18Z"/><path class="cls-1" d="M126.57,28.09a13.78,13.78,0,0,1,4.71,6.4A26.71,26.71,0,0,1,132.84,44v.7a27.16,27.16,0,0,1-1.56,9.61,13.82,13.82,0,0,1-4.67,6.42A12.77,12.77,0,0,1,118.87,63a11,11,0,0,1-9.16-4.48l-.46,3.81h-9v-51h10V29.57a10.69,10.69,0,0,1,8.53-3.79A12.77,12.77,0,0,1,126.57,28.09ZM122.82,44a16,16,0,0,0-1.44-7.4q-1.44-2.72-5.09-2.72c-2.92,0-4.93,1.17-6,3.52v14c1.06,2.35,3.09,3.52,6.07,3.52q3.69,0,5.08-2.62t1.39-7.6Z"/><path class="cls-1" d="M164.83,28.09a13.73,13.73,0,0,1,4.72,6.4A26.71,26.71,0,0,1,171.11,44v.7a27.16,27.16,0,0,1-1.56,9.61,13.77,13.77,0,0,1-4.68,6.42A12.77,12.77,0,0,1,157.13,63,10.93,10.93,0,0,1,148,58.54l-.47,3.81h-9v-51h10V29.57a10.69,10.69,0,0,1,8.53-3.79A12.77,12.77,0,0,1,164.83,28.09ZM161.08,44a16,16,0,0,0-1.44-7.4q-1.44-2.72-5.09-2.72c-2.92,0-4.93,1.17-6,3.52v14c1.06,2.35,3.09,3.52,6.07,3.52q3.69,0,5.08-2.62t1.39-7.6Z"/><path class="cls-1" d="M206.12,38.82V62.35h-6.21V38.76c0-2.74-.59-4.74-1.77-6a7.09,7.09,0,0,0-5.36-1.86,8.83,8.83,0,0,0-5.13,1.56,10.87,10.87,0,0,0-3.6,4.18V62.35h-6.21V26.45h5.88l.2,4.41a13.35,13.35,0,0,1,10.68-5.08Q206.12,25.78,206.12,38.82Z"/><path class="cls-1" d="M243.08,58.42a15.74,15.74,0,0,0,.93,3.4v.53h-6.47a14.29,14.29,0,0,1-.86-3.75,14.15,14.15,0,0,1-4.46,3.2A13.41,13.41,0,0,1,226.49,63a13.78,13.78,0,0,1-6.35-1.41,10.46,10.46,0,0,1-4.28-3.84,9.9,9.9,0,0,1-1.51-5.37,10.5,10.5,0,0,1,2-6.47,11.91,11.91,0,0,1,5.61-4,24.61,24.61,0,0,1,8.58-1.35h6V37.73a6.85,6.85,0,0,0-1.94-5.16,7.75,7.75,0,0,0-5.6-1.88,9.71,9.71,0,0,0-4,.78,6.84,6.84,0,0,0-2.74,2.09,4.67,4.67,0,0,0-1,2.84h-6.21a8.5,8.5,0,0,1,1.79-5.07,12.89,12.89,0,0,1,5-4,18.67,18.67,0,0,1,14.42-.2,10.36,10.36,0,0,1,4.69,4.05,12.22,12.22,0,0,1,1.69,6.62V54.52A24.06,24.06,0,0,0,243.08,58.42ZM231.35,57a10.44,10.44,0,0,0,3.17-2,9.11,9.11,0,0,0,2-2.66V44.9H231.5q-5.31,0-8.13,1.67a5.42,5.42,0,0,0-2.82,5,6.26,6.26,0,0,0,.8,3.16,5.61,5.61,0,0,0,2.32,2.2,7.75,7.75,0,0,0,3.72.82A10.38,10.38,0,0,0,231.35,57Z"/><path class="cls-1" d="M278.92,26.45l-12.87,35.9h-4.71l-13-35.9h6.34L263.76,54l8.83-27.51Z"/><path class="cls-1" d="M291.22,14.37a3.45,3.45,0,0,1,1,2.52,3.36,3.36,0,0,1-1,2.47,3.68,3.68,0,0,1-2.71,1,3.55,3.55,0,0,1-2.67-1,3.41,3.41,0,0,1-.94-2.47,3.34,3.34,0,0,1,3.61-3.52A3.61,3.61,0,0,1,291.22,14.37Zm-5.86,48V26.45h6.21v35.9Z"/></svg>