<svg id="Ebene_1" data-name="Ebene 1" xmlns="http://www.w3.org/2000/svg" viewBox="0 0 297.8 71.15"><defs><style>.cls-1{fill:#DA1B1B;}.cls-2{fill:none;stroke:#DA1B1B;stroke-miterlimit:10;}</style></defs><path class="cls-1" d="M47.49,51.92c-21.53,0-39,4.49-39,10S26,72,47.49,72s39-4.5,39-10S69,51.92,47.49,51.92ZM46.9,67.86c-17,0-30.72-2.77-30.72-6.2s13.75-6.2,30.72-6.2,30.71,2.78,30.71,6.2S63.86,67.86,46.9,67.86Z" transform="translate(-8.49 -1.56)"/><path class="cls-1" d="M63.14,18a15.75,15.75,0,0,1-.34,3.28l-1.37,3.91L48.28,62.64a1.18,1.18,0,0,1-2.22,0L32.77,24.76l-1.1-3.13a16,16,0,1,1,30.95-8.12A15.81,15.81,0,0,1,63.14,18Z" transform="translate(-8.49 -1.56)"/><path class="cls-1" d="M126.57,28.09a13.8,13.8,0,0,1,4.71,6.4A26.78,26.78,0,0,1,132.84,44v.7a27.33,27.33,0,0,1-1.56,9.61,13.88,13.88,0,0,1-4.67,6.42A12.79,12.79,0,0,1,118.87,63a11,11,0,0,1-9.16-4.48l-.46,3.81h-9v-51h10V29.57a10.7,10.7,0,0,1,8.53-3.79A12.75,12.75,0,0,1,126.57,28.09ZM122.82,44a16,16,0,0,0-1.44-7.4q-1.44-2.72-5.09-2.72c-2.92,0-4.93,1.17-6,3.52v14c1.06,2.35,3.09,3.52,6.07,3.52q3.69,0,5.08-2.62t1.39-7.6Z" transform="translate(-8.49 -1.56)"/><path class="cls-1" d="M164.83,28.09a13.75,13.75,0,0,1,4.72,6.4A26.78,26.78,0,0,1,171.11,44v.7a27.33,27.33,0,0,1-1.56,9.61,13.78,13.78,0,0,1-4.68,6.42A12.79,12.79,0,0,1,157.13,63,10.94,10.94,0,0,1,148,58.54l-.47,3.81h-9v-51h10V29.57a10.7,10.7,0,0,1,8.53-3.79A12.82,12.82,0,0,1,164.83,28.09ZM161.08,44a16,16,0,0,0-1.44-7.4q-1.44-2.72-5.09-2.72c-2.92,0-4.93,1.17-6,3.52v14c1.06,2.35,3.09,3.52,6.07,3.52q3.69,0,5.08-2.62t1.39-7.6Z" transform="translate(-8.49 -1.56)"/><path class="cls-1" d="M206.12,38.82V62.35h-6.21V38.76q0-4.11-1.77-6a7.09,7.09,0,0,0-5.36-1.86,8.86,8.86,0,0,0-5.13,1.56,10.85,10.85,0,0,0-3.6,4.18V62.35h-6.21V26.45h5.88l.2,4.41a13.36,13.36,0,0,1,10.68-5.08Q206.12,25.78,206.12,38.82Z" transform="translate(-8.49 -1.56)"/><path class="cls-1" d="M243.08,58.42a15.43,15.43,0,0,0,.93,3.4v.53h-6.47a14.69,14.69,0,0,1-.86-3.75,14.16,14.16,0,0,1-4.46,3.2,13.31,13.31,0,0,1-5.73,1.2,13.81,13.81,0,0,1-6.35-1.41,10.51,10.51,0,0,1-4.28-3.84,9.89,9.89,0,0,1-1.51-5.37,10.5,10.5,0,0,1,2-6.47,11.92,11.92,0,0,1,5.61-4,24.55,24.55,0,0,1,8.58-1.35h6V37.73a6.86,6.86,0,0,0-1.94-5.16,7.75,7.75,0,0,0-5.6-1.88,9.65,9.65,0,0,0-4,.78,6.8,6.8,0,0,0-2.74,2.09,4.65,4.65,0,0,0-1,2.84h-6.21a8.48,8.48,0,0,1,1.79-5.07,12.85,12.85,0,0,1,5-4,18.64,18.64,0,0,1,14.42-.2A10.32,10.32,0,0,1,241,31.18a12.21,12.21,0,0,1,1.69,6.62V54.52A24.38,24.38,0,0,0,243.08,58.42ZM231.35,57a10.5,10.5,0,0,0,3.17-2,9.3,9.3,0,0,0,2-2.66V44.9h-5q-5.31,0-8.13,1.67a5.42,5.42,0,0,0-2.82,5,6.22,6.22,0,0,0,.8,3.16,5.59,5.59,0,0,0,2.32,2.2,7.73,7.73,0,0,0,3.72.82A10.32,10.32,0,0,0,231.35,57Z" transform="translate(-8.49 -1.56)"/><path class="cls-1" d="M278.92,26.45l-12.87,35.9h-4.71l-13-35.9h6.34L263.76,54l8.83-27.51Z" transform="translate(-8.49 -1.56)"/><path class="cls-1" d="M291.22,14.37a3.49,3.49,0,0,1,1,2.52,3.36,3.36,0,0,1-1,2.47,3.68,3.68,0,0,1-2.71,1,3.57,3.57,0,0,1-2.67-1,3.42,3.42,0,0,1-.94-2.47A3.34,3.34,0,0,1,288,13.36h.47A3.59,3.59,0,0,1,291.22,14.37Zm-5.86,48V26.45h6.21v35.9Z" transform="translate(-8.49 -1.56)"/><line class="cls-2" x1="297.3" y1="0.72" x2="297.3" y2="71.15"/></svg>
