<?xml version="1.0" encoding="UTF-8" standalone="no"?>
<!-- Generator: Adobe Illustrator 23.1.1, SVG Export Plug-In . SVG Version: 6.00 Build 0)  -->

<svg
   version="1.1"
   id="Ebene_1"
   x="0px"
   y="0px"
   viewBox="0 0 374.82 66.03"
   style="enable-background:new 0 0 374.82 66.03;"
   xml:space="preserve"
   sodipodi:docname="landstadtmobil-logo.svg"
   inkscape:version="1.1 (c4e8f9e, 2021-05-24)"
   xmlns:inkscape="http://www.inkscape.org/namespaces/inkscape"
   xmlns:sodipodi="http://sodipodi.sourceforge.net/DTD/sodipodi-0.dtd"
   xmlns="http://www.w3.org/2000/svg"
   xmlns:svg="http://www.w3.org/2000/svg"><defs
   id="defs41" /><sodipodi:namedview
   id="namedview39"
   pagecolor="#ffffff"
   bordercolor="#666666"
   borderopacity="1.0"
   inkscape:pageshadow="2"
   inkscape:pageopacity="0.0"
   inkscape:pagecheckerboard="0"
   showgrid="false"
   inkscape:zoom="3.2228803"
   inkscape:cx="189.11655"
   inkscape:cy="33.044976"
   inkscape:window-width="1661"
   inkscape:window-height="997"
   inkscape:window-x="0"
   inkscape:window-y="25"
   inkscape:window-maximized="0"
   inkscape:current-layer="g36" />
<style
   type="text/css"
   id="style2">
	.st0{fill:#FFFFFF;fill-opacity:0.7;}
	.st1{fill:#FFFFFF;}
	.st2{fill:none;stroke:#FFFFFF;stroke-width:0.6709;}
</style>
<g
   id="g36">
	<path
   class="st0"
   d="M16.86,37.4c0.81-5.17,5.02-9.22,10.28-9.75l0.32-4.62c-7.84,0.41-14.19,6.39-15.2,14.05L16.86,37.4   L16.86,37.4z"
   id="path4" />
	
	<path
   class="st1"
   d="M44.51,53.12V39.18v-0.01c0-7.79-5.53-14.31-12.88-15.86l-0.34,4.61c4.98,1.33,8.66,5.86,8.66,11.25l0,0v11.65   H28.29c-5.6,0-10.29-3.97-11.4-9.25l-4.66-0.31c1.04,7.95,7.84,14.11,16.06,14.11h13.94C43.49,55.39,44.51,54.37,44.51,53.12"
   id="path8" />
	<path
   class="st0"
   d="M7.46,36.75c1.2-10.26,9.82-18.27,20.33-18.53l0.32-4.59c-13.1,0.1-23.85,10.05-25.23,22.81L7.46,36.75   L7.46,36.75z"
   id="path10" />
	
	<g
   id="g34"
   transform="translate(76)">
		<line
   class="st2"
   x1="222.03999"
   y1="2.29"
   x2="222.03999"
   y2="64.650002"
   id="line32" />
	</g>
<text
   xml:space="preserve"
   style="font-style:normal;font-weight:normal;font-size:35.3877px;line-height:1.25;font-family:sans-serif;fill:#ffffff;fill-opacity:1;stroke:none;stroke-width:0.884693"
   x="47.838806"
   y="55.901398"
   id="text3904"><tspan
     sodipodi:role="line"
     id="tspan3902"
     x="47.838806"
     y="55.901398"
     style="font-style:normal;font-variant:normal;font-weight:bold;font-stretch:normal;font-size:35.3877px;font-family:Interstate;-inkscape-font-specification:'Interstate, Bold';font-variant-ligatures:normal;font-variant-caps:normal;font-variant-numeric:normal;font-variant-east-asian:normal;stroke-width:0.884693;fill:#ffffff">landstadt<tspan
   style="font-style:normal;font-variant:normal;font-weight:normal;font-stretch:normal;font-size:35.3877px;font-family:'Interstate Light';-inkscape-font-specification:'Interstate Light, Normal';font-variant-ligatures:normal;font-variant-caps:normal;font-variant-numeric:normal;font-variant-east-asian:normal;stroke-width:0.884693;fill:#ffffff"
   id="tspan5490">mobil</tspan></tspan></text></g>
</svg>
