<?xml version="1.0" encoding="UTF-8" standalone="no"?>
<!-- Generator: Adobe Illustrator 23.1.1, SVG Export Plug-In . SVG Version: 6.00 Build 0)  -->

<svg
   version="1.1"
   id="Ebene_1"
   x="0px"
   y="0px"
   viewBox="0 0 540 66.03"
   style="enable-background:new 0 0 540 66.03;"
   xml:space="preserve"
   sodipodi:docname="landstadtmobil-reutlingen-logo.svg"
   inkscape:version="1.1 (c4e8f9e, 2021-05-24)"
   xmlns:inkscape="http://www.inkscape.org/namespaces/inkscape"
   xmlns:sodipodi="http://sodipodi.sourceforge.net/DTD/sodipodi-0.dtd"
   xmlns="http://www.w3.org/2000/svg"
   xmlns:svg="http://www.w3.org/2000/svg"><defs
   id="defs41" /><sodipodi:namedview
   id="namedview39"
   pagecolor="#ffffff"
   bordercolor="#666666"
   borderopacity="1.0"
   inkscape:pageshadow="2"
   inkscape:pageopacity="0.0"
   inkscape:pagecheckerboard="0"
   showgrid="false"
   inkscape:zoom="3.2228803"
   inkscape:cx="327.1918"
   inkscape:cy="124.57801"
   inkscape:window-width="1661"
   inkscape:window-height="997"
   inkscape:window-x="0"
   inkscape:window-y="25"
   inkscape:window-maximized="0"
   inkscape:current-layer="g36" />
<style
   type="text/css"
   id="style2">
	.st0{fill:#FFFFFF;fill-opacity:0.7;}
	.st1{fill:#FFFFFF;}
	.st2{fill:none;stroke:#FFFFFF;stroke-width:0.6709;}
   .cls-1{fill:#FFFFFF;}
</style>
<g
   id="g36">
	<path
   class="st0"
   d="M16.86,37.4c0.81-5.17,5.02-9.22,10.28-9.75l0.32-4.62c-7.84,0.41-14.19,6.39-15.2,14.05L16.86,37.4   L16.86,37.4z"
   id="path4" />
	
	<path
   class="st1"
   d="M44.51,53.12V39.18v-0.01c0-7.79-5.53-14.31-12.88-15.86l-0.34,4.61c4.98,1.33,8.66,5.86,8.66,11.25l0,0v11.65   H28.29c-5.6,0-10.29-3.97-11.4-9.25l-4.66-0.31c1.04,7.95,7.84,14.11,16.06,14.11h13.94C43.49,55.39,44.51,54.37,44.51,53.12"
   id="path8" />
	<path
   class="st0"
   d="M7.46,36.75c1.2-10.26,9.82-18.27,20.33-18.53l0.32-4.59c-13.1,0.1-23.85,10.05-25.23,22.81L7.46,36.75   L7.46,36.75z"
   id="path10" />
	
	<g
   id="g34"
   transform="translate(84)">
		<line
   class="st2"
   x1="222.03999"
   y1="2.29"
   x2="222.03999"
   y2="64.650002"
   id="line32" />
	</g>
<g
   aria-label="landstadtmobil"
   id="text3904"
   style="font-size:35.3877px;line-height:1.25;fill:#ffffff;stroke-width:0.884693"><path
     d="M 55.270223,55.901398 V 30.103765 l -4.883503,2.441751 v 23.355882 z"
     style="font-weight:bold;font-family:Interstate;-inkscape-font-specification:'Interstate, Bold'"
     id="path968" /><path
     d="m 75.27312,55.901398 v -12.45647 c 0,-4.175749 -3.043342,-6.511337 -7.53758,-6.511337 -3.007955,0 -4.812727,0.636979 -6.971377,1.875548 l 1.875548,3.397219 c 1.69861,-0.92008 2.866404,-1.238569 5.095829,-1.238569 1.769385,0 2.654077,1.061631 2.654077,2.370976 v 0.92008 c -0.778529,-0.389265 -1.875548,-0.743142 -3.574157,-0.743142 -4.211137,0 -7.53758,2.052487 -7.53758,6.15746 0,4.494237 3.467994,6.617499 6.935989,6.617499 1.733997,0 3.291056,-0.707754 4.175748,-1.627834 v 1.23857 z m -4.883503,-5.449706 c -0.530815,0.884693 -1.804772,1.69861 -3.397219,1.69861 -2.087874,0 -2.831016,-1.167794 -2.831016,-2.477139 0,-1.486284 0.990856,-2.335588 2.831016,-2.335588 1.733997,0 2.547915,0.247713 3.397219,0.778529 z"
     style="font-weight:bold;font-family:Interstate;-inkscape-font-specification:'Interstate, Bold'"
     id="path970" /><path
     d="M 95.962205,55.901398 V 45.426639 c 0,-5.23738 -2.123262,-8.493048 -6.865213,-8.493048 -1.946324,0 -3.503383,0.743142 -4.352687,1.627834 v -1.238569 h -4.883503 v 18.578542 h 4.883503 v -10.15627 c 0,-3.220281 1.167794,-4.211136 3.184892,-4.211136 2.017099,0 3.149506,0.990855 3.149506,4.317299 v 10.050107 z"
     style="font-weight:bold;font-family:Interstate;-inkscape-font-specification:'Interstate, Bold'"
     id="path972" /><path
     d="M 115.60182,55.901398 V 30.103765 l -4.8835,2.441751 v 5.838971 c -0.88469,-0.813917 -2.3002,-1.450896 -3.92803,-1.450896 -4.6004,0 -7.219093,3.892647 -7.219093,9.448516 0,6.935989 3.255673,9.908555 7.219093,9.908555 1.76938,0 3.00795,-0.743141 3.92803,-1.557058 v 1.167794 z m -4.8835,-5.768195 c -0.70775,0.92008 -1.48628,1.557059 -3.00795,1.557059 -1.91094,0 -3.18489,-1.592447 -3.18489,-5.414318 0,-3.114118 1.02624,-4.741952 2.90179,-4.741952 1.4155,0 2.54791,0.566203 3.29105,1.592446 z"
     style="font-weight:bold;font-family:Interstate;-inkscape-font-specification:'Interstate, Bold'"
     id="path974" /><path
     d="m 135.11814,50.48708 c 0,-3.715709 -2.8664,-4.91889 -6.19284,-6.015909 -3.29106,-1.061631 -3.85726,-1.38012 -3.85726,-2.15865 0,-0.813917 0.53081,-1.203182 2.51252,-1.203182 1.55706,0 3.57416,0.495428 5.41432,1.486284 l 1.55706,-3.857259 c -1.98171,-1.097019 -4.52963,-1.804773 -6.86521,-1.804773 -4.35269,0 -7.43142,1.663222 -7.43142,5.520481 0,3.928035 2.8664,5.025053 7.32525,6.369786 2.05249,0.601591 2.72486,1.026243 2.72486,1.875548 0,0.955468 -0.56621,1.415508 -2.47714,1.415508 -2.37098,0 -4.45885,-0.601591 -6.44056,-1.69861 l -1.62784,3.715709 c 1.98171,1.309345 4.84812,2.158649 7.7853,2.158649 4.17574,0 7.57296,-1.521671 7.57296,-5.803582 z"
     style="font-weight:bold;font-family:Interstate;-inkscape-font-specification:'Interstate, Bold'"
     id="path976" /><path
     d="m 150.17008,50.203978 c -1.20318,1.026243 -1.87555,1.415508 -2.76024,1.415508 -1.16779,0 -1.80477,-0.46004 -1.80477,-2.229425 v -7.466804 h 4.45885 v -4.600401 h -4.45885 v -7.219091 l -4.8835,2.441751 v 4.77734 h -3.11412 v 4.600401 h 3.11412 v 8.776149 c 0,3.255668 1.94632,5.591256 4.95427,5.591256 1.52167,0 2.97257,-0.495427 3.78649,-1.132406 z"
     style="font-weight:bold;font-family:Interstate;-inkscape-font-specification:'Interstate, Bold'"
     id="path978" /><path
     d="m 169.27169,55.901398 v -12.45647 c 0,-4.175749 -3.04334,-6.511337 -7.53758,-6.511337 -3.00795,0 -4.81272,0.636979 -6.97137,1.875548 l 1.87554,3.397219 c 1.69861,-0.92008 2.86641,-1.238569 5.09583,-1.238569 1.76939,0 2.65408,1.061631 2.65408,2.370976 v 0.92008 c -0.77853,-0.389265 -1.87555,-0.743142 -3.57416,-0.743142 -4.21113,0 -7.53758,2.052487 -7.53758,6.15746 0,4.494237 3.468,6.617499 6.93599,6.617499 1.734,0 3.29106,-0.707754 4.17575,-1.627834 v 1.23857 z m -4.8835,-5.449706 c -0.53082,0.884693 -1.80477,1.69861 -3.39722,1.69861 -2.08787,0 -2.83102,-1.167794 -2.83102,-2.477139 0,-1.486284 0.99086,-2.335588 2.83102,-2.335588 1.734,0 2.54791,0.247713 3.39722,0.778529 z"
     style="font-weight:bold;font-family:Interstate;-inkscape-font-specification:'Interstate, Bold'"
     id="path980" /><path
     d="M 188.93454,55.901398 V 30.103765 l -4.8835,2.441751 v 5.838971 c -0.8847,-0.813917 -2.3002,-1.450896 -3.92804,-1.450896 -4.6004,0 -7.21909,3.892647 -7.21909,9.448516 0,6.935989 3.25567,9.908555 7.21909,9.908555 1.76939,0 3.00796,-0.743141 3.92804,-1.557058 v 1.167794 z m -4.8835,-5.768195 c -0.70776,0.92008 -1.48629,1.557059 -3.00796,1.557059 -1.91093,0 -3.18489,-1.592447 -3.18489,-5.414318 0,-3.114118 1.02624,-4.741952 2.90179,-4.741952 1.41551,0 2.54791,0.566203 3.29106,1.592446 z"
     style="font-weight:bold;font-family:Interstate;-inkscape-font-specification:'Interstate, Bold'"
     id="path982" /><path
     d="m 204.84131,50.203978 c -1.20318,1.026243 -1.87555,1.415508 -2.76024,1.415508 -1.1678,0 -1.80478,-0.46004 -1.80478,-2.229425 v -7.466804 h 4.45885 v -4.600401 h -4.45885 v -7.219091 l -4.8835,2.441751 v 4.77734 h -3.11412 v 4.600401 h 3.11412 v 8.776149 c 0,3.255668 1.94633,5.591256 4.95428,5.591256 1.52167,0 2.97257,-0.495427 3.78648,-1.132406 z"
     style="font-weight:bold;font-family:Interstate;-inkscape-font-specification:'Interstate, Bold'"
     id="path984" /><path
     d="M 234.19208,55.901398 V 44.577334 c 0,-5.414318 -2.37097,-7.643743 -6.15746,-7.643743 -3.00795,0 -4.52962,1.415508 -5.62664,3.184893 -0.8847,-1.769385 -2.47714,-3.184893 -5.09583,-3.184893 -2.19404,0 -3.7511,1.061631 -4.70657,2.654077 v -2.264812 h -2.65407 v 18.578542 h 2.65407 V 45.037374 c 0,-4.104973 1.59245,-5.803583 4.14037,-5.803583 2.5833,0 3.99881,1.557059 3.99881,5.803583 v 10.864024 h 2.65407 V 45.037374 c 0,-4.104973 1.62784,-5.803583 4.14036,-5.803583 2.68947,0 3.99881,1.557059 3.99881,5.803583 v 10.864024 z"
     style="font-weight:normal;font-family:'Interstate Light';-inkscape-font-specification:'Interstate Light, Normal'"
     id="path986" /><path
     d="m 255.09405,46.48827 c 0,-6.299011 -3.46799,-9.554679 -7.99762,-9.554679 -4.52962,0 -8.13917,3.397219 -8.13917,9.69623 0,6.29901 3.468,9.660841 7.99762,9.660841 4.52963,0 8.13917,-3.503382 8.13917,-9.802392 z m -2.65407,0.07077 c 0,4.883503 -2.19404,7.431417 -5.41432,7.431417 -3.22028,0 -5.37893,-2.547914 -5.37893,-7.431417 0,-4.883502 2.15865,-7.325254 5.37893,-7.325254 3.22028,0 5.41432,2.441752 5.41432,7.325254 z"
     style="font-weight:normal;font-family:'Interstate Light';-inkscape-font-specification:'Interstate Light, Normal'"
     id="path988" /><path
     d="m 274.89015,46.311331 c 0,-6.546724 -2.93718,-9.37774 -6.65289,-9.37774 -2.51253,0 -4.28191,1.238569 -5.59126,2.654077 v -9.483903 l -2.65407,1.486283 v 24.31135 h 2.65407 v -2.087875 c 1.30935,1.486284 2.9018,2.477139 5.23738,2.477139 3.89265,0 7.00677,-3.397219 7.00677,-9.979331 z m -2.61869,0.03539 c 0,4.989666 -1.52167,7.643743 -4.6004,7.643743 -2.19404,0 -3.99881,-1.23857 -5.02506,-2.795628 v -9.271577 c 1.30935,-1.627835 2.93718,-2.689466 4.9189,-2.689466 2.93717,0 4.70656,2.441752 4.70656,7.112928 z"
     style="font-weight:normal;font-family:'Interstate Light';-inkscape-font-specification:'Interstate Light, Normal'"
     id="path990" /><path
     d="m 283.1565,32.120864 c 0,-1.061631 -0.84931,-1.910936 -1.84016,-1.910936 -1.09702,0 -1.94633,0.849305 -1.94633,1.910936 0,1.026243 0.84931,1.875548 1.94633,1.875548 0.99085,0 1.84016,-0.849305 1.84016,-1.875548 z m -0.56621,23.780534 V 37.322856 h -2.65407 v 18.578542 z"
     style="font-weight:normal;font-family:'Interstate Light';-inkscape-font-specification:'Interstate Light, Normal'"
     id="path992" /><path
     d="M 291.50634,55.901398 V 30.103765 l -2.65408,1.486283 v 24.31135 z"
     style="font-weight:normal;font-family:'Interstate Light';-inkscape-font-specification:'Interstate Light, Normal'"
     id="path994" /></g><g
   id="g1877"
   transform="matrix(0.54596358,0,0,0.54596358,309.19614,1.7614399)"><path
     class="cls-1"
     d="m 117.13,67.06 v 1.11 h -9.88 V 50.09 h 1.32 v 17 z"
     id="path1472" /><path
     class="cls-1"
     d="m 135.58,68.17 h -1 a 0.49,0.49 0 0 1 -0.3,-0.09 0.94,0.94 0 0 1 -0.18,-0.25 L 132,62.57 h -8.88 L 121,67.83 a 0.59,0.59 0 0 1 -0.18,0.24 0.48,0.48 0 0 1 -0.31,0.1 h -1 l 7.4,-18.08 h 1.29 z m -4,-6.57 -3.68,-9.14 a 6.93,6.93 0 0 1 -0.37,-1.07 c -0.06,0.2 -0.11,0.4 -0.17,0.58 a 5,5 0 0 1 -0.19,0.51 l -3.68,9.12 z"
     id="path1474" /><path
     class="cls-1"
     d="m 152.19,50.09 v 18.08 h -0.61 a 0.58,0.58 0 0 1 -0.28,-0.06 0.6,0.6 0 0 1 -0.21,-0.19 l -11.74,-15.7 c 0,0.26 0,0.5 0,0.73 V 68.17 H 138.2 V 50.09 h 0.66 a 0.67,0.67 0 0 1 0.27,0 0.75,0.75 0 0 1 0.21,0.2 L 151.09,66 c 0,-0.26 0,-0.5 0,-0.73 V 50.09 Z"
     id="path1476" /><path
     class="cls-1"
     d="m 171.77,59.12 a 10.61,10.61 0 0 1 -0.63,3.77 8.08,8.08 0 0 1 -1.76,2.85 7.63,7.63 0 0 1 -2.73,1.81 9.65,9.65 0 0 1 -3.51,0.62 h -6.61 V 50.09 h 6.61 a 9.65,9.65 0 0 1 3.51,0.62 7.63,7.63 0 0 1 2.73,1.81 8.08,8.08 0 0 1 1.76,2.85 10.53,10.53 0 0 1 0.63,3.75 z m -1.36,0 a 10.06,10.06 0 0 0 -0.52,-3.37 7.26,7.26 0 0 0 -1.48,-2.51 6.43,6.43 0 0 0 -2.3,-1.56 8.13,8.13 0 0 0 -3,-0.53 h -5.29 v 16 h 5.29 a 7.93,7.93 0 0 0 3,-0.54 6.18,6.18 0 0 0 2.3,-1.56 7.12,7.12 0 0 0 1.48,-2.5 10.14,10.14 0 0 0 0.52,-3.43 z"
     id="path1478" /><path
     class="cls-1"
     d="m 177,58.43 h 1.08 a 2.68,2.68 0 0 0 0.42,0 1,1 0 0 0 0.32,-0.07 0.87,0.87 0 0 0 0.27,-0.14 l 0.27,-0.24 7.29,-7.5 a 1.08,1.08 0 0 1 0.38,-0.3 1.16,1.16 0 0 1 0.44,-0.07 h 1.05 l -7.9,8.11 a 3,3 0 0 1 -0.43,0.4 1.81,1.81 0 0 1 -0.41,0.23 1.35,1.35 0 0 1 0.48,0.24 2.36,2.36 0 0 1 0.44,0.41 l 8.3,8.67 h -1.06 a 1.09,1.09 0 0 1 -0.48,-0.08 1,1 0 0 1 -0.29,-0.26 L 179.53,60 179.27,59.76 a 2,2 0 0 0 -0.27,-0.17 1.2,1.2 0 0 0 -0.35,-0.1 3.43,3.43 0 0 0 -0.5,0 H 177 v 8.71 h -1.31 V 50.09 H 177 Z"
     id="path1480" /><path
     class="cls-1"
     d="m 204.37,68.17 h -1.12 a 0.82,0.82 0 0 1 -0.37,-0.07 0.73,0.73 0 0 1 -0.27,-0.26 l -5.8,-7.34 A 2.57,2.57 0 0 0 196.6,60.26 1,1 0 0 0 196.35,60.1 0.94,0.94 0 0 0 196,60 a 2.81,2.81 0 0 0 -0.45,0 h -2.36 v 8.18 H 191.9 V 50.09 h 4.63 a 7.6,7.6 0 0 1 4.67,1.2 4.24,4.24 0 0 1 1.55,3.55 4.82,4.82 0 0 1 -0.36,1.89 4.42,4.42 0 0 1 -1,1.5 5,5 0 0 1 -1.62,1.06 8.08,8.08 0 0 1 -2.14,0.55 2.2,2.2 0 0 1 0.55,0.51 z m -8,-9.15 a 7.51,7.51 0 0 0 2.15,-0.29 4.53,4.53 0 0 0 1.61,-0.82 3.57,3.57 0 0 0 1,-1.29 4.07,4.07 0 0 0 0.35,-1.7 3.35,3.35 0 0 0 -1.26,-2.87 6.12,6.12 0 0 0 -3.67,-0.93 h -3.31 V 59 Z"
     id="path1482" /><path
     class="cls-1"
     d="m 218.28,67.09 v 1.08 H 207.41 V 50.09 h 10.84 v 1.08 h -9.52 v 7.31 h 7.92 v 1.06 h -7.92 v 7.55 z"
     id="path1484" /><path
     class="cls-1"
     d="m 223.56,68.17 h -1.32 V 50.09 h 1.32 z"
     id="path1486" /><path
     class="cls-1"
     d="m 237.68,52.29 a 0.37,0.37 0 0 1 -0.33,0.21 0.76,0.76 0 0 1 -0.43,-0.23 5.44,5.44 0 0 0 -0.71,-0.53 5.59,5.59 0 0 0 -1.12,-0.53 5,5 0 0 0 -1.65,-0.24 4.89,4.89 0 0 0 -1.74,0.28 3.67,3.67 0 0 0 -1.25,0.77 3.27,3.27 0 0 0 -0.76,1.12 3.41,3.41 0 0 0 -0.27,1.34 2.72,2.72 0 0 0 0.39,1.52 3.49,3.49 0 0 0 1,1 7.24,7.24 0 0 0 1.45,0.71 c 0.54,0.19 1.1,0.38 1.67,0.56 0.57,0.18 1.13,0.4 1.67,0.62 a 6.28,6.28 0 0 1 1.45,0.85 4.19,4.19 0 0 1 1,1.26 4,4 0 0 1 0.39,1.86 5.81,5.81 0 0 1 -0.39,2.14 5.12,5.12 0 0 1 -1.05,1.78 5.48,5.48 0 0 1 -1.84,1.22 6.65,6.65 0 0 1 -2.45,0.43 6.8,6.8 0 0 1 -3.08,-0.64 7.18,7.18 0 0 1 -2.26,-1.79 l 0.35,-0.56 a 0.42,0.42 0 0 1 0.36,-0.19 0.48,0.48 0 0 1 0.29,0.15 l 0.44,0.38 a 7.26,7.26 0 0 0 0.61,0.48 5,5 0 0 0 0.83,0.49 6.59,6.59 0 0 0 1.09,0.38 5.86,5.86 0 0 0 1.39,0.15 5.22,5.22 0 0 0 1.92,-0.33 4.21,4.21 0 0 0 1.43,-0.88 3.81,3.81 0 0 0 0.88,-1.34 4.38,4.38 0 0 0 0.31,-1.66 2.9,2.9 0 0 0 -0.39,-1.57 3.3,3.3 0 0 0 -1,-1 6.51,6.51 0 0 0 -1.45,-0.7 l -1.67,-0.55 a 15.6,15.6 0 0 1 -1.66,-0.6 5.54,5.54 0 0 1 -1.46,-0.85 3.72,3.72 0 0 1 -1,-1.29 4.25,4.25 0 0 1 -0.39,-1.93 4.55,4.55 0 0 1 0.34,-1.75 4.33,4.33 0 0 1 1,-1.49 5,5 0 0 1 1.64,-1 6,6 0 0 1 2.23,-0.39 6.75,6.75 0 0 1 2.53,0.45 6.11,6.11 0 0 1 2,1.37 z"
     id="path1488" /><path
     class="cls-1"
     d="m 121.62,98.85 h -3.91 a 1.66,1.66 0 0 1 -1.56,-0.82 l -3.1,-5.41 a 1.36,1.36 0 0 0 -0.48,-0.5 1.47,1.47 0 0 0 -0.77,-0.16 h -1.1 v 6.89 h -4.32 V 80.22 h 6.06 a 12.33,12.33 0 0 1 3.45,0.42 6.39,6.39 0 0 1 2.32,1.16 4.28,4.28 0 0 1 1.31,1.75 5.81,5.81 0 0 1 0.41,2.19 6,6 0 0 1 -0.24,1.72 5.26,5.26 0 0 1 -0.69,1.54 5.39,5.39 0 0 1 -1.17,1.22 6.16,6.16 0 0 1 -1.6,0.88 4.1,4.1 0 0 1 0.79,0.54 3.93,3.93 0 0 1 0.67,0.78 z M 112.44,89 a 4.38,4.38 0 0 0 1.5,-0.23 2.48,2.48 0 0 0 1,-0.62 2.26,2.26 0 0 0 0.57,-0.92 3.6,3.6 0 0 0 0.18,-1.15 2.37,2.37 0 0 0 -0.8,-1.91 3.7,3.7 0 0 0 -2.47,-0.69 H 110.7 V 89 Z"
     id="path1490" /><path
     class="cls-1"
     d="m 127.54,83.55 v 4.34 h 5.85 v 3.2 h -5.85 v 4.43 h 7.64 v 3.33 h -12 V 80.22 h 12 v 3.33 z"
     id="path1492" /><path
     class="cls-1"
     d="m 145.61,95.43 a 4,4 0 0 0 1.55,-0.28 3.24,3.24 0 0 0 1.16,-0.83 3.76,3.76 0 0 0 0.68,-1.32 5.58,5.58 0 0 0 0.25,-1.76 v -11 h 4.32 v 11 a 8.65,8.65 0 0 1 -0.56,3.15 7.05,7.05 0 0 1 -1.59,2.46 7.13,7.13 0 0 1 -2.52,1.61 9.91,9.91 0 0 1 -6.68,0 7.13,7.13 0 0 1 -2.52,-1.61 6.89,6.89 0 0 1 -1.58,-2.46 8.65,8.65 0 0 1 -0.55,-3.15 v -11 h 4.32 v 11 a 5.63,5.63 0 0 0 0.25,1.76 3.54,3.54 0 0 0 0.72,1.31 3.07,3.07 0 0 0 1.16,0.84 4,4 0 0 0 1.59,0.28 z"
     id="path1494" /><path
     class="cls-1"
     d="m 170.36,83.74 h -5.24 V 98.85 H 160.8 V 83.74 h -5.24 v -3.52 h 14.8 z"
     id="path1496" /><path
     class="cls-1"
     d="m 183.77,95.39 v 3.46 H 172.55 V 80.22 h 4.32 v 15.17 z"
     id="path1498" /><path
     class="cls-1"
     d="M 190.32,98.85 H 186 V 80.22 h 4.35 v 18.63 z"
     id="path1500" /><path
     class="cls-1"
     d="m 210.18,80.22 v 18.63 h -2.25 a 2,2 0 0 1 -0.84,-0.16 2.1,2.1 0 0 1 -0.67,-0.56 L 197.64,87 c 0,0.34 0.06,0.66 0.07,1 0.01,0.34 0,0.6 0,0.87 v 10 H 193.9 V 80.22 h 2.27 a 3.23,3.23 0 0 1 0.48,0 1.22,1.22 0 0 1 0.34,0.1 1,1 0 0 1 0.29,0.19 2.88,2.88 0 0 1 0.33,0.35 l 8.85,11.18 c 0,-0.36 -0.07,-0.7 -0.09,-1 -0.02,-0.3 0,-0.65 0,-1 v -9.82 z"
     id="path1502" /><path
     class="cls-1"
     d="m 222.66,89.2 h 6.62 v 7.86 a 10.13,10.13 0 0 1 -3.05,1.52 12.21,12.21 0 0 1 -3.38,0.47 11.66,11.66 0 0 1 -4.19,-0.72 9.59,9.59 0 0 1 -3.22,-2 8.69,8.69 0 0 1 -2.08,-3 9.88,9.88 0 0 1 -0.72,-3.79 10.31,10.31 0 0 1 0.69,-3.83 8.55,8.55 0 0 1 2,-3 9,9 0 0 1 3.11,-2 11.18,11.18 0 0 1 4.07,-0.7 11.64,11.64 0 0 1 2.18,0.19 11.32,11.32 0 0 1 1.89,0.52 9.35,9.35 0 0 1 1.58,0.8 8.58,8.58 0 0 1 1.27,1 l -1.25,1.91 a 1.19,1.19 0 0 1 -0.76,0.55 1.34,1.34 0 0 1 -1,-0.23 10.63,10.63 0 0 0 -1,-0.53 6.55,6.55 0 0 0 -0.92,-0.37 6.32,6.32 0 0 0 -1,-0.2 10.27,10.27 0 0 0 -1.18,-0.07 5.44,5.44 0 0 0 -2.18,0.43 4.78,4.78 0 0 0 -1.66,1.21 5.58,5.58 0 0 0 -1,1.87 7.49,7.49 0 0 0 -0.37,2.44 7.89,7.89 0 0 0 0.41,2.63 5.41,5.41 0 0 0 1.15,1.94 5,5 0 0 0 1.79,1.21 6.17,6.17 0 0 0 2.31,0.42 5.58,5.58 0 0 0 1.41,-0.16 6.93,6.93 0 0 0 1.24,-0.41 v -2.82 h -1.84 a 0.86,0.86 0 0 1 -0.64,-0.22 0.7,0.7 0 0 1 -0.23,-0.55 z"
     id="path1504" /><path
     class="cls-1"
     d="m 236.52,83.55 v 4.34 h 5.86 v 3.2 h -5.86 v 4.43 h 7.65 v 3.33 h -12 V 80.22 h 12 v 3.33 z"
     id="path1506" /><path
     class="cls-1"
     d="m 263.08,80.22 v 18.63 h -2.25 a 2.1,2.1 0 0 1 -0.84,-0.16 2.34,2.34 0 0 1 -0.67,-0.56 L 250.54,87 c 0,0.34 0.06,0.66 0.07,1 0.01,0.34 0,0.6 0,0.87 v 10 H 246.8 V 80.22 h 2.28 a 3.09,3.09 0 0 1 0.47,0 1.2,1.2 0 0 1 0.35,0.1 1,1 0 0 1 0.29,0.19 2.89,2.89 0 0 1 0.32,0.35 l 8.86,11.18 c 0,-0.36 -0.07,-0.7 -0.09,-1 -0.02,-0.3 0,-0.65 0,-1 v -9.82 z"
     id="path1508" /><path
     class="cls-1"
     d="m 70.59,74 a 32.32,32.32 0 0 0 0,-45.69 l -22.85,22.8 z"
     id="path1510" /><polygon
     class="cls-1"
     points="66.2,24.59 24.59,24.59 24.59,66.2 "
     id="polygon1512" /><polygon
     class="cls-1"
     points="24.59,74.26 24.59,98.85 87.43,98.85 43.73,55.14 "
     id="polygon1514" /></g></g>
</svg>
