<?xml version="1.0" encoding="UTF-8" standalone="no"?>
<svg
   xmlns:dc="http://purl.org/dc/elements/1.1/"
   xmlns:cc="http://creativecommons.org/ns#"
   xmlns:rdf="http://www.w3.org/1999/02/22-rdf-syntax-ns#"
   xmlns:svg="http://www.w3.org/2000/svg"
   xmlns="http://www.w3.org/2000/svg"
   xmlns:sodipodi="http://sodipodi.sourceforge.net/DTD/sodipodi-0.dtd"
   xmlns:inkscape="http://www.inkscape.org/namespaces/inkscape"
   version="1.1"
   id="Ebene_1"
   x="0px"
   y="0px"
   viewBox="0 0 399.77012 62.360002"
   xml:space="preserve"
   sodipodi:docname="stadtnavi-ludwigsburg-logo.svg"
   inkscape:version="1.0 (4035a4fb49, 2020-05-01)"
   width="399.77014"
   height="62.360001"><metadata
   id="metadata1045"><rdf:RDF><cc:Work
       rdf:about=""><dc:format>image/svg+xml</dc:format><dc:type
         rdf:resource="http://purl.org/dc/dcmitype/StillImage" /><dc:title /></cc:Work></rdf:RDF></metadata><defs
   id="defs1043" /><sodipodi:namedview
   inkscape:document-rotation="0"
   pagecolor="#ffffff"
   bordercolor="#666666"
   borderopacity="1"
   objecttolerance="10"
   gridtolerance="10"
   guidetolerance="10"
   inkscape:pageopacity="0"
   inkscape:pageshadow="2"
   inkscape:window-width="2560"
   inkscape:window-height="1376"
   id="namedview1041"
   showgrid="false"
   inkscape:pagecheckerboard="true"
   inkscape:zoom="2.2845801"
   inkscape:cx="178.78117"
   inkscape:cy="159.44128"
   inkscape:window-x="0"
   inkscape:window-y="0"
   inkscape:window-maximized="1"
   inkscape:current-layer="g1038"
   fit-margin-top="0"
   fit-margin-left="2.9"
   fit-margin-right="0"
   fit-margin-bottom="0" />
<style
   type="text/css"
   id="style1004">
	.st0{fill:#C8DD9A;}
	.st1{fill:#FFFFFF;}
	.st2{fill:none;stroke:#FFFFFF;stroke-width:0.6709;}
</style>
<g
   id="g1038"
   transform="translate(0.02,-2.29)">
	<path
   class="st0"
   d="m 16.86,37.4 c 0.81,-5.17 5.02,-9.22 10.28,-9.75 l 0.32,-4.62 c -7.84,0.41 -14.19,6.39 -15.2,14.05 z"
   id="path1006"
   style="fill:#ffe800;fill-opacity:1" />
	<path
   class="st1"
   d="m 205.44,35.36 h 2.89 v 19.98 h -2.89 z m 2.87,-4.17 c -0.39,0.39 -0.86,0.59 -1.39,0.59 -0.58,0 -1.08,-0.2 -1.48,-0.59 -0.41,-0.39 -0.61,-0.87 -0.61,-1.43 0,-0.58 0.2,-1.07 0.61,-1.47 0.41,-0.39 0.9,-0.59 1.48,-0.59 0.53,0 1,0.2 1.39,0.59 0.39,0.39 0.59,0.88 0.59,1.47 0,0.56 -0.2,1.04 -0.59,1.43 m -13.85,24.15 h -2.51 l -7.16,-19.98 h 3.04 l 5.1,15.72 0.3,0.95 0.3,-0.95 5.1,-15.72 h 2.97 z M 178.93,46.4 c -0.66,-0.36 -1.38,-0.63 -2.15,-0.84 -0.77,-0.2 -1.77,-0.3 -2.99,-0.3 -1.47,0 -2.62,0.34 -3.45,1.01 -0.82,0.67 -1.24,1.64 -1.24,2.91 0,1.5 0.37,2.58 1.12,3.25 0.75,0.67 1.73,1.01 2.95,1.01 1.29,0 2.42,-0.29 3.39,-0.88 0.96,-0.58 1.75,-1.29 2.36,-2.13 z m 0,8.94 V 52.9 c -0.71,0.76 -1.57,1.43 -2.57,2 -1,0.57 -2.23,0.86 -3.67,0.86 -0.79,0 -1.56,-0.11 -2.32,-0.32 -0.76,-0.22 -1.45,-0.57 -2.05,-1.07 -0.61,-0.5 -1.1,-1.15 -1.47,-1.96 -0.37,-0.81 -0.55,-1.83 -0.55,-3.04 0,-1.12 0.22,-2.08 0.65,-2.89 0.43,-0.81 1,-1.48 1.69,-2 0.7,-0.52 1.51,-0.9 2.44,-1.14 0.93,-0.24 1.88,-0.36 2.87,-0.36 1.02,0 1.95,0.11 2.82,0.32 0.86,0.22 1.59,0.49 2.17,0.82 v -2.35 c 0,-2.93 -1.45,-4.39 -4.34,-4.39 -1.07,0 -2.04,0.13 -2.91,0.4 -0.88,0.27 -1.72,0.64 -2.53,1.12 l -1.07,-2.33 c 0.89,-0.49 1.91,-0.88 3.05,-1.18 1.15,-0.3 2.37,-0.44 3.66,-0.44 2.16,0 3.88,0.5 5.14,1.5 1.26,1 1.89,2.66 1.89,4.97 v 13.93 h -2.9 z m -19.59,0 V 43.63 c 0,-2.16 -0.39,-3.74 -1.16,-4.75 -0.77,-1 -1.95,-1.51 -3.54,-1.51 -1.39,0 -2.56,0.5 -3.51,1.49 -0.95,0.99 -1.42,2.58 -1.42,4.77 v 11.71 h -2.89 V 35.36 h 2.89 v 2.44 c 0.58,-0.84 1.33,-1.52 2.25,-2.06 0.91,-0.53 2,-0.8 3.27,-0.8 1.07,0 2.03,0.16 2.89,0.48 0.86,0.32 1.6,0.81 2.21,1.48 0.61,0.67 1.08,1.52 1.41,2.55 0.33,1.03 0.5,2.26 0.5,3.71 v 12.18 z m -17.54,-0.8 c -0.43,0.36 -1.02,0.65 -1.75,0.88 -0.74,0.23 -1.51,0.34 -2.32,0.34 -0.82,0 -1.56,-0.15 -2.22,-0.44 -0.66,-0.29 -1.23,-0.7 -1.69,-1.24 -0.46,-0.53 -0.82,-1.17 -1.07,-1.9 -0.26,-0.74 -0.38,-1.55 -0.38,-2.44 V 40.3 h -3.35 v -4.95 h 3.35 v -5.14 l 5.29,-2.63 v 7.76 h 4.8 v 4.95 h -4.8 v 8.03 c 0,0.96 0.17,1.6 0.5,1.92 0.33,0.32 0.81,0.48 1.45,0.48 0.48,0 0.93,-0.11 1.35,-0.34 0.42,-0.23 0.96,-0.62 1.62,-1.18 z M 120.85,41.6 c -0.84,-1.14 -2.03,-1.71 -3.56,-1.71 -2.09,0 -3.14,1.7 -3.14,5.1 0,2.06 0.31,3.54 0.94,4.45 0.62,0.91 1.46,1.37 2.51,1.37 0.82,0 1.47,-0.15 1.95,-0.46 0.48,-0.3 0.92,-0.71 1.3,-1.22 z m 0,13.74 v -1.26 c -0.51,0.43 -1.1,0.82 -1.77,1.16 -0.67,0.34 -1.49,0.51 -2.46,0.51 -1.07,0 -2.07,-0.2 -3.01,-0.61 -0.94,-0.41 -1.76,-1.05 -2.47,-1.92 -0.71,-0.88 -1.27,-1.98 -1.68,-3.31 -0.41,-1.33 -0.61,-2.94 -0.61,-4.81 0,-1.5 0.17,-2.87 0.51,-4.11 0.34,-1.24 0.84,-2.31 1.5,-3.22 0.66,-0.9 1.47,-1.6 2.44,-2.09 0.96,-0.5 2.07,-0.74 3.31,-0.74 0.89,0 1.69,0.15 2.42,0.46 0.72,0.3 1.32,0.67 1.81,1.1 v -6.28 l 5.29,-2.63 v 27.75 z m -20.74,-8.37 c -0.45,-0.28 -0.94,-0.49 -1.46,-0.63 -0.52,-0.14 -1.24,-0.21 -2.18,-0.21 -0.98,0 -1.74,0.22 -2.25,0.65 -0.52,0.43 -0.78,1.05 -0.78,1.86 0,0.71 0.23,1.33 0.68,1.86 0.45,0.53 1.24,0.8 2.35,0.8 0.86,0 1.61,-0.18 2.25,-0.55 0.64,-0.37 1.1,-0.79 1.38,-1.27 v -2.51 z m 0,8.37 v -1.33 c -0.48,0.51 -1.12,0.93 -1.9,1.26 -0.79,0.33 -1.65,0.49 -2.59,0.49 -0.94,0 -1.85,-0.15 -2.74,-0.44 -0.89,-0.29 -1.68,-0.73 -2.38,-1.31 -0.7,-0.58 -1.26,-1.32 -1.69,-2.21 -0.43,-0.89 -0.65,-1.94 -0.65,-3.16 0,-1.09 0.21,-2.05 0.63,-2.89 0.42,-0.84 1,-1.53 1.73,-2.07 0.74,-0.55 1.59,-0.96 2.57,-1.24 0.98,-0.28 2.04,-0.42 3.18,-0.42 0.91,0 1.67,0.08 2.28,0.25 0.61,0.17 1.13,0.35 1.56,0.55 v -0.99 c 0,-0.71 -0.23,-1.31 -0.7,-1.81 -0.47,-0.49 -1.19,-0.74 -2.15,-0.74 -0.61,0 -1.15,0.03 -1.62,0.08 -0.47,0.05 -0.91,0.13 -1.33,0.23 -0.42,0.1 -0.83,0.24 -1.24,0.4 -0.41,0.17 -0.84,0.37 -1.29,0.63 l -2.02,-3.65 c 0.58,-0.33 1.15,-0.62 1.69,-0.88 0.55,-0.25 1.12,-0.46 1.71,-0.63 0.6,-0.16 1.22,-0.29 1.88,-0.38 0.66,-0.09 1.4,-0.13 2.21,-0.13 1.22,0 2.32,0.15 3.32,0.46 0.99,0.3 1.85,0.76 2.56,1.35 0.72,0.6 1.27,1.33 1.67,2.21 0.4,0.88 0.59,1.87 0.59,2.99 v 13.4 h -5.28 z m -15.56,-0.8 c -0.43,0.36 -1.02,0.65 -1.75,0.88 -0.74,0.23 -1.51,0.34 -2.32,0.34 -0.82,0 -1.56,-0.15 -2.22,-0.44 -0.67,-0.29 -1.23,-0.7 -1.69,-1.24 -0.46,-0.53 -0.82,-1.17 -1.07,-1.9 -0.26,-0.74 -0.38,-1.55 -0.38,-2.44 V 40.3 h -3.35 v -4.95 h 3.35 v -5.14 l 5.29,-2.63 v 7.76 h 4.8 v 4.95 h -4.8 v 8.03 c 0,0.96 0.16,1.6 0.49,1.92 0.33,0.32 0.81,0.48 1.45,0.48 0.48,0 0.93,-0.11 1.35,-0.34 0.42,-0.23 0.96,-0.62 1.62,-1.18 z M 68.98,52.43 c -0.43,0.8 -1.02,1.45 -1.75,1.94 -0.74,0.49 -1.6,0.85 -2.59,1.07 -0.99,0.22 -2.04,0.32 -3.16,0.32 -1.6,0 -3.13,-0.21 -4.59,-0.63 -1.46,-0.42 -2.72,-0.98 -3.79,-1.69 l 1.75,-4 c 1.07,0.58 2.16,1.03 3.29,1.35 1.13,0.32 2.34,0.48 3.64,0.48 1.04,0 1.74,-0.13 2.11,-0.38 0.37,-0.25 0.55,-0.63 0.55,-1.14 0,-0.46 -0.21,-0.82 -0.63,-1.1 -0.42,-0.28 -1.19,-0.58 -2.3,-0.91 -1.19,-0.35 -2.28,-0.72 -3.25,-1.08 -0.98,-0.37 -1.81,-0.8 -2.49,-1.29 -0.69,-0.49 -1.21,-1.1 -1.58,-1.81 -0.37,-0.71 -0.55,-1.6 -0.55,-2.66 0,-1.04 0.2,-1.93 0.59,-2.68 0.39,-0.75 0.94,-1.36 1.66,-1.85 0.71,-0.48 1.55,-0.84 2.53,-1.07 0.98,-0.23 2.05,-0.34 3.22,-0.34 1.27,0 2.55,0.18 3.84,0.53 1.29,0.36 2.47,0.82 3.54,1.41 l -1.67,4.15 c -0.99,-0.53 -2,-0.93 -3.03,-1.2 -1.03,-0.27 -1.96,-0.4 -2.8,-0.4 -1.07,0 -1.78,0.11 -2.15,0.32 -0.37,0.22 -0.55,0.54 -0.55,0.97 0,0.2 0.05,0.39 0.15,0.55 0.1,0.17 0.3,0.33 0.59,0.49 0.29,0.17 0.71,0.35 1.26,0.55 0.55,0.2 1.26,0.44 2.15,0.72 0.89,0.3 1.74,0.62 2.55,0.95 0.81,0.33 1.52,0.74 2.13,1.22 0.61,0.48 1.09,1.07 1.45,1.77 0.35,0.7 0.53,1.54 0.53,2.53 0,1.14 -0.22,2.11 -0.65,2.91"
   id="path1008" />
	<path
   class="st1"
   d="M 44.51,53.12 V 39.18 39.17 c 0,-7.79 -5.53,-14.31 -12.88,-15.86 l -0.34,4.61 c 4.98,1.33 8.66,5.86 8.66,11.25 v 0 11.65 H 28.29 c -5.6,0 -10.29,-3.97 -11.4,-9.25 l -4.66,-0.31 c 1.04,7.95 7.84,14.11 16.06,14.11 h 13.94 c 1.26,0.02 2.28,-1 2.28,-2.25"
   id="path1010" />
	<path
   class="st0"
   d="M 7.46,36.75 C 8.66,26.49 17.28,18.48 27.79,18.22 l 0.32,-4.59 C 15.01,13.73 4.26,23.68 2.88,36.44 Z"
   id="path1012"
   style="fill:#ffe800;fill-opacity:1" />
	
	
	
	
	
	
	
	
	
	
	<g
   id="g1036">
		<line
   class="st2"
   x1="222.03999"
   y1="2.29"
   x2="222.03999"
   y2="64.650002"
   id="line1034" />
	</g>
<g
   style="font-style:normal;font-weight:normal;font-size:29.3333px;line-height:1.25;font-family:sans-serif;letter-spacing:0px;word-spacing:0px;fill:#000000;fill-opacity:1;stroke:none"
   id="text843"
   aria-label="Ludwigsburg"><path
     id="path847"
     style="font-style:normal;font-variant:normal;font-weight:normal;font-stretch:normal;font-size:29.3333px;font-family:Interstate;-inkscape-font-specification:'Interstate, Normal';font-variant-ligatures:normal;font-variant-caps:normal;font-variant-numeric:normal;font-variant-east-asian:normal;fill:#ffffff"
     d="m 243.78517,55.815857 h -13.31732 v -20.53331 h 3.08 v 17.51198 h 10.23732 z" /><path
     id="path849"
     style="font-style:normal;font-variant:normal;font-weight:normal;font-stretch:normal;font-size:29.3333px;font-family:Interstate;-inkscape-font-specification:'Interstate, Normal';font-variant-ligatures:normal;font-variant-caps:normal;font-variant-numeric:normal;font-variant-east-asian:normal;fill:#ffffff"
     d="m 259.74247,55.815857 h -3.02133 v -1.466665 q -1.232,1.789331 -3.872,1.789331 -5.48533,0 -5.48533,-6.893325 v -8.829323 h 3.02133 v 8.71199 q 0,4.223995 3.168,4.223995 3.168,0 3.168,-3.930662 v -9.005323 h 3.02133 z" /><path
     id="path851"
     style="font-style:normal;font-variant:normal;font-weight:normal;font-stretch:normal;font-size:29.3333px;font-family:Interstate;-inkscape-font-specification:'Interstate, Normal';font-variant-ligatures:normal;font-variant-caps:normal;font-variant-numeric:normal;font-variant-east-asian:normal;fill:#ffffff"
     d="m 276.46244,55.815857 h -2.992 v -1.466665 q -1.936,1.789331 -4.01866,1.789331 -2.66933,0 -4.19466,-1.935998 -1.73067,-2.14133 -1.73067,-6.335992 0,-3.754663 1.848,-5.86666 1.64266,-1.906665 4.22399,-1.906665 2.288,0 3.872,1.759998 v -5.86666 l 2.992,-1.554665 z m -2.96267,-4.429328 v -6.48266 q -1.496,-2.023997 -3.60799,-2.023997 -3.344,0 -3.344,4.898661 0,5.573327 3.46133,5.573327 1.936,0 3.49066,-1.965331 z" /><path
     id="path853"
     style="font-style:normal;font-variant:normal;font-weight:normal;font-stretch:normal;font-size:29.3333px;font-family:Interstate;-inkscape-font-specification:'Interstate, Normal';font-variant-ligatures:normal;font-variant-caps:normal;font-variant-numeric:normal;font-variant-east-asian:normal;fill:#ffffff"
     d="m 299.2544,40.415875 -4.28266,15.399982 h -2.58133 l -2.08266,-7.773324 q -0.528,-1.994665 -0.792,-3.28533 -0.264,1.319998 -0.792,3.314663 l -2.05333,7.743991 h -2.58133 l -4.224,-15.399982 h 2.992 l 1.81866,7.479991 q 0.49867,2.053331 0.76267,3.373329 0.41067,-1.730664 0.85067,-3.373329 l 2.05333,-7.479991 h 2.43466 l 2.08266,7.509324 q 0.29334,1.055999 0.82134,3.343996 0.23466,-1.085332 0.76266,-3.373329 l 1.81867,-7.479991 z" /><path
     id="path855"
     style="font-style:normal;font-variant:normal;font-weight:normal;font-stretch:normal;font-size:29.3333px;font-family:Interstate;-inkscape-font-specification:'Interstate, Normal';font-variant-ligatures:normal;font-variant-caps:normal;font-variant-numeric:normal;font-variant-east-asian:normal;fill:#ffffff"
     d="m 306.26504,36.485212 q 0,0.792 -0.58667,1.378666 -0.55733,0.557332 -1.34933,0.557332 -0.82133,0 -1.408,-0.557332 -0.55733,-0.586666 -0.55733,-1.378666 0,-0.821332 0.55733,-1.378665 0.58667,-0.586666 1.408,-0.586666 0.792,0 1.34933,0.586666 0.58667,0.557333 0.58667,1.378665 z m -0.44,19.330645 h -3.02133 V 40.415875 h 3.02133 z" /><path
     id="path857"
     style="font-style:normal;font-variant:normal;font-weight:normal;font-stretch:normal;font-size:29.3333px;font-family:Interstate;-inkscape-font-specification:'Interstate, Normal';font-variant-ligatures:normal;font-variant-caps:normal;font-variant-numeric:normal;font-variant-east-asian:normal;fill:#ffffff"
     d="m 322.69167,54.349192 q 0,3.637329 -1.55467,5.250661 -1.67199,1.759998 -5.71999,1.877331 l -1.02666,-2.287998 q 3.16799,-0.146666 4.28266,-1.173332 0.99733,-0.938665 0.99733,-3.402662 v -0.264 q -1.936,1.789331 -3.98933,1.789331 -2.64,0 -4.19466,-1.935998 -1.73067,-2.170664 -1.73067,-6.335992 0,-3.754663 1.848,-5.86666 1.672,-1.906665 4.224,-1.906665 2.31733,0 3.84266,1.759998 v -1.437331 h 3.02133 z m -2.96266,-2.962663 v -6.48266 q -1.496,-2.023997 -3.608,-2.023997 -3.344,0 -3.344,4.898661 0,5.573327 3.46133,5.573327 1.936,0 3.49067,-1.965331 z" /><path
     id="path859"
     style="font-style:normal;font-variant:normal;font-weight:normal;font-stretch:normal;font-size:29.3333px;font-family:Interstate;-inkscape-font-specification:'Interstate, Normal';font-variant-ligatures:normal;font-variant-caps:normal;font-variant-numeric:normal;font-variant-east-asian:normal;fill:#ffffff"
     d="m 337.91564,51.591862 q 0,2.375997 -1.76,3.549329 -1.49599,0.997332 -4.01866,0.997332 -3.22666,0 -5.89599,-1.965331 l 1.37866,-2.287997 q 2.2,1.525331 4.488,1.525331 2.816,0 2.816,-1.701331 0,-0.791999 -0.968,-1.407998 -0.616,-0.410667 -2.61067,-1.173332 -2.52266,-0.967999 -3.51999,-1.994665 -0.99734,-1.055999 -0.99734,-2.84533 0,-2.023997 1.43734,-3.10933 1.43733,-1.085332 3.81333,-1.085332 2.87466,0 5.22132,1.701332 l -1.32,2.31733 q -1.87733,-1.319998 -3.98932,-1.319998 -2.112,0 -2.112,1.407998 0,1.114666 2.84533,2.229331 2.87466,1.114665 3.87199,1.994664 1.32,1.143999 1.32,3.167997 z" /><path
     id="path861"
     style="font-style:normal;font-variant:normal;font-weight:normal;font-stretch:normal;font-size:29.3333px;font-family:Interstate;-inkscape-font-specification:'Interstate, Normal';font-variant-ligatures:normal;font-variant-caps:normal;font-variant-numeric:normal;font-variant-east-asian:normal;fill:#ffffff"
     d="m 354.72358,48.365199 q 0,3.754662 -1.848,5.86666 -1.64266,1.906664 -4.22399,1.906664 -2.288,0 -3.872,-1.759998 v 1.437332 H 341.7876 V 35.986546 l 2.99199,-1.554665 v 7.450659 q 1.936,-1.789332 4.01867,-1.789332 2.66933,0 4.19466,1.935998 1.73066,2.141331 1.73066,6.335993 z m -3.02133,0.088 q 0,-5.573327 -3.46133,-5.573327 -1.936,0 -3.49066,1.965331 v 6.482659 q 1.496,2.023998 3.608,2.023998 3.34399,0 3.34399,-4.898661 z" /><path
     id="path863"
     style="font-style:normal;font-variant:normal;font-weight:normal;font-stretch:normal;font-size:29.3333px;font-family:Interstate;-inkscape-font-specification:'Interstate, Normal';font-variant-ligatures:normal;font-variant-caps:normal;font-variant-numeric:normal;font-variant-east-asian:normal;fill:#ffffff"
     d="m 370.76889,55.815857 h -3.02133 v -1.466665 q -1.23199,1.789331 -3.87199,1.789331 -5.48533,0 -5.48533,-6.893325 v -8.829323 h 3.02133 v 8.71199 q 0,4.223995 3.168,4.223995 3.16799,0 3.16799,-3.930662 v -9.005323 h 3.02133 z" /><path
     id="path865"
     style="font-style:normal;font-variant:normal;font-weight:normal;font-stretch:normal;font-size:29.3333px;font-family:Interstate;-inkscape-font-specification:'Interstate, Normal';font-variant-ligatures:normal;font-variant-caps:normal;font-variant-numeric:normal;font-variant-east-asian:normal;fill:#ffffff"
     d="m 384.37953,40.738541 -0.79199,2.874663 q -1.02667,-0.557332 -2.31733,-0.557332 -3.02133,0 -3.02133,3.959995 v 8.79999 h -3.02133 V 40.415875 h 3.02133 v 1.466665 q 1.23199,-1.789332 3.51999,-1.789332 1.64267,0 2.61066,0.645333 z" /><path
     id="path867"
     style="font-style:normal;font-variant:normal;font-weight:normal;font-stretch:normal;font-size:29.3333px;font-family:Interstate;-inkscape-font-specification:'Interstate, Normal';font-variant-ligatures:normal;font-variant-caps:normal;font-variant-numeric:normal;font-variant-east-asian:normal;fill:#ffffff"
     d="m 399.75016,54.349192 q 0,3.637329 -1.55467,5.250661 -1.672,1.759998 -5.71999,1.877331 l -1.02667,-2.287998 q 3.168,-0.146666 4.28266,-1.173332 0.99734,-0.938665 0.99734,-3.402662 v -0.264 q -1.936,1.789331 -3.98933,1.789331 -2.64,0 -4.19466,-1.935998 -1.73067,-2.170664 -1.73067,-6.335992 0,-3.754663 1.848,-5.86666 1.672,-1.906665 4.22399,-1.906665 2.31733,0 3.84267,1.759998 v -1.437331 h 3.02133 z m -2.96267,-2.962663 v -6.48266 q -1.496,-2.023997 -3.60799,-2.023997 -3.344,0 -3.344,4.898661 0,5.573327 3.46133,5.573327 1.936,0 3.49066,-1.965331 z" /></g></g>
</svg>
