<?xml version="1.0" encoding="UTF-8" standalone="no"?>
<!-- Generator: Adobe Illustrator 23.1.1, SVG Export Plug-In . SVG Version: 6.00 Build 0)  -->

<svg
   version="1.1"
   id="Ebene_1"
   x="0px"
   y="0px"
   viewBox="0 0 500.00 66.03"
   style="enable-background:new 0 0 500.00 66.03;"
   xml:space="preserve"
   sodipodi:docname="landstadtmobil-muensingen-logo.svg"
   inkscape:version="1.1 (c4e8f9e, 2021-05-24)"
   xmlns:inkscape="http://www.inkscape.org/namespaces/inkscape"
   xmlns:sodipodi="http://sodipodi.sourceforge.net/DTD/sodipodi-0.dtd"
   xmlns="http://www.w3.org/2000/svg"
   xmlns:svg="http://www.w3.org/2000/svg"><defs
   id="defs41" /><sodipodi:namedview
   id="namedview39"
   pagecolor="#ffffff"
   bordercolor="#666666"
   borderopacity="1.0"
   inkscape:pageshadow="2"
   inkscape:pageopacity="0.0"
   inkscape:pagecheckerboard="0"
   showgrid="false"
   inkscape:zoom="3.2228803"
   inkscape:cx="329.98433"
   inkscape:cy="56.626366"
   inkscape:window-width="2400"
   inkscape:window-height="997"
   inkscape:window-x="0"
   inkscape:window-y="25"
   inkscape:window-maximized="0"
   inkscape:current-layer="g36" />
<style
   type="text/css"
   id="style2">
	.st0{fill:#FFFFFF;fill-opacity:0.5;}
	.st1{fill:#FFFFFF;}
	.st2{fill:none;stroke:#FFFFFF;stroke-width:0.6709;}
</style>
<g
   id="g36">
	<path
   class="st0"
   d="M16.86,37.4c0.81-5.17,5.02-9.22,10.28-9.75l0.32-4.62c-7.84,0.41-14.19,6.39-15.2,14.05L16.86,37.4   L16.86,37.4z"
   id="path4" />
	
	<path
   class="st1"
   d="M44.51,53.12V39.18v-0.01c0-7.79-5.53-14.31-12.88-15.86l-0.34,4.61c4.98,1.33,8.66,5.86,8.66,11.25l0,0v11.65   H28.29c-5.6,0-10.29-3.97-11.4-9.25l-4.66-0.31c1.04,7.95,7.84,14.11,16.06,14.11h13.94C43.49,55.39,44.51,54.37,44.51,53.12"
   id="path8" />
	<path
   class="st0"
   d="M7.46,36.75c1.2-10.26,9.82-18.27,20.33-18.53l0.32-4.59c-13.1,0.1-23.85,10.05-25.23,22.81L7.46,36.75   L7.46,36.75z"
   id="path10" />
	
	<g
   id="g34"
   transform="translate(76)">
		<line
   class="st2"
   x1="222.03999"
   y1="2.29"
   x2="222.03999"
   y2="64.650002"
   id="line32" />
	</g>
<g
   aria-label="landstadtmobil"
   id="text3904"
   style="font-size:35.3877px;line-height:1.25;fill:#ffffff;stroke-width:0.884693"><path
     d="M 55.270223,55.901398 V 30.103765 l -4.883503,2.441751 v 23.355882 z"
     style="font-weight:bold;font-family:Interstate;-inkscape-font-specification:'Interstate, Bold'"
     id="path968" /><path
     d="m 75.27312,55.901398 v -12.45647 c 0,-4.175749 -3.043342,-6.511337 -7.53758,-6.511337 -3.007955,0 -4.812727,0.636979 -6.971377,1.875548 l 1.875548,3.397219 c 1.69861,-0.92008 2.866404,-1.238569 5.095829,-1.238569 1.769385,0 2.654077,1.061631 2.654077,2.370976 v 0.92008 c -0.778529,-0.389265 -1.875548,-0.743142 -3.574157,-0.743142 -4.211137,0 -7.53758,2.052487 -7.53758,6.15746 0,4.494237 3.467994,6.617499 6.935989,6.617499 1.733997,0 3.291056,-0.707754 4.175748,-1.627834 v 1.23857 z m -4.883503,-5.449706 c -0.530815,0.884693 -1.804772,1.69861 -3.397219,1.69861 -2.087874,0 -2.831016,-1.167794 -2.831016,-2.477139 0,-1.486284 0.990856,-2.335588 2.831016,-2.335588 1.733997,0 2.547915,0.247713 3.397219,0.778529 z"
     style="font-weight:bold;font-family:Interstate;-inkscape-font-specification:'Interstate, Bold'"
     id="path970" /><path
     d="M 95.962205,55.901398 V 45.426639 c 0,-5.23738 -2.123262,-8.493048 -6.865213,-8.493048 -1.946324,0 -3.503383,0.743142 -4.352687,1.627834 v -1.238569 h -4.883503 v 18.578542 h 4.883503 v -10.15627 c 0,-3.220281 1.167794,-4.211136 3.184892,-4.211136 2.017099,0 3.149506,0.990855 3.149506,4.317299 v 10.050107 z"
     style="font-weight:bold;font-family:Interstate;-inkscape-font-specification:'Interstate, Bold'"
     id="path972" /><path
     d="M 115.60182,55.901398 V 30.103765 l -4.8835,2.441751 v 5.838971 c -0.88469,-0.813917 -2.3002,-1.450896 -3.92803,-1.450896 -4.6004,0 -7.219093,3.892647 -7.219093,9.448516 0,6.935989 3.255673,9.908555 7.219093,9.908555 1.76938,0 3.00795,-0.743141 3.92803,-1.557058 v 1.167794 z m -4.8835,-5.768195 c -0.70775,0.92008 -1.48628,1.557059 -3.00795,1.557059 -1.91094,0 -3.18489,-1.592447 -3.18489,-5.414318 0,-3.114118 1.02624,-4.741952 2.90179,-4.741952 1.4155,0 2.54791,0.566203 3.29105,1.592446 z"
     style="font-weight:bold;font-family:Interstate;-inkscape-font-specification:'Interstate, Bold'"
     id="path974" /><path
     d="m 135.11814,50.48708 c 0,-3.715709 -2.8664,-4.91889 -6.19284,-6.015909 -3.29106,-1.061631 -3.85726,-1.38012 -3.85726,-2.15865 0,-0.813917 0.53081,-1.203182 2.51252,-1.203182 1.55706,0 3.57416,0.495428 5.41432,1.486284 l 1.55706,-3.857259 c -1.98171,-1.097019 -4.52963,-1.804773 -6.86521,-1.804773 -4.35269,0 -7.43142,1.663222 -7.43142,5.520481 0,3.928035 2.8664,5.025053 7.32525,6.369786 2.05249,0.601591 2.72486,1.026243 2.72486,1.875548 0,0.955468 -0.56621,1.415508 -2.47714,1.415508 -2.37098,0 -4.45885,-0.601591 -6.44056,-1.69861 l -1.62784,3.715709 c 1.98171,1.309345 4.84812,2.158649 7.7853,2.158649 4.17574,0 7.57296,-1.521671 7.57296,-5.803582 z"
     style="font-weight:bold;font-family:Interstate;-inkscape-font-specification:'Interstate, Bold'"
     id="path976" /><path
     d="m 150.17008,50.203978 c -1.20318,1.026243 -1.87555,1.415508 -2.76024,1.415508 -1.16779,0 -1.80477,-0.46004 -1.80477,-2.229425 v -7.466804 h 4.45885 v -4.600401 h -4.45885 v -7.219091 l -4.8835,2.441751 v 4.77734 h -3.11412 v 4.600401 h 3.11412 v 8.776149 c 0,3.255668 1.94632,5.591256 4.95427,5.591256 1.52167,0 2.97257,-0.495427 3.78649,-1.132406 z"
     style="font-weight:bold;font-family:Interstate;-inkscape-font-specification:'Interstate, Bold'"
     id="path978" /><path
     d="m 169.27169,55.901398 v -12.45647 c 0,-4.175749 -3.04334,-6.511337 -7.53758,-6.511337 -3.00795,0 -4.81272,0.636979 -6.97137,1.875548 l 1.87554,3.397219 c 1.69861,-0.92008 2.86641,-1.238569 5.09583,-1.238569 1.76939,0 2.65408,1.061631 2.65408,2.370976 v 0.92008 c -0.77853,-0.389265 -1.87555,-0.743142 -3.57416,-0.743142 -4.21113,0 -7.53758,2.052487 -7.53758,6.15746 0,4.494237 3.468,6.617499 6.93599,6.617499 1.734,0 3.29106,-0.707754 4.17575,-1.627834 v 1.23857 z m -4.8835,-5.449706 c -0.53082,0.884693 -1.80477,1.69861 -3.39722,1.69861 -2.08787,0 -2.83102,-1.167794 -2.83102,-2.477139 0,-1.486284 0.99086,-2.335588 2.83102,-2.335588 1.734,0 2.54791,0.247713 3.39722,0.778529 z"
     style="font-weight:bold;font-family:Interstate;-inkscape-font-specification:'Interstate, Bold'"
     id="path980" /><path
     d="M 188.93454,55.901398 V 30.103765 l -4.8835,2.441751 v 5.838971 c -0.8847,-0.813917 -2.3002,-1.450896 -3.92804,-1.450896 -4.6004,0 -7.21909,3.892647 -7.21909,9.448516 0,6.935989 3.25567,9.908555 7.21909,9.908555 1.76939,0 3.00796,-0.743141 3.92804,-1.557058 v 1.167794 z m -4.8835,-5.768195 c -0.70776,0.92008 -1.48629,1.557059 -3.00796,1.557059 -1.91093,0 -3.18489,-1.592447 -3.18489,-5.414318 0,-3.114118 1.02624,-4.741952 2.90179,-4.741952 1.41551,0 2.54791,0.566203 3.29106,1.592446 z"
     style="font-weight:bold;font-family:Interstate;-inkscape-font-specification:'Interstate, Bold'"
     id="path982" /><path
     d="m 204.84131,50.203978 c -1.20318,1.026243 -1.87555,1.415508 -2.76024,1.415508 -1.1678,0 -1.80478,-0.46004 -1.80478,-2.229425 v -7.466804 h 4.45885 v -4.600401 h -4.45885 v -7.219091 l -4.8835,2.441751 v 4.77734 h -3.11412 v 4.600401 h 3.11412 v 8.776149 c 0,3.255668 1.94633,5.591256 4.95428,5.591256 1.52167,0 2.97257,-0.495427 3.78648,-1.132406 z"
     style="font-weight:bold;font-family:Interstate;-inkscape-font-specification:'Interstate, Bold'"
     id="path984" /><path
     d="M 234.19208,55.901398 V 44.577334 c 0,-5.414318 -2.37097,-7.643743 -6.15746,-7.643743 -3.00795,0 -4.52962,1.415508 -5.62664,3.184893 -0.8847,-1.769385 -2.47714,-3.184893 -5.09583,-3.184893 -2.19404,0 -3.7511,1.061631 -4.70657,2.654077 v -2.264812 h -2.65407 v 18.578542 h 2.65407 V 45.037374 c 0,-4.104973 1.59245,-5.803583 4.14037,-5.803583 2.5833,0 3.99881,1.557059 3.99881,5.803583 v 10.864024 h 2.65407 V 45.037374 c 0,-4.104973 1.62784,-5.803583 4.14036,-5.803583 2.68947,0 3.99881,1.557059 3.99881,5.803583 v 10.864024 z"
     style="font-weight:normal;font-family:'Interstate Light';-inkscape-font-specification:'Interstate Light, Normal'"
     id="path986" /><path
     d="m 255.09405,46.48827 c 0,-6.299011 -3.46799,-9.554679 -7.99762,-9.554679 -4.52962,0 -8.13917,3.397219 -8.13917,9.69623 0,6.29901 3.468,9.660841 7.99762,9.660841 4.52963,0 8.13917,-3.503382 8.13917,-9.802392 z m -2.65407,0.07077 c 0,4.883503 -2.19404,7.431417 -5.41432,7.431417 -3.22028,0 -5.37893,-2.547914 -5.37893,-7.431417 0,-4.883502 2.15865,-7.325254 5.37893,-7.325254 3.22028,0 5.41432,2.441752 5.41432,7.325254 z"
     style="font-weight:normal;font-family:'Interstate Light';-inkscape-font-specification:'Interstate Light, Normal'"
     id="path988" /><path
     d="m 274.89015,46.311331 c 0,-6.546724 -2.93718,-9.37774 -6.65289,-9.37774 -2.51253,0 -4.28191,1.238569 -5.59126,2.654077 v -9.483903 l -2.65407,1.486283 v 24.31135 h 2.65407 v -2.087875 c 1.30935,1.486284 2.9018,2.477139 5.23738,2.477139 3.89265,0 7.00677,-3.397219 7.00677,-9.979331 z m -2.61869,0.03539 c 0,4.989666 -1.52167,7.643743 -4.6004,7.643743 -2.19404,0 -3.99881,-1.23857 -5.02506,-2.795628 v -9.271577 c 1.30935,-1.627835 2.93718,-2.689466 4.9189,-2.689466 2.93717,0 4.70656,2.441752 4.70656,7.112928 z"
     style="font-weight:normal;font-family:'Interstate Light';-inkscape-font-specification:'Interstate Light, Normal'"
     id="path990" /><path
     d="m 283.1565,32.120864 c 0,-1.061631 -0.84931,-1.910936 -1.84016,-1.910936 -1.09702,0 -1.94633,0.849305 -1.94633,1.910936 0,1.026243 0.84931,1.875548 1.94633,1.875548 0.99085,0 1.84016,-0.849305 1.84016,-1.875548 z m -0.56621,23.780534 V 37.322856 h -2.65407 v 18.578542 z"
     style="font-weight:normal;font-family:'Interstate Light';-inkscape-font-specification:'Interstate Light, Normal'"
     id="path992" /><path
     d="M 291.50634,55.901398 V 30.103765 l -2.65408,1.486283 v 24.31135 z"
     style="font-weight:normal;font-family:'Interstate Light';-inkscape-font-specification:'Interstate Light, Normal'"
     id="path994" /></g><g
   id="g1893"
   transform="matrix(0.80982932,0,0,0.80982932,308.74853,11.426874)"><path
     style="fill:#ffffff"
     d="m 72.843,51.477 c -0.279,-1.481 -1.081,-2.616 -2.581,-2.616 -1.447,0 -2.092,0.716 -2.092,1.832 0,1.324 1.011,1.796 2.266,2.44 1.482,0.783 3.226,1.83 3.226,3.835 0,2.041 -1.551,3.399 -3.975,3.399 -1.447,0 -2.58,-0.418 -3.26,-0.784 -0.192,-0.679 -0.332,-1.83 -0.349,-2.876 0.122,-0.088 0.401,-0.14 0.558,-0.088 0.279,1.883 1.621,3.051 3.104,3.051 1.464,0 2.179,-0.836 2.179,-2.092 0,-1.307 -0.924,-2.039 -2.615,-2.876 -1.517,-0.732 -2.789,-1.726 -2.789,-3.4 0,-1.743 1.308,-3.139 3.766,-3.139 0.994,0 1.971,0.192 2.859,0.523 0.139,0.662 0.209,1.831 0.261,2.702 -0.14,0.089 -0.402,0.141 -0.558,0.089 z"
     id="path1869" /><path
     style="fill:#ffffff"
     d="m 84.002,48.338 c -2.493,0.506 -4.463,1.43 -3.905,3.906 0.854,0.139 1.849,0.453 1.849,1.15 0,0.645 -0.715,1.149 -1.465,0.54 -0.332,-0.263 -0.558,-0.593 -0.75,-0.993 -0.279,-0.123 -0.488,-0.158 -0.749,-0.158 -1.063,0 -2.354,1.028 -2.354,3.052 0,2.179 1.325,3.313 2.894,3.313 0.994,0 1.604,-0.488 2.145,-0.96 0.122,0.018 0.262,0.174 0.279,0.332 -0.314,0.453 -1.727,1.847 -3.331,1.847 -2.231,0 -3.644,-1.726 -3.644,-4.01 0,-2.476 1.83,-4.184 4.271,-4.184 0.07,0 0.174,0 0.261,0.017 -0.278,-1.586 0.576,-3.591 3.906,-4.235 0.89,-0.157 1.535,-0.611 1.813,-0.837 0.087,0 0.262,0.052 0.349,0.175 v 6.102 h 0.036 c 0.575,-0.523 1.621,-1.221 2.755,-1.221 1.726,0 2.267,1.221 2.267,3.138 v 2.267 c 0,1.917 0.173,2.005 0.871,2.005 h 0.418 c 0.053,0.14 0.07,0.523 0,0.663 -1.202,-0.053 -1.465,-0.053 -2.248,-0.053 h -1.656 c -0.07,-0.122 -0.07,-0.4 0,-0.523 l 0.349,-0.087 c 0.714,-0.192 0.696,-0.593 0.696,-2.876 v -1.047 c 0,-1.726 -0.349,-2.266 -1.568,-2.266 -0.698,0 -1.378,0.261 -1.918,0.521 v 3.662 c 0,1.917 0.175,2.005 0.873,2.005 h 0.418 c 0.052,0.14 0.07,0.523 0,0.663 C 85.661,60.193 85.4,60.193 84.615,60.193 H 82.61 c -0.07,-0.122 -0.07,-0.4 0,-0.523 l 0.349,-0.087 c 0.854,-0.192 1.046,-0.628 1.046,-2.876 v -8.369 z"
     id="path1871" /><path
     style="fill:#ffffff"
     d="m 100.881,60.142 c -0.192,0.156 -0.436,0.226 -0.715,0.226 l -2.109,-5.631 -2.23,5.405 c -0.192,0.156 -0.437,0.226 -0.716,0.226 l -2.266,-6.049 c -0.139,-0.332 -0.506,-1.36 -1.222,-1.36 h -0.296 c -0.07,-0.104 -0.086,-0.575 0,-0.663 1.203,0.054 1.465,0.054 2.249,0.054 h 1.657 c 0.07,0.121 0.07,0.4 0,0.522 l -0.349,0.087 c -0.681,0.175 -0.505,0.784 -0.402,1.028 l 1.412,4.29 h 0.035 l 1.761,-4.446 c -0.209,-0.4 -0.54,-0.872 -1.01,-0.872 h -0.297 c -0.07,-0.104 -0.086,-0.575 0,-0.663 1.204,0.054 1.465,0.054 2.249,0.054 h 1.656 c 0.069,0.121 0.069,0.4 0,0.522 l -0.349,0.087 c -0.68,0.175 -0.506,0.784 -0.4,1.028 l 1.411,4.29 h 0.035 l 1.465,-4.133 c 0.367,-0.923 0.244,-1.186 -0.453,-1.186 h -0.123 c -0.069,-0.104 -0.087,-0.575 0,-0.663 1.204,0.054 1.134,0.054 1.901,0.054 h 0.959 c 0.069,0.121 0.069,0.4 0,0.522 l -0.35,0.087 c -0.697,0.192 -1.428,1.744 -2.598,4.795 z"
     id="path1873" /><path
     style="fill:#ffffff"
     d="m 112.112,59.253 c -0.4,0.645 -1.028,1.114 -1.777,1.114 -0.749,0 -1.151,-0.296 -1.36,-0.872 h -0.035 c -0.47,0.332 -1.342,0.872 -2.23,0.872 -1.046,0 -1.728,-0.662 -1.866,-1.429 -0.156,-0.854 0.122,-1.343 1.255,-1.813 l 2.825,-1.168 0.052,-0.854 c 0.088,-1.796 -1.133,-2.424 -2.214,-1.952 -0.261,0.121 -0.453,0.349 -0.244,0.905 0.384,1.047 -0.82,1.151 -1.098,0.646 -0.611,-1.063 1.377,-2.528 2.858,-2.528 1.865,0 2.354,0.993 2.267,2.528 -0.088,1.307 -0.174,2.195 -0.174,2.876 0,1.047 0.139,1.675 0.609,1.727 0.349,0.051 0.645,-0.14 0.872,-0.331 0.087,0.052 0.208,0.14 0.26,0.279 z m -5.108,-10.025 c 0.488,0 0.837,0.384 0.837,0.854 0,0.472 -0.349,0.854 -0.837,0.854 -0.472,0 -0.854,-0.383 -0.854,-0.854 10e-4,-0.47 0.382,-0.854 0.854,-0.854 z m 1.849,9.728 c -0.088,-0.854 -0.052,-1.639 0,-2.406 l -1.865,0.855 c -0.192,0.086 -0.716,0.365 -0.628,0.977 0.052,0.436 0.4,0.854 1.168,0.854 0.436,-10e-4 1.045,-0.141 1.325,-0.28 z m 0.802,-9.728 c 0.471,0 0.854,0.384 0.854,0.854 0,0.472 -0.383,0.854 -0.854,0.854 -0.488,0 -0.837,-0.383 -0.837,-0.854 0,-0.47 0.348,-0.854 0.837,-0.854 z"
     id="path1875" /><path
     style="fill:#ffffff"
     d="m 114.852,53.082 h 0.033 c 0.611,-0.507 1.465,-0.907 2.354,-0.907 2.145,0 3.504,1.726 3.504,4.01 0,2.633 -2.005,4.184 -4.306,4.184 -0.941,0 -1.953,-0.349 -2.39,-0.628 l -0.592,0.628 c -0.14,0 -0.209,-0.069 -0.263,-0.086 0.088,-1.326 0.088,-2.528 0.088,-3.574 v -5.754 c 0,-1.307 -0.069,-1.935 -0.941,-2.354 l -0.174,-0.088 c -0.07,-0.121 -0.07,-0.4 0,-0.521 0.889,-0.192 1.342,-0.349 2.336,-0.872 0.087,0 0.262,0.052 0.35,0.175 v 5.787 z m 0,0.59 v 3.732 c 0,1.325 0.488,2.354 1.83,2.354 1.603,0 2.354,-1.377 2.354,-3.261 -0.053,-2.162 -1.186,-3.347 -2.528,-3.347 -0.629,0.001 -1.308,0.245 -1.656,0.522 z"
     id="path1877" /><path
     style="fill:#ffffff"
     d="m 126.011,59.584 c 0.052,0.14 0.069,0.523 0,0.663 -1.204,-0.053 -1.465,-0.053 -2.249,-0.053 h -2.005 c -0.069,-0.122 -0.069,-0.4 0,-0.523 l 0.349,-0.087 c 0.854,-0.192 1.045,-0.628 1.045,-2.876 V 56.01 c 0,-1.307 -0.174,-1.935 -1.045,-2.354 L 121.93,53.57 c -0.069,-0.123 -0.069,-0.402 0,-0.523 0.891,-0.192 1.465,-0.367 2.441,-0.872 0.087,0 0.261,0.052 0.349,0.175 v 5.229 c 0,1.917 0.175,2.005 0.872,2.005 z m -2.074,-11.072 c 0.609,0 1.098,0.488 1.098,1.1 0,0.609 -0.488,1.098 -1.098,1.098 -0.611,0 -1.1,-0.488 -1.1,-1.098 0,-0.611 0.488,-1.1 1.1,-1.1 z"
     id="path1879" /><path
     style="fill:#ffffff"
     d="m 127.075,59.828 c -0.088,-0.278 -0.209,-1.795 -0.209,-2.162 0.069,-0.069 0.47,-0.087 0.539,-0.017 0.279,1.482 1.17,2.109 2.076,2.109 0.819,0 1.377,-0.471 1.377,-1.256 0,-0.906 -0.941,-1.237 -1.744,-1.621 -1.134,-0.47 -2.092,-1.15 -2.092,-2.423 0,-1.377 1.167,-2.284 2.771,-2.284 0.768,0 1.569,0.209 2.041,0.471 0.087,0.192 0.296,1.569 0.296,1.97 0,0.069 -0.488,0.088 -0.54,0.034 -0.209,-1.114 -0.993,-1.865 -1.883,-1.865 -0.784,0 -1.309,0.472 -1.309,1.151 0,0.819 0.767,1.151 1.587,1.465 1.116,0.47 2.354,1.133 2.354,2.614 0,1.586 -1.446,2.354 -2.964,2.354 -0.818,0 -1.674,-0.14 -2.3,-0.54 z"
     id="path1881" /><path
     style="fill:#ffffff"
     d="m 142.591,48.338 c -2.491,0.506 -4.463,1.43 -3.904,3.906 0.855,0.139 1.849,0.453 1.849,1.15 0,0.645 -0.715,1.149 -1.464,0.54 -0.332,-0.263 -0.558,-0.593 -0.75,-0.993 -0.279,-0.123 -0.488,-0.158 -0.751,-0.158 -1.063,0 -2.352,1.028 -2.352,3.052 0,2.179 1.324,3.313 2.893,3.313 0.993,0 1.605,-0.488 2.145,-0.96 0.123,0.018 0.263,0.174 0.279,0.332 -0.314,0.453 -1.726,1.847 -3.33,1.847 -2.232,0 -3.643,-1.726 -3.643,-4.01 0,-2.476 1.829,-4.184 4.27,-4.184 0.069,0 0.174,0 0.262,0.017 -0.279,-1.586 0.575,-3.591 3.905,-4.235 0.889,-0.157 1.534,-0.611 1.813,-0.837 0.086,0 0.261,0.052 0.349,0.175 v 6.102 h 0.033 c 0.576,-0.523 1.623,-1.221 2.756,-1.221 1.726,0 2.266,1.221 2.266,3.138 v 2.267 c 0,1.917 0.176,2.005 0.873,2.005 h 0.419 c 0.051,0.14 0.069,0.523 0,0.663 -1.204,-0.053 -1.465,-0.053 -2.251,-0.053 h -1.655 c -0.07,-0.122 -0.07,-0.4 0,-0.523 l 0.349,-0.087 c 0.714,-0.192 0.697,-0.593 0.697,-2.876 v -1.047 c 0,-1.726 -0.349,-2.266 -1.569,-2.266 -0.697,0 -1.377,0.261 -1.917,0.521 v 3.662 c 0,1.917 0.173,2.005 0.87,2.005 h 0.419 c 0.053,0.14 0.069,0.523 0,0.663 -1.202,-0.053 -1.465,-0.053 -2.249,-0.053 h -2.005 c -0.069,-0.122 -0.069,-0.4 0,-0.523 l 0.349,-0.087 c 0.854,-0.192 1.045,-0.628 1.045,-2.876 v -8.369 z"
     id="path1883" /><path
     style="fill:#ffffff"
     d="m 154.189,55.435 -1.429,0.086 c -0.017,0.123 -0.017,0.175 -0.017,0.315 0,2.179 1.22,3.313 2.806,3.313 0.993,0 1.604,-0.488 2.145,-0.96 0.122,0.018 0.261,0.174 0.279,0.332 -0.315,0.453 -1.727,1.847 -3.332,1.847 -2.23,0 -3.469,-1.726 -3.469,-4.01 0,-2.476 1.831,-4.184 4.097,-4.184 1.133,0 2.877,0.575 2.651,2.929 -0.054,0.14 -0.123,0.244 -0.244,0.332 z m -1.342,-0.542 3.522,-0.174 c 0.209,-1.063 -0.315,-1.936 -1.36,-1.936 -0.906,10e-4 -1.865,0.717 -2.162,2.11 z"
     id="path1885" /><path
     style="fill:#ffffff"
     d="m 172.096,57.928 c 0.472,1.342 0.784,1.655 1.482,1.655 h 0.297 c 0.052,0.14 0.069,0.523 0,0.663 -1.204,-0.053 -1.465,-0.053 -2.249,-0.053 h -2.441 c -0.069,-0.122 -0.069,-0.4 0,-0.523 l 0.349,-0.087 c 0.855,-0.209 1.047,-0.662 0.559,-2.005 l -0.61,-1.655 h -3.748 l -0.786,2.354 c -0.382,1.133 0.263,1.307 0.96,1.307 h 0.505 c 0.052,0.14 0.07,0.523 0,0.663 -1.202,-0.053 -1.465,-0.053 -2.248,-0.053 h -1.953 c -0.07,-0.122 -0.07,-0.4 0,-0.523 l 0.349,-0.087 c 0.855,-0.192 1.29,-0.697 2.911,-5.144 1.116,-3.102 1.691,-4.707 1.83,-5.857 0.367,-0.331 0.874,-0.366 1.344,-0.419 z m -4.497,-7.444 -1.604,4.741 h 3.26 l -1.621,-4.741 z"
     id="path1887" /><path
     style="fill:#ffffff"
     d="m 178.758,59.584 c 0.053,0.14 0.069,0.523 0,0.663 -1.203,-0.053 -1.465,-0.053 -2.249,-0.053 h -2.005 c -0.069,-0.122 -0.069,-0.4 0,-0.523 l 0.349,-0.087 c 0.855,-0.192 1.047,-0.628 1.047,-2.876 v -5.754 c 0,-1.307 -0.175,-1.935 -1.047,-2.354 l -0.173,-0.088 c -0.069,-0.121 -0.069,-0.4 0,-0.521 0.889,-0.192 1.464,-0.367 2.44,-0.872 0.086,0 0.261,0.052 0.349,0.175 v 10.285 c 0,1.917 0.173,2.005 0.87,2.005 z"
     id="path1889" /><path
     style="fill:#ffffff"
     d="m 181.723,53.082 h 0.036 c 0.609,-0.507 1.465,-0.907 2.353,-0.907 2.143,0 3.504,1.726 3.504,4.01 0,2.633 -2.006,4.184 -4.307,4.184 -0.941,0 -1.953,-0.349 -2.388,-0.628 l -0.594,0.628 c -0.139,0 -0.209,-0.069 -0.262,-0.086 0.088,-1.326 0.088,-2.528 0.088,-3.574 v -5.754 c 0,-1.307 -0.07,-1.935 -0.941,-2.354 l -0.175,-0.088 c -0.069,-0.121 -0.069,-0.4 0,-0.521 0.889,-0.192 1.342,-0.349 2.335,-0.872 0.088,0 0.263,0.052 0.35,0.175 v 5.787 z m 0,0.59 v 3.732 c 0,1.325 0.488,2.354 1.831,2.354 1.604,0 2.354,-1.377 2.354,-3.261 -0.053,-2.162 -1.186,-3.347 -2.527,-3.347 -0.629,0.001 -1.309,0.245 -1.658,0.522 z"
     id="path1891" /></g><g
   id="g1911"
   transform="matrix(0.80982932,0,0,0.80982932,308.74853,11.426874)"><path
     style="fill:#00792d"
     d="m 26.109,1.992 h 7.853 c 0.16,0.278 0.16,0.918 0,1.195 l -0.797,0.199 c -2.71,0.638 -2.87,1.395 -2.87,6.578 l 0.797,13.153 c 0.319,4.386 1.156,4.584 2.79,4.584 h 0.678 c 0.12,0.318 0.159,1.195 0,1.515 -2.75,-0.119 -3.348,-0.119 -5.142,-0.119 h -5.581 c -0.16,-0.279 -0.16,-0.917 0,-1.196 l 0.797,-0.199 c 1.953,-0.439 2.472,-1.435 2.272,-6.576 L 26.189,6.775 h -0.08 l -8.45,22.202 c -0.438,0.359 -0.997,0.519 -1.634,0.519 L 6.856,6.775 H 6.776 L 6.577,23.118 c 0,4.386 0.358,4.584 1.992,4.584 h 1.157 c 0.119,0.318 0.16,1.195 0,1.515 C 6.975,29.098 6.377,29.098 4.583,29.098 H 0.119 c -0.159,-0.279 -0.159,-0.917 0,-1.196 L 0.916,27.703 C 2.909,27.264 4.264,27.106 4.583,21.127 L 5.181,7.972 C 5.381,3.627 3.986,3.387 2.391,3.387 H 1.236 c -0.159,-0.238 -0.2,-1.315 0,-1.514 2.751,0.119 3.348,0.119 5.142,0.119 h 3.188 l 8.372,21.524 h 0.08 z"
     id="path1895" /><path
     style="fill:#00792d"
     d="m 54.087,22.521 c 0,4.345 0.398,4.663 1.993,4.663 h 1.395 c 0.119,0.32 0.16,1.196 0,1.515 -2.79,0.199 -3.946,0.36 -6.178,0.798 -0.199,0 -0.599,-0.12 -0.797,-0.398 v -2.392 h -0.08 c -1.315,1.195 -3.707,2.79 -6.297,2.79 -4.026,0 -5.183,-2.79 -5.183,-7.177 v -5.18 c 0,-4.346 -0.398,-4.584 -1.992,-4.584 h -0.957 c -0.159,-0.24 -0.2,-1.315 0,-1.516 2.83,0.12 4.664,0.161 5.739,-0.278 0.2,0 0.599,0.12 0.797,0.399 v 10.364 c 0,4.025 0.797,5.182 3.587,5.182 1.595,0 3.149,-0.597 4.385,-1.197 v -8.37 c 0,-4.346 -0.398,-4.584 -1.993,-4.584 h -1.754 c -0.159,-0.24 -0.199,-1.315 0,-1.516 2.75,0.12 5.501,0.161 6.538,-0.278 0.199,0 0.598,0.12 0.797,0.399 z M 43.604,4.024 c 1.116,0 1.914,0.878 1.914,1.955 0,1.075 -0.798,1.953 -1.914,1.953 -1.076,0 -1.953,-0.878 -1.953,-1.953 0,-1.077 0.877,-1.955 1.953,-1.955 z m 6.059,0 c 1.076,0 1.953,0.878 1.953,1.955 0,1.075 -0.877,1.953 -1.953,1.953 -1.116,0 -1.914,-0.878 -1.914,-1.953 0,-1.077 0.798,-1.955 1.914,-1.955 z"
     id="path1897" /><path
     style="fill:#00792d"
     d="m 73.657,18.734 c 0,-3.946 -0.797,-5.183 -3.587,-5.183 -1.595,0 -3.149,0.599 -4.385,1.197 v 8.369 c 0,4.386 0.398,4.584 1.993,4.584 h 0.957 c 0.12,0.318 0.159,1.195 0,1.515 -2.751,-0.119 -3.349,-0.119 -5.142,-0.119 h -4.584 c -0.159,-0.279 -0.159,-0.917 0,-1.196 l 0.797,-0.199 c 1.953,-0.439 2.392,-1.435 2.392,-6.576 v -1.597 c 0,-2.988 -0.399,-4.424 -2.392,-5.379 l -0.399,-0.2 c -0.159,-0.278 -0.159,-0.916 0,-1.195 2.033,-0.44 3.349,-0.837 5.581,-1.993 0.2,0 0.598,0.12 0.797,0.399 v 2.392 h 0.08 c 1.315,-1.195 3.707,-2.79 6.298,-2.79 3.946,0 5.182,2.79 5.182,7.175 v 5.182 c 0,4.386 0.398,4.584 1.993,4.584 h 0.956 c 0.12,0.318 0.16,1.195 0,1.515 C 77.444,29.1 76.846,29.1 75.052,29.1 h -3.787 c -0.16,-0.279 -0.16,-0.917 0,-1.196 l 0.797,-0.199 c 1.635,-0.439 1.595,-1.357 1.595,-6.576 z"
     id="path1899" /><path
     style="fill:#00792d"
     d="m 91.073,10.961 c 2.232,0.438 3.548,1.436 3.548,2.591 0,1.554 -2.153,2.392 -3.429,0.798 -0.479,-0.558 -0.837,-1.197 -1.076,-1.914 -0.597,-0.279 -1.155,-0.279 -1.475,-0.279 -1.794,0 -2.99,1.077 -2.99,2.632 0,1.873 1.753,2.631 3.627,3.348 2.551,1.076 5.381,2.591 5.381,5.979 0,3.627 -3.308,5.382 -6.776,5.382 -1.874,0 -3.827,-0.318 -5.261,-1.236 -0.2,-0.639 -0.479,-4.106 -0.479,-4.942 0.159,-0.16 1.076,-0.199 1.236,-0.041 0.638,3.39 2.671,4.825 4.744,4.825 1.872,0 3.148,-1.077 3.148,-2.871 0,-2.073 -2.152,-2.83 -3.985,-3.706 -2.592,-1.077 -4.785,-2.631 -4.785,-5.541 0,-3.148 2.671,-5.222 6.338,-5.222 0.279,0 0.558,0 0.836,0.04 C 88.921,6.019 91.79,0 98.646,0 c 3.508,0 6.419,1.912 6.419,4.981 0,1.396 -0.997,2.392 -2.391,2.392 -3.072,0 -2.912,-4.186 -0.8,-4.186 1.914,0 -0.118,-2.112 -3.507,-2.112 -5.181,0 -8.57,4.944 -7.294,9.886 z m 16.224,16.741 c 0.118,0.318 0.159,1.195 0,1.515 -2.751,-0.119 -3.35,-0.119 -5.144,-0.119 H 97.57 c -0.159,-0.279 -0.159,-0.917 0,-1.196 l 0.797,-0.199 c 1.953,-0.439 2.391,-1.435 2.391,-6.576 V 19.53 c 0,-2.988 -0.398,-4.424 -2.391,-5.379 l -0.399,-0.2 c -0.159,-0.278 -0.159,-0.916 0,-1.195 2.032,-0.44 3.349,-0.837 5.582,-1.993 0.199,0 0.597,0.12 0.796,0.399 V 23.12 c 0,4.386 0.399,4.584 1.994,4.584 h 0.957 z"
     id="path1901" /><path
     style="fill:#00792d"
     d="m 123.876,18.734 c 0,-3.946 -0.798,-5.183 -3.587,-5.183 -1.596,0 -3.15,0.599 -4.386,1.197 v 8.369 c 0,4.386 0.399,4.584 1.993,4.584 h 0.957 c 0.12,0.318 0.159,1.195 0,1.515 -2.751,-0.119 -3.35,-0.119 -5.143,-0.119 h -4.584 c -0.159,-0.279 -0.159,-0.917 0,-1.196 l 0.798,-0.199 c 1.953,-0.439 2.392,-1.435 2.392,-6.576 v -1.597 c 0,-2.988 -0.399,-4.424 -2.392,-5.379 l -0.398,-0.2 c -0.161,-0.278 -0.161,-0.916 0,-1.195 2.032,-0.44 3.348,-0.837 5.58,-1.993 0.199,0 0.597,0.12 0.797,0.399 v 2.392 h 0.079 c 1.315,-1.195 3.708,-2.79 6.299,-2.79 3.947,0 5.183,2.79 5.183,7.175 v 5.182 c 0,4.386 0.398,4.584 1.992,4.584 h 0.957 c 0.119,0.318 0.159,1.195 0,1.515 C 127.664,29.1 127.065,29.1 125.271,29.1 h -3.788 c -0.157,-0.279 -0.157,-0.917 0,-1.196 l 0.798,-0.199 c 1.634,-0.439 1.595,-1.357 1.595,-6.576 z"
     id="path1903" /><path
     style="fill:#00792d"
     d="m 149.703,11.201 c 0.279,0.277 0.279,1.634 0,1.992 h -3.786 v 0.079 c 1.155,0.917 1.514,2.672 1.514,3.906 0,3.947 -2.829,6.737 -7.454,6.737 -0.636,0 -1.554,-0.12 -2.151,-0.24 -0.757,0.597 -1.355,1.197 -1.355,1.992 0,0.918 0.957,1.317 2.511,1.438 l 4.624,0.398 c 4.146,0.357 6.856,1.872 6.856,4.742 0,3.747 -4.066,7.214 -10.443,7.214 -8.371,0 -9.487,-4.464 -5.98,-7.892 l 1.595,-1.514 c -1.157,-0.64 -2.71,-1.516 -2.71,-3.03 0,-0.438 0.158,-0.837 0.517,-1.155 l 3.03,-2.593 c -1.994,-1.035 -3.827,-2.67 -3.827,-5.698 0,-3.947 3.149,-6.816 7.653,-6.816 1.436,0 2.671,0.319 3.748,0.757 z m -12.634,19.132 c -1.077,1.155 -1.794,2.431 -1.794,3.707 0,2.552 2.191,4.024 5.539,4.024 3.309,0 6.259,-1.473 6.259,-4.344 0,-2.033 -1.913,-2.79 -4.583,-2.988 z m 3.346,-7.812 c 2.273,0 3.429,-1.794 3.429,-4.783 0,-3.188 -1.436,-5.581 -3.787,-5.581 -2.351,0 -3.508,1.953 -3.508,5.103 0,3.386 1.835,5.261 3.866,5.261 z"
     id="path1905" /><path
     style="fill:#00792d"
     d="m 158.352,18.216 -3.269,0.199 c -0.039,0.277 -0.039,0.398 -0.039,0.717 0,4.983 2.79,7.574 6.417,7.574 2.271,0 3.668,-1.116 4.902,-2.193 0.279,0.039 0.598,0.399 0.638,0.758 -0.717,1.036 -3.945,4.226 -7.612,4.226 -5.103,0 -7.933,-3.946 -7.933,-9.169 0,-5.659 4.185,-9.566 9.366,-9.566 2.592,0 6.578,1.316 6.059,6.696 -0.118,0.319 -0.278,0.558 -0.558,0.758 z m -3.07,-1.237 8.053,-0.398 c 0.479,-2.432 -0.719,-4.426 -3.109,-4.426 -2.073,0.001 -4.266,1.637 -4.944,4.824 z"
     id="path1907" /><path
     style="fill:#00792d"
     d="m 181.47,29.098 c -0.16,-0.279 -0.16,-0.917 0,-1.196 l 0.797,-0.199 c 1.634,-0.439 1.595,-1.357 1.595,-6.576 v -2.392 c 0,-3.946 -0.797,-5.183 -3.587,-5.183 -1.597,0 -3.149,0.599 -4.385,1.197 v 8.369 c 0,4.386 0.398,4.584 1.992,4.584 h 0.957 c 0.118,0.318 0.159,1.195 0,1.515 -2.75,-0.119 -3.349,-0.119 -5.143,-0.119 h -4.584 c -0.159,-0.279 -0.159,-0.917 0,-1.196 l 0.798,-0.199 c 1.953,-0.439 2.391,-1.435 2.391,-6.576 V 19.53 c 0,-2.988 -0.398,-4.424 -2.391,-5.379 l -0.399,-0.2 c -0.159,-0.278 -0.159,-0.916 0,-1.195 2.033,-0.44 3.349,-0.837 5.581,-1.993 0.199,0 0.598,0.12 0.798,0.399 v 2.392 h 0.079 c 1.314,-1.195 3.707,-2.79 6.298,-2.79 3.946,0 5.182,2.79 5.182,7.175 v 5.182 c 0,4.386 0.398,4.584 1.993,4.584 h 3.468 c 4.227,0 7.534,0.358 6.776,-3.269 -0.518,-2.432 2.79,-2.672 2.79,-0.398 0,1.992 -1.833,5.062 -9.407,5.062 H 181.47 Z"
     id="path1909" /></g></g>
</svg>
