<?xml version="1.0" encoding="UTF-8" standalone="no"?>
<!-- Created with Inkscape (http://www.inkscape.org/) -->

<svg
   width="161.72307mm"
   height="59.500866mm"
   viewBox="0 0 161.72307 59.500866"
   version="1.1"
   id="svg5931"
   inkscape:version="1.2 (dc2aeda, 2022-05-15)"
   sodipodi:docname="seutuplus-logo-white.svg"
   xmlns:inkscape="http://www.inkscape.org/namespaces/inkscape"
   xmlns:sodipodi="http://sodipodi.sourceforge.net/DTD/sodipodi-0.dtd"
   xmlns="http://www.w3.org/2000/svg"
   xmlns:svg="http://www.w3.org/2000/svg">
  <sodipodi:namedview
     id="namedview5933"
     pagecolor="#ffffff"
     bordercolor="#000000"
     borderopacity="0.25"
     inkscape:showpageshadow="2"
     inkscape:pageopacity="0.0"
     inkscape:pagecheckerboard="0"
     inkscape:deskcolor="#d1d1d1"
     inkscape:document-units="mm"
     showgrid="false"
     inkscape:zoom="0.85508393"
     inkscape:cx="-47.363772"
     inkscape:cy="47.363772"
     inkscape:window-width="1581"
     inkscape:window-height="659"
     inkscape:window-x="0"
     inkscape:window-y="25"
     inkscape:window-maximized="0"
     inkscape:current-layer="layer1" />
  <defs
     id="defs5928" />
  <g
     inkscape:label="Layer 1"
     inkscape:groupmode="layer"
     id="layer1"
     transform="translate(-24.850336,-114.97414)">
    <g
       id="g283"
       transform="matrix(0.3556172,0,0,-0.35561722,54.041904,132.53858)"
       style="fill:#ffffff">
      <path
         d="m 0,0 c -6.16,0.785 -12.612,-0.433 -18.299,-3.964 -9.424,-5.852 -14.139,-16.382 -13.073,-26.722 0.232,-2.054 0.972,-3.935 2.457,-5.379 2.723,-2.646 7.126,-2.855 10.053,-0.436 0.638,0.527 1.161,1.126 1.572,1.771 0.941,1.474 1.218,3.28 0.936,5.006 -0.817,5.002 1.366,10.232 5.94,13.073 2.868,1.781 6.16,2.289 9.233,1.703 2.089,-0.473 4.392,-0.008 6.277,1.428 2.684,2.047 3.695,5.749 2.388,8.862 C 6.152,-1.486 3.386,-0.362 0,0"
         style="fill:#ffffff;fill-opacity:1;fill-rule:nonzero;stroke:none"
         id="path285" />
    </g>
    <g
       id="g287"
       transform="matrix(0.3556172,0,0,-0.35561722,166.6133,141.0634)"
       style="fill:#ffffff">
      <path
         d="m 0,0 h -11.007 v 11.007 c 0,3.761 -3.049,6.809 -6.808,6.809 h -10e-4 c -3.76,0 -6.808,-3.048 -6.808,-6.809 V 0 h -11.007 c -3.761,0 -6.808,-3.048 -6.808,-6.808 0,-3.76 3.047,-6.809 6.808,-6.809 h 11.007 v -11.007 c 0,-3.76 3.048,-6.808 6.808,-6.808 h 10e-4 c 3.759,0 6.808,3.048 6.808,6.808 v 11.007 H 0 c 3.76,0 6.808,3.049 6.808,6.809 C 6.808,-3.048 3.76,0 0,0"
         style="fill:#ffffff;fill-opacity:1;fill-rule:nonzero;stroke:none"
         id="path289" />
    </g>
    <g
       id="g291"
       transform="matrix(0.3556172,0,0,-0.35561722,100.15389,146.1978)"
       style="fill:#ffffff">
      <path
         d="M 0,0 V 0.177 C 0,0.117 -0.004,0.059 -0.005,0 Z"
         style="fill:#ffffff;fill-opacity:1;fill-rule:nonzero;stroke:none"
         id="path293" />
    </g>
    <g
       id="g295"
       transform="matrix(0.3556172,0,0,-0.35561722,97.655544,132.95842)"
       style="fill:#ffffff">
      <path
         d="m 0,0 h -0.994 c -3.88,0 -7.091,-3.211 -7.091,-7.091 v -29.763 l -0.002,-0.147 c 10e-4,-0.071 0.002,-0.147 0.002,-0.218 0,-7.14 -5.798,-12.923 -12.938,-12.927 -7.14,-0.004 -12.916,5.688 -12.923,12.929 0,0.038 -0.001,0.117 -0.001,0.195 h 0.001 v 29.899 c 0,3.874 -3.141,7.015 -7.015,7.015 h -1.089 c -3.874,0 -7.014,-3.141 -7.014,-7.015 V -37.01 h -0.008 v -0.009 c -10e-4,-0.006 -10e-4,-0.013 -10e-4,-0.02 0,-15.489 12.555,-28.044 28.045,-28.044 15.428,0 27.943,12.459 28.04,27.866 0,0.059 0.004,0.117 0.004,0.176 v 0.002 0.001 c 0,0.006 0,0.01 0,0.016 h 0.008 c 0,-0.01 0.001,-0.019 0.001,-0.028 V -7.025 C 7.025,-3.146 3.88,0 0,0"
         style="fill:#ffffff;fill-opacity:1;fill-rule:nonzero;stroke:none"
         id="path297" />
    </g>
    <g
       id="g299"
       transform="matrix(0.3556172,0,0,-0.35561722,74.675344,150.79547)"
       style="fill:#ffffff">
      <path
         d="m 0,0 h -23.122 l -0.016,9.678 16.767,0.026 c 4.155,0 7.522,3.368 7.522,7.522 0,4.154 -3.367,7.522 -7.522,7.522 H -23.122 V 35.12 h 23.096 c 4.154,0 7.523,3.368 7.523,7.522 0,4.155 -3.369,7.523 -7.523,7.523 h -28.999 c -0.171,0.011 -0.342,0.026 -0.516,0.026 -4.168,0 -7.548,-3.38 -7.548,-7.549 0,-0.314 0.026,-0.623 0.063,-0.927 V -6.794 c -0.023,-0.239 -0.037,-0.482 -0.037,-0.728 0,-4.155 3.368,-7.523 7.522,-7.523 H 0 c 4.155,0 7.522,3.368 7.522,7.523 C 7.522,-3.368 4.155,0 0,0"
         style="fill:#ffffff;fill-opacity:1;fill-rule:nonzero;stroke:none"
         id="path301" />
    </g>
    <g
       id="g303"
       transform="matrix(0.3556172,0,0,-0.35561722,121.30579,133.55308)"
       style="fill:#ffffff">
      <path
         d="M 0,0 C -0.369,0.304 -0.768,0.574 -1.191,0.804 -2.249,1.378 -3.461,1.705 -4.75,1.705 H -26.348 -46.85 c -4.124,0 -7.467,-3.343 -7.467,-7.467 v -0.163 c 0,-4.124 3.343,-7.467 7.467,-7.467 h 13.528 v -42.721 c 0,-4.077 3.304,-7.382 7.381,-7.382 h 0.281 c 4.077,0 7.382,3.305 7.382,7.382 v 42.721 H -4.75 c 4.124,0 7.467,3.343 7.467,7.467 v 0.163 C 2.717,-3.442 1.659,-1.37 0,0"
         style="fill:#ffffff;fill-opacity:1;fill-rule:nonzero;stroke:none"
         id="path305" />
    </g>
    <g
       id="g307"
       transform="matrix(0.3556172,0,0,-0.35561722,45.132374,156.63979)"
       style="fill:#ffffff">
      <path
         d="m 0,0 c 6.094,-1.19 12.613,-0.401 18.521,2.747 9.79,5.217 15.19,15.412 14.809,25.799 -0.096,2.065 -0.709,3.991 -2.096,5.53 -2.542,2.82 -6.922,3.32 -10.003,1.099 C 20.56,34.691 19.999,34.128 19.545,33.512 18.51,32.103 18.114,30.319 18.281,28.579 18.766,23.534 16.242,18.459 11.491,15.927 8.511,14.339 5.194,14.05 2.165,14.837 0.112,15.447 -2.217,15.136 -4.191,13.827 -7.006,11.961 -8.258,8.335 -7.16,5.142 -6.041,1.889 -3.355,0.584 0,0"
         style="fill:#ffffff;fill-opacity:1;fill-rule:nonzero;stroke:none"
         id="path309" />
    </g>
    <g
       id="g311"
       transform="matrix(0.3556172,0,0,-0.35561722,144.6543,146.1978)"
       style="fill:#ffffff">
      <path
         d="M 0,0 V 0.177 C 0,0.117 -0.004,0.059 -0.005,0 Z"
         style="fill:#ffffff;fill-opacity:1;fill-rule:nonzero;stroke:none"
         id="path313" />
    </g>
    <g
       id="g315"
       transform="matrix(0.3556172,0,0,-0.35561722,142.15594,132.95842)"
       style="fill:#ffffff">
      <path
         d="m 0,0 h -0.994 c -3.88,0 -7.091,-3.211 -7.091,-7.091 v -29.763 l -0.002,-0.147 c 10e-4,-0.071 0.002,-0.147 0.002,-0.218 0,-7.14 -5.798,-12.923 -12.938,-12.927 -7.14,-0.004 -12.916,5.688 -12.923,12.929 0,0.038 -0.001,0.117 -0.001,0.195 h 0.001 v 29.899 c 0,3.874 -3.141,7.015 -7.015,7.015 h -1.089 c -3.874,0 -7.014,-3.141 -7.014,-7.015 V -37.01 h -0.008 v -0.009 c -10e-4,-0.006 -10e-4,-0.013 -10e-4,-0.02 0,-15.489 12.555,-28.044 28.045,-28.044 15.428,0 27.943,12.459 28.04,27.866 0,0.059 0.004,0.117 0.004,0.176 v 0.002 0.001 c 0,0.006 0,0.01 0,0.016 h 0.008 c 0,-0.01 0.001,-0.019 0.001,-0.028 V -7.025 C 7.025,-3.146 3.88,0 0,0"
         style="fill:#ffffff;fill-opacity:1;fill-rule:nonzero;stroke:none"
         id="path317" />
    </g>
  </g>
</svg>
