<?xml version="1.0" encoding="utf-8"?>
<!-- Generator: Adobe Illustrator 21.0.0, SVG Export Plug-In . SVG Version: 6.00 Build 0)  -->
<!DOCTYPE svg PUBLIC "-//W3C//DTD SVG 1.1//EN" "http://www.w3.org/Graphics/SVG/1.1/DTD/svg11.dtd">
<svg version="1.1" xmlns="http://www.w3.org/2000/svg" xmlns:xlink="http://www.w3.org/1999/xlink" x="0px" y="0px"
	 viewBox="0 0 283.465 283.632" enable-background="new 0 0 283.465 283.632" xml:space="preserve">
<g id="bkg" display="none">
</g>
<g id="picto">
	<rect x="-0.118" y="0.084" fill="#F092CD" width="283.582" height="283.582"/>
	<g>
		<path fill="#FFFFFF" d="M245.197,141.816c0,9.11-8.46,15.618-19.847,15.618c-0.325,0-9.11-0.326-15.617-6.507l-13.34,32.211
			c8.785,0.325,15.292,6.507,15.617,6.832c8.134,8.134,9.11,18.546,2.929,24.728c-6.507,6.507-16.919,5.206-25.053-2.603
			c-0.326-0.326-6.507-6.507-6.833-15.943l-31.885,13.34c6.182,6.832,6.182,15.617,6.182,15.943
			c0,11.388-6.507,19.847-15.617,19.847s-15.618-8.459-15.618-19.847c0-0.326,0-9.11,6.507-15.943l-32.536-13.34
			c0,9.435-6.182,15.617-6.507,15.943c-8.134,7.809-18.546,9.11-25.053,2.603c-6.507-6.182-5.206-16.594,2.929-24.728
			c0.325-0.325,6.507-6.507,15.617-6.832l-13.34-32.211c-6.507,6.182-15.292,6.507-15.618,6.507
			c-11.713,0-19.847-6.507-19.847-15.618c0-9.11,8.134-15.617,19.847-15.617c0.326,0,9.11,0,15.618,6.182l13.34-31.885
			c-9.11-0.651-15.292-6.507-15.617-6.832c-8.134-8.134-9.436-18.546-2.929-25.053s16.919-5.206,25.053,2.928
			c0.326,0.326,6.507,6.507,6.507,15.618l32.536-13.34c-6.507-6.507-6.507-15.292-6.507-15.617c0-11.713,6.507-19.847,15.618-19.847
			s15.617,8.134,15.617,19.847c0,0.325,0,9.11-6.182,15.617l31.885,13.34c0.326-9.11,6.507-15.292,6.833-15.618
			c8.134-8.134,18.546-9.435,25.053-2.928c6.182,6.507,5.206,16.919-2.929,25.053c-0.325,0.325-6.832,6.182-15.617,6.832
			l13.34,31.885c6.507-6.182,15.292-6.182,15.617-6.182C236.737,126.199,245.197,132.706,245.197,141.816z M69.828,141.816
			c-3.904-6.507-11.388-6.832-11.713-6.832c-6.507,0-10.737,2.928-10.737,6.832c0,3.905,4.229,6.507,10.737,6.507
			C58.44,148.323,65.924,147.998,69.828,141.816z M77.961,87.156c0.326,0.325,5.532,5.531,13.015,3.904
			c1.627-7.483-3.579-12.689-3.904-13.34c-4.23-4.23-9.435-5.532-12.363-2.603C72.105,77.72,73.407,82.926,77.961,87.156z
			 M90.976,192.572c-7.483-1.952-12.689,3.254-13.015,3.579c-4.555,4.555-5.856,9.76-3.253,12.363
			c2.928,2.603,8.134,1.627,12.363-2.928C87.397,205.261,92.928,199.73,90.976,192.572z M185.656,185.414l17.895-43.598
			l-17.895-43.924l-43.924-18.22l-43.924,18.22l-18.22,43.924l18.22,43.598l43.924,18.22L185.656,185.414z M135.225,58.199
			c0,0.325,0,7.809,6.507,11.713c6.182-3.904,6.507-11.388,6.507-11.713c0-6.507-2.603-10.737-6.507-10.737
			S135.225,51.691,135.225,58.199z M148.24,225.434c0-0.326-0.326-8.134-6.507-11.713c-6.507,3.579-6.507,11.387-6.507,11.713
			c0,6.182,2.603,10.737,6.507,10.737S148.24,231.615,148.24,225.434z M192.489,91.06c7.158,1.627,12.689-3.579,13.014-3.904
			c4.555-4.23,5.857-9.435,2.929-12.038c-2.603-2.929-7.809-1.627-12.364,2.603C195.742,78.371,190.862,83.577,192.489,91.06z
			 M205.503,196.151c-0.325-0.326-5.856-5.531-13.014-3.579c-1.627,7.158,3.253,12.689,3.579,13.015
			c4.555,4.555,9.761,5.531,12.364,2.928C211.359,205.912,210.058,200.706,205.503,196.151z M236.087,141.816
			c0-3.904-4.555-6.832-10.737-6.832c-0.325,0-7.809,0.326-11.713,6.832c3.904,6.182,11.388,6.507,11.713,6.507
			C231.532,148.323,236.087,145.721,236.087,141.816z"/>
	</g>
</g>
</svg>
