<svg aria-hidden="true" style="position: absolute; width: 0; height: 0;" width="0" height="0" version="1.1" xmlns="http://www.w3.org/2000/svg" xmlns:xlink="http://www.w3.org/1999/xlink">
	<defs>
		<symbol id="icon" viewBox="0 0 1024 1024" xmlns="http://www.w3.org/2000/svg" xmlns:xlink="http://www.w3.org/1999/xlink">
			<path class="path1" d="M954.633 86.277v761.906c0 26.050-16.282 40.702-34.189 45.586l-48.841 8.139v102.563c0 11.397-9.765 19.536-22.791 19.536h-78.142c-9.768 0-21.162-8.139-21.162-19.536v-91.169c-61.868 8.139-151.407 11.397-239.321 11.397-86.285 0-172.566-3.255-236.059-11.397v91.169c0 11.397-9.768 19.536-19.536 19.536h-78.146c-13.023 0-22.791-8.139-22.791-19.536v-102.563l-48.841-8.139c-16.282-4.884-34.189-21.166-34.189-45.586v-761.906c0-34.189 22.791-56.98 61.868-61.864 128.609-17.911 245.827-24.421 380.953-24.421 130.242 0 249.086 8.139 379.327 24.421 39.069 4.884 61.86 27.675 61.86 61.864zM884.63 138.373c0-21.166-8.139-35.818-34.189-35.818l-672.366-3.255c-26.050 0-35.818 14.652-35.818 35.814v475.38c0 21.162 9.768 30.93 35.818 35.814 94.424 21.166 213.268 35.814 338.625 35.814 118.844 0 240.947-16.282 333.741-32.559 26.050-3.255 34.189-14.652 34.189-35.814v-475.376zM254.588 779.806c0-21.162-19.533-40.698-42.324-40.698-22.795 0-42.328 19.536-43.957 40.698 0 22.795 19.536 42.328 43.957 43.957 22.791 0 42.324-19.536 42.324-43.957zM848.812 779.806c0-21.162-19.533-40.698-42.328-40.698-21.162 0-40.695 19.536-42.324 40.698 0 22.795 19.533 42.328 42.324 43.957 22.795 0 42.328-19.536 42.328-43.957z"></path>
		</symbol>
	</defs>
</svg>