<svg version="1.1" viewBox="0 0 20 20" xmlns="http://www.w3.org/2000/svg">
<g fill="none" fill-rule="evenodd">
<g transform="translate(-77 -393)">
<g transform="translate(60 378)">
<g transform="translate(17 15)">
<circle cx="10" cy="10" r="10" fill="#F092CD"/>
<path d="m14.642 8.7061c0.055594 0.18531 0.018532 0.38916-0.12972 0.53741l-1.779 1.8531 0.3521 2.5388c0.018531 0.20385-0.055594 0.40769-0.22238 0.51888-0.16678 0.11119-0.37063 0.12972-0.55594 0.055594l-2.3164-1.1304-2.3164 1.1304c-0.074126 0.037063-0.14825 0.037063-0.22238 0.037063-0.11119 0-0.22238-0.018531-0.31503-0.092657-0.16678-0.11119-0.25944-0.31503-0.22238-0.51888l0.33357-2.5388-1.7605-1.8531c-0.14825-0.14825-0.18531-0.3521-0.12972-0.53741 0.055594-0.20385 0.22238-0.33357 0.42622-0.37063l2.5203-0.46329 1.2231-2.2608c0.092657-0.18531 0.27797-0.27797 0.46329-0.27797 0.20385 0 0.38916 0.092657 0.48182 0.27797l1.2231 2.2608 2.5203 0.46329c0.20385 0.037063 0.3521 0.16678 0.42622 0.37063z" fill="#fff"/>
</g>
</g>
</g>
</g>
</svg>
