<svg viewBox="0 0 1024 1024" xmlns="http://www.w3.org/2000/svg" xmlns:xlink="http://www.w3.org/1999/xlink">
	<path class="path1" d="M773.086 227.057c7.42 17.81 11.871 43.039 11.871 62.33v534.271c0 26.711-19.291 43.039-44.524 47.49-83.106 16.325-154.341 22.26-228.545 22.26-77.174 0-146.924-5.935-227.064-22.26-26.714-4.454-44.524-20.779-44.524-47.49v-534.271c0-19.294 0-44.524 7.42-62.33l25.226-60.845c8.905-17.81 19.294-25.23 40.073-31.165 59.364-16.325 108.339-22.26 169.184-23.745v-51.944h-108.339c-17.81 0-31.165-13.359-31.165-28.199 0-17.81 13.355-31.165 31.165-31.165h279.004c14.84 0 26.714 13.355 26.714 31.165 0 14.84-11.874 28.199-26.714 28.199h-109.824v51.944c59.364 1.481 105.373 7.42 169.184 23.745 17.81 4.454 28.196 13.355 35.616 31.165l25.241 60.845zM718.173 966.128c13.359 0 28.203 13.355 28.203 26.711 0 19.294-14.84 31.165-28.203 31.165h-411.088c-16.325 0-26.714-11.874-26.714-31.165 0-13.355 10.39-26.711 26.714-26.711h44.524v-44.524l54.91 7.42v37.104h212.224v-37.1l54.914-7.42v44.524h44.517zM363.479 737.579c0-20.776-14.84-37.104-35.616-37.104-19.291 0-34.131 16.325-34.131 37.104 0 19.294 14.84 32.65 34.131 32.65 20.776 0 35.616-13.355 35.616-32.65zM295.21 638.145c59.364 14.84 139.504 26.714 216.678 26.714 78.655 0 158.795-10.39 215.19-26.714v-360.629h-431.867v360.629zM737.471 737.579c0-20.776-16.325-37.104-37.104-37.104-19.291 0-32.653 16.325-32.653 37.104 0 19.294 13.359 32.65 32.653 32.65 20.776 0 37.104-13.355 37.104-32.65z"></path>
</svg>